%FSLAX45Y45*%
G04 Gerber Fmt 4.5, Leading zero omitted, Abs format (unit mm)*
G04 Created by KiCad (PCBNEW (6.0.6)) date 2022-07-10 20:55:02*
%MOMM*%
%LPD*%
G01*
G04 APERTURE LIST*
%TA.AperFunction,Profile*%
%ADD10C,0.100000*%
%TD*%
%ADD11C,0.200000*%
%ADD12C,0.170180*%
%ADD13C,0.304800*%
%ADD14C,0.398780*%
G04 APERTURE END LIST*
D10*
X4330700Y-15836900D02*
X32905700Y-15836900D01*
X33143825Y-15598775D02*
X33143825Y-6073775D01*
X4092570Y-15598775D02*
G75*
G03*
X4330700Y-15836900I238130J5D01*
G01*
X33143820Y-6073775D02*
G75*
G03*
X32905700Y-5835650I-238130J-5D01*
G01*
X32905700Y-5835650D02*
X4330700Y-5835650D01*
X32905700Y-15836905D02*
G75*
G03*
X33143825Y-15598775I0J238125D01*
G01*
X4330700Y-5835650D02*
G75*
G03*
X4092575Y-6073775I0J-238125D01*
G01*
X4092575Y-6073775D02*
X4092575Y-15598775D01*
D11*
D12*
X4690110Y-6941185D02*
X4860290Y-7111365D01*
X4860290Y-6941185D02*
X4690110Y-7111365D01*
X4928235Y-14561185D02*
X5098415Y-14731365D01*
X5098415Y-14561185D02*
X4928235Y-14731365D01*
X5166360Y-8846185D02*
X5336540Y-9016365D01*
X5336540Y-8846185D02*
X5166360Y-9016365D01*
X5404485Y-10751185D02*
X5574665Y-10921365D01*
X5574665Y-10751185D02*
X5404485Y-10921365D01*
X5706110Y-6941185D02*
X5876290Y-7111365D01*
X5876290Y-6941185D02*
X5706110Y-7111365D01*
X5880735Y-12656185D02*
X6050915Y-12826365D01*
X6050915Y-12656185D02*
X5880735Y-12826365D01*
X5944235Y-14561185D02*
X6114415Y-14731365D01*
X6114415Y-14561185D02*
X5944235Y-14731365D01*
X6182360Y-8846185D02*
X6352540Y-9016365D01*
X6352540Y-8846185D02*
X6182360Y-9016365D01*
X6420485Y-10751185D02*
X6590665Y-10921365D01*
X6590665Y-10751185D02*
X6420485Y-10921365D01*
X6595110Y-6941185D02*
X6765290Y-7111365D01*
X6765290Y-6941185D02*
X6595110Y-7111365D01*
X6896735Y-12656185D02*
X7066915Y-12826365D01*
X7066915Y-12656185D02*
X6896735Y-12826365D01*
X7309485Y-14561185D02*
X7479665Y-14731365D01*
X7479665Y-14561185D02*
X7309485Y-14731365D01*
X7547610Y-8846185D02*
X7717790Y-9016365D01*
X7717790Y-8846185D02*
X7547610Y-9016365D01*
X7611110Y-6941185D02*
X7781290Y-7111365D01*
X7781290Y-6941185D02*
X7611110Y-7111365D01*
X8023860Y-10751185D02*
X8194040Y-10921365D01*
X8194040Y-10751185D02*
X8023860Y-10921365D01*
X8325485Y-14561185D02*
X8495665Y-14731365D01*
X8495665Y-14561185D02*
X8325485Y-14731365D01*
X8500110Y-6941185D02*
X8670290Y-7111365D01*
X8670290Y-6941185D02*
X8500110Y-7111365D01*
X8563610Y-8846185D02*
X8733790Y-9016365D01*
X8733790Y-8846185D02*
X8563610Y-9016365D01*
X8976360Y-12656185D02*
X9146540Y-12826365D01*
X9146540Y-12656185D02*
X8976360Y-12826365D01*
X9039860Y-10751185D02*
X9210040Y-10921365D01*
X9210040Y-10751185D02*
X9039860Y-10921365D01*
X9452610Y-8846185D02*
X9622790Y-9016365D01*
X9622790Y-8846185D02*
X9452610Y-9016365D01*
X9516110Y-6941185D02*
X9686290Y-7111365D01*
X9686290Y-6941185D02*
X9516110Y-7111365D01*
X9690735Y-14561185D02*
X9860915Y-14731365D01*
X9860915Y-14561185D02*
X9690735Y-14731365D01*
X9928860Y-10751185D02*
X10099040Y-10921365D01*
X10099040Y-10751185D02*
X9928860Y-10921365D01*
X9992360Y-12656185D02*
X10162540Y-12826365D01*
X10162540Y-12656185D02*
X9992360Y-12826365D01*
X10405110Y-6941185D02*
X10575290Y-7111365D01*
X10575290Y-6941185D02*
X10405110Y-7111365D01*
X10468610Y-8846185D02*
X10638790Y-9016365D01*
X10638790Y-8846185D02*
X10468610Y-9016365D01*
X10706735Y-14561185D02*
X10876915Y-14731365D01*
X10876915Y-14561185D02*
X10706735Y-14731365D01*
X10881360Y-12656185D02*
X11051540Y-12826365D01*
X11051540Y-12656185D02*
X10881360Y-12826365D01*
X10944860Y-10751185D02*
X11115040Y-10921365D01*
X11115040Y-10751185D02*
X10944860Y-10921365D01*
X11357610Y-8846185D02*
X11527790Y-9016365D01*
X11527790Y-8846185D02*
X11357610Y-9016365D01*
X11421110Y-6941185D02*
X11591290Y-7111365D01*
X11591290Y-6941185D02*
X11421110Y-7111365D01*
X11833860Y-10751185D02*
X12004040Y-10921365D01*
X12004040Y-10751185D02*
X11833860Y-10921365D01*
X11897360Y-12656185D02*
X12067540Y-12826365D01*
X12067540Y-12656185D02*
X11897360Y-12826365D01*
X12310110Y-6941185D02*
X12480290Y-7111365D01*
X12480290Y-6941185D02*
X12310110Y-7111365D01*
X12373610Y-8846185D02*
X12543790Y-9016365D01*
X12543790Y-8846185D02*
X12373610Y-9016365D01*
X12786360Y-12656185D02*
X12956540Y-12826365D01*
X12956540Y-12656185D02*
X12786360Y-12826365D01*
X12849860Y-10751185D02*
X13020040Y-10921365D01*
X13020040Y-10751185D02*
X12849860Y-10921365D01*
X13262610Y-8846185D02*
X13432790Y-9016365D01*
X13432790Y-8846185D02*
X13262610Y-9016365D01*
X13326110Y-6941185D02*
X13496290Y-7111365D01*
X13496290Y-6941185D02*
X13326110Y-7111365D01*
X13736910Y-10744910D02*
X13907090Y-10915090D01*
X13907090Y-10744910D02*
X13736910Y-10915090D01*
X13802360Y-12656185D02*
X13972540Y-12826365D01*
X13972540Y-12656185D02*
X13802360Y-12826365D01*
X14215110Y-6941185D02*
X14385290Y-7111365D01*
X14385290Y-6941185D02*
X14215110Y-7111365D01*
X14278610Y-8846185D02*
X14448790Y-9016365D01*
X14448790Y-8846185D02*
X14278610Y-9016365D01*
X14691360Y-12656185D02*
X14861540Y-12826365D01*
X14861540Y-12656185D02*
X14691360Y-12826365D01*
X14752910Y-10744910D02*
X14923090Y-10915090D01*
X14923090Y-10744910D02*
X14752910Y-10915090D01*
X15167610Y-8846185D02*
X15337790Y-9016365D01*
X15337790Y-8846185D02*
X15167610Y-9016365D01*
X15231110Y-6941185D02*
X15401290Y-7111365D01*
X15401290Y-6941185D02*
X15231110Y-7111365D01*
X15643860Y-10751185D02*
X15814040Y-10921365D01*
X15814040Y-10751185D02*
X15643860Y-10921365D01*
X15707360Y-12656185D02*
X15877540Y-12826365D01*
X15877540Y-12656185D02*
X15707360Y-12826365D01*
X16120110Y-6941185D02*
X16290290Y-7111365D01*
X16290290Y-6941185D02*
X16120110Y-7111365D01*
X16183610Y-8846185D02*
X16353790Y-9016365D01*
X16353790Y-8846185D02*
X16183610Y-9016365D01*
X16596360Y-12656185D02*
X16766540Y-12826365D01*
X16766540Y-12656185D02*
X16596360Y-12826365D01*
X16659860Y-10751185D02*
X16830040Y-10921365D01*
X16830040Y-10751185D02*
X16659860Y-10921365D01*
X16834485Y-14561185D02*
X17004665Y-14731365D01*
X17004665Y-14561185D02*
X16834485Y-14731365D01*
X17072610Y-8843010D02*
X17242790Y-9013190D01*
X17242790Y-8843010D02*
X17072610Y-9013190D01*
X17136110Y-6941185D02*
X17306290Y-7111365D01*
X17306290Y-6941185D02*
X17136110Y-7111365D01*
X17548860Y-10751185D02*
X17719040Y-10921365D01*
X17719040Y-10751185D02*
X17548860Y-10921365D01*
X17612360Y-12656185D02*
X17782540Y-12826365D01*
X17782540Y-12656185D02*
X17612360Y-12826365D01*
X17850485Y-14561185D02*
X18020665Y-14731365D01*
X18020665Y-14561185D02*
X17850485Y-14731365D01*
X18025110Y-6941185D02*
X18195290Y-7111365D01*
X18195290Y-6941185D02*
X18025110Y-7111365D01*
X18088610Y-8843010D02*
X18258790Y-9013190D01*
X18258790Y-8843010D02*
X18088610Y-9013190D01*
X18501360Y-12656185D02*
X18671540Y-12826365D01*
X18671540Y-12656185D02*
X18501360Y-12826365D01*
X18564860Y-10751185D02*
X18735040Y-10921365D01*
X18735040Y-10751185D02*
X18564860Y-10921365D01*
X18977610Y-8846185D02*
X19147790Y-9016365D01*
X19147790Y-8846185D02*
X18977610Y-9016365D01*
X19041110Y-6941185D02*
X19211290Y-7111365D01*
X19211290Y-6941185D02*
X19041110Y-7111365D01*
X19453860Y-10751185D02*
X19624040Y-10921365D01*
X19624040Y-10751185D02*
X19453860Y-10921365D01*
X19517360Y-12656185D02*
X19687540Y-12826365D01*
X19687540Y-12656185D02*
X19517360Y-12826365D01*
X19930110Y-6941185D02*
X20100290Y-7111365D01*
X20100290Y-6941185D02*
X19930110Y-7111365D01*
X19993610Y-8846185D02*
X20163790Y-9016365D01*
X20163790Y-8846185D02*
X19993610Y-9016365D01*
X20406360Y-12656185D02*
X20576540Y-12826365D01*
X20576540Y-12656185D02*
X20406360Y-12826365D01*
X20469860Y-10751185D02*
X20640040Y-10921365D01*
X20640040Y-10751185D02*
X20469860Y-10921365D01*
X20946110Y-6941185D02*
X21116290Y-7111365D01*
X21116290Y-6941185D02*
X20946110Y-7111365D01*
X21358860Y-10751185D02*
X21529040Y-10921365D01*
X21529040Y-10751185D02*
X21358860Y-10921365D01*
X21422360Y-12656185D02*
X21592540Y-12826365D01*
X21592540Y-12656185D02*
X21422360Y-12826365D01*
X21796910Y-8599910D02*
X21967090Y-8770090D01*
X21967090Y-8599910D02*
X21796910Y-8770090D01*
X21835110Y-6941185D02*
X22005290Y-7111365D01*
X22005290Y-6941185D02*
X21835110Y-7111365D01*
X22311360Y-12656185D02*
X22481540Y-12826365D01*
X22481540Y-12656185D02*
X22311360Y-12826365D01*
X22374860Y-10751185D02*
X22545040Y-10921365D01*
X22545040Y-10751185D02*
X22374860Y-10921365D01*
X22787610Y-8846185D02*
X22957790Y-9016365D01*
X22957790Y-8846185D02*
X22787610Y-9016365D01*
X22812910Y-8599910D02*
X22983090Y-8770090D01*
X22983090Y-8599910D02*
X22812910Y-8770090D01*
X22851110Y-6941185D02*
X23021290Y-7111365D01*
X23021290Y-6941185D02*
X22851110Y-7111365D01*
X23263860Y-10751185D02*
X23434040Y-10921365D01*
X23434040Y-10751185D02*
X23263860Y-10921365D01*
X23327360Y-12656185D02*
X23497540Y-12826365D01*
X23497540Y-12656185D02*
X23327360Y-12826365D01*
X23740110Y-6941185D02*
X23910290Y-7111365D01*
X23910290Y-6941185D02*
X23740110Y-7111365D01*
X23803610Y-8846185D02*
X23973790Y-9016365D01*
X23973790Y-8846185D02*
X23803610Y-9016365D01*
X23978235Y-14561185D02*
X24148415Y-14731365D01*
X24148415Y-14561185D02*
X23978235Y-14731365D01*
X24216360Y-12656185D02*
X24386540Y-12826365D01*
X24386540Y-12656185D02*
X24216360Y-12826365D01*
X24279860Y-10751185D02*
X24450040Y-10921365D01*
X24450040Y-10751185D02*
X24279860Y-10921365D01*
X24692610Y-8846185D02*
X24862790Y-9016365D01*
X24862790Y-8846185D02*
X24692610Y-9016365D01*
X24756110Y-6941185D02*
X24926290Y-7111365D01*
X24926290Y-6941185D02*
X24756110Y-7111365D01*
X24994235Y-14561185D02*
X25164415Y-14731365D01*
X25164415Y-14561185D02*
X24994235Y-14731365D01*
X25168860Y-10751185D02*
X25339040Y-10921365D01*
X25339040Y-10751185D02*
X25168860Y-10921365D01*
X25232360Y-12656185D02*
X25402540Y-12826365D01*
X25402540Y-12656185D02*
X25232360Y-12826365D01*
X25645110Y-6941185D02*
X25815290Y-7111365D01*
X25815290Y-6941185D02*
X25645110Y-7111365D01*
X25708610Y-8846185D02*
X25878790Y-9016365D01*
X25878790Y-8846185D02*
X25708610Y-9016365D01*
X26121360Y-12656185D02*
X26291540Y-12826365D01*
X26291540Y-12656185D02*
X26121360Y-12826365D01*
X26184860Y-10751185D02*
X26355040Y-10921365D01*
X26355040Y-10751185D02*
X26184860Y-10921365D01*
X26359485Y-14561185D02*
X26529665Y-14731365D01*
X26529665Y-14561185D02*
X26359485Y-14731365D01*
X26597610Y-8846185D02*
X26767790Y-9016365D01*
X26767790Y-8846185D02*
X26597610Y-9016365D01*
X26661110Y-6941185D02*
X26831290Y-7111365D01*
X26831290Y-6941185D02*
X26661110Y-7111365D01*
X27073860Y-10751185D02*
X27244040Y-10921365D01*
X27244040Y-10751185D02*
X27073860Y-10921365D01*
X27137360Y-12656185D02*
X27307540Y-12826365D01*
X27307540Y-12656185D02*
X27137360Y-12826365D01*
X27375485Y-14561185D02*
X27545665Y-14731365D01*
X27545665Y-14561185D02*
X27375485Y-14731365D01*
X27550110Y-6941185D02*
X27720290Y-7111365D01*
X27720290Y-6941185D02*
X27550110Y-7111365D01*
X27613610Y-8846185D02*
X27783790Y-9016365D01*
X27783790Y-8846185D02*
X27613610Y-9016365D01*
X28089860Y-10751185D02*
X28260040Y-10921365D01*
X28260040Y-10751185D02*
X28089860Y-10921365D01*
X28502610Y-8846185D02*
X28672790Y-9016365D01*
X28672790Y-8846185D02*
X28502610Y-9016365D01*
X28566110Y-6941185D02*
X28736290Y-7111365D01*
X28736290Y-6941185D02*
X28566110Y-7111365D01*
X28740735Y-14561185D02*
X28910915Y-14731365D01*
X28910915Y-14561185D02*
X28740735Y-14731365D01*
X29518610Y-8846185D02*
X29688790Y-9016365D01*
X29688790Y-8846185D02*
X29518610Y-9016365D01*
X29693235Y-12656185D02*
X29863415Y-12826365D01*
X29863415Y-12656185D02*
X29693235Y-12826365D01*
X29756735Y-14561185D02*
X29926915Y-14731365D01*
X29926915Y-14561185D02*
X29756735Y-14731365D01*
X30169485Y-10751185D02*
X30339665Y-10921365D01*
X30339665Y-10751185D02*
X30169485Y-10921365D01*
X30407610Y-6941185D02*
X30577790Y-7111365D01*
X30577790Y-6941185D02*
X30407610Y-7111365D01*
X30709235Y-12656185D02*
X30879415Y-12826365D01*
X30879415Y-12656185D02*
X30709235Y-12826365D01*
X30883860Y-8846185D02*
X31054040Y-9016365D01*
X31054040Y-8846185D02*
X30883860Y-9016365D01*
X31121985Y-14561185D02*
X31292165Y-14731365D01*
X31292165Y-14561185D02*
X31121985Y-14731365D01*
X31185485Y-10751185D02*
X31355665Y-10921365D01*
X31355665Y-10751185D02*
X31185485Y-10921365D01*
X31423610Y-6941185D02*
X31593790Y-7111365D01*
X31593790Y-6941185D02*
X31423610Y-7111365D01*
X31899860Y-8846185D02*
X32070040Y-9016365D01*
X32070040Y-8846185D02*
X31899860Y-9016365D01*
X32137985Y-14561185D02*
X32308165Y-14731365D01*
X32308165Y-14561185D02*
X32137985Y-14731365D01*
D13*
X5432425Y-12042775D02*
G75*
G03*
X5432425Y-12042775I-152400J0D01*
G01*
X7820025Y-12042775D02*
G75*
G03*
X7820025Y-12042775I-152400J0D01*
G01*
X12576175Y-13947775D02*
G75*
G03*
X12576175Y-13947775I-152400J0D01*
G01*
X22583775Y-13947775D02*
G75*
G03*
X22583775Y-13947775I-152400J0D01*
G01*
X29244925Y-12042775D02*
G75*
G03*
X29244925Y-12042775I-152400J0D01*
G01*
X29721175Y-10137775D02*
G75*
G03*
X29721175Y-10137775I-152400J0D01*
G01*
X29959300Y-6327775D02*
G75*
G03*
X29959300Y-6327775I-152400J0D01*
G01*
X31632525Y-12042775D02*
G75*
G03*
X31632525Y-12042775I-152400J0D01*
G01*
X32108775Y-10137775D02*
G75*
G03*
X32108775Y-10137775I-152400J0D01*
G01*
X32346900Y-6327775D02*
G75*
G03*
X32346900Y-6327775I-152400J0D01*
G01*
D14*
X5280025Y-13367385D02*
X5280025Y-13766165D01*
X5080635Y-13566775D02*
X5479415Y-13566775D01*
X5283200Y-6826885D02*
X5283200Y-7225665D01*
X5083810Y-7026275D02*
X5482590Y-7026275D01*
X5521325Y-14446885D02*
X5521325Y-14845665D01*
X5321935Y-14646275D02*
X5720715Y-14646275D01*
X5759450Y-8731885D02*
X5759450Y-9130665D01*
X5560060Y-8931275D02*
X5958840Y-8931275D01*
X5997575Y-10636885D02*
X5997575Y-11035665D01*
X5798185Y-10836275D02*
X6196965Y-10836275D01*
X6473825Y-12541885D02*
X6473825Y-12940665D01*
X6274435Y-12741275D02*
X6673215Y-12741275D01*
X7188200Y-6826885D02*
X7188200Y-7225665D01*
X6988810Y-7026275D02*
X7387590Y-7026275D01*
X7667625Y-13367385D02*
X7667625Y-13766165D01*
X7468235Y-13566775D02*
X7867015Y-13566775D01*
X7902575Y-14446885D02*
X7902575Y-14845665D01*
X7703185Y-14646275D02*
X8101965Y-14646275D01*
X8140700Y-8731885D02*
X8140700Y-9130665D01*
X7941310Y-8931275D02*
X8340090Y-8931275D01*
X8616950Y-10636885D02*
X8616950Y-11035665D01*
X8417560Y-10836275D02*
X8816340Y-10836275D01*
X9093200Y-6826885D02*
X9093200Y-7225665D01*
X8893810Y-7026275D02*
X9292590Y-7026275D01*
X9569450Y-12541885D02*
X9569450Y-12940665D01*
X9370060Y-12741275D02*
X9768840Y-12741275D01*
X10045700Y-8731885D02*
X10045700Y-9130665D01*
X9846310Y-8931275D02*
X10245090Y-8931275D01*
X10283825Y-14446885D02*
X10283825Y-14845665D01*
X10084435Y-14646275D02*
X10483215Y-14646275D01*
X10521950Y-10636885D02*
X10521950Y-11035665D01*
X10322560Y-10836275D02*
X10721340Y-10836275D01*
X10998200Y-6826885D02*
X10998200Y-7225665D01*
X10798810Y-7026275D02*
X11197590Y-7026275D01*
X11474450Y-12541885D02*
X11474450Y-12940665D01*
X11275060Y-12741275D02*
X11673840Y-12741275D01*
X11950700Y-8731885D02*
X11950700Y-9130665D01*
X11751310Y-8931275D02*
X12150090Y-8931275D01*
X12423775Y-15272385D02*
X12423775Y-15671165D01*
X12224385Y-15471775D02*
X12623165Y-15471775D01*
X12426950Y-10636885D02*
X12426950Y-11035665D01*
X12227560Y-10836275D02*
X12626340Y-10836275D01*
X12903200Y-6826885D02*
X12903200Y-7225665D01*
X12703810Y-7026275D02*
X13102590Y-7026275D01*
X13379450Y-12541885D02*
X13379450Y-12940665D01*
X13180060Y-12741275D02*
X13578840Y-12741275D01*
X13855700Y-8731885D02*
X13855700Y-9130665D01*
X13656310Y-8931275D02*
X14055090Y-8931275D01*
X14330000Y-10630610D02*
X14330000Y-11029390D01*
X14130610Y-10830000D02*
X14529390Y-10830000D01*
X14808200Y-6826885D02*
X14808200Y-7225665D01*
X14608810Y-7026275D02*
X15007590Y-7026275D01*
X15284450Y-12541885D02*
X15284450Y-12940665D01*
X15085060Y-12741275D02*
X15483840Y-12741275D01*
X15760700Y-8731885D02*
X15760700Y-9130665D01*
X15561310Y-8931275D02*
X15960090Y-8931275D01*
X16236950Y-10636885D02*
X16236950Y-11035665D01*
X16037560Y-10836275D02*
X16436340Y-10836275D01*
X16713200Y-6826885D02*
X16713200Y-7225665D01*
X16513810Y-7026275D02*
X16912590Y-7026275D01*
X17189450Y-12541885D02*
X17189450Y-12940665D01*
X16990060Y-12741275D02*
X17388840Y-12741275D01*
X17427575Y-14446885D02*
X17427575Y-14845665D01*
X17228185Y-14646275D02*
X17626965Y-14646275D01*
X17665700Y-8728710D02*
X17665700Y-9127490D01*
X17466310Y-8928100D02*
X17865090Y-8928100D01*
X18141950Y-10636885D02*
X18141950Y-11035665D01*
X17942560Y-10836275D02*
X18341340Y-10836275D01*
X18618200Y-6826885D02*
X18618200Y-7225665D01*
X18418810Y-7026275D02*
X18817590Y-7026275D01*
X19094450Y-12541885D02*
X19094450Y-12940665D01*
X18895060Y-12741275D02*
X19293840Y-12741275D01*
X19570700Y-8731885D02*
X19570700Y-9130665D01*
X19371310Y-8931275D02*
X19770090Y-8931275D01*
X20046950Y-10636885D02*
X20046950Y-11035665D01*
X19847560Y-10836275D02*
X20246340Y-10836275D01*
X20523200Y-6826885D02*
X20523200Y-7225665D01*
X20323810Y-7026275D02*
X20722590Y-7026275D01*
X20999450Y-12541885D02*
X20999450Y-12940665D01*
X20800060Y-12741275D02*
X21198840Y-12741275D01*
X21951950Y-10636885D02*
X21951950Y-11035665D01*
X21752560Y-10836275D02*
X22151340Y-10836275D01*
X22390000Y-8485610D02*
X22390000Y-8884390D01*
X22190610Y-8685000D02*
X22589390Y-8685000D01*
X22428200Y-6826885D02*
X22428200Y-7225665D01*
X22228810Y-7026275D02*
X22627590Y-7026275D01*
X22431375Y-15272385D02*
X22431375Y-15671165D01*
X22231985Y-15471775D02*
X22630765Y-15471775D01*
X22904450Y-12541885D02*
X22904450Y-12940665D01*
X22705060Y-12741275D02*
X23103840Y-12741275D01*
X23380700Y-8731885D02*
X23380700Y-9130665D01*
X23181310Y-8931275D02*
X23580090Y-8931275D01*
X23856950Y-10636885D02*
X23856950Y-11035665D01*
X23657560Y-10836275D02*
X24056340Y-10836275D01*
X24333200Y-6826885D02*
X24333200Y-7225665D01*
X24133810Y-7026275D02*
X24532590Y-7026275D01*
X24571325Y-14446885D02*
X24571325Y-14845665D01*
X24371935Y-14646275D02*
X24770715Y-14646275D01*
X24809450Y-12541885D02*
X24809450Y-12940665D01*
X24610060Y-12741275D02*
X25008840Y-12741275D01*
X25285700Y-8731885D02*
X25285700Y-9130665D01*
X25086310Y-8931275D02*
X25485090Y-8931275D01*
X25761950Y-10636885D02*
X25761950Y-11035665D01*
X25562560Y-10836275D02*
X25961340Y-10836275D01*
X26238200Y-6826885D02*
X26238200Y-7225665D01*
X26038810Y-7026275D02*
X26437590Y-7026275D01*
X26714450Y-12541885D02*
X26714450Y-12940665D01*
X26515060Y-12741275D02*
X26913840Y-12741275D01*
X26952575Y-14446885D02*
X26952575Y-14845665D01*
X26753185Y-14646275D02*
X27151965Y-14646275D01*
X27190700Y-8731885D02*
X27190700Y-9130665D01*
X26991310Y-8931275D02*
X27390090Y-8931275D01*
X27666950Y-10636885D02*
X27666950Y-11035665D01*
X27467560Y-10836275D02*
X27866340Y-10836275D01*
X28143200Y-6826885D02*
X28143200Y-7225665D01*
X27943810Y-7026275D02*
X28342590Y-7026275D01*
X29092525Y-13367385D02*
X29092525Y-13766165D01*
X28893135Y-13566775D02*
X29291915Y-13566775D01*
X29095700Y-8731885D02*
X29095700Y-9130665D01*
X28896310Y-8931275D02*
X29295090Y-8931275D01*
X29333825Y-14446885D02*
X29333825Y-14845665D01*
X29134435Y-14646275D02*
X29533215Y-14646275D01*
X29568775Y-11462385D02*
X29568775Y-11861165D01*
X29369385Y-11661775D02*
X29768165Y-11661775D01*
X29806900Y-7652385D02*
X29806900Y-8051165D01*
X29607510Y-7851775D02*
X30006290Y-7851775D01*
X30286325Y-12541885D02*
X30286325Y-12940665D01*
X30086935Y-12741275D02*
X30485715Y-12741275D01*
X30762575Y-10636885D02*
X30762575Y-11035665D01*
X30563185Y-10836275D02*
X30961965Y-10836275D01*
X31000700Y-6826885D02*
X31000700Y-7225665D01*
X30801310Y-7026275D02*
X31200090Y-7026275D01*
X31476950Y-8731885D02*
X31476950Y-9130665D01*
X31277560Y-8931275D02*
X31676340Y-8931275D01*
X31480125Y-13367385D02*
X31480125Y-13766165D01*
X31280735Y-13566775D02*
X31679515Y-13566775D01*
X31715075Y-14446885D02*
X31715075Y-14845665D01*
X31515685Y-14646275D02*
X31914465Y-14646275D01*
X31956375Y-11462385D02*
X31956375Y-11861165D01*
X31756985Y-11661775D02*
X32155765Y-11661775D01*
X32194500Y-7652385D02*
X32194500Y-8051165D01*
X31995110Y-7851775D02*
X32393890Y-7851775D01*
D11*
X4345194Y-16152376D02*
X4345194Y-15952376D01*
X4392813Y-15952376D01*
X4421385Y-15961900D01*
X4440432Y-15980948D01*
X4449956Y-15999995D01*
X4459480Y-16038090D01*
X4459480Y-16066662D01*
X4449956Y-16104757D01*
X4440432Y-16123805D01*
X4421385Y-16142852D01*
X4392813Y-16152376D01*
X4345194Y-16152376D01*
X4545194Y-16152376D02*
X4545194Y-16019043D01*
X4545194Y-16057138D02*
X4554718Y-16038090D01*
X4564242Y-16028567D01*
X4583289Y-16019043D01*
X4602337Y-16019043D01*
X4669004Y-16152376D02*
X4669004Y-16019043D01*
X4669004Y-15952376D02*
X4659480Y-15961900D01*
X4669004Y-15971424D01*
X4678527Y-15961900D01*
X4669004Y-15952376D01*
X4669004Y-15971424D01*
X4792813Y-16152376D02*
X4773765Y-16142852D01*
X4764242Y-16123805D01*
X4764242Y-15952376D01*
X4897575Y-16152376D02*
X4878527Y-16142852D01*
X4869004Y-16123805D01*
X4869004Y-15952376D01*
X5126146Y-16152376D02*
X5126146Y-15952376D01*
X5192813Y-16095233D01*
X5259480Y-15952376D01*
X5259480Y-16152376D01*
X5440432Y-16152376D02*
X5440432Y-16047614D01*
X5430908Y-16028567D01*
X5411861Y-16019043D01*
X5373765Y-16019043D01*
X5354718Y-16028567D01*
X5440432Y-16142852D02*
X5421385Y-16152376D01*
X5373765Y-16152376D01*
X5354718Y-16142852D01*
X5345194Y-16123805D01*
X5345194Y-16104757D01*
X5354718Y-16085709D01*
X5373765Y-16076186D01*
X5421385Y-16076186D01*
X5440432Y-16066662D01*
X5535670Y-16019043D02*
X5535670Y-16219043D01*
X5535670Y-16028567D02*
X5554718Y-16019043D01*
X5592813Y-16019043D01*
X5611861Y-16028567D01*
X5621384Y-16038090D01*
X5630908Y-16057138D01*
X5630908Y-16114281D01*
X5621384Y-16133328D01*
X5611861Y-16142852D01*
X5592813Y-16152376D01*
X5554718Y-16152376D01*
X5535670Y-16142852D01*
X5716623Y-16133328D02*
X5726146Y-16142852D01*
X5716623Y-16152376D01*
X5707099Y-16142852D01*
X5716623Y-16133328D01*
X5716623Y-16152376D01*
X5716623Y-16028567D02*
X5726146Y-16038090D01*
X5716623Y-16047614D01*
X5707099Y-16038090D01*
X5716623Y-16028567D01*
X5716623Y-16047614D01*
D12*
X3917395Y-16396810D02*
X4087575Y-16566990D01*
X4087575Y-16396810D02*
X3917395Y-16566990D01*
D11*
X4449956Y-16572376D02*
X4335670Y-16572376D01*
X4392813Y-16572376D02*
X4392813Y-16372376D01*
X4373765Y-16400948D01*
X4354718Y-16419995D01*
X4335670Y-16429519D01*
X4535670Y-16553328D02*
X4545194Y-16562852D01*
X4535670Y-16572376D01*
X4526146Y-16562852D01*
X4535670Y-16553328D01*
X4535670Y-16572376D01*
X4611861Y-16372376D02*
X4745194Y-16372376D01*
X4659480Y-16572376D01*
X4859480Y-16372376D02*
X4878527Y-16372376D01*
X4897575Y-16381900D01*
X4907099Y-16391424D01*
X4916623Y-16410471D01*
X4926146Y-16448567D01*
X4926146Y-16496186D01*
X4916623Y-16534281D01*
X4907099Y-16553328D01*
X4897575Y-16562852D01*
X4878527Y-16572376D01*
X4859480Y-16572376D01*
X4840432Y-16562852D01*
X4830908Y-16553328D01*
X4821385Y-16534281D01*
X4811861Y-16496186D01*
X4811861Y-16448567D01*
X4821385Y-16410471D01*
X4830908Y-16391424D01*
X4840432Y-16381900D01*
X4859480Y-16372376D01*
X5002337Y-16391424D02*
X5011861Y-16381900D01*
X5030908Y-16372376D01*
X5078527Y-16372376D01*
X5097575Y-16381900D01*
X5107099Y-16391424D01*
X5116623Y-16410471D01*
X5116623Y-16429519D01*
X5107099Y-16458090D01*
X4992813Y-16572376D01*
X5116623Y-16572376D01*
X5202337Y-16572376D02*
X5202337Y-16439043D01*
X5202337Y-16458090D02*
X5211861Y-16448567D01*
X5230908Y-16439043D01*
X5259480Y-16439043D01*
X5278527Y-16448567D01*
X5288051Y-16467614D01*
X5288051Y-16572376D01*
X5288051Y-16467614D02*
X5297575Y-16448567D01*
X5316623Y-16439043D01*
X5345194Y-16439043D01*
X5364242Y-16448567D01*
X5373765Y-16467614D01*
X5373765Y-16572376D01*
X5469004Y-16572376D02*
X5469004Y-16439043D01*
X5469004Y-16458090D02*
X5478527Y-16448567D01*
X5497575Y-16439043D01*
X5526146Y-16439043D01*
X5545194Y-16448567D01*
X5554718Y-16467614D01*
X5554718Y-16572376D01*
X5554718Y-16467614D02*
X5564242Y-16448567D01*
X5583289Y-16439043D01*
X5611861Y-16439043D01*
X5630908Y-16448567D01*
X5640432Y-16467614D01*
X5640432Y-16572376D01*
X6030908Y-16362852D02*
X5859480Y-16619995D01*
X6288051Y-16372376D02*
X6307099Y-16372376D01*
X6326146Y-16381900D01*
X6335670Y-16391424D01*
X6345194Y-16410471D01*
X6354718Y-16448567D01*
X6354718Y-16496186D01*
X6345194Y-16534281D01*
X6335670Y-16553328D01*
X6326146Y-16562852D01*
X6307099Y-16572376D01*
X6288051Y-16572376D01*
X6269003Y-16562852D01*
X6259480Y-16553328D01*
X6249956Y-16534281D01*
X6240432Y-16496186D01*
X6240432Y-16448567D01*
X6249956Y-16410471D01*
X6259480Y-16391424D01*
X6269003Y-16381900D01*
X6288051Y-16372376D01*
X6440432Y-16553328D02*
X6449956Y-16562852D01*
X6440432Y-16572376D01*
X6430908Y-16562852D01*
X6440432Y-16553328D01*
X6440432Y-16572376D01*
X6573765Y-16372376D02*
X6592813Y-16372376D01*
X6611861Y-16381900D01*
X6621384Y-16391424D01*
X6630908Y-16410471D01*
X6640432Y-16448567D01*
X6640432Y-16496186D01*
X6630908Y-16534281D01*
X6621384Y-16553328D01*
X6611861Y-16562852D01*
X6592813Y-16572376D01*
X6573765Y-16572376D01*
X6554718Y-16562852D01*
X6545194Y-16553328D01*
X6535670Y-16534281D01*
X6526146Y-16496186D01*
X6526146Y-16448567D01*
X6535670Y-16410471D01*
X6545194Y-16391424D01*
X6554718Y-16381900D01*
X6573765Y-16372376D01*
X6811861Y-16372376D02*
X6773765Y-16372376D01*
X6754718Y-16381900D01*
X6745194Y-16391424D01*
X6726146Y-16419995D01*
X6716623Y-16458090D01*
X6716623Y-16534281D01*
X6726146Y-16553328D01*
X6735670Y-16562852D01*
X6754718Y-16572376D01*
X6792813Y-16572376D01*
X6811861Y-16562852D01*
X6821384Y-16553328D01*
X6830908Y-16534281D01*
X6830908Y-16486662D01*
X6821384Y-16467614D01*
X6811861Y-16458090D01*
X6792813Y-16448567D01*
X6754718Y-16448567D01*
X6735670Y-16458090D01*
X6726146Y-16467614D01*
X6716623Y-16486662D01*
X6897575Y-16372376D02*
X7030908Y-16372376D01*
X6945194Y-16572376D01*
X7145194Y-16372376D02*
X7164242Y-16372376D01*
X7183289Y-16381900D01*
X7192813Y-16391424D01*
X7202337Y-16410471D01*
X7211861Y-16448567D01*
X7211861Y-16496186D01*
X7202337Y-16534281D01*
X7192813Y-16553328D01*
X7183289Y-16562852D01*
X7164242Y-16572376D01*
X7145194Y-16572376D01*
X7126146Y-16562852D01*
X7116623Y-16553328D01*
X7107099Y-16534281D01*
X7097575Y-16496186D01*
X7097575Y-16448567D01*
X7107099Y-16410471D01*
X7116623Y-16391424D01*
X7126146Y-16381900D01*
X7145194Y-16372376D01*
X7288051Y-16372376D02*
X7288051Y-16410471D01*
X7364242Y-16372376D02*
X7364242Y-16410471D01*
X7659480Y-16648567D02*
X7649956Y-16639043D01*
X7630908Y-16610471D01*
X7621384Y-16591424D01*
X7611861Y-16562852D01*
X7602337Y-16515233D01*
X7602337Y-16477138D01*
X7611861Y-16429519D01*
X7621384Y-16400948D01*
X7630908Y-16381900D01*
X7649956Y-16353328D01*
X7659480Y-16343805D01*
X7840432Y-16572376D02*
X7726146Y-16572376D01*
X7783289Y-16572376D02*
X7783289Y-16372376D01*
X7764242Y-16400948D01*
X7745194Y-16419995D01*
X7726146Y-16429519D01*
X7916623Y-16391424D02*
X7926146Y-16381900D01*
X7945194Y-16372376D01*
X7992813Y-16372376D01*
X8011861Y-16381900D01*
X8021384Y-16391424D01*
X8030908Y-16410471D01*
X8030908Y-16429519D01*
X8021384Y-16458090D01*
X7907099Y-16572376D01*
X8030908Y-16572376D01*
X8107099Y-16391424D02*
X8116623Y-16381900D01*
X8135670Y-16372376D01*
X8183289Y-16372376D01*
X8202337Y-16381900D01*
X8211861Y-16391424D01*
X8221384Y-16410471D01*
X8221384Y-16429519D01*
X8211861Y-16458090D01*
X8097575Y-16572376D01*
X8221384Y-16572376D01*
X8459480Y-16572376D02*
X8459480Y-16372376D01*
X8545194Y-16572376D02*
X8545194Y-16467614D01*
X8535670Y-16448567D01*
X8516623Y-16439043D01*
X8488051Y-16439043D01*
X8469004Y-16448567D01*
X8459480Y-16458090D01*
X8669004Y-16572376D02*
X8649956Y-16562852D01*
X8640432Y-16553328D01*
X8630908Y-16534281D01*
X8630908Y-16477138D01*
X8640432Y-16458090D01*
X8649956Y-16448567D01*
X8669004Y-16439043D01*
X8697575Y-16439043D01*
X8716623Y-16448567D01*
X8726146Y-16458090D01*
X8735670Y-16477138D01*
X8735670Y-16534281D01*
X8726146Y-16553328D01*
X8716623Y-16562852D01*
X8697575Y-16572376D01*
X8669004Y-16572376D01*
X8849956Y-16572376D02*
X8830908Y-16562852D01*
X8821385Y-16543805D01*
X8821385Y-16372376D01*
X9002337Y-16562852D02*
X8983289Y-16572376D01*
X8945194Y-16572376D01*
X8926146Y-16562852D01*
X8916623Y-16543805D01*
X8916623Y-16467614D01*
X8926146Y-16448567D01*
X8945194Y-16439043D01*
X8983289Y-16439043D01*
X9002337Y-16448567D01*
X9011861Y-16467614D01*
X9011861Y-16486662D01*
X8916623Y-16505709D01*
X9088051Y-16562852D02*
X9107099Y-16572376D01*
X9145194Y-16572376D01*
X9164242Y-16562852D01*
X9173765Y-16543805D01*
X9173765Y-16534281D01*
X9164242Y-16515233D01*
X9145194Y-16505709D01*
X9116623Y-16505709D01*
X9097575Y-16496186D01*
X9088051Y-16477138D01*
X9088051Y-16467614D01*
X9097575Y-16448567D01*
X9116623Y-16439043D01*
X9145194Y-16439043D01*
X9164242Y-16448567D01*
X9240432Y-16648567D02*
X9249956Y-16639043D01*
X9269004Y-16610471D01*
X9278527Y-16591424D01*
X9288051Y-16562852D01*
X9297575Y-16515233D01*
X9297575Y-16477138D01*
X9288051Y-16429519D01*
X9278527Y-16400948D01*
X9269004Y-16381900D01*
X9249956Y-16353328D01*
X9240432Y-16343805D01*
X9602337Y-16648567D02*
X9592813Y-16639043D01*
X9573765Y-16610471D01*
X9564242Y-16591424D01*
X9554718Y-16562852D01*
X9545194Y-16515233D01*
X9545194Y-16477138D01*
X9554718Y-16429519D01*
X9564242Y-16400948D01*
X9573765Y-16381900D01*
X9592813Y-16353328D01*
X9602337Y-16343805D01*
X9678527Y-16439043D02*
X9678527Y-16572376D01*
X9678527Y-16458090D02*
X9688051Y-16448567D01*
X9707099Y-16439043D01*
X9735670Y-16439043D01*
X9754718Y-16448567D01*
X9764242Y-16467614D01*
X9764242Y-16572376D01*
X9888051Y-16572376D02*
X9869004Y-16562852D01*
X9859480Y-16553328D01*
X9849956Y-16534281D01*
X9849956Y-16477138D01*
X9859480Y-16458090D01*
X9869004Y-16448567D01*
X9888051Y-16439043D01*
X9916623Y-16439043D01*
X9935670Y-16448567D01*
X9945194Y-16458090D01*
X9954718Y-16477138D01*
X9954718Y-16534281D01*
X9945194Y-16553328D01*
X9935670Y-16562852D01*
X9916623Y-16572376D01*
X9888051Y-16572376D01*
X10011861Y-16439043D02*
X10088051Y-16439043D01*
X10040432Y-16372376D02*
X10040432Y-16543805D01*
X10049956Y-16562852D01*
X10069004Y-16572376D01*
X10088051Y-16572376D01*
X10307099Y-16439043D02*
X10307099Y-16639043D01*
X10307099Y-16448567D02*
X10326146Y-16439043D01*
X10364242Y-16439043D01*
X10383289Y-16448567D01*
X10392813Y-16458090D01*
X10402337Y-16477138D01*
X10402337Y-16534281D01*
X10392813Y-16553328D01*
X10383289Y-16562852D01*
X10364242Y-16572376D01*
X10326146Y-16572376D01*
X10307099Y-16562852D01*
X10516623Y-16572376D02*
X10497575Y-16562852D01*
X10488051Y-16543805D01*
X10488051Y-16372376D01*
X10678527Y-16572376D02*
X10678527Y-16467614D01*
X10669004Y-16448567D01*
X10649956Y-16439043D01*
X10611861Y-16439043D01*
X10592813Y-16448567D01*
X10678527Y-16562852D02*
X10659480Y-16572376D01*
X10611861Y-16572376D01*
X10592813Y-16562852D01*
X10583289Y-16543805D01*
X10583289Y-16524757D01*
X10592813Y-16505709D01*
X10611861Y-16496186D01*
X10659480Y-16496186D01*
X10678527Y-16486662D01*
X10745194Y-16439043D02*
X10821385Y-16439043D01*
X10773765Y-16372376D02*
X10773765Y-16543805D01*
X10783289Y-16562852D01*
X10802337Y-16572376D01*
X10821385Y-16572376D01*
X10964242Y-16562852D02*
X10945194Y-16572376D01*
X10907099Y-16572376D01*
X10888051Y-16562852D01*
X10878527Y-16543805D01*
X10878527Y-16467614D01*
X10888051Y-16448567D01*
X10907099Y-16439043D01*
X10945194Y-16439043D01*
X10964242Y-16448567D01*
X10973765Y-16467614D01*
X10973765Y-16486662D01*
X10878527Y-16505709D01*
X11145194Y-16572376D02*
X11145194Y-16372376D01*
X11145194Y-16562852D02*
X11126146Y-16572376D01*
X11088051Y-16572376D01*
X11069004Y-16562852D01*
X11059480Y-16553328D01*
X11049956Y-16534281D01*
X11049956Y-16477138D01*
X11059480Y-16458090D01*
X11069004Y-16448567D01*
X11088051Y-16439043D01*
X11126146Y-16439043D01*
X11145194Y-16448567D01*
X11221384Y-16648567D02*
X11230908Y-16639043D01*
X11249956Y-16610471D01*
X11259480Y-16591424D01*
X11269003Y-16562852D01*
X11278527Y-16515233D01*
X11278527Y-16477138D01*
X11269003Y-16429519D01*
X11259480Y-16400948D01*
X11249956Y-16381900D01*
X11230908Y-16353328D01*
X11221384Y-16343805D01*
X4087575Y-16772080D02*
G75*
G03*
X4087575Y-16772080I-100000J0D01*
G01*
X4326146Y-16662556D02*
X4449956Y-16662556D01*
X4383289Y-16738747D01*
X4411861Y-16738747D01*
X4430908Y-16748270D01*
X4440432Y-16757794D01*
X4449956Y-16776842D01*
X4449956Y-16824461D01*
X4440432Y-16843509D01*
X4430908Y-16853032D01*
X4411861Y-16862556D01*
X4354718Y-16862556D01*
X4335670Y-16853032D01*
X4326146Y-16843509D01*
X4535670Y-16843509D02*
X4545194Y-16853032D01*
X4535670Y-16862556D01*
X4526146Y-16853032D01*
X4535670Y-16843509D01*
X4535670Y-16862556D01*
X4669004Y-16662556D02*
X4688051Y-16662556D01*
X4707099Y-16672080D01*
X4716623Y-16681604D01*
X4726146Y-16700651D01*
X4735670Y-16738747D01*
X4735670Y-16786366D01*
X4726146Y-16824461D01*
X4716623Y-16843509D01*
X4707099Y-16853032D01*
X4688051Y-16862556D01*
X4669004Y-16862556D01*
X4649956Y-16853032D01*
X4640432Y-16843509D01*
X4630908Y-16824461D01*
X4621385Y-16786366D01*
X4621385Y-16738747D01*
X4630908Y-16700651D01*
X4640432Y-16681604D01*
X4649956Y-16672080D01*
X4669004Y-16662556D01*
X4907099Y-16729223D02*
X4907099Y-16862556D01*
X4859480Y-16653032D02*
X4811861Y-16795890D01*
X4935670Y-16795890D01*
X5040432Y-16748270D02*
X5021385Y-16738747D01*
X5011861Y-16729223D01*
X5002337Y-16710175D01*
X5002337Y-16700651D01*
X5011861Y-16681604D01*
X5021385Y-16672080D01*
X5040432Y-16662556D01*
X5078527Y-16662556D01*
X5097575Y-16672080D01*
X5107099Y-16681604D01*
X5116623Y-16700651D01*
X5116623Y-16710175D01*
X5107099Y-16729223D01*
X5097575Y-16738747D01*
X5078527Y-16748270D01*
X5040432Y-16748270D01*
X5021385Y-16757794D01*
X5011861Y-16767318D01*
X5002337Y-16786366D01*
X5002337Y-16824461D01*
X5011861Y-16843509D01*
X5021385Y-16853032D01*
X5040432Y-16862556D01*
X5078527Y-16862556D01*
X5097575Y-16853032D01*
X5107099Y-16843509D01*
X5116623Y-16824461D01*
X5116623Y-16786366D01*
X5107099Y-16767318D01*
X5097575Y-16757794D01*
X5078527Y-16748270D01*
X5202337Y-16862556D02*
X5202337Y-16729223D01*
X5202337Y-16748270D02*
X5211861Y-16738747D01*
X5230908Y-16729223D01*
X5259480Y-16729223D01*
X5278527Y-16738747D01*
X5288051Y-16757794D01*
X5288051Y-16862556D01*
X5288051Y-16757794D02*
X5297575Y-16738747D01*
X5316623Y-16729223D01*
X5345194Y-16729223D01*
X5364242Y-16738747D01*
X5373765Y-16757794D01*
X5373765Y-16862556D01*
X5469004Y-16862556D02*
X5469004Y-16729223D01*
X5469004Y-16748270D02*
X5478527Y-16738747D01*
X5497575Y-16729223D01*
X5526146Y-16729223D01*
X5545194Y-16738747D01*
X5554718Y-16757794D01*
X5554718Y-16862556D01*
X5554718Y-16757794D02*
X5564242Y-16738747D01*
X5583289Y-16729223D01*
X5611861Y-16729223D01*
X5630908Y-16738747D01*
X5640432Y-16757794D01*
X5640432Y-16862556D01*
X6030908Y-16653032D02*
X5859480Y-16910175D01*
X6288051Y-16662556D02*
X6307099Y-16662556D01*
X6326146Y-16672080D01*
X6335670Y-16681604D01*
X6345194Y-16700651D01*
X6354718Y-16738747D01*
X6354718Y-16786366D01*
X6345194Y-16824461D01*
X6335670Y-16843509D01*
X6326146Y-16853032D01*
X6307099Y-16862556D01*
X6288051Y-16862556D01*
X6269003Y-16853032D01*
X6259480Y-16843509D01*
X6249956Y-16824461D01*
X6240432Y-16786366D01*
X6240432Y-16738747D01*
X6249956Y-16700651D01*
X6259480Y-16681604D01*
X6269003Y-16672080D01*
X6288051Y-16662556D01*
X6440432Y-16843509D02*
X6449956Y-16853032D01*
X6440432Y-16862556D01*
X6430908Y-16853032D01*
X6440432Y-16843509D01*
X6440432Y-16862556D01*
X6640432Y-16862556D02*
X6526146Y-16862556D01*
X6583289Y-16862556D02*
X6583289Y-16662556D01*
X6564242Y-16691128D01*
X6545194Y-16710175D01*
X6526146Y-16719699D01*
X6716623Y-16681604D02*
X6726146Y-16672080D01*
X6745194Y-16662556D01*
X6792813Y-16662556D01*
X6811861Y-16672080D01*
X6821384Y-16681604D01*
X6830908Y-16700651D01*
X6830908Y-16719699D01*
X6821384Y-16748270D01*
X6707099Y-16862556D01*
X6830908Y-16862556D01*
X6954718Y-16662556D02*
X6973765Y-16662556D01*
X6992813Y-16672080D01*
X7002337Y-16681604D01*
X7011861Y-16700651D01*
X7021384Y-16738747D01*
X7021384Y-16786366D01*
X7011861Y-16824461D01*
X7002337Y-16843509D01*
X6992813Y-16853032D01*
X6973765Y-16862556D01*
X6954718Y-16862556D01*
X6935670Y-16853032D01*
X6926146Y-16843509D01*
X6916623Y-16824461D01*
X6907099Y-16786366D01*
X6907099Y-16738747D01*
X6916623Y-16700651D01*
X6926146Y-16681604D01*
X6935670Y-16672080D01*
X6954718Y-16662556D01*
X7145194Y-16662556D02*
X7164242Y-16662556D01*
X7183289Y-16672080D01*
X7192813Y-16681604D01*
X7202337Y-16700651D01*
X7211861Y-16738747D01*
X7211861Y-16786366D01*
X7202337Y-16824461D01*
X7192813Y-16843509D01*
X7183289Y-16853032D01*
X7164242Y-16862556D01*
X7145194Y-16862556D01*
X7126146Y-16853032D01*
X7116623Y-16843509D01*
X7107099Y-16824461D01*
X7097575Y-16786366D01*
X7097575Y-16738747D01*
X7107099Y-16700651D01*
X7116623Y-16681604D01*
X7126146Y-16672080D01*
X7145194Y-16662556D01*
X7288051Y-16662556D02*
X7288051Y-16700651D01*
X7364242Y-16662556D02*
X7364242Y-16700651D01*
X7659480Y-16938747D02*
X7649956Y-16929223D01*
X7630908Y-16900651D01*
X7621384Y-16881604D01*
X7611861Y-16853032D01*
X7602337Y-16805413D01*
X7602337Y-16767318D01*
X7611861Y-16719699D01*
X7621384Y-16691128D01*
X7630908Y-16672080D01*
X7649956Y-16643508D01*
X7659480Y-16633985D01*
X7840432Y-16862556D02*
X7726146Y-16862556D01*
X7783289Y-16862556D02*
X7783289Y-16662556D01*
X7764242Y-16691128D01*
X7745194Y-16710175D01*
X7726146Y-16719699D01*
X7964242Y-16662556D02*
X7983289Y-16662556D01*
X8002337Y-16672080D01*
X8011861Y-16681604D01*
X8021384Y-16700651D01*
X8030908Y-16738747D01*
X8030908Y-16786366D01*
X8021384Y-16824461D01*
X8011861Y-16843509D01*
X8002337Y-16853032D01*
X7983289Y-16862556D01*
X7964242Y-16862556D01*
X7945194Y-16853032D01*
X7935670Y-16843509D01*
X7926146Y-16824461D01*
X7916623Y-16786366D01*
X7916623Y-16738747D01*
X7926146Y-16700651D01*
X7935670Y-16681604D01*
X7945194Y-16672080D01*
X7964242Y-16662556D01*
X8269003Y-16862556D02*
X8269003Y-16662556D01*
X8354718Y-16862556D02*
X8354718Y-16757794D01*
X8345194Y-16738747D01*
X8326146Y-16729223D01*
X8297575Y-16729223D01*
X8278527Y-16738747D01*
X8269003Y-16748270D01*
X8478527Y-16862556D02*
X8459480Y-16853032D01*
X8449956Y-16843509D01*
X8440432Y-16824461D01*
X8440432Y-16767318D01*
X8449956Y-16748270D01*
X8459480Y-16738747D01*
X8478527Y-16729223D01*
X8507099Y-16729223D01*
X8526146Y-16738747D01*
X8535670Y-16748270D01*
X8545194Y-16767318D01*
X8545194Y-16824461D01*
X8535670Y-16843509D01*
X8526146Y-16853032D01*
X8507099Y-16862556D01*
X8478527Y-16862556D01*
X8659480Y-16862556D02*
X8640432Y-16853032D01*
X8630908Y-16833985D01*
X8630908Y-16662556D01*
X8811861Y-16853032D02*
X8792813Y-16862556D01*
X8754718Y-16862556D01*
X8735670Y-16853032D01*
X8726146Y-16833985D01*
X8726146Y-16757794D01*
X8735670Y-16738747D01*
X8754718Y-16729223D01*
X8792813Y-16729223D01*
X8811861Y-16738747D01*
X8821385Y-16757794D01*
X8821385Y-16776842D01*
X8726146Y-16795890D01*
X8897575Y-16853032D02*
X8916623Y-16862556D01*
X8954718Y-16862556D01*
X8973765Y-16853032D01*
X8983289Y-16833985D01*
X8983289Y-16824461D01*
X8973765Y-16805413D01*
X8954718Y-16795890D01*
X8926146Y-16795890D01*
X8907099Y-16786366D01*
X8897575Y-16767318D01*
X8897575Y-16757794D01*
X8907099Y-16738747D01*
X8926146Y-16729223D01*
X8954718Y-16729223D01*
X8973765Y-16738747D01*
X9049956Y-16938747D02*
X9059480Y-16929223D01*
X9078527Y-16900651D01*
X9088051Y-16881604D01*
X9097575Y-16853032D01*
X9107099Y-16805413D01*
X9107099Y-16767318D01*
X9097575Y-16719699D01*
X9088051Y-16691128D01*
X9078527Y-16672080D01*
X9059480Y-16643508D01*
X9049956Y-16633985D01*
X9411861Y-16938747D02*
X9402337Y-16929223D01*
X9383289Y-16900651D01*
X9373765Y-16881604D01*
X9364242Y-16853032D01*
X9354718Y-16805413D01*
X9354718Y-16767318D01*
X9364242Y-16719699D01*
X9373765Y-16691128D01*
X9383289Y-16672080D01*
X9402337Y-16643508D01*
X9411861Y-16633985D01*
X9488051Y-16729223D02*
X9488051Y-16862556D01*
X9488051Y-16748270D02*
X9497575Y-16738747D01*
X9516623Y-16729223D01*
X9545194Y-16729223D01*
X9564242Y-16738747D01*
X9573765Y-16757794D01*
X9573765Y-16862556D01*
X9697575Y-16862556D02*
X9678527Y-16853032D01*
X9669004Y-16843509D01*
X9659480Y-16824461D01*
X9659480Y-16767318D01*
X9669004Y-16748270D01*
X9678527Y-16738747D01*
X9697575Y-16729223D01*
X9726146Y-16729223D01*
X9745194Y-16738747D01*
X9754718Y-16748270D01*
X9764242Y-16767318D01*
X9764242Y-16824461D01*
X9754718Y-16843509D01*
X9745194Y-16853032D01*
X9726146Y-16862556D01*
X9697575Y-16862556D01*
X9821385Y-16729223D02*
X9897575Y-16729223D01*
X9849956Y-16662556D02*
X9849956Y-16833985D01*
X9859480Y-16853032D01*
X9878527Y-16862556D01*
X9897575Y-16862556D01*
X10116623Y-16729223D02*
X10116623Y-16929223D01*
X10116623Y-16738747D02*
X10135670Y-16729223D01*
X10173765Y-16729223D01*
X10192813Y-16738747D01*
X10202337Y-16748270D01*
X10211861Y-16767318D01*
X10211861Y-16824461D01*
X10202337Y-16843509D01*
X10192813Y-16853032D01*
X10173765Y-16862556D01*
X10135670Y-16862556D01*
X10116623Y-16853032D01*
X10326146Y-16862556D02*
X10307099Y-16853032D01*
X10297575Y-16833985D01*
X10297575Y-16662556D01*
X10488051Y-16862556D02*
X10488051Y-16757794D01*
X10478527Y-16738747D01*
X10459480Y-16729223D01*
X10421385Y-16729223D01*
X10402337Y-16738747D01*
X10488051Y-16853032D02*
X10469004Y-16862556D01*
X10421385Y-16862556D01*
X10402337Y-16853032D01*
X10392813Y-16833985D01*
X10392813Y-16814937D01*
X10402337Y-16795890D01*
X10421385Y-16786366D01*
X10469004Y-16786366D01*
X10488051Y-16776842D01*
X10554718Y-16729223D02*
X10630908Y-16729223D01*
X10583289Y-16662556D02*
X10583289Y-16833985D01*
X10592813Y-16853032D01*
X10611861Y-16862556D01*
X10630908Y-16862556D01*
X10773765Y-16853032D02*
X10754718Y-16862556D01*
X10716623Y-16862556D01*
X10697575Y-16853032D01*
X10688051Y-16833985D01*
X10688051Y-16757794D01*
X10697575Y-16738747D01*
X10716623Y-16729223D01*
X10754718Y-16729223D01*
X10773765Y-16738747D01*
X10783289Y-16757794D01*
X10783289Y-16776842D01*
X10688051Y-16795890D01*
X10954718Y-16862556D02*
X10954718Y-16662556D01*
X10954718Y-16853032D02*
X10935670Y-16862556D01*
X10897575Y-16862556D01*
X10878527Y-16853032D01*
X10869004Y-16843509D01*
X10859480Y-16824461D01*
X10859480Y-16767318D01*
X10869004Y-16748270D01*
X10878527Y-16738747D01*
X10897575Y-16729223D01*
X10935670Y-16729223D01*
X10954718Y-16738747D01*
X11030908Y-16938747D02*
X11040432Y-16929223D01*
X11059480Y-16900651D01*
X11069004Y-16881604D01*
X11078527Y-16853032D01*
X11088051Y-16805413D01*
X11088051Y-16767318D01*
X11078527Y-16719699D01*
X11069004Y-16691128D01*
X11059480Y-16672080D01*
X11040432Y-16643508D01*
X11030908Y-16633985D01*
X3987575Y-16992080D02*
X3987575Y-17192080D01*
X3887575Y-17092080D02*
X4087575Y-17092080D01*
X4326146Y-16982556D02*
X4449956Y-16982556D01*
X4383289Y-17058747D01*
X4411861Y-17058747D01*
X4430908Y-17068270D01*
X4440432Y-17077794D01*
X4449956Y-17096842D01*
X4449956Y-17144461D01*
X4440432Y-17163509D01*
X4430908Y-17173032D01*
X4411861Y-17182556D01*
X4354718Y-17182556D01*
X4335670Y-17173032D01*
X4326146Y-17163509D01*
X4535670Y-17163509D02*
X4545194Y-17173032D01*
X4535670Y-17182556D01*
X4526146Y-17173032D01*
X4535670Y-17163509D01*
X4535670Y-17182556D01*
X4640432Y-17182556D02*
X4678527Y-17182556D01*
X4697575Y-17173032D01*
X4707099Y-17163509D01*
X4726146Y-17134937D01*
X4735670Y-17096842D01*
X4735670Y-17020651D01*
X4726146Y-17001604D01*
X4716623Y-16992080D01*
X4697575Y-16982556D01*
X4659480Y-16982556D01*
X4640432Y-16992080D01*
X4630908Y-17001604D01*
X4621385Y-17020651D01*
X4621385Y-17068270D01*
X4630908Y-17087318D01*
X4640432Y-17096842D01*
X4659480Y-17106366D01*
X4697575Y-17106366D01*
X4716623Y-17096842D01*
X4726146Y-17087318D01*
X4735670Y-17068270D01*
X4849956Y-17068270D02*
X4830908Y-17058747D01*
X4821385Y-17049223D01*
X4811861Y-17030175D01*
X4811861Y-17020651D01*
X4821385Y-17001604D01*
X4830908Y-16992080D01*
X4849956Y-16982556D01*
X4888051Y-16982556D01*
X4907099Y-16992080D01*
X4916623Y-17001604D01*
X4926146Y-17020651D01*
X4926146Y-17030175D01*
X4916623Y-17049223D01*
X4907099Y-17058747D01*
X4888051Y-17068270D01*
X4849956Y-17068270D01*
X4830908Y-17077794D01*
X4821385Y-17087318D01*
X4811861Y-17106366D01*
X4811861Y-17144461D01*
X4821385Y-17163509D01*
X4830908Y-17173032D01*
X4849956Y-17182556D01*
X4888051Y-17182556D01*
X4907099Y-17173032D01*
X4916623Y-17163509D01*
X4926146Y-17144461D01*
X4926146Y-17106366D01*
X4916623Y-17087318D01*
X4907099Y-17077794D01*
X4888051Y-17068270D01*
X5040432Y-17068270D02*
X5021385Y-17058747D01*
X5011861Y-17049223D01*
X5002337Y-17030175D01*
X5002337Y-17020651D01*
X5011861Y-17001604D01*
X5021385Y-16992080D01*
X5040432Y-16982556D01*
X5078527Y-16982556D01*
X5097575Y-16992080D01*
X5107099Y-17001604D01*
X5116623Y-17020651D01*
X5116623Y-17030175D01*
X5107099Y-17049223D01*
X5097575Y-17058747D01*
X5078527Y-17068270D01*
X5040432Y-17068270D01*
X5021385Y-17077794D01*
X5011861Y-17087318D01*
X5002337Y-17106366D01*
X5002337Y-17144461D01*
X5011861Y-17163509D01*
X5021385Y-17173032D01*
X5040432Y-17182556D01*
X5078527Y-17182556D01*
X5097575Y-17173032D01*
X5107099Y-17163509D01*
X5116623Y-17144461D01*
X5116623Y-17106366D01*
X5107099Y-17087318D01*
X5097575Y-17077794D01*
X5078527Y-17068270D01*
X5202337Y-17182556D02*
X5202337Y-17049223D01*
X5202337Y-17068270D02*
X5211861Y-17058747D01*
X5230908Y-17049223D01*
X5259480Y-17049223D01*
X5278527Y-17058747D01*
X5288051Y-17077794D01*
X5288051Y-17182556D01*
X5288051Y-17077794D02*
X5297575Y-17058747D01*
X5316623Y-17049223D01*
X5345194Y-17049223D01*
X5364242Y-17058747D01*
X5373765Y-17077794D01*
X5373765Y-17182556D01*
X5469004Y-17182556D02*
X5469004Y-17049223D01*
X5469004Y-17068270D02*
X5478527Y-17058747D01*
X5497575Y-17049223D01*
X5526146Y-17049223D01*
X5545194Y-17058747D01*
X5554718Y-17077794D01*
X5554718Y-17182556D01*
X5554718Y-17077794D02*
X5564242Y-17058747D01*
X5583289Y-17049223D01*
X5611861Y-17049223D01*
X5630908Y-17058747D01*
X5640432Y-17077794D01*
X5640432Y-17182556D01*
X6030908Y-16973032D02*
X5859480Y-17230175D01*
X6288051Y-16982556D02*
X6307099Y-16982556D01*
X6326146Y-16992080D01*
X6335670Y-17001604D01*
X6345194Y-17020651D01*
X6354718Y-17058747D01*
X6354718Y-17106366D01*
X6345194Y-17144461D01*
X6335670Y-17163509D01*
X6326146Y-17173032D01*
X6307099Y-17182556D01*
X6288051Y-17182556D01*
X6269003Y-17173032D01*
X6259480Y-17163509D01*
X6249956Y-17144461D01*
X6240432Y-17106366D01*
X6240432Y-17058747D01*
X6249956Y-17020651D01*
X6259480Y-17001604D01*
X6269003Y-16992080D01*
X6288051Y-16982556D01*
X6440432Y-17163509D02*
X6449956Y-17173032D01*
X6440432Y-17182556D01*
X6430908Y-17173032D01*
X6440432Y-17163509D01*
X6440432Y-17182556D01*
X6640432Y-17182556D02*
X6526146Y-17182556D01*
X6583289Y-17182556D02*
X6583289Y-16982556D01*
X6564242Y-17011128D01*
X6545194Y-17030175D01*
X6526146Y-17039699D01*
X6821384Y-16982556D02*
X6726146Y-16982556D01*
X6716623Y-17077794D01*
X6726146Y-17068270D01*
X6745194Y-17058747D01*
X6792813Y-17058747D01*
X6811861Y-17068270D01*
X6821384Y-17077794D01*
X6830908Y-17096842D01*
X6830908Y-17144461D01*
X6821384Y-17163509D01*
X6811861Y-17173032D01*
X6792813Y-17182556D01*
X6745194Y-17182556D01*
X6726146Y-17173032D01*
X6716623Y-17163509D01*
X6897575Y-16982556D02*
X7030908Y-16982556D01*
X6945194Y-17182556D01*
X7145194Y-16982556D02*
X7164242Y-16982556D01*
X7183289Y-16992080D01*
X7192813Y-17001604D01*
X7202337Y-17020651D01*
X7211861Y-17058747D01*
X7211861Y-17106366D01*
X7202337Y-17144461D01*
X7192813Y-17163509D01*
X7183289Y-17173032D01*
X7164242Y-17182556D01*
X7145194Y-17182556D01*
X7126146Y-17173032D01*
X7116623Y-17163509D01*
X7107099Y-17144461D01*
X7097575Y-17106366D01*
X7097575Y-17058747D01*
X7107099Y-17020651D01*
X7116623Y-17001604D01*
X7126146Y-16992080D01*
X7145194Y-16982556D01*
X7288051Y-16982556D02*
X7288051Y-17020651D01*
X7364242Y-16982556D02*
X7364242Y-17020651D01*
X7659480Y-17258747D02*
X7649956Y-17249223D01*
X7630908Y-17220651D01*
X7621384Y-17201604D01*
X7611861Y-17173032D01*
X7602337Y-17125413D01*
X7602337Y-17087318D01*
X7611861Y-17039699D01*
X7621384Y-17011128D01*
X7630908Y-16992080D01*
X7649956Y-16963509D01*
X7659480Y-16953985D01*
X7716623Y-16982556D02*
X7849956Y-16982556D01*
X7764242Y-17182556D01*
X8030908Y-17182556D02*
X7916623Y-17182556D01*
X7973765Y-17182556D02*
X7973765Y-16982556D01*
X7954718Y-17011128D01*
X7935670Y-17030175D01*
X7916623Y-17039699D01*
X8269003Y-17182556D02*
X8269003Y-16982556D01*
X8354718Y-17182556D02*
X8354718Y-17077794D01*
X8345194Y-17058747D01*
X8326146Y-17049223D01*
X8297575Y-17049223D01*
X8278527Y-17058747D01*
X8269003Y-17068270D01*
X8478527Y-17182556D02*
X8459480Y-17173032D01*
X8449956Y-17163509D01*
X8440432Y-17144461D01*
X8440432Y-17087318D01*
X8449956Y-17068270D01*
X8459480Y-17058747D01*
X8478527Y-17049223D01*
X8507099Y-17049223D01*
X8526146Y-17058747D01*
X8535670Y-17068270D01*
X8545194Y-17087318D01*
X8545194Y-17144461D01*
X8535670Y-17163509D01*
X8526146Y-17173032D01*
X8507099Y-17182556D01*
X8478527Y-17182556D01*
X8659480Y-17182556D02*
X8640432Y-17173032D01*
X8630908Y-17153985D01*
X8630908Y-16982556D01*
X8811861Y-17173032D02*
X8792813Y-17182556D01*
X8754718Y-17182556D01*
X8735670Y-17173032D01*
X8726146Y-17153985D01*
X8726146Y-17077794D01*
X8735670Y-17058747D01*
X8754718Y-17049223D01*
X8792813Y-17049223D01*
X8811861Y-17058747D01*
X8821385Y-17077794D01*
X8821385Y-17096842D01*
X8726146Y-17115890D01*
X8897575Y-17173032D02*
X8916623Y-17182556D01*
X8954718Y-17182556D01*
X8973765Y-17173032D01*
X8983289Y-17153985D01*
X8983289Y-17144461D01*
X8973765Y-17125413D01*
X8954718Y-17115890D01*
X8926146Y-17115890D01*
X8907099Y-17106366D01*
X8897575Y-17087318D01*
X8897575Y-17077794D01*
X8907099Y-17058747D01*
X8926146Y-17049223D01*
X8954718Y-17049223D01*
X8973765Y-17058747D01*
X9049956Y-17258747D02*
X9059480Y-17249223D01*
X9078527Y-17220651D01*
X9088051Y-17201604D01*
X9097575Y-17173032D01*
X9107099Y-17125413D01*
X9107099Y-17087318D01*
X9097575Y-17039699D01*
X9088051Y-17011128D01*
X9078527Y-16992080D01*
X9059480Y-16963509D01*
X9049956Y-16953985D01*
X9411861Y-17258747D02*
X9402337Y-17249223D01*
X9383289Y-17220651D01*
X9373765Y-17201604D01*
X9364242Y-17173032D01*
X9354718Y-17125413D01*
X9354718Y-17087318D01*
X9364242Y-17039699D01*
X9373765Y-17011128D01*
X9383289Y-16992080D01*
X9402337Y-16963509D01*
X9411861Y-16953985D01*
X9488051Y-17049223D02*
X9488051Y-17182556D01*
X9488051Y-17068270D02*
X9497575Y-17058747D01*
X9516623Y-17049223D01*
X9545194Y-17049223D01*
X9564242Y-17058747D01*
X9573765Y-17077794D01*
X9573765Y-17182556D01*
X9697575Y-17182556D02*
X9678527Y-17173032D01*
X9669004Y-17163509D01*
X9659480Y-17144461D01*
X9659480Y-17087318D01*
X9669004Y-17068270D01*
X9678527Y-17058747D01*
X9697575Y-17049223D01*
X9726146Y-17049223D01*
X9745194Y-17058747D01*
X9754718Y-17068270D01*
X9764242Y-17087318D01*
X9764242Y-17144461D01*
X9754718Y-17163509D01*
X9745194Y-17173032D01*
X9726146Y-17182556D01*
X9697575Y-17182556D01*
X9821385Y-17049223D02*
X9897575Y-17049223D01*
X9849956Y-16982556D02*
X9849956Y-17153985D01*
X9859480Y-17173032D01*
X9878527Y-17182556D01*
X9897575Y-17182556D01*
X10116623Y-17049223D02*
X10116623Y-17249223D01*
X10116623Y-17058747D02*
X10135670Y-17049223D01*
X10173765Y-17049223D01*
X10192813Y-17058747D01*
X10202337Y-17068270D01*
X10211861Y-17087318D01*
X10211861Y-17144461D01*
X10202337Y-17163509D01*
X10192813Y-17173032D01*
X10173765Y-17182556D01*
X10135670Y-17182556D01*
X10116623Y-17173032D01*
X10326146Y-17182556D02*
X10307099Y-17173032D01*
X10297575Y-17153985D01*
X10297575Y-16982556D01*
X10488051Y-17182556D02*
X10488051Y-17077794D01*
X10478527Y-17058747D01*
X10459480Y-17049223D01*
X10421385Y-17049223D01*
X10402337Y-17058747D01*
X10488051Y-17173032D02*
X10469004Y-17182556D01*
X10421385Y-17182556D01*
X10402337Y-17173032D01*
X10392813Y-17153985D01*
X10392813Y-17134937D01*
X10402337Y-17115890D01*
X10421385Y-17106366D01*
X10469004Y-17106366D01*
X10488051Y-17096842D01*
X10554718Y-17049223D02*
X10630908Y-17049223D01*
X10583289Y-16982556D02*
X10583289Y-17153985D01*
X10592813Y-17173032D01*
X10611861Y-17182556D01*
X10630908Y-17182556D01*
X10773765Y-17173032D02*
X10754718Y-17182556D01*
X10716623Y-17182556D01*
X10697575Y-17173032D01*
X10688051Y-17153985D01*
X10688051Y-17077794D01*
X10697575Y-17058747D01*
X10716623Y-17049223D01*
X10754718Y-17049223D01*
X10773765Y-17058747D01*
X10783289Y-17077794D01*
X10783289Y-17096842D01*
X10688051Y-17115890D01*
X10954718Y-17182556D02*
X10954718Y-16982556D01*
X10954718Y-17173032D02*
X10935670Y-17182556D01*
X10897575Y-17182556D01*
X10878527Y-17173032D01*
X10869004Y-17163509D01*
X10859480Y-17144461D01*
X10859480Y-17087318D01*
X10869004Y-17068270D01*
X10878527Y-17058747D01*
X10897575Y-17049223D01*
X10935670Y-17049223D01*
X10954718Y-17058747D01*
X11030908Y-17258747D02*
X11040432Y-17249223D01*
X11059480Y-17220651D01*
X11069004Y-17201604D01*
X11078527Y-17173032D01*
X11088051Y-17125413D01*
X11088051Y-17087318D01*
X11078527Y-17039699D01*
X11069004Y-17011128D01*
X11059480Y-16992080D01*
X11040432Y-16963509D01*
X11030908Y-16953985D01*
M02*
