G04 #@! TF.GenerationSoftware,KiCad,Pcbnew,(6.0.6)*
G04 #@! TF.CreationDate,2022-07-10T20:54:54+03:00*
G04 #@! TF.ProjectId,Keyboard-60,4b657962-6f61-4726-942d-3630252e6b69,rev?*
G04 #@! TF.SameCoordinates,Original*
G04 #@! TF.FileFunction,Copper,L1,Top*
G04 #@! TF.FilePolarity,Positive*
%FSLAX46Y46*%
G04 Gerber Fmt 4.6, Leading zero omitted, Abs format (unit mm)*
G04 Created by KiCad (PCBNEW (6.0.6)) date 2022-07-10 20:54:54*
%MOMM*%
%LPD*%
G01*
G04 APERTURE LIST*
G04 #@! TA.AperFunction,ComponentPad*
%ADD10R,1.600000X1.500000*%
G04 #@! TD*
G04 #@! TA.AperFunction,ComponentPad*
%ADD11C,1.600000*%
G04 #@! TD*
G04 #@! TA.AperFunction,ComponentPad*
%ADD12C,3.000000*%
G04 #@! TD*
G04 #@! TA.AperFunction,ComponentPad*
%ADD13C,2.540000*%
G04 #@! TD*
G04 #@! TA.AperFunction,ViaPad*
%ADD14C,0.800000*%
G04 #@! TD*
G04 #@! TA.AperFunction,Conductor*
%ADD15C,0.300000*%
G04 #@! TD*
G04 #@! TA.AperFunction,Conductor*
%ADD16C,0.250000*%
G04 #@! TD*
G04 #@! TA.AperFunction,Conductor*
%ADD17C,0.200000*%
G04 #@! TD*
G04 APERTURE END LIST*
D10*
X199238750Y-64002250D03*
D11*
X196738750Y-64002250D03*
X194738750Y-64002250D03*
X192238750Y-64002250D03*
D12*
X189168750Y-61292250D03*
X202308750Y-61292250D03*
D13*
X149034500Y-124872750D03*
X155384500Y-122332750D03*
X313340750Y-143922750D03*
X319690750Y-141382750D03*
X215709500Y-105822750D03*
X222059500Y-103282750D03*
X201422000Y-67722750D03*
X207772000Y-65182750D03*
X91884500Y-124872750D03*
X98234500Y-122332750D03*
X239522000Y-67722750D03*
X245872000Y-65182750D03*
X172847000Y-86741000D03*
X179197000Y-84201000D03*
X234759500Y-105822750D03*
X241109500Y-103282750D03*
X82359500Y-105822750D03*
X88709500Y-103282750D03*
X134747000Y-86772750D03*
X141097000Y-84232750D03*
X144272000Y-67722750D03*
X150622000Y-65182750D03*
X220472000Y-67722750D03*
X226822000Y-65182750D03*
X299053250Y-124872750D03*
X305403250Y-122332750D03*
X191897000Y-86772750D03*
X198247000Y-84232750D03*
X129984500Y-124872750D03*
X136334500Y-122332750D03*
X310959500Y-86772750D03*
X317309500Y-84232750D03*
X106172000Y-67722750D03*
X112522000Y-65182750D03*
X51403250Y-143922750D03*
X57753250Y-141382750D03*
X120459500Y-105822750D03*
X126809500Y-103282750D03*
X68072000Y-67722750D03*
X74422000Y-65182750D03*
X241903250Y-143922750D03*
X248253250Y-141382750D03*
X226440000Y-81770000D03*
X220090000Y-84310000D03*
X287147000Y-86772750D03*
X293497000Y-84232750D03*
X125222000Y-67722750D03*
X131572000Y-65182750D03*
X244284500Y-124872750D03*
X250634500Y-122332750D03*
X160147000Y-84232750D03*
X153797000Y-86772750D03*
X289528250Y-143922750D03*
X295878250Y-141382750D03*
X53784500Y-86772750D03*
X60134500Y-84232750D03*
X75215750Y-143922750D03*
X81565750Y-141382750D03*
X164909500Y-103282750D03*
X158559500Y-105822750D03*
X277622000Y-67722750D03*
X283972000Y-65182750D03*
X87122000Y-67722750D03*
X93472000Y-65182750D03*
X306197000Y-67722750D03*
X312547000Y-65182750D03*
X265715750Y-143922750D03*
X272065750Y-141382750D03*
X187134500Y-124872750D03*
X193484500Y-122332750D03*
X206184500Y-124872750D03*
X212534500Y-122332750D03*
X170465750Y-143922750D03*
X176815750Y-141382750D03*
X263334500Y-124872750D03*
X269684500Y-122332750D03*
X253809500Y-105822750D03*
X260159500Y-103282750D03*
X163322000Y-67722750D03*
X169672000Y-65182750D03*
X56165750Y-105822750D03*
X62515750Y-103282750D03*
X101409500Y-105822750D03*
X107759500Y-103282750D03*
X249047000Y-86772750D03*
X255397000Y-84232750D03*
X168084500Y-124872750D03*
X174434500Y-122332750D03*
X99028250Y-143922750D03*
X105378250Y-141382750D03*
X110934500Y-124872750D03*
X117284500Y-122332750D03*
X77597000Y-86772750D03*
X83947000Y-84232750D03*
X229997000Y-86772750D03*
X236347000Y-84232750D03*
X60928250Y-124872750D03*
X67278250Y-122332750D03*
X49022000Y-67722750D03*
X55372000Y-65182750D03*
X115697000Y-86772750D03*
X122047000Y-84232750D03*
X196659500Y-105822750D03*
X203009500Y-103282750D03*
X177609500Y-105822750D03*
X183959500Y-103282750D03*
X258572000Y-67722750D03*
X264922000Y-65182750D03*
X272859500Y-105822750D03*
X279209500Y-103282750D03*
X303815750Y-105822750D03*
X310165750Y-103282750D03*
X268097000Y-86772750D03*
X274447000Y-84232750D03*
X225234500Y-124872750D03*
X231584500Y-122332750D03*
X182372000Y-67722750D03*
X188722000Y-65182750D03*
X139490000Y-105760000D03*
X145840000Y-103220000D03*
X96647000Y-86772750D03*
X102997000Y-84232750D03*
D14*
X184023000Y-151892000D03*
X190246000Y-154178000D03*
X190246000Y-152019000D03*
X219075000Y-141478000D03*
X217250000Y-138096000D03*
X188627150Y-142310250D03*
X200056750Y-133318250D03*
X191319150Y-74288650D03*
X188677950Y-148710250D03*
X196119750Y-133318250D03*
X194104750Y-61292250D03*
X190430150Y-157575250D03*
X194671950Y-80181450D03*
X209607150Y-137179050D03*
X205136750Y-133165850D03*
X194722750Y-137890250D03*
X199548750Y-138525250D03*
X190213750Y-141510250D03*
X201783950Y-133216650D03*
X190214750Y-149510250D03*
X201783950Y-137636250D03*
X218598750Y-75660250D03*
X46005750Y-77311250D03*
X197389750Y-78835250D03*
X186975750Y-76041250D03*
X203993750Y-75533250D03*
X212883750Y-70834250D03*
X201453750Y-75533250D03*
X184435750Y-86328250D03*
X187102750Y-94710250D03*
X199928750Y-94836250D03*
X205390750Y-94837250D03*
X194722750Y-78454250D03*
X194722750Y-75914250D03*
X194468750Y-114014250D03*
X188245750Y-110966250D03*
X207548750Y-114013250D03*
X213264750Y-114014250D03*
X205644750Y-131921250D03*
X195865750Y-130778250D03*
X235500000Y-143400000D03*
X181832750Y-152367250D03*
X136334500Y-147865500D03*
X155384500Y-147284500D03*
X181100000Y-137400000D03*
X182250000Y-155350000D03*
X200300000Y-154950000D03*
X192050000Y-157000000D03*
X194950000Y-156850000D03*
X227100000Y-149450000D03*
X232850000Y-153600000D03*
X295450000Y-156100000D03*
X224750000Y-150050000D03*
X196850000Y-156250000D03*
X198200000Y-156000000D03*
X217150000Y-155200000D03*
X317200000Y-155550000D03*
X199500000Y-153050000D03*
X291600000Y-107350000D03*
X243750000Y-137800000D03*
X283900000Y-134600000D03*
X198850000Y-154850000D03*
X309900000Y-135100000D03*
X244650000Y-139350000D03*
D15*
X184023000Y-143510000D02*
X184023000Y-151892000D01*
X185039000Y-142494000D02*
X184023000Y-143510000D01*
X186022750Y-141510250D02*
X185039000Y-142494000D01*
X190213750Y-141510250D02*
X186022750Y-141510250D01*
X190246000Y-152019000D02*
X190246000Y-154178000D01*
X190213750Y-149509250D02*
X190213750Y-141510250D01*
X190214750Y-149510250D02*
X190213750Y-149509250D01*
D16*
X218821000Y-141732000D02*
X219075000Y-141478000D01*
X217043000Y-141732000D02*
X218821000Y-141732000D01*
X216281000Y-140970000D02*
X217043000Y-141732000D01*
X212540000Y-140970000D02*
X216281000Y-140970000D01*
X208222000Y-151414396D02*
X208222000Y-145288000D01*
X208222000Y-145288000D02*
X212540000Y-140970000D01*
X205336396Y-154300000D02*
X208222000Y-151414396D01*
X205232000Y-154300000D02*
X205336396Y-154300000D01*
X200950000Y-154300000D02*
X205232000Y-154300000D01*
X200300000Y-154950000D02*
X200950000Y-154300000D01*
X199850000Y-153850000D02*
X198850000Y-154850000D01*
X207772000Y-151228000D02*
X205150000Y-153850000D01*
X207772000Y-145036792D02*
X207772000Y-151228000D01*
X212335792Y-140473000D02*
X207772000Y-145036792D01*
X222515000Y-140473000D02*
X212335792Y-140473000D01*
X223520000Y-141478000D02*
X222515000Y-140473000D01*
X225171000Y-141478000D02*
X223520000Y-141478000D01*
X226893802Y-139755198D02*
X225171000Y-141478000D01*
X230068802Y-139755198D02*
X226893802Y-139755198D01*
X234600000Y-144300000D02*
X234600000Y-144286396D01*
X235350000Y-145050000D02*
X234600000Y-144300000D01*
X237150000Y-145050000D02*
X235350000Y-145050000D01*
X243400000Y-138800000D02*
X237150000Y-145050000D01*
X205150000Y-153850000D02*
X199850000Y-153850000D01*
X244100000Y-138800000D02*
X243400000Y-138800000D01*
X244650000Y-139350000D02*
X244100000Y-138800000D01*
X234600000Y-144286396D02*
X230068802Y-139755198D01*
X203850000Y-153050000D02*
X199500000Y-153050000D01*
X207264000Y-149636000D02*
X203850000Y-153050000D01*
X207264000Y-144908396D02*
X207264000Y-149636000D01*
X212852698Y-139319698D02*
X207264000Y-144908396D01*
X215391302Y-139319698D02*
X212852698Y-139319698D01*
X218372396Y-140023000D02*
X216094604Y-140023000D01*
X220912396Y-137483000D02*
X218372396Y-140023000D01*
X228433000Y-137483000D02*
X220912396Y-137483000D01*
X216094604Y-140023000D02*
X215391302Y-139319698D01*
X235550000Y-144600000D02*
X228433000Y-137483000D01*
X236950000Y-144600000D02*
X235550000Y-144600000D01*
X243750000Y-137800000D02*
X236950000Y-144600000D01*
X218186000Y-139573000D02*
X220726000Y-137033000D01*
X229133000Y-137033000D02*
X235500000Y-143400000D01*
X216281000Y-139573000D02*
X218186000Y-139573000D01*
X215519000Y-138811000D02*
X216281000Y-139573000D01*
X212725000Y-138811000D02*
X215519000Y-138811000D01*
X208136000Y-143400000D02*
X212725000Y-138811000D01*
X197100000Y-143400000D02*
X208136000Y-143400000D01*
X193600000Y-139900000D02*
X197100000Y-143400000D01*
X189200000Y-139900000D02*
X193600000Y-139900000D01*
X186700000Y-137400000D02*
X189200000Y-139900000D01*
X183500000Y-137400000D02*
X186700000Y-137400000D01*
X220726000Y-137033000D02*
X229133000Y-137033000D01*
X181832750Y-139067250D02*
X183500000Y-137400000D01*
X181832750Y-152367250D02*
X181832750Y-139067250D01*
X217250000Y-138096000D02*
X217250000Y-138100000D01*
D15*
X200056750Y-133318250D02*
X196119750Y-133318250D01*
X188677950Y-142361050D02*
X188627150Y-142310250D01*
X188677950Y-155823050D02*
X188677950Y-148710250D01*
X191319150Y-74288650D02*
X191319150Y-76828650D01*
X188677950Y-148710250D02*
X188677950Y-142361050D01*
X191319150Y-76828650D02*
X194671950Y-80181450D01*
X190430150Y-157575250D02*
X188677950Y-155823050D01*
X194104750Y-61292250D02*
X202308750Y-61292250D01*
D16*
X209607150Y-136315450D02*
X209607150Y-137179050D01*
X207524350Y-134232650D02*
X209607150Y-136315450D01*
X205136750Y-133165850D02*
X206203550Y-134232650D01*
X206203550Y-134232650D02*
X207524350Y-134232650D01*
X195611750Y-138525250D02*
X194976750Y-137890250D01*
X194976750Y-137890250D02*
X194722750Y-137890250D01*
X199548750Y-138525250D02*
X195611750Y-138525250D01*
D15*
X201783950Y-133216650D02*
X201783950Y-137636250D01*
D16*
X212883750Y-70834250D02*
X217709750Y-75660250D01*
X189453350Y-73563650D02*
X193397455Y-73563650D01*
X193397455Y-73563650D02*
X197389750Y-77555945D01*
X217709750Y-75660250D02*
X218598750Y-75660250D01*
X186975750Y-76041250D02*
X189453350Y-73563650D01*
X201453750Y-75533250D02*
X203993750Y-75533250D01*
X197389750Y-77555945D02*
X197389750Y-78835250D01*
X184435750Y-86328250D02*
X187102750Y-88995250D01*
X187102750Y-94710250D02*
X187102750Y-94837250D01*
X199928750Y-94836250D02*
X205389750Y-94836250D01*
X187102750Y-88995250D02*
X187102750Y-94710250D01*
X205389750Y-94836250D02*
X205390750Y-94837250D01*
D17*
X194722750Y-75914250D02*
X194722750Y-78454250D01*
D16*
X60134500Y-84232750D02*
X60134500Y-100901500D01*
X67278250Y-122332750D02*
X67278250Y-131857750D01*
X60134500Y-100901500D02*
X62515750Y-103282750D01*
X67278250Y-131857750D02*
X57753250Y-141382750D01*
X62515750Y-117570250D02*
X67278250Y-122332750D01*
X55372000Y-74434700D02*
X60134500Y-79197200D01*
X62515750Y-103282750D02*
X62515750Y-117570250D01*
X60134500Y-79197200D02*
X60134500Y-84232750D01*
X55372000Y-65182750D02*
X55372000Y-74434700D01*
X84931250Y-122332750D02*
X98234500Y-122332750D01*
X81565750Y-141382750D02*
X81565750Y-125622050D01*
X88709500Y-103282750D02*
X98234500Y-112807750D01*
X81565750Y-125622050D02*
X84893150Y-122294650D01*
X74422000Y-74707750D02*
X83947000Y-84232750D01*
X83947000Y-98520250D02*
X88709500Y-103282750D01*
X98234500Y-112807750D02*
X98234500Y-122332750D01*
X84893150Y-122294650D02*
X84931250Y-122332750D01*
X74422000Y-65182750D02*
X74422000Y-74707750D01*
X83947000Y-84232750D02*
X83947000Y-98520250D01*
X191293750Y-114014250D02*
X194468750Y-114014250D01*
X188245750Y-110966250D02*
X191293750Y-114014250D01*
X213263750Y-114013250D02*
X213264750Y-114014250D01*
X207548750Y-114013250D02*
X213263750Y-114013250D01*
X195865750Y-130778250D02*
X204501750Y-130778250D01*
X204501750Y-130778250D02*
X205644750Y-131921250D01*
X93472000Y-65182750D02*
X102997000Y-74707750D01*
X117284500Y-129476500D02*
X105378250Y-141382750D01*
X117284500Y-118815121D02*
X117284500Y-122332750D01*
X102997000Y-90240121D02*
X107759500Y-95002621D01*
X107759500Y-95002621D02*
X107759500Y-103282750D01*
X102997000Y-84232750D02*
X102997000Y-90240121D01*
X117284500Y-122332750D02*
X117284500Y-129476500D01*
X102997000Y-74707750D02*
X102997000Y-84232750D01*
X107759500Y-109290121D02*
X117284500Y-118815121D01*
X107759500Y-103282750D02*
X107759500Y-109290121D01*
X122047000Y-98520250D02*
X126809500Y-103282750D01*
X112522000Y-65182750D02*
X122047000Y-74707750D01*
X126809500Y-112807750D02*
X136334500Y-122332750D01*
X122047000Y-74707750D02*
X122047000Y-84232750D01*
X136334500Y-122332750D02*
X136334500Y-147865500D01*
X122047000Y-84232750D02*
X122047000Y-98520250D01*
X126809500Y-103282750D02*
X126809500Y-112807750D01*
X131572000Y-65182750D02*
X131572000Y-74707750D01*
X155384500Y-122332750D02*
X155384500Y-147284500D01*
X155384500Y-147284500D02*
X155400000Y-147300000D01*
X155384500Y-118815121D02*
X155384500Y-122332750D01*
X131572000Y-74707750D02*
X141097000Y-84232750D01*
X145859500Y-88995250D02*
X145859500Y-103282750D01*
X141097000Y-84232750D02*
X145859500Y-88995250D01*
X145859500Y-109290121D02*
X155384500Y-118815121D01*
X145859500Y-103282750D02*
X145859500Y-109290121D01*
X164909500Y-95002621D02*
X164909500Y-103282750D01*
X174434500Y-122332750D02*
X174434500Y-139001500D01*
X160147000Y-74707750D02*
X160147000Y-84232750D01*
X174434500Y-139001500D02*
X176815750Y-141382750D01*
X180798500Y-137400000D02*
X181100000Y-137400000D01*
X160147000Y-90240121D02*
X164909500Y-95002621D01*
X160147000Y-84232750D02*
X160147000Y-90240121D01*
X150622000Y-65182750D02*
X160147000Y-74707750D01*
X174434500Y-112807750D02*
X174434500Y-122332750D01*
X176815750Y-141382750D02*
X180798500Y-137400000D01*
X164909500Y-103282750D02*
X174434500Y-112807750D01*
X180800000Y-152800000D02*
X180800000Y-153900000D01*
X193484500Y-118815121D02*
X193484500Y-122332750D01*
X193250000Y-134750000D02*
X191050000Y-136950000D01*
X180800000Y-139463604D02*
X180800000Y-152800000D01*
X191050000Y-136950000D02*
X184450000Y-136950000D01*
X169672000Y-65182750D02*
X179197000Y-74707750D01*
X183313604Y-136950000D02*
X180800000Y-139463604D01*
X184450000Y-136950000D02*
X183313604Y-136950000D01*
X193484500Y-122332750D02*
X193484500Y-134515500D01*
X193484500Y-134515500D02*
X193250000Y-134750000D01*
X180800000Y-153900000D02*
X182250000Y-155350000D01*
X183959500Y-109290121D02*
X193484500Y-118815121D01*
X179197000Y-74707750D02*
X179197000Y-84232750D01*
X183959500Y-88995250D02*
X183959500Y-103282750D01*
X183959500Y-103282750D02*
X183959500Y-109290121D01*
X179197000Y-84232750D02*
X183959500Y-88995250D01*
X212534500Y-122332750D02*
X217250000Y-127048250D01*
X203009500Y-103282750D02*
X203009500Y-112807750D01*
X188722000Y-65182750D02*
X188722000Y-65849500D01*
X217250000Y-127048250D02*
X217250000Y-138096000D01*
X188722000Y-65849500D02*
X198247000Y-75374500D01*
X198247000Y-75374500D02*
X198247000Y-84232750D01*
X198247000Y-84232750D02*
X198247000Y-98520250D01*
X198247000Y-98520250D02*
X203009500Y-103282750D01*
X203009500Y-112807750D02*
X212534500Y-122332750D01*
X207772000Y-65182750D02*
X207772000Y-71190121D01*
X231584500Y-122332750D02*
X248253250Y-139001500D01*
X222050000Y-157200000D02*
X215700000Y-157200000D01*
X226370329Y-157200000D02*
X222050000Y-157200000D01*
X215150000Y-157750000D02*
X215050000Y-157850000D01*
X192900000Y-157850000D02*
X192050000Y-157000000D01*
X248253250Y-139001500D02*
X248253250Y-141382750D01*
X203550000Y-157850000D02*
X192900000Y-157850000D01*
X215700000Y-157200000D02*
X215150000Y-157750000D01*
X217297000Y-80715121D02*
X217297000Y-84232750D01*
X215050000Y-157850000D02*
X203550000Y-157850000D01*
X217297000Y-98520250D02*
X222059500Y-103282750D01*
X222059500Y-103282750D02*
X222059500Y-112807750D01*
X248253250Y-141382750D02*
X242187579Y-141382750D01*
X207772000Y-71190121D02*
X217297000Y-80715121D01*
X217297000Y-84232750D02*
X217297000Y-98520250D01*
X222059500Y-112807750D02*
X231584500Y-122332750D01*
X242187579Y-141382750D02*
X226370329Y-157200000D01*
X194950000Y-157200000D02*
X194950000Y-156850000D01*
X241109500Y-109290121D02*
X250634500Y-118815121D01*
X218148849Y-156750000D02*
X217050000Y-156750000D01*
X241109500Y-103282750D02*
X241109500Y-109290121D01*
X226822000Y-71190121D02*
X236347000Y-80715121D01*
X259550000Y-153600000D02*
X232850000Y-153600000D01*
X214700000Y-157400000D02*
X195150000Y-157400000D01*
X250634500Y-118815121D02*
X250634500Y-122332750D01*
X227100000Y-149450000D02*
X224201151Y-152348849D01*
X236347000Y-98520250D02*
X241109500Y-103282750D01*
X269088763Y-153600000D02*
X259550000Y-153600000D01*
X222550000Y-152348849D02*
X218148849Y-156750000D01*
X217050000Y-156750000D02*
X215350000Y-156750000D01*
X224201151Y-152348849D02*
X222550000Y-152348849D01*
X253015750Y-122332750D02*
X272065750Y-141382750D01*
X236347000Y-80715121D02*
X236347000Y-84232750D01*
X272065750Y-141382750D02*
X272065750Y-150623013D01*
X236347000Y-84232750D02*
X236347000Y-98520250D01*
X226822000Y-65182750D02*
X226822000Y-71190121D01*
X215350000Y-156750000D02*
X214700000Y-157400000D01*
X250634500Y-122332750D02*
X253015750Y-122332750D01*
X195150000Y-157400000D02*
X194950000Y-157200000D01*
X272065750Y-150623013D02*
X269088763Y-153600000D01*
X255397000Y-98520250D02*
X260159500Y-103282750D01*
X295878250Y-141382750D02*
X295878250Y-155671750D01*
X260159500Y-103282750D02*
X260159500Y-112807750D01*
X269684500Y-122332750D02*
X288734500Y-141382750D01*
X214956802Y-156506802D02*
X215213604Y-156250000D01*
X217600000Y-156250000D02*
X218012453Y-156250000D01*
X196850000Y-156250000D02*
X197550000Y-156950000D01*
X197550000Y-156950000D02*
X200550000Y-156950000D01*
X200550000Y-156950000D02*
X214513604Y-156950000D01*
X222363604Y-151898849D02*
X224212453Y-150050000D01*
X288734500Y-141382750D02*
X295878250Y-141382750D01*
X255397000Y-84232750D02*
X255397000Y-98520250D01*
X214513604Y-156950000D02*
X214956802Y-156506802D01*
X245872000Y-74707750D02*
X255397000Y-84232750D01*
X222156227Y-152106226D02*
X222363604Y-151898849D01*
X260159500Y-112807750D02*
X269684500Y-122332750D01*
X224212453Y-150050000D02*
X224750000Y-150050000D01*
X245872000Y-65182750D02*
X245872000Y-74707750D01*
X215213604Y-156250000D02*
X217600000Y-156250000D01*
X218012453Y-156250000D02*
X222156227Y-152106226D01*
X295878250Y-155671750D02*
X295450000Y-156100000D01*
X290518850Y-103282750D02*
X305403250Y-118167150D01*
X264922000Y-65182750D02*
X274447000Y-74707750D01*
X305403250Y-122332750D02*
X305403250Y-132970013D01*
X214327208Y-156500000D02*
X214888604Y-155938604D01*
X198700000Y-156500000D02*
X202400000Y-156500000D01*
X217150000Y-155350000D02*
X217150000Y-155200000D01*
X214888604Y-155938604D02*
X215027208Y-155800000D01*
X202400000Y-156500000D02*
X213900000Y-156500000D01*
X198200000Y-156000000D02*
X198700000Y-156500000D01*
X274447000Y-74707750D02*
X274447000Y-84232750D01*
X213900000Y-156500000D02*
X214327208Y-156500000D01*
X305403250Y-118167150D02*
X305403250Y-122332750D01*
X279209500Y-103282750D02*
X290518850Y-103282750D01*
X319690750Y-153059250D02*
X317200000Y-155550000D01*
X216700000Y-155800000D02*
X217150000Y-155350000D01*
X305403250Y-132970013D02*
X313815987Y-141382750D01*
X279209500Y-88995250D02*
X279209500Y-103282750D01*
X313815987Y-141382750D02*
X319690750Y-141382750D01*
X274447000Y-84232750D02*
X279209500Y-88995250D01*
X215027208Y-155800000D02*
X216700000Y-155800000D01*
X319690750Y-141382750D02*
X319690750Y-153059250D01*
X293497000Y-74707750D02*
X293497000Y-84232750D01*
X288650000Y-132300000D02*
X288700000Y-132250000D01*
X288700000Y-116950000D02*
X288700000Y-110250000D01*
X286350000Y-134600000D02*
X288650000Y-132300000D01*
X310165750Y-100901500D02*
X310165750Y-103282750D01*
X283972000Y-65182750D02*
X293497000Y-74707750D01*
X293497000Y-84232750D02*
X310165750Y-100901500D01*
X288700000Y-132250000D02*
X288700000Y-116950000D01*
X288700000Y-110250000D02*
X291600000Y-107350000D01*
X283900000Y-134600000D02*
X286350000Y-134600000D01*
X322050000Y-128450000D02*
X322050000Y-85750000D01*
X312400000Y-132600000D02*
X317900000Y-132600000D01*
X312547000Y-79470250D02*
X317309500Y-84232750D01*
X320532750Y-84232750D02*
X317309500Y-84232750D01*
X322050000Y-85750000D02*
X320532750Y-84232750D01*
X312547000Y-65182750D02*
X312547000Y-79470250D01*
X309900000Y-135100000D02*
X312400000Y-132600000D01*
X317900000Y-132600000D02*
X322050000Y-128450000D01*
M02*
