G04 #@! TF.GenerationSoftware,KiCad,Pcbnew,(6.0.6)*
G04 #@! TF.CreationDate,2022-07-10T20:54:54+03:00*
G04 #@! TF.ProjectId,Keyboard-60,4b657962-6f61-4726-942d-3630252e6b69,rev?*
G04 #@! TF.SameCoordinates,Original*
G04 #@! TF.FileFunction,Soldermask,Top*
G04 #@! TF.FilePolarity,Negative*
%FSLAX46Y46*%
G04 Gerber Fmt 4.6, Leading zero omitted, Abs format (unit mm)*
G04 Created by KiCad (PCBNEW (6.0.6)) date 2022-07-10 20:54:54*
%MOMM*%
%LPD*%
G01*
G04 APERTURE LIST*
%ADD10R,1.600000X1.500000*%
%ADD11C,1.600000*%
%ADD12C,3.000000*%
%ADD13C,2.540000*%
%ADD14C,3.987800*%
%ADD15C,1.701800*%
%ADD16C,3.048000*%
G04 APERTURE END LIST*
D10*
X199238750Y-64002250D03*
D11*
X196738750Y-64002250D03*
X194738750Y-64002250D03*
X192238750Y-64002250D03*
D12*
X189168750Y-61292250D03*
X202308750Y-61292250D03*
D13*
X149034500Y-124872750D03*
X155384500Y-122332750D03*
D14*
X152844500Y-127412750D03*
D15*
X157924500Y-127412750D03*
X147764500Y-127412750D03*
D13*
X313340750Y-143922750D03*
X319690750Y-141382750D03*
D15*
X322230750Y-146462750D03*
D14*
X317150750Y-146462750D03*
D15*
X312070750Y-146462750D03*
D13*
X215709500Y-105822750D03*
X222059500Y-103282750D03*
D15*
X214439500Y-108362750D03*
D14*
X219519500Y-108362750D03*
D15*
X224599500Y-108362750D03*
D13*
X201422000Y-67722750D03*
X207772000Y-65182750D03*
D15*
X210312000Y-70262750D03*
D14*
X205232000Y-70262750D03*
D15*
X200152000Y-70262750D03*
D13*
X91884500Y-124872750D03*
X98234500Y-122332750D03*
D14*
X95694500Y-127412750D03*
D15*
X90614500Y-127412750D03*
X100774500Y-127412750D03*
D13*
X239522000Y-67722750D03*
X245872000Y-65182750D03*
D14*
X243332000Y-70262750D03*
D15*
X248412000Y-70262750D03*
X238252000Y-70262750D03*
D13*
X172847000Y-86741000D03*
X179197000Y-84201000D03*
D15*
X181737000Y-89281000D03*
X171577000Y-89281000D03*
D14*
X176657000Y-89281000D03*
D13*
X234759500Y-105822750D03*
X241109500Y-103282750D03*
D15*
X233489500Y-108362750D03*
X243649500Y-108362750D03*
D14*
X238569500Y-108362750D03*
D13*
X82359500Y-105822750D03*
X88709500Y-103282750D03*
D14*
X86169500Y-108362750D03*
D15*
X81089500Y-108362750D03*
X91249500Y-108362750D03*
D13*
X134747000Y-86772750D03*
X141097000Y-84232750D03*
D14*
X138557000Y-89312750D03*
D15*
X133477000Y-89312750D03*
X143637000Y-89312750D03*
D13*
X144272000Y-67722750D03*
X150622000Y-65182750D03*
D15*
X153162000Y-70262750D03*
X143002000Y-70262750D03*
D14*
X148082000Y-70262750D03*
D13*
X220472000Y-67722750D03*
X226822000Y-65182750D03*
D15*
X219202000Y-70262750D03*
X229362000Y-70262750D03*
D14*
X224282000Y-70262750D03*
D13*
X299053250Y-124872750D03*
X305403250Y-122332750D03*
D14*
X302863250Y-127412750D03*
X290925250Y-135667750D03*
D15*
X297783250Y-127412750D03*
D16*
X314801250Y-120427750D03*
D15*
X307943250Y-127412750D03*
D16*
X290925250Y-120427750D03*
D14*
X314801250Y-135667750D03*
D13*
X191897000Y-86772750D03*
X198247000Y-84232750D03*
D15*
X190627000Y-89312750D03*
D14*
X195707000Y-89312750D03*
D15*
X200787000Y-89312750D03*
D13*
X129984500Y-124872750D03*
X136334500Y-122332750D03*
D15*
X128714500Y-127412750D03*
D14*
X133794500Y-127412750D03*
D15*
X138874500Y-127412750D03*
D13*
X310959500Y-86772750D03*
X317309500Y-84232750D03*
D15*
X309689500Y-89312750D03*
X319849500Y-89312750D03*
D14*
X314769500Y-89312750D03*
D13*
X106172000Y-67722750D03*
X112522000Y-65182750D03*
D15*
X115062000Y-70262750D03*
D14*
X109982000Y-70262750D03*
D15*
X104902000Y-70262750D03*
D13*
X51403250Y-143922750D03*
X57753250Y-141382750D03*
D15*
X60293250Y-146462750D03*
D14*
X55213250Y-146462750D03*
D15*
X50133250Y-146462750D03*
D13*
X120459500Y-105822750D03*
X126809500Y-103282750D03*
D14*
X124269500Y-108362750D03*
D15*
X119189500Y-108362750D03*
X129349500Y-108362750D03*
D13*
X68072000Y-67722750D03*
X74422000Y-65182750D03*
D15*
X76962000Y-70262750D03*
X66802000Y-70262750D03*
D14*
X71882000Y-70262750D03*
D13*
X241903250Y-143922750D03*
X248253250Y-141382750D03*
D15*
X250793250Y-146462750D03*
X240633250Y-146462750D03*
D14*
X245713250Y-146462750D03*
D15*
X218820000Y-86850000D03*
D14*
X223900000Y-86850000D03*
D15*
X228980000Y-86850000D03*
D13*
X226440000Y-81770000D03*
X220090000Y-84310000D03*
X287147000Y-86772750D03*
X293497000Y-84232750D03*
D15*
X285877000Y-89312750D03*
X296037000Y-89312750D03*
D14*
X290957000Y-89312750D03*
D13*
X125222000Y-67722750D03*
X131572000Y-65182750D03*
D15*
X134112000Y-70262750D03*
X123952000Y-70262750D03*
D14*
X129032000Y-70262750D03*
D13*
X244284500Y-124872750D03*
X250634500Y-122332750D03*
D15*
X243014500Y-127412750D03*
D14*
X248094500Y-127412750D03*
D15*
X253174500Y-127412750D03*
X152527000Y-89312750D03*
D14*
X157607000Y-89312750D03*
D15*
X162687000Y-89312750D03*
D13*
X160147000Y-84232750D03*
X153797000Y-86772750D03*
X289528250Y-143922750D03*
X295878250Y-141382750D03*
D15*
X288258250Y-146462750D03*
D14*
X293338250Y-146462750D03*
D15*
X298418250Y-146462750D03*
D13*
X53784500Y-86772750D03*
X60134500Y-84232750D03*
D14*
X57594500Y-89312750D03*
D15*
X62674500Y-89312750D03*
X52514500Y-89312750D03*
D13*
X75215750Y-143922750D03*
X81565750Y-141382750D03*
D15*
X84105750Y-146462750D03*
X73945750Y-146462750D03*
D14*
X79025750Y-146462750D03*
X162369500Y-108362750D03*
D15*
X167449500Y-108362750D03*
X157289500Y-108362750D03*
D13*
X164909500Y-103282750D03*
X158559500Y-105822750D03*
X277622000Y-67722750D03*
X283972000Y-65182750D03*
D15*
X286512000Y-70262750D03*
D14*
X281432000Y-70262750D03*
D15*
X276352000Y-70262750D03*
D13*
X87122000Y-67722750D03*
X93472000Y-65182750D03*
D15*
X85852000Y-70262750D03*
X96012000Y-70262750D03*
D14*
X90932000Y-70262750D03*
D13*
X306197000Y-67722750D03*
X312547000Y-65182750D03*
D14*
X298069000Y-78517750D03*
X310007000Y-70262750D03*
D16*
X321945000Y-63277750D03*
D14*
X321945000Y-78517750D03*
D15*
X304927000Y-70262750D03*
X315087000Y-70262750D03*
D16*
X298069000Y-63277750D03*
D13*
X265715750Y-143922750D03*
X272065750Y-141382750D03*
D15*
X274605750Y-146462750D03*
X264445750Y-146462750D03*
D14*
X269525750Y-146462750D03*
D13*
X187134500Y-124872750D03*
X193484500Y-122332750D03*
D15*
X196024500Y-127412750D03*
D14*
X190944500Y-127412750D03*
D15*
X185864500Y-127412750D03*
D13*
X206184500Y-124872750D03*
X212534500Y-122332750D03*
D15*
X204914500Y-127412750D03*
X215074500Y-127412750D03*
D14*
X209994500Y-127412750D03*
D13*
X170465750Y-143922750D03*
X176815750Y-141382750D03*
D14*
X124237750Y-154717750D03*
D16*
X124237750Y-139477750D03*
D15*
X179355750Y-146462750D03*
D14*
X224313750Y-154717750D03*
D16*
X224313750Y-139477750D03*
D14*
X174275750Y-146462750D03*
D15*
X169195750Y-146462750D03*
D13*
X263334500Y-124872750D03*
X269684500Y-122332750D03*
D14*
X267144500Y-127412750D03*
D15*
X272224500Y-127412750D03*
X262064500Y-127412750D03*
D13*
X253809500Y-105822750D03*
X260159500Y-103282750D03*
D14*
X257619500Y-108362750D03*
D15*
X262699500Y-108362750D03*
X252539500Y-108362750D03*
D13*
X163322000Y-67722750D03*
X169672000Y-65182750D03*
D14*
X167132000Y-70262750D03*
D15*
X162052000Y-70262750D03*
X172212000Y-70262750D03*
D13*
X56165750Y-105822750D03*
X62515750Y-103282750D03*
D15*
X65055750Y-108362750D03*
X54895750Y-108362750D03*
D14*
X59975750Y-108362750D03*
D13*
X101409500Y-105822750D03*
X107759500Y-103282750D03*
D14*
X105219500Y-108362750D03*
D15*
X100139500Y-108362750D03*
X110299500Y-108362750D03*
D13*
X249047000Y-86772750D03*
X255397000Y-84232750D03*
D15*
X257937000Y-89312750D03*
D14*
X252857000Y-89312750D03*
D15*
X247777000Y-89312750D03*
D13*
X168084500Y-124872750D03*
X174434500Y-122332750D03*
D14*
X171894500Y-127412750D03*
D15*
X166814500Y-127412750D03*
X176974500Y-127412750D03*
D13*
X99028250Y-143922750D03*
X105378250Y-141382750D03*
D14*
X102838250Y-146462750D03*
D15*
X97758250Y-146462750D03*
X107918250Y-146462750D03*
D13*
X110934500Y-124872750D03*
X117284500Y-122332750D03*
D14*
X114744500Y-127412750D03*
D15*
X109664500Y-127412750D03*
X119824500Y-127412750D03*
D13*
X77597000Y-86772750D03*
X83947000Y-84232750D03*
D14*
X81407000Y-89312750D03*
D15*
X86487000Y-89312750D03*
X76327000Y-89312750D03*
D13*
X229997000Y-86772750D03*
X236347000Y-84232750D03*
D14*
X233807000Y-89312750D03*
D15*
X238887000Y-89312750D03*
X228727000Y-89312750D03*
D13*
X60928250Y-124872750D03*
X67278250Y-122332750D03*
D16*
X76676250Y-120427750D03*
D15*
X59658250Y-127412750D03*
D14*
X76676250Y-135667750D03*
D15*
X69818250Y-127412750D03*
D14*
X52800250Y-135667750D03*
D16*
X52800250Y-120427750D03*
D14*
X64738250Y-127412750D03*
D13*
X49022000Y-67722750D03*
X55372000Y-65182750D03*
D14*
X52832000Y-70262750D03*
D15*
X47752000Y-70262750D03*
X57912000Y-70262750D03*
D13*
X115697000Y-86772750D03*
X122047000Y-84232750D03*
D15*
X124587000Y-89312750D03*
X114427000Y-89312750D03*
D14*
X119507000Y-89312750D03*
D13*
X196659500Y-105822750D03*
X203009500Y-103282750D03*
D15*
X195389500Y-108362750D03*
X205549500Y-108362750D03*
D14*
X200469500Y-108362750D03*
D13*
X177609500Y-105822750D03*
X183959500Y-103282750D03*
D15*
X176339500Y-108362750D03*
D14*
X181419500Y-108362750D03*
D15*
X186499500Y-108362750D03*
D13*
X258572000Y-67722750D03*
X264922000Y-65182750D03*
D15*
X267462000Y-70262750D03*
D14*
X262382000Y-70262750D03*
D15*
X257302000Y-70262750D03*
D13*
X272859500Y-105822750D03*
X279209500Y-103282750D03*
D15*
X281749500Y-108362750D03*
D14*
X276669500Y-108362750D03*
D15*
X271589500Y-108362750D03*
D13*
X303815750Y-105822750D03*
X310165750Y-103282750D03*
D14*
X319563750Y-116617750D03*
D15*
X312705750Y-108362750D03*
D16*
X295687750Y-101377750D03*
X319563750Y-101377750D03*
D14*
X295687750Y-116617750D03*
X307625750Y-108362750D03*
D15*
X302545750Y-108362750D03*
D13*
X268097000Y-86772750D03*
X274447000Y-84232750D03*
D14*
X271907000Y-89312750D03*
D15*
X266827000Y-89312750D03*
X276987000Y-89312750D03*
D13*
X225234500Y-124872750D03*
X231584500Y-122332750D03*
D15*
X234124500Y-127412750D03*
D14*
X229044500Y-127412750D03*
D15*
X223964500Y-127412750D03*
D13*
X182372000Y-67722750D03*
X188722000Y-65182750D03*
D15*
X191262000Y-70262750D03*
X181102000Y-70262750D03*
D14*
X186182000Y-70262750D03*
D13*
X139490000Y-105760000D03*
X145840000Y-103220000D03*
D14*
X143300000Y-108300000D03*
D15*
X138220000Y-108300000D03*
X148380000Y-108300000D03*
D13*
X96647000Y-86772750D03*
X102997000Y-84232750D03*
D15*
X95377000Y-89312750D03*
X105537000Y-89312750D03*
D14*
X100457000Y-89312750D03*
M02*
