M48
; DRILL file {KiCad (6.0.6)} date Sun Jul 10 20:55:00 2022
; FORMAT={-:-/ absolute / metric / decimal}
; #@! TF.CreationDate,2022-07-10T20:55:00+03:00
; #@! TF.GenerationSoftware,Kicad,Pcbnew,(6.0.6)
; #@! TF.FileFunction,Plated,1,2,PTH
FMAT,2
METRIC
; #@! TA.AperFunction,Plated,PTH,ViaDrill
T1C0.400
; #@! TA.AperFunction,Plated,PTH,ComponentDrill
T2C0.950
; #@! TA.AperFunction,Plated,PTH,ComponentDrill
T3C1.524
; #@! TA.AperFunction,Plated,PTH,ComponentDrill
T4C1.525
; #@! TA.AperFunction,Plated,PTH,ComponentDrill
T5C2.300
%
G90
G05
T1
X46.006Y-77.311
X136.334Y-147.865
X155.385Y-147.284
X181.1Y-137.4
X181.833Y-152.367
X182.25Y-155.35
X184.023Y-151.892
X184.436Y-86.328
X186.976Y-76.041
X187.103Y-94.71
X188.246Y-110.966
X188.627Y-142.31
X188.678Y-148.71
X190.214Y-141.51
X190.215Y-149.51
X190.246Y-152.019
X190.246Y-154.178
X190.43Y-157.575
X191.319Y-74.289
X192.05Y-157.0
X194.105Y-61.292
X194.469Y-114.014
X194.672Y-80.181
X194.723Y-75.914
X194.723Y-78.454
X194.723Y-137.89
X194.95Y-156.85
X195.866Y-130.778
X196.12Y-133.318
X196.85Y-156.25
X197.39Y-78.835
X198.2Y-156.0
X198.85Y-154.85
X199.5Y-153.05
X199.549Y-138.525
X199.929Y-94.836
X200.057Y-133.318
X200.3Y-154.95
X201.454Y-75.533
X201.784Y-133.217
X201.784Y-137.636
X203.994Y-75.533
X205.137Y-133.166
X205.391Y-94.837
X205.645Y-131.921
X207.549Y-114.013
X209.607Y-137.179
X212.884Y-70.834
X213.265Y-114.014
X217.15Y-155.2
X217.25Y-138.096
X218.599Y-75.66
X219.075Y-141.478
X224.75Y-150.05
X227.1Y-149.45
X232.85Y-153.6
X235.5Y-143.4
X243.75Y-137.8
X244.65Y-139.35
X283.9Y-134.6
X291.6Y-107.35
X295.45Y-156.1
X309.9Y-135.1
X317.2Y-155.55
T2
X192.239Y-64.002
X194.739Y-64.002
X196.739Y-64.002
X199.239Y-64.002
T3
X51.403Y-143.923
X53.784Y-86.773
X56.166Y-105.823
X57.753Y-141.383
X60.134Y-84.233
X60.928Y-124.873
X62.516Y-103.283
X67.278Y-122.333
X75.216Y-143.923
X81.566Y-141.383
X99.028Y-143.923
X105.378Y-141.383
X170.466Y-143.923
X176.816Y-141.383
X241.903Y-143.923
X248.253Y-141.383
X265.716Y-143.923
X272.066Y-141.383
X289.528Y-143.923
X295.878Y-141.383
X299.053Y-124.873
X303.816Y-105.823
X305.403Y-122.333
X306.197Y-67.723
X310.166Y-103.283
X310.959Y-86.773
X312.547Y-65.183
X313.341Y-143.923
X317.309Y-84.233
X319.691Y-141.383
T4
X49.022Y-67.723
X55.372Y-65.183
X68.072Y-67.723
X74.422Y-65.183
X77.597Y-86.773
X82.359Y-105.823
X83.947Y-84.233
X87.122Y-67.723
X88.709Y-103.283
X91.885Y-124.873
X93.472Y-65.183
X96.647Y-86.773
X98.234Y-122.333
X101.409Y-105.823
X102.997Y-84.233
X106.172Y-67.723
X107.759Y-103.283
X110.934Y-124.873
X112.522Y-65.183
X115.697Y-86.773
X117.284Y-122.333
X120.459Y-105.823
X122.047Y-84.233
X125.222Y-67.723
X126.809Y-103.283
X129.984Y-124.873
X131.572Y-65.183
X134.747Y-86.773
X136.334Y-122.333
X139.49Y-105.76
X141.097Y-84.233
X144.272Y-67.723
X145.84Y-103.22
X149.034Y-124.873
X150.622Y-65.183
X153.797Y-86.773
X155.385Y-122.333
X158.559Y-105.823
X160.147Y-84.233
X163.322Y-67.723
X164.909Y-103.283
X168.084Y-124.873
X169.672Y-65.183
X172.847Y-86.741
X174.434Y-122.333
X177.609Y-105.823
X179.197Y-84.201
X182.372Y-67.723
X183.959Y-103.283
X187.135Y-124.873
X188.722Y-65.183
X191.897Y-86.773
X193.484Y-122.333
X196.659Y-105.823
X198.247Y-84.233
X201.422Y-67.723
X203.01Y-103.283
X206.184Y-124.873
X207.772Y-65.183
X212.534Y-122.333
X215.709Y-105.823
X220.09Y-84.31
X220.472Y-67.723
X222.059Y-103.283
X225.234Y-124.873
X226.44Y-81.77
X226.822Y-65.183
X229.997Y-86.773
X231.584Y-122.333
X234.76Y-105.823
X236.347Y-84.233
X239.522Y-67.723
X241.109Y-103.283
X244.284Y-124.873
X245.872Y-65.183
X249.047Y-86.773
X250.635Y-122.333
X253.809Y-105.823
X255.397Y-84.233
X258.572Y-67.723
X260.159Y-103.283
X263.334Y-124.873
X264.922Y-65.183
X268.097Y-86.773
X269.685Y-122.333
X272.859Y-105.823
X274.447Y-84.233
X277.622Y-67.723
X279.209Y-103.283
X283.972Y-65.183
X287.147Y-86.773
X293.497Y-84.233
T5
X189.169Y-61.292
X202.309Y-61.292
T0
M30
