G04 #@! TF.GenerationSoftware,KiCad,Pcbnew,(6.0.6)*
G04 #@! TF.CreationDate,2022-07-10T20:54:54+03:00*
G04 #@! TF.ProjectId,Keyboard-60,4b657962-6f61-4726-942d-3630252e6b69,rev?*
G04 #@! TF.SameCoordinates,Original*
G04 #@! TF.FileFunction,Legend,Top*
G04 #@! TF.FilePolarity,Positive*
%FSLAX46Y46*%
G04 Gerber Fmt 4.6, Leading zero omitted, Abs format (unit mm)*
G04 Created by KiCad (PCBNEW (6.0.6)) date 2022-07-10 20:54:54*
%MOMM*%
%LPD*%
G01*
G04 APERTURE LIST*
%ADD10C,0.150000*%
%ADD11C,0.300000*%
%ADD12C,0.120000*%
%ADD13R,1.600000X1.500000*%
%ADD14C,1.600000*%
%ADD15C,3.000000*%
%ADD16C,2.540000*%
%ADD17C,3.987800*%
%ADD18C,1.701800*%
%ADD19C,3.048000*%
G04 APERTURE END LIST*
D10*
D11*
X303657428Y-149438000D02*
X303512285Y-149365428D01*
X303294571Y-149365428D01*
X303076857Y-149438000D01*
X302931714Y-149583142D01*
X302859142Y-149728285D01*
X302786571Y-150018571D01*
X302786571Y-150236285D01*
X302859142Y-150526571D01*
X302931714Y-150671714D01*
X303076857Y-150816857D01*
X303294571Y-150889428D01*
X303439714Y-150889428D01*
X303657428Y-150816857D01*
X303730000Y-150744285D01*
X303730000Y-150236285D01*
X303439714Y-150236285D01*
X304600857Y-149365428D02*
X304600857Y-149728285D01*
X304238000Y-149583142D02*
X304600857Y-149728285D01*
X304963714Y-149583142D01*
X304383142Y-150018571D02*
X304600857Y-149728285D01*
X304818571Y-150018571D01*
X305762000Y-149365428D02*
X305762000Y-149728285D01*
X305399142Y-149583142D02*
X305762000Y-149728285D01*
X306124857Y-149583142D01*
X305544285Y-150018571D02*
X305762000Y-149728285D01*
X305979714Y-150018571D01*
X306923142Y-149365428D02*
X306923142Y-149728285D01*
X306560285Y-149583142D02*
X306923142Y-149728285D01*
X307286000Y-149583142D01*
X306705428Y-150018571D02*
X306923142Y-149728285D01*
X307140857Y-150018571D01*
X100457428Y-103138000D02*
X100312285Y-103065428D01*
X100094571Y-103065428D01*
X99876857Y-103138000D01*
X99731714Y-103283142D01*
X99659142Y-103428285D01*
X99586571Y-103718571D01*
X99586571Y-103936285D01*
X99659142Y-104226571D01*
X99731714Y-104371714D01*
X99876857Y-104516857D01*
X100094571Y-104589428D01*
X100239714Y-104589428D01*
X100457428Y-104516857D01*
X100530000Y-104444285D01*
X100530000Y-103936285D01*
X100239714Y-103936285D01*
X101400857Y-103065428D02*
X101400857Y-103428285D01*
X101038000Y-103283142D02*
X101400857Y-103428285D01*
X101763714Y-103283142D01*
X101183142Y-103718571D02*
X101400857Y-103428285D01*
X101618571Y-103718571D01*
X102562000Y-103065428D02*
X102562000Y-103428285D01*
X102199142Y-103283142D02*
X102562000Y-103428285D01*
X102924857Y-103283142D01*
X102344285Y-103718571D02*
X102562000Y-103428285D01*
X102779714Y-103718571D01*
X103723142Y-103065428D02*
X103723142Y-103428285D01*
X103360285Y-103283142D02*
X103723142Y-103428285D01*
X104086000Y-103283142D01*
X103505428Y-103718571D02*
X103723142Y-103428285D01*
X103940857Y-103718571D01*
X63057428Y-149838000D02*
X62912285Y-149765428D01*
X62694571Y-149765428D01*
X62476857Y-149838000D01*
X62331714Y-149983142D01*
X62259142Y-150128285D01*
X62186571Y-150418571D01*
X62186571Y-150636285D01*
X62259142Y-150926571D01*
X62331714Y-151071714D01*
X62476857Y-151216857D01*
X62694571Y-151289428D01*
X62839714Y-151289428D01*
X63057428Y-151216857D01*
X63130000Y-151144285D01*
X63130000Y-150636285D01*
X62839714Y-150636285D01*
X64000857Y-149765428D02*
X64000857Y-150128285D01*
X63638000Y-149983142D02*
X64000857Y-150128285D01*
X64363714Y-149983142D01*
X63783142Y-150418571D02*
X64000857Y-150128285D01*
X64218571Y-150418571D01*
X65162000Y-149765428D02*
X65162000Y-150128285D01*
X64799142Y-149983142D02*
X65162000Y-150128285D01*
X65524857Y-149983142D01*
X64944285Y-150418571D02*
X65162000Y-150128285D01*
X65379714Y-150418571D01*
X66323142Y-149765428D02*
X66323142Y-150128285D01*
X65960285Y-149983142D02*
X66323142Y-150128285D01*
X66686000Y-149983142D01*
X66105428Y-150418571D02*
X66323142Y-150128285D01*
X66540857Y-150418571D01*
D10*
X195405416Y-66644630D02*
X195405416Y-67358916D01*
X195357797Y-67501773D01*
X195262559Y-67597011D01*
X195119702Y-67644630D01*
X195024464Y-67644630D01*
X196405416Y-67644630D02*
X195833988Y-67644630D01*
X196119702Y-67644630D02*
X196119702Y-66644630D01*
X196024464Y-66787488D01*
X195929226Y-66882726D01*
X195833988Y-66930345D01*
G36*
X52797527Y-79304966D02*
G01*
X52904708Y-79359170D01*
X52982590Y-79434983D01*
X53009411Y-79486740D01*
X53023924Y-79554193D01*
X53032505Y-79647088D01*
X53035318Y-79751415D01*
X53032522Y-79853166D01*
X53024280Y-79938335D01*
X53010753Y-79992913D01*
X53003450Y-80003412D01*
X52957663Y-80019874D01*
X52875625Y-80032720D01*
X52771804Y-80041153D01*
X52660671Y-80044377D01*
X52556695Y-80041594D01*
X52476438Y-80032418D01*
X52342212Y-79987651D01*
X52249338Y-79914144D01*
X52199244Y-79814191D01*
X52193359Y-79690088D01*
X52211261Y-79606266D01*
X52265985Y-79492027D01*
X52351948Y-79390952D01*
X52455578Y-79316151D01*
X52545452Y-79283382D01*
X52673592Y-79277870D01*
X52797527Y-79304966D01*
G37*
G36*
X54959302Y-79095947D02*
G01*
X55028425Y-79129603D01*
X55064625Y-79179938D01*
X55067200Y-79199254D01*
X55044824Y-79261638D01*
X54985066Y-79329909D01*
X54898977Y-79394635D01*
X54797609Y-79446384D01*
X54762954Y-79458920D01*
X54655904Y-79489806D01*
X54584251Y-79499776D01*
X54537235Y-79489135D01*
X54510241Y-79466119D01*
X54495071Y-79429168D01*
X54505417Y-79373843D01*
X54521044Y-79333116D01*
X54585634Y-79216388D01*
X54669324Y-79139842D01*
X54772657Y-79096283D01*
X54869849Y-79083373D01*
X54959302Y-79095947D01*
G37*
G36*
X58726511Y-79223515D02*
G01*
X58773492Y-79274690D01*
X58802565Y-79359572D01*
X58810317Y-79463180D01*
X58799817Y-79545374D01*
X58736993Y-79735630D01*
X58641074Y-79889329D01*
X58540709Y-79987178D01*
X58427091Y-80060723D01*
X58328274Y-80087732D01*
X58239466Y-80068539D01*
X58165346Y-80013254D01*
X58092436Y-79912071D01*
X58069228Y-79803645D01*
X58095798Y-79687455D01*
X58172221Y-79562980D01*
X58242149Y-79483985D01*
X58335074Y-79400546D01*
X58437876Y-79326594D01*
X58540175Y-79267710D01*
X58631592Y-79229475D01*
X58701749Y-79217471D01*
X58726511Y-79223515D01*
G37*
G36*
X50326344Y-79759700D02*
G01*
X50375183Y-79771046D01*
X50387454Y-79787750D01*
X50359713Y-79821974D01*
X50301703Y-79870410D01*
X50227883Y-79923179D01*
X50152711Y-79970401D01*
X50090643Y-80002200D01*
X50062171Y-80010000D01*
X50009564Y-79991733D01*
X49988360Y-79973298D01*
X49964900Y-79910426D01*
X49981341Y-79843461D01*
X50032489Y-79791703D01*
X50038000Y-79788760D01*
X50095830Y-79770410D01*
X50172565Y-79759422D01*
X50254104Y-79755839D01*
X50326344Y-79759700D01*
G37*
G36*
X64140554Y-78839606D02*
G01*
X64183551Y-78883678D01*
X64218265Y-78950670D01*
X64235889Y-79027074D01*
X64236600Y-79044435D01*
X64214268Y-79200359D01*
X64151667Y-79342391D01*
X64055391Y-79459147D01*
X63956740Y-79527634D01*
X63874570Y-79566193D01*
X63828262Y-79574625D01*
X63810232Y-79549131D01*
X63812899Y-79485913D01*
X63816818Y-79457550D01*
X63844369Y-79324388D01*
X63886008Y-79188746D01*
X63937007Y-79061136D01*
X63992639Y-78952075D01*
X64048176Y-78872077D01*
X64098079Y-78831962D01*
X64140554Y-78839606D01*
G37*
G36*
X46481999Y-79304953D02*
G01*
X46482000Y-78258704D01*
X46556572Y-78220141D01*
X46611012Y-78181275D01*
X46681603Y-78116706D01*
X46751917Y-78041689D01*
X46872688Y-77901800D01*
X47049761Y-77901800D01*
X47170870Y-77895986D01*
X47295008Y-77876663D01*
X47434544Y-77841004D01*
X47601846Y-77786182D01*
X47681568Y-77757425D01*
X47852437Y-77694566D01*
X48481668Y-77724228D01*
X48906506Y-77739973D01*
X49284004Y-77744820D01*
X49616447Y-77738719D01*
X49906123Y-77721623D01*
X50155320Y-77693483D01*
X50190400Y-77688141D01*
X50557152Y-77655181D01*
X50937138Y-77669625D01*
X51219100Y-77709849D01*
X51323876Y-77724428D01*
X51456558Y-77735653D01*
X51606275Y-77743395D01*
X51762158Y-77747522D01*
X51913336Y-77747905D01*
X52048939Y-77744412D01*
X52158096Y-77736914D01*
X52229936Y-77725280D01*
X52239796Y-77722099D01*
X52287612Y-77712701D01*
X52376632Y-77703314D01*
X52497268Y-77694638D01*
X52639928Y-77687373D01*
X52781200Y-77682569D01*
X52938315Y-77677422D01*
X53084760Y-77670674D01*
X53210183Y-77662952D01*
X53304233Y-77654880D01*
X53352700Y-77648013D01*
X53404288Y-77641980D01*
X53499059Y-77636124D01*
X53629395Y-77630708D01*
X53787678Y-77625994D01*
X53966292Y-77622246D01*
X54157618Y-77619726D01*
X54178200Y-77619543D01*
X54422443Y-77618210D01*
X54624464Y-77619226D01*
X54792811Y-77623282D01*
X54936036Y-77631073D01*
X55062688Y-77643291D01*
X55181316Y-77660630D01*
X55300472Y-77683783D01*
X55428705Y-77713442D01*
X55473600Y-77724558D01*
X55622216Y-77752222D01*
X55819724Y-77773156D01*
X56064646Y-77787205D01*
X56081539Y-77787853D01*
X56231724Y-77795093D01*
X56363250Y-77804555D01*
X56467023Y-77815373D01*
X56533948Y-77826680D01*
X56551439Y-77832614D01*
X56596997Y-77845093D01*
X56684749Y-77858165D01*
X56806102Y-77871324D01*
X56952461Y-77884066D01*
X57115233Y-77895883D01*
X57285825Y-77906271D01*
X57455642Y-77914723D01*
X57616090Y-77920735D01*
X57758576Y-77923800D01*
X57874506Y-77923412D01*
X57955287Y-77919067D01*
X57974526Y-77916358D01*
X58051783Y-77891049D01*
X58134664Y-77848790D01*
X58149942Y-77838938D01*
X58180399Y-77819478D01*
X58211828Y-77804414D01*
X58251184Y-77792984D01*
X58305421Y-77784427D01*
X58381495Y-77777982D01*
X58486362Y-77772887D01*
X58626974Y-77768380D01*
X58810289Y-77763700D01*
X58844647Y-77762870D01*
X59051281Y-77758294D01*
X59291649Y-77753628D01*
X59548686Y-77749162D01*
X59805329Y-77745186D01*
X60044512Y-77741989D01*
X60134500Y-77740961D01*
X60356648Y-77737949D01*
X60534405Y-77733953D01*
X60674172Y-77728596D01*
X60782353Y-77721500D01*
X60865353Y-77712289D01*
X60929575Y-77700586D01*
X60961482Y-77692292D01*
X61093206Y-77668613D01*
X61250868Y-77662385D01*
X61412978Y-77672865D01*
X61558043Y-77699310D01*
X61607700Y-77714630D01*
X61665310Y-77725063D01*
X61773025Y-77732984D01*
X61930208Y-77738392D01*
X62136225Y-77741284D01*
X62390443Y-77741660D01*
X62692226Y-77739518D01*
X63040939Y-77734857D01*
X63435949Y-77727674D01*
X63792100Y-77719945D01*
X63907832Y-77719963D01*
X64051527Y-77723872D01*
X64200556Y-77730925D01*
X64277760Y-77735958D01*
X64427652Y-77744377D01*
X64536545Y-77744036D01*
X64613527Y-77734676D01*
X64646060Y-77725405D01*
X64701328Y-77713823D01*
X64797839Y-77702528D01*
X64926035Y-77692332D01*
X65076362Y-77684045D01*
X65180198Y-77680105D01*
X65331957Y-77675507D01*
X65450872Y-77673296D01*
X65548740Y-77674665D01*
X65637360Y-77680812D01*
X65728531Y-77692932D01*
X65834051Y-77712221D01*
X65965718Y-77739873D01*
X66133797Y-77776749D01*
X66229778Y-77791727D01*
X66335738Y-77799765D01*
X66360774Y-77800199D01*
X66454137Y-77806844D01*
X66566040Y-77823937D01*
X66637763Y-77839450D01*
X66693872Y-77851345D01*
X66759398Y-77860275D01*
X66840980Y-77866447D01*
X66945260Y-77870069D01*
X67078879Y-77871347D01*
X67248475Y-77870488D01*
X67460691Y-77867699D01*
X67515685Y-77866815D01*
X67704345Y-77863671D01*
X67878179Y-77860707D01*
X68030195Y-77858047D01*
X68153401Y-77855815D01*
X68240805Y-77854137D01*
X68285413Y-77853137D01*
X68287900Y-77853056D01*
X68336674Y-77853188D01*
X68428425Y-77855213D01*
X68555374Y-77858842D01*
X68709745Y-77863788D01*
X68883760Y-77869763D01*
X69069642Y-77876480D01*
X69259615Y-77883651D01*
X69445899Y-77890988D01*
X69620720Y-77898204D01*
X69776298Y-77905010D01*
X69904858Y-77911120D01*
X69998621Y-77916245D01*
X70002400Y-77916479D01*
X70141044Y-77928032D01*
X70252212Y-77943090D01*
X70326686Y-77960232D01*
X70348133Y-77969681D01*
X70393951Y-77988434D01*
X70477365Y-78012666D01*
X70585940Y-78039059D01*
X70691033Y-78061166D01*
X70980300Y-78117700D01*
X70971923Y-78422500D01*
X70970921Y-78557318D01*
X70974805Y-78683674D01*
X70982857Y-78786475D01*
X70991816Y-78841600D01*
X71001357Y-78907174D01*
X71009095Y-79014464D01*
X71014643Y-79154408D01*
X71017613Y-79317941D01*
X71017913Y-79451198D01*
X71016929Y-79621876D01*
X71015148Y-79749285D01*
X71011756Y-79840955D01*
X71005942Y-79904417D01*
X70996894Y-79947201D01*
X70983799Y-79976838D01*
X70965846Y-80000859D01*
X70957656Y-80009998D01*
X70914276Y-80060253D01*
X70872413Y-80116216D01*
X70827576Y-80185363D01*
X70775273Y-80275172D01*
X70711011Y-80393120D01*
X70630300Y-80546684D01*
X70599057Y-80606900D01*
X70513037Y-80770274D01*
X70442664Y-80895751D01*
X70382082Y-80991459D01*
X70325432Y-81065525D01*
X70266859Y-81126077D01*
X70200506Y-81181243D01*
X70167500Y-81205785D01*
X70067351Y-81272743D01*
X69973395Y-81319718D01*
X69870824Y-81351494D01*
X69744834Y-81372857D01*
X69608700Y-81386367D01*
X69544990Y-81389581D01*
X69434250Y-81392849D01*
X69280248Y-81396130D01*
X69086755Y-81399381D01*
X68857538Y-81402562D01*
X68596368Y-81405632D01*
X68307014Y-81408547D01*
X67993245Y-81411268D01*
X67658829Y-81413752D01*
X67307538Y-81415959D01*
X66943139Y-81417846D01*
X66629793Y-81419153D01*
X66126355Y-81421267D01*
X65672715Y-81423692D01*
X65267872Y-81426444D01*
X64910826Y-81429535D01*
X64600577Y-81432980D01*
X64336123Y-81436792D01*
X64116463Y-81440983D01*
X63940597Y-81445569D01*
X63807525Y-81450563D01*
X63716244Y-81455977D01*
X63683393Y-81459151D01*
X63630093Y-81463772D01*
X63549488Y-81467861D01*
X63439709Y-81471428D01*
X63298885Y-81474485D01*
X63125147Y-81477041D01*
X62916623Y-81479108D01*
X62671445Y-81480696D01*
X62387742Y-81481816D01*
X62063643Y-81482478D01*
X61697280Y-81482693D01*
X61286781Y-81482472D01*
X60830276Y-81481825D01*
X60325896Y-81480763D01*
X60020200Y-81479987D01*
X59587150Y-81478974D01*
X59154976Y-81478242D01*
X58727823Y-81477787D01*
X58309836Y-81477600D01*
X57905158Y-81477676D01*
X57517935Y-81478007D01*
X57152312Y-81478587D01*
X56812433Y-81479410D01*
X56502443Y-81480468D01*
X56226486Y-81481756D01*
X55988708Y-81483265D01*
X55793253Y-81484991D01*
X55644265Y-81486926D01*
X55638700Y-81487018D01*
X55384586Y-81490321D01*
X55113965Y-81492147D01*
X54838886Y-81492529D01*
X54571396Y-81491498D01*
X54323544Y-81489089D01*
X54107377Y-81485335D01*
X54000400Y-81482527D01*
X53813880Y-81475835D01*
X53638310Y-81467727D01*
X53481873Y-81458722D01*
X53352754Y-81449340D01*
X53259136Y-81440099D01*
X53213000Y-81432595D01*
X53145120Y-81418553D01*
X53054891Y-81405860D01*
X52939573Y-81394413D01*
X52796430Y-81384106D01*
X52622723Y-81374835D01*
X52415716Y-81366495D01*
X52172670Y-81358982D01*
X51890847Y-81352191D01*
X51567511Y-81346018D01*
X51199924Y-81340357D01*
X50785348Y-81335105D01*
X50609500Y-81333136D01*
X50267435Y-81329375D01*
X49972208Y-81325945D01*
X49719860Y-81322698D01*
X49506431Y-81319484D01*
X49327961Y-81316156D01*
X49180491Y-81312565D01*
X49060061Y-81308564D01*
X48962712Y-81304002D01*
X48884483Y-81298733D01*
X48821416Y-81292607D01*
X48769550Y-81285477D01*
X48724926Y-81277194D01*
X48683585Y-81267609D01*
X48653700Y-81259837D01*
X48564029Y-81238289D01*
X48474336Y-81222946D01*
X48373011Y-81212773D01*
X48248443Y-81206737D01*
X48089020Y-81203804D01*
X48018700Y-81203297D01*
X47793417Y-81200877D01*
X47610415Y-81195407D01*
X47461209Y-81185697D01*
X47337313Y-81170559D01*
X47230242Y-81148803D01*
X47131510Y-81119240D01*
X47032633Y-81080682D01*
X46980963Y-81057873D01*
X46877236Y-81009945D01*
X46808967Y-80973488D01*
X46765314Y-80939066D01*
X46735438Y-80897244D01*
X46708498Y-80838586D01*
X46697151Y-80810842D01*
X46659702Y-80725969D01*
X46623616Y-80655984D01*
X46602542Y-80623741D01*
X46572326Y-80574758D01*
X46537786Y-80500467D01*
X46524404Y-80466350D01*
X46513749Y-80432297D01*
X46505008Y-80390195D01*
X46497999Y-80335026D01*
X46492538Y-80261776D01*
X46488443Y-80165429D01*
X46485530Y-80040969D01*
X46483616Y-79883381D01*
X46482518Y-79687648D01*
X46482098Y-79472462D01*
X46576025Y-79472462D01*
X46587052Y-79718332D01*
X46611217Y-79946187D01*
X46618953Y-79996534D01*
X46663553Y-80232072D01*
X46712296Y-80418140D01*
X46765948Y-80555957D01*
X46825274Y-80646743D01*
X46891042Y-80691714D01*
X46964016Y-80692090D01*
X47034161Y-80656951D01*
X47077056Y-80614781D01*
X47104678Y-80554544D01*
X47118020Y-80468773D01*
X47118073Y-80349998D01*
X47105832Y-80190753D01*
X47101604Y-80149700D01*
X47090196Y-80021503D01*
X47081029Y-79877193D01*
X47074213Y-79725164D01*
X47069856Y-79573811D01*
X47068066Y-79431531D01*
X47068952Y-79306719D01*
X47072622Y-79207769D01*
X47079186Y-79143079D01*
X47088298Y-79121000D01*
X47106730Y-79143327D01*
X47129148Y-79200249D01*
X47140997Y-79241650D01*
X47171215Y-79352111D01*
X47208909Y-79477392D01*
X47249541Y-79603659D01*
X47288570Y-79717078D01*
X47321459Y-79803817D01*
X47336615Y-79837813D01*
X47407881Y-79935900D01*
X47497559Y-79995089D01*
X47596190Y-80012456D01*
X47694314Y-79985080D01*
X47732436Y-79960060D01*
X47775554Y-79918508D01*
X47810581Y-79863485D01*
X47842266Y-79784407D01*
X47875361Y-79670688D01*
X47892423Y-79603600D01*
X47965896Y-79329087D01*
X48040040Y-79095765D01*
X48114067Y-78905188D01*
X48187193Y-78758914D01*
X48258631Y-78658500D01*
X48327596Y-78605502D01*
X48393301Y-78601477D01*
X48397584Y-78603002D01*
X48433622Y-78631757D01*
X48459045Y-78689119D01*
X48474314Y-78779508D01*
X48479887Y-78907345D01*
X48476225Y-79077048D01*
X48465983Y-79260700D01*
X48454157Y-79467995D01*
X48445662Y-79678773D01*
X48440510Y-79885194D01*
X48438711Y-80079419D01*
X48440278Y-80253608D01*
X48445221Y-80399922D01*
X48453551Y-80510523D01*
X48464084Y-80573517D01*
X48506362Y-80660720D01*
X48574104Y-80735702D01*
X48652720Y-80785125D01*
X48708960Y-80797400D01*
X48776243Y-80786381D01*
X48852499Y-80759640D01*
X48857212Y-80757449D01*
X48909820Y-80720932D01*
X48956312Y-80661042D01*
X48999282Y-80571791D01*
X49041326Y-80447190D01*
X49085039Y-80281251D01*
X49109669Y-80174954D01*
X49134608Y-80040586D01*
X49346509Y-80040586D01*
X49382461Y-80186162D01*
X49419987Y-80258254D01*
X49520768Y-80376470D01*
X49650129Y-80454171D01*
X49805819Y-80491217D01*
X49985589Y-80487469D01*
X50187186Y-80442787D01*
X50408360Y-80357029D01*
X50476673Y-80324038D01*
X50573310Y-80278862D01*
X50631999Y-80260380D01*
X50657166Y-80267267D01*
X50658147Y-80269745D01*
X50668175Y-80311245D01*
X50684106Y-80384137D01*
X50696861Y-80445280D01*
X50720509Y-80531381D01*
X50750189Y-80600605D01*
X50769951Y-80628093D01*
X50868958Y-80688044D01*
X50980560Y-80708880D01*
X51089791Y-80690231D01*
X51175108Y-80638084D01*
X51208847Y-80597223D01*
X51240019Y-80536854D01*
X51270529Y-80450763D01*
X51302281Y-80332741D01*
X51337181Y-80176573D01*
X51375491Y-79984600D01*
X51408253Y-79780073D01*
X51422805Y-79644420D01*
X51590540Y-79644420D01*
X51609595Y-79846911D01*
X51666337Y-80043587D01*
X51758863Y-80223708D01*
X51866896Y-80358495D01*
X51969450Y-80440106D01*
X52102135Y-80514414D01*
X52244384Y-80570945D01*
X52325150Y-80591853D01*
X52474262Y-80610345D01*
X52649690Y-80615717D01*
X52828768Y-80608329D01*
X52988832Y-80588536D01*
X53027273Y-80580793D01*
X53221501Y-80530798D01*
X53381183Y-80476312D01*
X53500738Y-80419524D01*
X53569796Y-80367863D01*
X53634493Y-80300133D01*
X53640031Y-79527421D01*
X53853986Y-79527421D01*
X53858106Y-79789477D01*
X53901477Y-80022908D01*
X53983432Y-80226057D01*
X54103309Y-80397264D01*
X54256407Y-80532091D01*
X54406736Y-80617768D01*
X54554374Y-80660171D01*
X54711230Y-80660942D01*
X54889211Y-80621722D01*
X54894659Y-80620051D01*
X55043669Y-80560507D01*
X55181982Y-80480168D01*
X55304914Y-80384892D01*
X55407783Y-80280536D01*
X55485904Y-80172958D01*
X55534593Y-80068014D01*
X55549166Y-79971564D01*
X55524940Y-79889463D01*
X55501968Y-79860568D01*
X55437086Y-79816295D01*
X55366417Y-79812696D01*
X55283375Y-79851055D01*
X55195010Y-79920380D01*
X55091434Y-79996405D01*
X54972698Y-80058651D01*
X54852051Y-80102376D01*
X54742745Y-80122839D01*
X54658031Y-80115297D01*
X54654180Y-80113911D01*
X54603325Y-80082177D01*
X54560671Y-80036163D01*
X54538156Y-79991507D01*
X54542418Y-79967514D01*
X54571976Y-79958587D01*
X54638905Y-79946355D01*
X54730091Y-79933138D01*
X54753366Y-79930172D01*
X54949950Y-79887742D01*
X55134610Y-79813853D01*
X55299304Y-79714163D01*
X55435989Y-79594328D01*
X55536620Y-79460009D01*
X55586247Y-79344247D01*
X55604029Y-79204265D01*
X57310236Y-79204265D01*
X57323053Y-79501499D01*
X57361497Y-79779253D01*
X57413081Y-79988402D01*
X57500248Y-80201327D01*
X57617838Y-80381590D01*
X57761444Y-80525839D01*
X57926655Y-80630725D01*
X58109065Y-80692898D01*
X58304265Y-80709009D01*
X58356500Y-80705246D01*
X58443268Y-80687467D01*
X58552386Y-80653050D01*
X58661333Y-80609175D01*
X58669135Y-80605579D01*
X58851880Y-80498275D01*
X59010140Y-80361655D01*
X59142908Y-80201593D01*
X59249181Y-80023965D01*
X59327952Y-79834645D01*
X59378217Y-79639508D01*
X59398970Y-79444429D01*
X59389206Y-79255282D01*
X59347920Y-79077942D01*
X59276426Y-78923302D01*
X59541886Y-78923302D01*
X59549934Y-79130339D01*
X59594716Y-79321872D01*
X59674040Y-79490638D01*
X59785714Y-79629374D01*
X59871590Y-79698023D01*
X59998894Y-79752912D01*
X60147462Y-79767521D01*
X60309416Y-79743182D01*
X60476877Y-79681224D01*
X60641966Y-79582978D01*
X60668222Y-79563532D01*
X60725357Y-79525451D01*
X60765328Y-79508851D01*
X60773648Y-79510382D01*
X60777106Y-79541456D01*
X60770867Y-79607286D01*
X60757801Y-79685374D01*
X60700477Y-79904378D01*
X60623422Y-80080344D01*
X60527617Y-80212035D01*
X60414041Y-80298216D01*
X60283676Y-80337653D01*
X60237871Y-80340200D01*
X60135491Y-80360260D01*
X60063648Y-80413854D01*
X60026503Y-80491098D01*
X60028215Y-80582112D01*
X60072946Y-80677011D01*
X60087978Y-80696252D01*
X60145717Y-80756577D01*
X60204622Y-80793741D01*
X60278310Y-80811984D01*
X60380397Y-80815549D01*
X60460910Y-80812407D01*
X60591572Y-80800086D01*
X60697692Y-80774910D01*
X60805117Y-80730500D01*
X60817942Y-80724255D01*
X60930850Y-80658200D01*
X61025425Y-80576547D01*
X61109761Y-80469792D01*
X61191952Y-80328429D01*
X61242197Y-80226053D01*
X61335144Y-79987613D01*
X61389069Y-79789279D01*
X63302248Y-79789279D01*
X63314387Y-80020128D01*
X63338970Y-80240913D01*
X63374559Y-80446129D01*
X63419716Y-80630272D01*
X63473001Y-80787837D01*
X63532976Y-80913319D01*
X63598202Y-81001213D01*
X63667240Y-81046015D01*
X63695196Y-81050627D01*
X63740661Y-81042715D01*
X63787329Y-81027813D01*
X63851314Y-80979068D01*
X63882002Y-80893617D01*
X63879616Y-80770583D01*
X63868813Y-80707528D01*
X63847296Y-80592327D01*
X63827359Y-80468155D01*
X63819381Y-80410050D01*
X63801144Y-80264000D01*
X63930606Y-80264000D01*
X64089765Y-80244603D01*
X64256033Y-80191610D01*
X64407066Y-80112813D01*
X64448658Y-80083323D01*
X64607646Y-79933349D01*
X64743550Y-79750669D01*
X64851604Y-79546043D01*
X64927042Y-79330230D01*
X64930338Y-79311500D01*
X65191009Y-79311500D01*
X65194419Y-79505347D01*
X65209570Y-79665505D01*
X65239779Y-79808382D01*
X65288365Y-79950385D01*
X65347234Y-80084019D01*
X65463709Y-80279110D01*
X65610994Y-80442272D01*
X65782593Y-80567580D01*
X65963800Y-80646647D01*
X66122336Y-80668836D01*
X66290716Y-80642994D01*
X66409681Y-80597608D01*
X66570643Y-80494780D01*
X66716400Y-80349389D01*
X66844278Y-80168102D01*
X66951600Y-79957586D01*
X66998668Y-79827131D01*
X67359098Y-79827131D01*
X67402627Y-79906329D01*
X67426393Y-79929344D01*
X67453923Y-79956083D01*
X67475802Y-79988206D01*
X67494524Y-80034047D01*
X67512586Y-80101944D01*
X67532482Y-80200229D01*
X67556707Y-80337240D01*
X67567477Y-80400663D01*
X67601629Y-80590374D01*
X67633268Y-80735699D01*
X67664566Y-80842836D01*
X67697692Y-80917983D01*
X67734819Y-80967338D01*
X67776063Y-80996120D01*
X67845297Y-81021016D01*
X67907229Y-81015774D01*
X67958409Y-80995654D01*
X68000630Y-80971152D01*
X68035303Y-80936058D01*
X68064172Y-80884334D01*
X68088978Y-80809940D01*
X68111463Y-80706836D01*
X68133370Y-80568983D01*
X68156441Y-80390340D01*
X68172391Y-80253840D01*
X68184651Y-80152826D01*
X68195735Y-80073148D01*
X68203929Y-80026656D01*
X68206264Y-80019668D01*
X68233206Y-80012723D01*
X68299351Y-80000486D01*
X68393624Y-79984916D01*
X68467038Y-79973589D01*
X68649656Y-79942666D01*
X68786782Y-79910470D01*
X68883712Y-79874481D01*
X68945739Y-79832185D01*
X68948944Y-79827131D01*
X69137098Y-79827131D01*
X69180627Y-79906329D01*
X69204393Y-79929344D01*
X69231923Y-79956083D01*
X69253802Y-79988206D01*
X69272524Y-80034047D01*
X69290586Y-80101944D01*
X69310482Y-80200229D01*
X69334707Y-80337240D01*
X69345477Y-80400663D01*
X69379629Y-80590374D01*
X69411268Y-80735699D01*
X69442566Y-80842836D01*
X69475692Y-80917983D01*
X69512819Y-80967338D01*
X69554063Y-80996120D01*
X69623297Y-81021016D01*
X69685229Y-81015774D01*
X69736409Y-80995654D01*
X69778630Y-80971152D01*
X69813303Y-80936058D01*
X69842172Y-80884334D01*
X69866978Y-80809940D01*
X69889463Y-80706836D01*
X69911370Y-80568983D01*
X69934441Y-80390340D01*
X69950391Y-80253840D01*
X69962651Y-80152826D01*
X69973735Y-80073148D01*
X69981929Y-80026656D01*
X69984264Y-80019668D01*
X70011206Y-80012723D01*
X70077351Y-80000486D01*
X70171624Y-79984916D01*
X70245038Y-79973589D01*
X70427656Y-79942666D01*
X70564782Y-79910470D01*
X70661712Y-79874481D01*
X70723739Y-79832185D01*
X70756158Y-79781063D01*
X70764400Y-79726663D01*
X70740992Y-79641984D01*
X70676482Y-79576678D01*
X70580666Y-79539693D01*
X70520057Y-79531505D01*
X70423582Y-79521999D01*
X70306108Y-79512531D01*
X70217299Y-79506526D01*
X69938900Y-79489300D01*
X69909574Y-79286100D01*
X69894162Y-79171675D01*
X69880987Y-79060274D01*
X69872697Y-78974444D01*
X69872271Y-78968600D01*
X69864293Y-78854300D01*
X70079396Y-78836669D01*
X70282024Y-78816473D01*
X70439683Y-78792167D01*
X70558132Y-78762350D01*
X70643130Y-78725622D01*
X70694153Y-78687154D01*
X70752176Y-78599813D01*
X70760350Y-78506545D01*
X70718564Y-78411749D01*
X70701579Y-78389840D01*
X70652243Y-78342216D01*
X70590006Y-78305771D01*
X70508096Y-78279198D01*
X70399741Y-78261190D01*
X70258169Y-78250439D01*
X70076608Y-78245639D01*
X69951600Y-78245065D01*
X69769263Y-78246328D01*
X69629914Y-78251081D01*
X69525765Y-78261280D01*
X69449028Y-78278880D01*
X69391913Y-78305836D01*
X69346633Y-78344106D01*
X69305398Y-78395643D01*
X69295516Y-78409800D01*
X69234437Y-78498700D01*
X69250505Y-79043006D01*
X69266573Y-79587313D01*
X69199511Y-79657310D01*
X69143369Y-79742769D01*
X69137098Y-79827131D01*
X68948944Y-79827131D01*
X68978158Y-79781063D01*
X68986400Y-79726663D01*
X68962992Y-79641984D01*
X68898482Y-79576678D01*
X68802666Y-79539693D01*
X68742057Y-79531505D01*
X68645582Y-79521999D01*
X68528108Y-79512531D01*
X68439299Y-79506526D01*
X68160900Y-79489300D01*
X68131574Y-79286100D01*
X68116162Y-79171675D01*
X68102987Y-79060274D01*
X68094697Y-78974444D01*
X68094271Y-78968600D01*
X68086293Y-78854300D01*
X68301396Y-78836669D01*
X68504024Y-78816473D01*
X68661683Y-78792167D01*
X68780132Y-78762350D01*
X68865130Y-78725622D01*
X68916153Y-78687154D01*
X68974176Y-78599813D01*
X68982350Y-78506545D01*
X68940564Y-78411749D01*
X68923579Y-78389840D01*
X68874243Y-78342216D01*
X68812006Y-78305771D01*
X68730096Y-78279198D01*
X68621741Y-78261190D01*
X68480169Y-78250439D01*
X68298608Y-78245639D01*
X68173600Y-78245065D01*
X67991263Y-78246328D01*
X67851914Y-78251081D01*
X67747765Y-78261280D01*
X67671028Y-78278880D01*
X67613913Y-78305836D01*
X67568633Y-78344106D01*
X67527398Y-78395643D01*
X67517516Y-78409800D01*
X67456437Y-78498700D01*
X67472505Y-79043006D01*
X67488573Y-79587313D01*
X67421511Y-79657310D01*
X67365369Y-79742769D01*
X67359098Y-79827131D01*
X66998668Y-79827131D01*
X67035694Y-79724509D01*
X67093882Y-79475536D01*
X67123492Y-79217336D01*
X67121846Y-78956576D01*
X67111307Y-78848803D01*
X67092331Y-78728026D01*
X67067846Y-78612883D01*
X67042039Y-78521992D01*
X67031940Y-78495813D01*
X66964109Y-78389635D01*
X66876561Y-78320911D01*
X66778477Y-78291957D01*
X66679041Y-78305086D01*
X66587436Y-78362613D01*
X66570906Y-78379602D01*
X66547879Y-78406654D01*
X66530690Y-78434639D01*
X66518207Y-78471352D01*
X66509297Y-78524592D01*
X66502827Y-78602153D01*
X66497664Y-78711835D01*
X66492675Y-78861433D01*
X66490513Y-78932934D01*
X66483700Y-79121874D01*
X66475427Y-79268966D01*
X66464796Y-79383163D01*
X66450907Y-79473414D01*
X66432860Y-79548669D01*
X66426545Y-79569520D01*
X66367115Y-79720984D01*
X66299066Y-79831524D01*
X66225095Y-79898663D01*
X66147904Y-79919924D01*
X66072549Y-79894399D01*
X66002116Y-79818538D01*
X65955528Y-79700901D01*
X65933165Y-79544764D01*
X65935406Y-79353405D01*
X65962630Y-79130103D01*
X65975702Y-79057500D01*
X66008809Y-78872288D01*
X66028239Y-78727904D01*
X66034394Y-78616367D01*
X66027675Y-78529695D01*
X66008486Y-78459906D01*
X66006081Y-78453989D01*
X65941106Y-78355344D01*
X65848460Y-78289573D01*
X65740529Y-78264395D01*
X65704639Y-78266189D01*
X65600351Y-78294192D01*
X65509112Y-78353943D01*
X65427180Y-78450005D01*
X65350814Y-78586938D01*
X65276275Y-78769307D01*
X65264096Y-78803500D01*
X65232135Y-78901213D01*
X65211172Y-78986849D01*
X65198869Y-79076661D01*
X65192887Y-79186899D01*
X65191009Y-79311500D01*
X64930338Y-79311500D01*
X64965099Y-79113987D01*
X64962832Y-78922479D01*
X64919368Y-78728974D01*
X64841262Y-78560812D01*
X64734530Y-78420381D01*
X64605184Y-78310073D01*
X64459240Y-78232274D01*
X64302712Y-78189376D01*
X64141614Y-78183766D01*
X63981961Y-78217835D01*
X63829767Y-78293970D01*
X63691047Y-78414562D01*
X63689246Y-78416559D01*
X63550475Y-78600036D01*
X63444084Y-78807892D01*
X63368332Y-79045266D01*
X63321480Y-79317293D01*
X63303993Y-79553871D01*
X63302248Y-79789279D01*
X61389069Y-79789279D01*
X61411152Y-79708061D01*
X61468899Y-79394625D01*
X61507059Y-79054532D01*
X61524309Y-78695013D01*
X61524473Y-78685031D01*
X61525789Y-78540894D01*
X61523865Y-78437920D01*
X61517779Y-78366528D01*
X61506609Y-78317133D01*
X61489436Y-78280154D01*
X61484845Y-78272862D01*
X61398262Y-78182111D01*
X61287359Y-78125524D01*
X61165617Y-78106422D01*
X61046520Y-78128129D01*
X60996662Y-78152534D01*
X60934878Y-78209889D01*
X60865625Y-78308266D01*
X60821017Y-78387389D01*
X60707774Y-78590394D01*
X60595160Y-78766480D01*
X60486538Y-78911602D01*
X60385271Y-79021714D01*
X60294723Y-79092772D01*
X60218258Y-79120729D01*
X60211062Y-79121000D01*
X60169224Y-79116561D01*
X60137865Y-79099635D01*
X60116402Y-79064802D01*
X60104253Y-79006646D01*
X60100834Y-78919748D01*
X60105562Y-78798692D01*
X60117855Y-78638058D01*
X60137059Y-78433157D01*
X60144664Y-78342656D01*
X60142688Y-78287210D01*
X60127269Y-78251399D01*
X60094543Y-78219799D01*
X60080882Y-78208921D01*
X59994234Y-78167048D01*
X59905852Y-78172441D01*
X59819074Y-78221817D01*
X59737241Y-78311897D01*
X59663694Y-78439400D01*
X59601772Y-78601045D01*
X59572765Y-78708023D01*
X59541886Y-78923302D01*
X59276426Y-78923302D01*
X59274107Y-78918285D01*
X59166761Y-78782184D01*
X59024877Y-78675516D01*
X59001534Y-78662922D01*
X58839104Y-78607086D01*
X58661158Y-78596400D01*
X58473238Y-78629780D01*
X58280884Y-78706143D01*
X58089636Y-78824406D01*
X58059769Y-78846944D01*
X57966238Y-78919345D01*
X57950100Y-78075085D01*
X57878833Y-78013842D01*
X57784588Y-77961931D01*
X57684986Y-77955601D01*
X57591012Y-77992334D01*
X57513651Y-78069611D01*
X57494459Y-78101984D01*
X57454806Y-78201252D01*
X57415752Y-78340187D01*
X57379659Y-78507688D01*
X57348894Y-78692654D01*
X57325820Y-78883984D01*
X57324178Y-78901398D01*
X57310236Y-79204265D01*
X55604029Y-79204265D01*
X55606201Y-79187168D01*
X55579274Y-79032285D01*
X55509194Y-78886195D01*
X55399688Y-78755496D01*
X55254486Y-78646786D01*
X55166466Y-78601297D01*
X55082863Y-78566587D01*
X55011779Y-78546786D01*
X54934089Y-78538822D01*
X54830671Y-78539620D01*
X54791881Y-78541105D01*
X54570514Y-78571294D01*
X54377668Y-78642858D01*
X54211743Y-78756889D01*
X54071137Y-78914477D01*
X53957280Y-79110294D01*
X53909262Y-79219441D01*
X53879663Y-79313213D01*
X53862785Y-79414629D01*
X53853986Y-79527421D01*
X53640031Y-79527421D01*
X53641040Y-79386716D01*
X53642219Y-79071009D01*
X53640701Y-78801964D01*
X53636219Y-78575501D01*
X53628509Y-78387541D01*
X53617304Y-78234004D01*
X53602340Y-78110812D01*
X53583351Y-78013883D01*
X53560071Y-77939139D01*
X53544590Y-77904525D01*
X53491315Y-77816102D01*
X53436967Y-77768395D01*
X53368815Y-77752675D01*
X53325245Y-77754111D01*
X53267402Y-77762871D01*
X53222542Y-77782294D01*
X53188358Y-77818599D01*
X53162541Y-77878007D01*
X53142786Y-77966740D01*
X53126784Y-78091019D01*
X53112227Y-78257065D01*
X53105589Y-78346300D01*
X53094292Y-78513227D01*
X53084826Y-78635565D01*
X53072478Y-78719101D01*
X53052534Y-78769623D01*
X53020283Y-78792918D01*
X52971012Y-78794773D01*
X52900008Y-78780977D01*
X52802558Y-78757315D01*
X52775962Y-78751099D01*
X52672498Y-78729054D01*
X52594471Y-78719452D01*
X52520011Y-78722025D01*
X52427249Y-78736505D01*
X52376878Y-78746209D01*
X52164996Y-78803399D01*
X51992354Y-78886372D01*
X51851678Y-79000488D01*
X51735694Y-79151110D01*
X51673105Y-79264956D01*
X51611075Y-79446855D01*
X51590540Y-79644420D01*
X51422805Y-79644420D01*
X51431575Y-79562664D01*
X51445260Y-79342840D01*
X51449113Y-79131069D01*
X51442938Y-78937816D01*
X51426539Y-78773550D01*
X51400458Y-78651100D01*
X51319817Y-78452824D01*
X51214598Y-78299003D01*
X51084805Y-78189638D01*
X50981959Y-78140468D01*
X50825408Y-78109867D01*
X50651231Y-78118868D01*
X50467501Y-78163251D01*
X50282291Y-78238800D01*
X50103677Y-78341296D01*
X49939731Y-78466521D01*
X49798527Y-78610258D01*
X49688140Y-78768289D01*
X49654759Y-78833818D01*
X49619139Y-78922202D01*
X49608481Y-78986814D01*
X49621165Y-79047172D01*
X49634400Y-79078903D01*
X49689144Y-79144766D01*
X49772649Y-79187547D01*
X49835810Y-79197200D01*
X49873913Y-79180698D01*
X49938608Y-79136045D01*
X50020081Y-79070518D01*
X50089551Y-79009057D01*
X50249696Y-78872547D01*
X50387287Y-78779484D01*
X50504554Y-78728972D01*
X50603725Y-78720111D01*
X50687029Y-78752004D01*
X50701303Y-78762643D01*
X50732628Y-78794852D01*
X50752098Y-78838049D01*
X50763534Y-78905681D01*
X50770504Y-79006136D01*
X50772538Y-79101664D01*
X50768958Y-79176944D01*
X50760542Y-79218109D01*
X50758436Y-79220950D01*
X50724614Y-79226920D01*
X50653884Y-79225806D01*
X50559587Y-79217996D01*
X50527248Y-79214225D01*
X50400009Y-79201967D01*
X50295414Y-79202699D01*
X50186720Y-79217518D01*
X50120848Y-79230907D01*
X49896017Y-79293894D01*
X49714640Y-79377184D01*
X49572451Y-79483673D01*
X49465179Y-79616254D01*
X49416172Y-79708703D01*
X49357754Y-79882499D01*
X49346509Y-80040586D01*
X49134608Y-80040586D01*
X49165208Y-79875714D01*
X49200294Y-79571485D01*
X49215100Y-79270840D01*
X49209804Y-78982349D01*
X49184580Y-78714584D01*
X49139603Y-78476116D01*
X49075050Y-78275516D01*
X49070561Y-78264877D01*
X48989301Y-78127558D01*
X48877873Y-78012798D01*
X48747110Y-77928515D01*
X48607842Y-77882630D01*
X48539400Y-77876561D01*
X48460271Y-77891980D01*
X48356474Y-77933675D01*
X48241547Y-77994448D01*
X48129033Y-78067099D01*
X48032471Y-78144429D01*
X48028284Y-78148309D01*
X47894253Y-78293476D01*
X47770090Y-78464222D01*
X47672831Y-78636927D01*
X47667476Y-78648467D01*
X47637453Y-78704801D01*
X47612402Y-78722712D01*
X47587722Y-78699187D01*
X47558812Y-78631215D01*
X47535709Y-78562200D01*
X47473740Y-78397043D01*
X47397910Y-78238347D01*
X47317984Y-78106127D01*
X47303345Y-78085923D01*
X47205837Y-77988208D01*
X47100672Y-77938394D01*
X46994291Y-77935579D01*
X46893133Y-77978859D01*
X46803638Y-78067329D01*
X46747541Y-78163894D01*
X46694074Y-78313490D01*
X46649650Y-78503460D01*
X46614950Y-78724075D01*
X46590657Y-78965601D01*
X46577455Y-79218308D01*
X46576025Y-79472462D01*
X46482098Y-79472462D01*
X46482052Y-79448755D01*
X46481999Y-79304953D01*
G37*
G36*
X304023775Y-155659796D02*
G01*
X304053899Y-155761250D01*
X304066200Y-155967295D01*
X304068655Y-156308103D01*
X304068666Y-156370791D01*
X304066578Y-156734458D01*
X304054999Y-156960860D01*
X304025957Y-157082058D01*
X303971481Y-157130115D01*
X303883597Y-157137091D01*
X303878166Y-157136936D01*
X303645984Y-157094499D01*
X303497166Y-157039331D01*
X303398186Y-156975122D01*
X303340864Y-156873885D01*
X303314095Y-156694001D01*
X303306775Y-156393853D01*
X303306666Y-156325395D01*
X303310075Y-156005916D01*
X303327624Y-155819804D01*
X303370300Y-155731118D01*
X303449088Y-155703920D01*
X303497166Y-155702177D01*
X303742368Y-155678142D01*
X303878166Y-155649969D01*
X303967856Y-155632760D01*
X304023775Y-155659796D01*
G37*
G36*
X301929479Y-155689198D02*
G01*
X301952000Y-155788000D01*
X301920640Y-155925642D01*
X301877208Y-155957333D01*
X301798158Y-155886871D01*
X301758134Y-155788000D01*
X301764904Y-155646543D01*
X301832926Y-155618666D01*
X301929479Y-155689198D01*
G37*
G36*
X308250270Y-155680899D02*
G01*
X308241865Y-155788000D01*
X308174850Y-155925255D01*
X308122791Y-155957333D01*
X308061997Y-155886334D01*
X308048000Y-155788000D01*
X308097597Y-155650693D01*
X308167073Y-155618666D01*
X308250270Y-155680899D01*
G37*
G36*
X299876543Y-156357263D02*
G01*
X300332036Y-156530438D01*
X300687896Y-156799599D01*
X300923835Y-157148821D01*
X301019563Y-157562179D01*
X301020666Y-157613845D01*
X301007819Y-157731980D01*
X300941704Y-157793498D01*
X300780959Y-157816708D01*
X300555000Y-157820000D01*
X300288769Y-157815607D01*
X300150195Y-157787574D01*
X300097606Y-157713618D01*
X300089333Y-157571456D01*
X300089333Y-157570996D01*
X300063234Y-157375468D01*
X300004666Y-157269666D01*
X299947054Y-157305436D01*
X299920624Y-157477923D01*
X299920000Y-157518669D01*
X299920000Y-157820000D01*
X299422583Y-157820000D01*
X299143781Y-157815413D01*
X298989716Y-157787884D01*
X298915803Y-157716756D01*
X298877462Y-157581373D01*
X298874366Y-157566000D01*
X298810647Y-157387921D01*
X298727720Y-157312030D01*
X298726200Y-157312000D01*
X298665712Y-157384932D01*
X298679633Y-157566000D01*
X298730433Y-157820000D01*
X298224550Y-157820000D01*
X297943901Y-157815768D01*
X297792652Y-157791434D01*
X297730888Y-157729537D01*
X297718696Y-157612615D01*
X297718666Y-157598694D01*
X297789845Y-157281443D01*
X297980430Y-156946246D01*
X298255989Y-156645928D01*
X298420748Y-156521526D01*
X298653093Y-156391779D01*
X298885209Y-156322914D01*
X299187407Y-156297712D01*
X299341705Y-156296000D01*
X299876543Y-156357263D01*
G37*
G36*
X299115666Y-155545528D02*
G01*
X299308450Y-155453999D01*
X299408195Y-155364021D01*
X299411999Y-155348250D01*
X299493256Y-155299480D01*
X299732849Y-155290972D01*
X299941166Y-155304625D01*
X300470333Y-155351122D01*
X300047000Y-155239022D01*
X299750167Y-155170996D01*
X299481925Y-155126766D01*
X299389018Y-155118794D01*
X299216597Y-155076335D01*
X298987836Y-154976915D01*
X298754579Y-154849269D01*
X298568669Y-154722138D01*
X298481951Y-154624258D01*
X298480666Y-154615277D01*
X298537958Y-154530840D01*
X298676059Y-154396277D01*
X298679030Y-154393695D01*
X298865025Y-154201286D01*
X298983501Y-153984386D01*
X299047981Y-153700014D01*
X299067866Y-153372972D01*
X300443059Y-153372972D01*
X300479277Y-153633993D01*
X300681597Y-153890059D01*
X301048989Y-154137222D01*
X301232333Y-154228297D01*
X301751047Y-154386555D01*
X302334475Y-154430780D01*
X302921135Y-154359848D01*
X303239990Y-154264996D01*
X303654000Y-154070273D01*
X303972155Y-153841728D01*
X304161099Y-153604244D01*
X304177723Y-153565444D01*
X304175873Y-153550634D01*
X305857986Y-153550634D01*
X305978723Y-153794924D01*
X306079500Y-153895399D01*
X306517942Y-154173061D01*
X307050327Y-154352330D01*
X307628636Y-154427121D01*
X308204852Y-154391347D01*
X308730954Y-154238922D01*
X308744085Y-154233100D01*
X309181726Y-153993511D01*
X309454943Y-153742844D01*
X309562653Y-153485002D01*
X309503776Y-153223886D01*
X309277230Y-152963400D01*
X309126949Y-152851856D01*
X308624654Y-152612279D01*
X308021293Y-152499591D01*
X307310087Y-152512559D01*
X307277068Y-152515907D01*
X306882420Y-152577822D01*
X306580089Y-152688831D01*
X306293721Y-152883029D01*
X306121833Y-153031775D01*
X305905642Y-153297214D01*
X305857986Y-153550634D01*
X304175873Y-153550634D01*
X304157547Y-153403934D01*
X304028608Y-153191082D01*
X303824598Y-152967089D01*
X303579209Y-152772156D01*
X303450333Y-152697553D01*
X302994396Y-152546633D01*
X302456874Y-152487091D01*
X301894102Y-152515555D01*
X301362415Y-152628652D01*
X300918148Y-152823008D01*
X300873050Y-152851856D01*
X300573973Y-153110944D01*
X300443059Y-153372972D01*
X299067866Y-153372972D01*
X299071987Y-153305193D01*
X299073333Y-153140549D01*
X299151558Y-152343702D01*
X299375036Y-151544528D01*
X299726974Y-150789836D01*
X300127592Y-150202152D01*
X300312179Y-149993056D01*
X300570400Y-149722961D01*
X300856588Y-149437342D01*
X301125080Y-149181673D01*
X301330209Y-149001428D01*
X301345707Y-148989124D01*
X301883230Y-148648185D01*
X302547301Y-148355915D01*
X303298684Y-148126499D01*
X304098143Y-147974123D01*
X304183670Y-147963122D01*
X305261609Y-147910624D01*
X306298572Y-148022366D01*
X307294296Y-148298305D01*
X307978422Y-148595048D01*
X308300532Y-148764661D01*
X308557348Y-148925234D01*
X308798821Y-149114157D01*
X309074904Y-149368821D01*
X309274203Y-149565000D01*
X309603506Y-149901848D01*
X309846337Y-150177189D01*
X310042817Y-150441976D01*
X310233071Y-150747161D01*
X310309333Y-150879485D01*
X310669017Y-151647896D01*
X310871290Y-152423047D01*
X310926666Y-153140549D01*
X310940127Y-153582038D01*
X310989525Y-153898663D01*
X311088384Y-154133402D01*
X311250227Y-154329235D01*
X311320969Y-154393695D01*
X311460079Y-154528649D01*
X311519311Y-154614516D01*
X311519333Y-154615277D01*
X311449124Y-154707313D01*
X311273060Y-154832294D01*
X311042985Y-154961483D01*
X310810743Y-155066141D01*
X310628177Y-155117531D01*
X310610981Y-155118794D01*
X310389018Y-155145564D01*
X310094799Y-155204108D01*
X309953000Y-155239022D01*
X309529666Y-155351122D01*
X310058833Y-155304625D01*
X310387116Y-155289618D01*
X310560687Y-155315171D01*
X310588000Y-155348250D01*
X310659738Y-155432821D01*
X310836998Y-155527254D01*
X310884333Y-155545528D01*
X311076469Y-155627205D01*
X311176573Y-155693578D01*
X311180666Y-155703470D01*
X311105264Y-155792626D01*
X310910434Y-155895887D01*
X310643246Y-155996480D01*
X310350767Y-156077632D01*
X310080065Y-156122573D01*
X309993068Y-156126666D01*
X309735232Y-156143861D01*
X309590359Y-156189908D01*
X309572000Y-156219507D01*
X309519665Y-156328760D01*
X309384086Y-156516481D01*
X309238808Y-156690874D01*
X309045412Y-156941862D01*
X308900843Y-157186623D01*
X308851104Y-157317594D01*
X308822869Y-157437615D01*
X308785650Y-157536815D01*
X308724306Y-157617150D01*
X308623694Y-157680573D01*
X308468672Y-157729038D01*
X308244098Y-157764499D01*
X307934830Y-157788910D01*
X307525726Y-157804226D01*
X307001644Y-157812400D01*
X306347442Y-157815387D01*
X305547978Y-157815140D01*
X305002327Y-157814269D01*
X304046763Y-157810428D01*
X303227249Y-157802421D01*
X302549872Y-157790408D01*
X302020718Y-157774547D01*
X301645873Y-157754997D01*
X301431424Y-157731916D01*
X301388134Y-157720071D01*
X301230160Y-157561217D01*
X301152623Y-157350980D01*
X301062817Y-157126871D01*
X300884572Y-156849308D01*
X300724205Y-156652407D01*
X300541897Y-156433957D01*
X300426273Y-156264263D01*
X300402326Y-156180561D01*
X300359090Y-156149779D01*
X300189399Y-156130269D01*
X300045850Y-156126666D01*
X299802702Y-156100767D01*
X299513979Y-156033779D01*
X299226426Y-155941761D01*
X298986788Y-155840774D01*
X298841809Y-155746881D01*
X298819333Y-155705249D01*
X298890543Y-155645411D01*
X299018417Y-155586281D01*
X301556582Y-155586281D01*
X301639283Y-155784158D01*
X301790209Y-156018945D01*
X301936795Y-156195056D01*
X302231541Y-156454126D01*
X302622500Y-156723365D01*
X303044153Y-156962768D01*
X303430984Y-157132330D01*
X303516641Y-157159715D01*
X304245860Y-157304895D01*
X305033205Y-157351115D01*
X305810160Y-157297992D01*
X306406162Y-157175886D01*
X306844198Y-157009272D01*
X307310561Y-156763715D01*
X307740221Y-156477705D01*
X308063204Y-156195056D01*
X308250833Y-155961869D01*
X308387526Y-155731871D01*
X308450568Y-155549367D01*
X308435174Y-155469619D01*
X308337630Y-155463581D01*
X308121064Y-155486987D01*
X307832235Y-155534773D01*
X307830376Y-155535124D01*
X307209204Y-155600941D01*
X306540802Y-155585458D01*
X305899119Y-155493572D01*
X305486833Y-155379930D01*
X305000000Y-155208149D01*
X304513166Y-155379930D01*
X303938431Y-155524942D01*
X303282524Y-155597157D01*
X302619396Y-155591679D01*
X302169623Y-155535124D01*
X301880502Y-155487207D01*
X301663362Y-155463639D01*
X301564962Y-155469485D01*
X301564825Y-155469619D01*
X301556582Y-155586281D01*
X299018417Y-155586281D01*
X299066664Y-155563971D01*
X299115666Y-155545528D01*
G37*
G36*
X307370666Y-156164199D02*
G01*
X307357780Y-156452321D01*
X307307582Y-156626803D01*
X307202768Y-156742153D01*
X307182494Y-156756865D01*
X306992083Y-156869926D01*
X306871677Y-156874847D01*
X306806201Y-156754453D01*
X306780578Y-156491566D01*
X306778000Y-156296000D01*
X306778000Y-155703333D01*
X307370666Y-155703333D01*
X307370666Y-156164199D01*
G37*
G36*
X306013991Y-153294085D02*
G01*
X306218379Y-153062355D01*
X306547204Y-152855490D01*
X306955662Y-152692760D01*
X307398952Y-152593433D01*
X307693007Y-152571951D01*
X308156028Y-152611236D01*
X308611716Y-152721155D01*
X309014261Y-152885028D01*
X309317850Y-153086180D01*
X309422536Y-153201587D01*
X309484136Y-153418793D01*
X309385877Y-153652695D01*
X309135047Y-153892878D01*
X308792206Y-154102039D01*
X308447572Y-154214549D01*
X308001565Y-154269603D01*
X307511605Y-154268555D01*
X307035112Y-154212753D01*
X306629507Y-154103551D01*
X306505732Y-154048241D01*
X306166220Y-153830999D01*
X305990784Y-153614823D01*
X305984082Y-153523711D01*
X307405096Y-153523711D01*
X307422285Y-153646923D01*
X307526585Y-153973280D01*
X307641042Y-154135078D01*
X307760925Y-154131010D01*
X307881506Y-153959772D01*
X307947081Y-153791854D01*
X307999401Y-153508009D01*
X307987942Y-153214198D01*
X307923264Y-152957601D01*
X307815921Y-152785400D01*
X307711731Y-152740000D01*
X307592619Y-152815745D01*
X307490420Y-153007297D01*
X307422218Y-153261128D01*
X307405096Y-153523711D01*
X305984082Y-153523711D01*
X305974394Y-153392001D01*
X306013991Y-153294085D01*
G37*
G36*
X303222000Y-156296000D02*
G01*
X303210961Y-156638584D01*
X303167796Y-156829872D01*
X303077429Y-156887039D01*
X302924785Y-156827263D01*
X302817505Y-156756865D01*
X302703550Y-156645486D01*
X302646664Y-156482700D01*
X302629542Y-156213999D01*
X302629333Y-156164199D01*
X302629333Y-155703333D01*
X303222000Y-155703333D01*
X303222000Y-156296000D01*
G37*
G36*
X309264420Y-144686118D02*
G01*
X309391166Y-144888483D01*
X309548621Y-145189110D01*
X309721989Y-145558016D01*
X309896471Y-145965216D01*
X310057271Y-146380725D01*
X310060639Y-146390000D01*
X310359472Y-147355574D01*
X310579805Y-148367687D01*
X310712242Y-149370448D01*
X310747389Y-150307968D01*
X310743255Y-150450781D01*
X310715000Y-151167229D01*
X310355802Y-150615187D01*
X310007622Y-150138618D01*
X309590812Y-149660782D01*
X309136741Y-149210584D01*
X308676777Y-148816925D01*
X308242289Y-148508710D01*
X307864646Y-148314839D01*
X307855582Y-148311480D01*
X307756581Y-148249320D01*
X307773912Y-148139302D01*
X307813249Y-148064088D01*
X307909711Y-147903450D01*
X307963333Y-147829333D01*
X308025896Y-147734898D01*
X308134442Y-147545930D01*
X308187705Y-147448333D01*
X308354157Y-147143465D01*
X308531631Y-146825131D01*
X308562290Y-146771000D01*
X308773756Y-146387952D01*
X308965136Y-146021076D01*
X309121969Y-145700384D01*
X309229792Y-145455885D01*
X309274143Y-145317591D01*
X309271502Y-145299280D01*
X309222869Y-145288637D01*
X309152736Y-145354549D01*
X309047950Y-145516972D01*
X308895356Y-145795863D01*
X308719965Y-146136000D01*
X308568091Y-146425781D01*
X308378306Y-146775158D01*
X308170910Y-147148270D01*
X307966200Y-147509255D01*
X307784476Y-147822255D01*
X307646035Y-148051408D01*
X307579040Y-148151607D01*
X307494640Y-148142113D01*
X307299286Y-148090053D01*
X307127907Y-148036650D01*
X306871313Y-147937915D01*
X306764261Y-147836740D01*
X306799440Y-147698129D01*
X306969541Y-147487087D01*
X307005030Y-147448333D01*
X307129668Y-147299648D01*
X307316770Y-147060931D01*
X307529523Y-146779324D01*
X307567002Y-146728666D01*
X307773903Y-146449928D01*
X307954216Y-146210341D01*
X308074582Y-146054160D01*
X308088662Y-146036660D01*
X308187015Y-145905040D01*
X308351147Y-145673958D01*
X308552156Y-145384343D01*
X308641716Y-145253493D01*
X308844785Y-144971221D01*
X309022670Y-144752284D01*
X309148600Y-144628396D01*
X309183182Y-144611999D01*
X309264420Y-144686118D01*
G37*
G36*
X300577463Y-153201587D02*
G01*
X300810434Y-152987496D01*
X301166515Y-152801889D01*
X301599893Y-152661445D01*
X302064758Y-152582841D01*
X302306992Y-152571951D01*
X302748557Y-152618042D01*
X303185297Y-152740441D01*
X303572409Y-152919880D01*
X303865088Y-153137089D01*
X303986008Y-153294085D01*
X304035696Y-153520291D01*
X303930135Y-153735575D01*
X303663763Y-153948203D01*
X303475774Y-154052447D01*
X303244172Y-154157252D01*
X303020841Y-154220549D01*
X302750973Y-154251801D01*
X302379761Y-154260472D01*
X302272314Y-154260258D01*
X301835321Y-154248068D01*
X301522774Y-154211999D01*
X301290673Y-154145461D01*
X301190000Y-154098151D01*
X300814925Y-153855975D01*
X300587709Y-153613548D01*
X300559694Y-153523711D01*
X301986430Y-153523711D01*
X302003618Y-153646923D01*
X302107919Y-153973280D01*
X302222375Y-154135078D01*
X302342258Y-154131010D01*
X302462840Y-153959772D01*
X302528415Y-153791854D01*
X302580734Y-153508009D01*
X302569276Y-153214198D01*
X302504597Y-152957601D01*
X302397254Y-152785400D01*
X302293064Y-152740000D01*
X302173952Y-152815745D01*
X302071753Y-153007297D01*
X302003551Y-153261128D01*
X301986430Y-153523711D01*
X300559694Y-153523711D01*
X300515123Y-153380781D01*
X300577463Y-153201587D01*
G37*
G36*
X311178541Y-156327224D02*
G01*
X311376732Y-156391011D01*
X311709798Y-156626103D01*
X311994546Y-156943791D01*
X312196376Y-157295499D01*
X312280691Y-157632653D01*
X312281333Y-157661006D01*
X312259938Y-157749790D01*
X312170498Y-157797998D01*
X311975127Y-157817347D01*
X311767274Y-157820000D01*
X311484498Y-157816104D01*
X311333649Y-157793779D01*
X311277336Y-157737070D01*
X311278171Y-157630018D01*
X311280440Y-157612238D01*
X311271450Y-157445880D01*
X311223000Y-157379404D01*
X311153796Y-157433009D01*
X311111542Y-157587166D01*
X311086805Y-157716770D01*
X311022546Y-157786366D01*
X310876458Y-157814568D01*
X310606236Y-157819992D01*
X310582376Y-157820000D01*
X310080000Y-157820000D01*
X310080000Y-157518669D01*
X310059944Y-157326021D01*
X310006890Y-157264747D01*
X309995333Y-157269666D01*
X309934333Y-157384122D01*
X309910666Y-157570996D01*
X309903862Y-157707909D01*
X309857078Y-157782339D01*
X309730759Y-157813331D01*
X309485348Y-157819929D01*
X309393488Y-157820000D01*
X309110115Y-157816656D01*
X308960641Y-157796064D01*
X308909635Y-157742379D01*
X308921668Y-157639760D01*
X308928497Y-157612067D01*
X309080093Y-157163118D01*
X309296256Y-156831368D01*
X309613717Y-156566988D01*
X309766780Y-156474817D01*
X310056891Y-156368763D01*
X310432208Y-156306557D01*
X310827751Y-156291583D01*
X311178541Y-156327224D01*
G37*
G36*
X304931093Y-155424401D02*
G01*
X304982452Y-155547543D01*
X304999338Y-155790169D01*
X305000151Y-156174472D01*
X305000000Y-156290294D01*
X305000000Y-157227333D01*
X304633111Y-157227333D01*
X304395523Y-157215324D01*
X304236050Y-157185177D01*
X304209777Y-157170888D01*
X304184356Y-157065914D01*
X304164877Y-156834042D01*
X304154357Y-156517682D01*
X304153333Y-156376827D01*
X304155492Y-156021993D01*
X304168958Y-155799269D01*
X304204210Y-155671434D01*
X304271730Y-155601267D01*
X304381997Y-155551548D01*
X304386166Y-155549948D01*
X304651351Y-155447797D01*
X304826859Y-155398550D01*
X304931093Y-155424401D01*
G37*
G36*
X305317500Y-155446425D02*
G01*
X305565293Y-155522761D01*
X305721181Y-155596338D01*
X305805023Y-155704680D01*
X305836678Y-155885311D01*
X305836005Y-156175757D01*
X305828541Y-156412058D01*
X305804333Y-157185000D01*
X305444500Y-157211034D01*
X305084666Y-157237069D01*
X305084666Y-155376487D01*
X305317500Y-155446425D01*
G37*
G36*
X300911980Y-144686234D02*
G01*
X301063760Y-144851340D01*
X301254942Y-145100697D01*
X301367685Y-145263108D01*
X301566152Y-145555181D01*
X301731091Y-145791035D01*
X301838796Y-145937108D01*
X301864590Y-145966666D01*
X301942474Y-146057331D01*
X302073437Y-146233424D01*
X302124206Y-146305333D01*
X302279217Y-146523479D01*
X302408520Y-146698134D01*
X302432394Y-146728666D01*
X302533999Y-146855302D01*
X302705915Y-147069463D01*
X302912420Y-147326652D01*
X302929332Y-147347712D01*
X303114358Y-147588329D01*
X303242239Y-147774562D01*
X303289336Y-147871518D01*
X303287624Y-147876597D01*
X303191537Y-147920524D01*
X302988419Y-147990935D01*
X302855281Y-148032465D01*
X302615682Y-148099005D01*
X302478417Y-148104117D01*
X302384060Y-148036449D01*
X302302769Y-147926913D01*
X302177692Y-147728808D01*
X301996475Y-147417382D01*
X301779767Y-147030238D01*
X301548216Y-146604977D01*
X301322472Y-146179201D01*
X301123183Y-145790510D01*
X301063573Y-145670333D01*
X300936199Y-145435425D01*
X300837870Y-145300448D01*
X300788149Y-145291897D01*
X300787151Y-145295924D01*
X300815404Y-145426800D01*
X300917234Y-145678950D01*
X301080235Y-146027770D01*
X301291998Y-146448655D01*
X301540117Y-146917000D01*
X301812184Y-147408203D01*
X302095791Y-147897657D01*
X302117840Y-147934716D01*
X302230137Y-148133562D01*
X302256504Y-148235974D01*
X302201053Y-148288931D01*
X302150597Y-148309108D01*
X301773934Y-148499856D01*
X301339549Y-148805185D01*
X300879237Y-149195936D01*
X300424794Y-149642955D01*
X300008014Y-150117082D01*
X299660694Y-150589162D01*
X299655419Y-150597239D01*
X299484924Y-150852824D01*
X299351317Y-151041754D01*
X299279478Y-151129096D01*
X299275055Y-151131333D01*
X299260672Y-151053025D01*
X299249569Y-150843519D01*
X299243396Y-150540945D01*
X299242666Y-150383123D01*
X299271410Y-149707752D01*
X299351610Y-148943416D01*
X299474216Y-148159308D01*
X299628973Y-147429502D01*
X299752640Y-146986522D01*
X299909575Y-146512143D01*
X300087333Y-146035439D01*
X300273470Y-145585486D01*
X300455542Y-145191358D01*
X300621105Y-144882131D01*
X300757716Y-144686879D01*
X300825070Y-144634865D01*
X300911980Y-144686234D01*
G37*
G36*
X306149924Y-155651941D02*
G01*
X306341211Y-155693291D01*
X306488591Y-155703333D01*
X306593646Y-155712345D01*
X306654779Y-155763391D01*
X306683858Y-155892489D01*
X306692749Y-156135654D01*
X306693333Y-156324743D01*
X306689178Y-156647379D01*
X306668286Y-156842910D01*
X306618019Y-156953511D01*
X306525739Y-157021361D01*
X306477682Y-157044409D01*
X306272572Y-157127765D01*
X306139263Y-157138592D01*
X306062377Y-157054480D01*
X306026532Y-156853015D01*
X306016350Y-156511784D01*
X306016000Y-156371608D01*
X306019517Y-156006431D01*
X306033587Y-155782151D01*
X306063486Y-155670414D01*
X306114491Y-155642865D01*
X306149924Y-155651941D01*
G37*
G36*
X302302072Y-155662843D02*
G01*
X302311833Y-155665812D01*
X302455790Y-155713456D01*
X302525724Y-155774273D01*
X302543391Y-155898661D01*
X302530547Y-156137017D01*
X302528510Y-156167730D01*
X302502333Y-156565662D01*
X302311833Y-156399733D01*
X302158463Y-156176992D01*
X302121333Y-155920530D01*
X302131602Y-155718126D01*
X302182035Y-155645352D01*
X302302072Y-155662843D01*
G37*
G36*
X307958210Y-155687632D02*
G01*
X307966669Y-155853385D01*
X307933116Y-156055870D01*
X307865457Y-156233874D01*
X307811498Y-156303705D01*
X307611602Y-156462193D01*
X307504913Y-156490229D01*
X307462489Y-156374636D01*
X307455333Y-156141538D01*
X307482989Y-155851094D01*
X307584884Y-155690338D01*
X307789405Y-155625950D01*
X307899833Y-155619822D01*
X307958210Y-155687632D01*
G37*
G36*
X85101446Y-99029563D02*
G01*
X85199152Y-99044917D01*
X85223645Y-99050900D01*
X85260863Y-99064751D01*
X85341317Y-99097307D01*
X85461609Y-99147130D01*
X85618341Y-99212777D01*
X85808114Y-99292809D01*
X86027532Y-99385785D01*
X86273196Y-99490264D01*
X86541708Y-99604806D01*
X86829669Y-99727970D01*
X87133683Y-99858314D01*
X87450350Y-99994400D01*
X87535045Y-100030850D01*
X87939812Y-100205365D01*
X88299715Y-100361124D01*
X88616736Y-100499016D01*
X88892858Y-100619931D01*
X89130063Y-100724761D01*
X89330335Y-100814395D01*
X89495654Y-100889725D01*
X89628005Y-100951639D01*
X89729369Y-101001030D01*
X89801730Y-101038786D01*
X89847068Y-101065799D01*
X89859081Y-101074603D01*
X89970932Y-101188457D01*
X90082490Y-101343654D01*
X90187914Y-101531039D01*
X90276179Y-101728300D01*
X90293582Y-101777963D01*
X90324368Y-101872392D01*
X90367355Y-102007684D01*
X90421358Y-102179938D01*
X90485194Y-102385252D01*
X90557677Y-102619724D01*
X90637625Y-102879454D01*
X90723854Y-103160539D01*
X90815179Y-103459078D01*
X90910418Y-103771170D01*
X91008385Y-104092912D01*
X91107897Y-104420404D01*
X91207771Y-104749744D01*
X91306822Y-105077029D01*
X91403866Y-105398359D01*
X91497720Y-105709833D01*
X91587200Y-106007548D01*
X91671122Y-106287603D01*
X91748301Y-106546096D01*
X91817555Y-106779126D01*
X91877699Y-106982791D01*
X91927549Y-107153190D01*
X91965922Y-107286422D01*
X91991633Y-107378583D01*
X91998066Y-107402913D01*
X92034562Y-107588275D01*
X92044978Y-107752780D01*
X92030009Y-107890465D01*
X91990351Y-107995366D01*
X91926700Y-108061521D01*
X91920806Y-108064847D01*
X91851918Y-108083411D01*
X91754175Y-108088274D01*
X91647489Y-108079978D01*
X91551766Y-108059065D01*
X91538400Y-108054436D01*
X91501386Y-108038659D01*
X91422432Y-108003478D01*
X91305709Y-107950812D01*
X91155385Y-107882577D01*
X90975630Y-107800691D01*
X90770614Y-107707070D01*
X90544508Y-107603632D01*
X90301480Y-107492295D01*
X90045700Y-107374975D01*
X89781338Y-107253590D01*
X89512564Y-107130056D01*
X89243547Y-107006291D01*
X88978458Y-106884213D01*
X88721465Y-106765738D01*
X88476739Y-106652783D01*
X88248449Y-106547266D01*
X88040766Y-106451104D01*
X87857858Y-106366214D01*
X87703896Y-106294514D01*
X87583049Y-106237920D01*
X87499487Y-106198350D01*
X87463233Y-106180717D01*
X87372333Y-106132986D01*
X87290308Y-106086427D01*
X87241878Y-106055782D01*
X87183048Y-106017907D01*
X87157702Y-106014242D01*
X87160651Y-106046061D01*
X87170228Y-106073353D01*
X87193366Y-106199438D01*
X87178464Y-106339121D01*
X87129320Y-106477186D01*
X87049732Y-106598418D01*
X87035169Y-106614457D01*
X86907178Y-106716897D01*
X86765959Y-106775934D01*
X86619227Y-106794260D01*
X86474701Y-106774569D01*
X86340097Y-106719554D01*
X86223131Y-106631908D01*
X86131521Y-106514324D01*
X86072983Y-106369496D01*
X86057146Y-106273113D01*
X86065024Y-106105940D01*
X86119058Y-105959449D01*
X86220442Y-105830677D01*
X86244167Y-105808838D01*
X86387295Y-105711612D01*
X86538813Y-105663662D01*
X86696514Y-105665646D01*
X86714581Y-105669030D01*
X86789673Y-105681219D01*
X86820424Y-105677357D01*
X86818994Y-105666971D01*
X86796794Y-105633122D01*
X86755603Y-105570403D01*
X86704336Y-105492391D01*
X86704325Y-105492374D01*
X86639441Y-105385185D01*
X86573269Y-105262621D01*
X86533792Y-105180899D01*
X86516428Y-105135052D01*
X86484940Y-105044052D01*
X86440400Y-104911219D01*
X86383879Y-104739873D01*
X86316450Y-104533334D01*
X86239186Y-104294923D01*
X86153158Y-104027960D01*
X86059439Y-103735765D01*
X85959100Y-103421658D01*
X85853215Y-103088959D01*
X85742855Y-102740990D01*
X85629092Y-102381070D01*
X85605357Y-102305824D01*
X85471053Y-101879647D01*
X85351319Y-101499071D01*
X85245321Y-101161289D01*
X85152225Y-100863495D01*
X85071197Y-100602880D01*
X85001402Y-100376639D01*
X84942007Y-100181965D01*
X84892176Y-100016050D01*
X84851077Y-99876088D01*
X84817874Y-99759271D01*
X84791734Y-99662793D01*
X84771822Y-99583846D01*
X84757304Y-99519624D01*
X84747346Y-99467321D01*
X84741114Y-99424128D01*
X84737774Y-99387239D01*
X84737717Y-99386319D01*
X84732208Y-99283108D01*
X84733268Y-99216485D01*
X84744085Y-99172351D01*
X84767847Y-99136607D01*
X84802322Y-99100569D01*
X84861809Y-99050642D01*
X84923264Y-99028149D01*
X85002296Y-99023341D01*
X85101446Y-99029563D01*
G37*
G36*
X89950943Y-115418653D02*
G01*
X90106285Y-115465349D01*
X90294946Y-115547806D01*
X90295618Y-115548133D01*
X90366327Y-115583375D01*
X90475348Y-115638823D01*
X90618804Y-115712449D01*
X90792818Y-115802226D01*
X90993513Y-115906123D01*
X91217013Y-116022115D01*
X91459441Y-116148171D01*
X91716919Y-116282265D01*
X91985572Y-116422367D01*
X92261522Y-116566450D01*
X92540892Y-116712485D01*
X92819807Y-116858444D01*
X93094388Y-117002299D01*
X93360760Y-117142022D01*
X93615044Y-117275584D01*
X93853366Y-117400958D01*
X94071847Y-117516115D01*
X94266611Y-117619026D01*
X94433781Y-117707664D01*
X94569481Y-117780000D01*
X94669833Y-117834006D01*
X94730961Y-117867655D01*
X94745787Y-117876325D01*
X94902765Y-118003853D01*
X95040961Y-118177283D01*
X95159276Y-118394891D01*
X95256608Y-118654958D01*
X95268743Y-118695500D01*
X95300611Y-118807685D01*
X95342233Y-118958302D01*
X95392560Y-119143318D01*
X95450543Y-119358700D01*
X95515132Y-119600414D01*
X95585277Y-119864426D01*
X95659929Y-120146704D01*
X95738038Y-120443213D01*
X95818555Y-120749921D01*
X95900430Y-121062794D01*
X95982613Y-121377799D01*
X96064054Y-121690902D01*
X96143705Y-121998070D01*
X96220515Y-122295269D01*
X96293436Y-122578467D01*
X96361416Y-122843629D01*
X96423407Y-123086723D01*
X96478360Y-123303715D01*
X96525224Y-123490572D01*
X96562950Y-123643260D01*
X96590488Y-123757745D01*
X96606789Y-123829995D01*
X96610955Y-123853320D01*
X96607266Y-124000740D01*
X96568613Y-124111908D01*
X96497436Y-124184939D01*
X96396172Y-124217946D01*
X96267261Y-124209044D01*
X96182642Y-124184600D01*
X96101938Y-124150539D01*
X96010150Y-124104619D01*
X95979442Y-124087488D01*
X95780455Y-123971968D01*
X95558408Y-123842689D01*
X95317053Y-123701861D01*
X95060141Y-123551691D01*
X94791422Y-123394388D01*
X94514649Y-123232161D01*
X94233573Y-123067217D01*
X93951944Y-122901766D01*
X93673514Y-122738016D01*
X93402035Y-122578174D01*
X93141257Y-122424451D01*
X92894931Y-122279053D01*
X92666809Y-122144191D01*
X92460643Y-122022071D01*
X92280183Y-121914902D01*
X92129180Y-121824893D01*
X92011387Y-121754253D01*
X91930553Y-121705189D01*
X91894000Y-121682292D01*
X91723149Y-121558554D01*
X91558645Y-121417792D01*
X91409910Y-121269519D01*
X91286366Y-121123246D01*
X91197437Y-120988482D01*
X91187138Y-120968800D01*
X91169948Y-120924924D01*
X91139522Y-120836541D01*
X91097134Y-120707824D01*
X91044060Y-120542947D01*
X90981576Y-120346086D01*
X90910959Y-120121415D01*
X90833483Y-119873107D01*
X90750424Y-119605339D01*
X90663058Y-119322284D01*
X90572662Y-119028117D01*
X90480510Y-118727012D01*
X90387878Y-118423145D01*
X90296043Y-118120688D01*
X90206279Y-117823818D01*
X90119864Y-117536708D01*
X90038071Y-117263533D01*
X89962178Y-117008468D01*
X89893460Y-116775687D01*
X89833192Y-116569364D01*
X89782651Y-116393674D01*
X89743112Y-116252792D01*
X89721963Y-116174454D01*
X89668909Y-115943703D01*
X89642965Y-115755493D01*
X89645019Y-115608855D01*
X89675957Y-115502820D01*
X89736665Y-115436420D01*
X89828032Y-115408687D01*
X89950943Y-115418653D01*
G37*
G36*
X98352527Y-95733135D02*
G01*
X98400953Y-95747576D01*
X98492240Y-95779035D01*
X98622790Y-95826112D01*
X98789002Y-95887406D01*
X98987277Y-95961518D01*
X99214015Y-96047049D01*
X99465615Y-96142597D01*
X99738477Y-96246764D01*
X100029003Y-96358149D01*
X100333592Y-96475353D01*
X100648644Y-96596976D01*
X100970559Y-96721617D01*
X101295737Y-96847877D01*
X101620579Y-96974356D01*
X101941484Y-97099654D01*
X102254852Y-97222371D01*
X102557085Y-97341108D01*
X102844581Y-97454464D01*
X103113740Y-97561040D01*
X103360964Y-97659435D01*
X103582652Y-97748251D01*
X103775204Y-97826086D01*
X103935020Y-97891541D01*
X104058501Y-97943217D01*
X104142046Y-97979712D01*
X104182055Y-97999629D01*
X104183412Y-98000571D01*
X104290330Y-98105625D01*
X104350161Y-98223583D01*
X104361661Y-98350223D01*
X104324422Y-98479576D01*
X104318719Y-98490751D01*
X104311119Y-98502602D01*
X104299893Y-98516310D01*
X104283314Y-98533059D01*
X104259654Y-98554031D01*
X104227187Y-98580408D01*
X104184184Y-98613373D01*
X104128917Y-98654107D01*
X104059660Y-98703794D01*
X103974684Y-98763616D01*
X103872262Y-98834754D01*
X103750667Y-98918392D01*
X103608170Y-99015713D01*
X103443045Y-99127897D01*
X103253564Y-99256128D01*
X103037998Y-99401588D01*
X102794622Y-99565459D01*
X102521706Y-99748924D01*
X102217524Y-99953166D01*
X101880348Y-100179366D01*
X101508450Y-100428707D01*
X101100103Y-100702371D01*
X100653579Y-101001541D01*
X100167151Y-101327399D01*
X99995219Y-101442570D01*
X99690232Y-101646702D01*
X99424272Y-101824280D01*
X99194297Y-101977228D01*
X98997268Y-102107469D01*
X98830142Y-102216927D01*
X98689879Y-102307525D01*
X98573439Y-102381187D01*
X98477779Y-102439837D01*
X98399860Y-102485397D01*
X98336641Y-102519792D01*
X98285079Y-102544946D01*
X98242136Y-102562781D01*
X98204769Y-102575221D01*
X98204519Y-102575294D01*
X97952167Y-102629749D01*
X97718171Y-102640018D01*
X97606857Y-102628834D01*
X97557484Y-102615164D01*
X97462084Y-102582225D01*
X97321500Y-102530350D01*
X97136572Y-102459868D01*
X96908143Y-102371110D01*
X96637053Y-102264405D01*
X96324145Y-102140085D01*
X95970259Y-101998480D01*
X95576237Y-101839919D01*
X95142920Y-101664734D01*
X94889057Y-101561783D01*
X94543290Y-101421349D01*
X94209786Y-101285753D01*
X93891676Y-101156277D01*
X93592095Y-101034203D01*
X93314175Y-100920811D01*
X93061048Y-100817383D01*
X92835848Y-100725201D01*
X92641707Y-100645545D01*
X92481758Y-100579696D01*
X92359134Y-100528937D01*
X92276968Y-100494548D01*
X92238392Y-100477811D01*
X92236900Y-100477080D01*
X92078040Y-100376458D01*
X91967517Y-100261608D01*
X91904640Y-100131605D01*
X91888138Y-100009732D01*
X91897487Y-99907727D01*
X91932211Y-99822270D01*
X91961990Y-99776173D01*
X91982422Y-99753683D01*
X92021259Y-99719033D01*
X92080232Y-99670972D01*
X92161070Y-99608251D01*
X92265503Y-99529618D01*
X92395261Y-99433824D01*
X92552074Y-99319617D01*
X92737670Y-99185749D01*
X92953779Y-99030967D01*
X93202132Y-98854023D01*
X93484457Y-98653665D01*
X93802484Y-98428643D01*
X94157944Y-98177707D01*
X94552565Y-97899606D01*
X94752571Y-97758797D01*
X95086658Y-97523776D01*
X95410283Y-97296345D01*
X95720911Y-97078275D01*
X96016003Y-96871338D01*
X96293025Y-96677303D01*
X96549440Y-96497942D01*
X96782711Y-96335027D01*
X96990302Y-96190328D01*
X97169675Y-96065616D01*
X97318296Y-95962663D01*
X97433627Y-95883239D01*
X97513132Y-95829116D01*
X97554275Y-95802065D01*
X97558200Y-95799776D01*
X97727082Y-95735831D01*
X97925639Y-95703366D01*
X98142973Y-95703296D01*
X98352527Y-95733135D01*
G37*
G36*
X91624064Y-100609600D02*
G01*
X91750481Y-100626942D01*
X91776563Y-100631865D01*
X91996527Y-100682874D01*
X92255840Y-100756400D01*
X92549460Y-100850264D01*
X92872343Y-100962285D01*
X93219448Y-101090285D01*
X93585731Y-101232083D01*
X93966150Y-101385500D01*
X94355661Y-101548355D01*
X94749222Y-101718468D01*
X95141791Y-101893661D01*
X95528324Y-102071752D01*
X95903778Y-102250563D01*
X96263111Y-102427913D01*
X96601280Y-102601623D01*
X96913242Y-102769512D01*
X97193955Y-102929401D01*
X97438375Y-103079111D01*
X97439216Y-103079650D01*
X97612333Y-103190603D01*
X97684547Y-103113298D01*
X97809882Y-103011565D01*
X97948437Y-102953219D01*
X98092741Y-102935250D01*
X98235319Y-102954651D01*
X98368701Y-103008414D01*
X98485413Y-103093530D01*
X98577982Y-103206992D01*
X98638937Y-103345790D01*
X98660804Y-103506300D01*
X98638282Y-103671566D01*
X98575465Y-103814297D01*
X98479481Y-103930177D01*
X98357453Y-104014893D01*
X98216508Y-104064129D01*
X98063772Y-104073570D01*
X97906371Y-104038903D01*
X97834150Y-104006846D01*
X97722328Y-103927697D01*
X97628639Y-103822031D01*
X97562517Y-103703574D01*
X97533395Y-103586051D01*
X97532800Y-103568420D01*
X97532800Y-103475894D01*
X97310550Y-103417645D01*
X97034844Y-103338887D01*
X96720503Y-103237543D01*
X96373179Y-103115906D01*
X95998526Y-102976270D01*
X95602199Y-102820928D01*
X95189851Y-102652174D01*
X94767137Y-102472302D01*
X94339711Y-102283603D01*
X93913227Y-102088373D01*
X93493338Y-101888904D01*
X93260522Y-101774884D01*
X92898626Y-101592711D01*
X92573650Y-101423153D01*
X92286843Y-101266983D01*
X92039454Y-101124975D01*
X91832734Y-100997904D01*
X91667933Y-100886541D01*
X91546299Y-100791661D01*
X91469082Y-100714038D01*
X91437532Y-100654445D01*
X91436800Y-100645858D01*
X91460011Y-100619355D01*
X91524836Y-100607170D01*
X91624064Y-100609600D01*
G37*
G36*
X109145017Y-117122283D02*
G01*
X109211480Y-117129720D01*
X109257610Y-117147042D01*
X109298623Y-117178280D01*
X109313713Y-117192409D01*
X109375555Y-117266127D01*
X109426129Y-117349849D01*
X109429635Y-117357509D01*
X109438961Y-117391049D01*
X109458158Y-117470422D01*
X109486389Y-117591801D01*
X109522816Y-117751361D01*
X109566601Y-117945276D01*
X109616907Y-118169719D01*
X109672897Y-118420866D01*
X109733732Y-118694889D01*
X109798575Y-118987964D01*
X109866589Y-119296264D01*
X109936937Y-119615963D01*
X110008779Y-119943235D01*
X110081280Y-120274255D01*
X110153601Y-120605196D01*
X110224906Y-120932233D01*
X110294355Y-121251539D01*
X110361112Y-121559290D01*
X110424340Y-121851658D01*
X110483200Y-122124818D01*
X110536856Y-122374943D01*
X110584469Y-122598209D01*
X110625202Y-122790789D01*
X110658218Y-122948857D01*
X110682678Y-123068587D01*
X110697746Y-123146154D01*
X110701178Y-123165900D01*
X110707800Y-123311230D01*
X110688574Y-123474817D01*
X110647696Y-123642372D01*
X110589360Y-123799607D01*
X110517759Y-123932231D01*
X110452868Y-124011854D01*
X110409052Y-124050390D01*
X110329176Y-124116937D01*
X110216233Y-124209144D01*
X110073218Y-124324657D01*
X109903125Y-124461123D01*
X109708947Y-124616190D01*
X109493678Y-124787507D01*
X109260312Y-124972719D01*
X109011844Y-125169474D01*
X108751267Y-125375421D01*
X108481574Y-125588206D01*
X108205761Y-125805476D01*
X107926820Y-126024880D01*
X107647746Y-126244064D01*
X107371532Y-126460677D01*
X107101173Y-126672365D01*
X106839663Y-126876775D01*
X106589994Y-127071556D01*
X106355162Y-127254355D01*
X106138160Y-127422819D01*
X105941982Y-127574596D01*
X105769622Y-127707333D01*
X105624073Y-127818677D01*
X105508331Y-127906276D01*
X105425388Y-127967778D01*
X105378238Y-128000829D01*
X105370993Y-128005118D01*
X105215394Y-128063917D01*
X105068033Y-128081698D01*
X104937017Y-128058038D01*
X104880766Y-128030896D01*
X104854528Y-128014969D01*
X104830634Y-127999162D01*
X104808332Y-127980838D01*
X104786874Y-127957363D01*
X104765508Y-127926102D01*
X104743485Y-127884419D01*
X104720056Y-127829679D01*
X104694469Y-127759247D01*
X104665975Y-127670487D01*
X104633824Y-127560765D01*
X104597266Y-127427445D01*
X104555551Y-127267892D01*
X104507929Y-127079471D01*
X104453649Y-126859547D01*
X104391963Y-126605483D01*
X104322119Y-126314646D01*
X104243368Y-125984400D01*
X104154960Y-125612109D01*
X104056145Y-125195139D01*
X103969185Y-124828001D01*
X103862561Y-124377568D01*
X103767176Y-123973860D01*
X103682436Y-123614198D01*
X103607748Y-123295905D01*
X103542520Y-123016303D01*
X103486156Y-122772713D01*
X103438066Y-122562458D01*
X103397655Y-122382859D01*
X103364329Y-122231238D01*
X103337497Y-122104917D01*
X103316565Y-122001219D01*
X103300939Y-121917464D01*
X103290026Y-121850976D01*
X103283233Y-121799075D01*
X103279968Y-121759084D01*
X103279636Y-121728324D01*
X103280221Y-121717605D01*
X103319306Y-121531689D01*
X103406871Y-121348908D01*
X103511970Y-121206380D01*
X103543904Y-121177183D01*
X103613235Y-121119495D01*
X103716964Y-121035629D01*
X103852093Y-120927897D01*
X104015622Y-120798612D01*
X104204555Y-120650087D01*
X104415891Y-120484635D01*
X104646633Y-120304569D01*
X104893783Y-120112201D01*
X105154341Y-119909845D01*
X105425310Y-119699813D01*
X105703691Y-119484418D01*
X105986485Y-119265973D01*
X106270695Y-119046791D01*
X106553321Y-118829185D01*
X106831365Y-118615466D01*
X107101829Y-118407950D01*
X107361715Y-118208947D01*
X107608023Y-118020771D01*
X107837755Y-117845735D01*
X108047914Y-117686152D01*
X108235500Y-117544334D01*
X108397515Y-117422595D01*
X108530961Y-117323246D01*
X108632839Y-117248602D01*
X108700150Y-117200974D01*
X108726476Y-117184200D01*
X108804877Y-117148757D01*
X108883578Y-117129188D01*
X108982853Y-117121426D01*
X109043004Y-117120700D01*
X109145017Y-117122283D01*
G37*
G36*
X88019278Y-107550759D02*
G01*
X88060192Y-107565546D01*
X88142870Y-107600808D01*
X88263448Y-107654690D01*
X88418062Y-107725338D01*
X88602847Y-107810897D01*
X88813938Y-107909512D01*
X89047471Y-108019329D01*
X89299581Y-108138492D01*
X89566404Y-108265148D01*
X89844075Y-108397441D01*
X90128729Y-108533517D01*
X90416502Y-108671521D01*
X90703529Y-108809598D01*
X90985946Y-108945894D01*
X91259888Y-109078554D01*
X91521491Y-109205723D01*
X91766890Y-109325547D01*
X91992220Y-109436171D01*
X92193616Y-109535740D01*
X92367215Y-109622400D01*
X92509152Y-109694295D01*
X92615561Y-109749572D01*
X92682580Y-109786376D01*
X92699688Y-109796980D01*
X92824689Y-109905943D01*
X92933850Y-110052423D01*
X93029879Y-110240763D01*
X93108457Y-110453200D01*
X93123708Y-110505604D01*
X93150169Y-110602328D01*
X93186838Y-110739464D01*
X93232715Y-110913105D01*
X93286797Y-111119346D01*
X93348083Y-111354279D01*
X93415571Y-111613998D01*
X93488260Y-111894596D01*
X93565149Y-112192167D01*
X93645236Y-112502804D01*
X93727520Y-112822601D01*
X93810998Y-113147651D01*
X93894670Y-113474048D01*
X93977533Y-113797884D01*
X94058587Y-114115254D01*
X94136830Y-114422250D01*
X94211260Y-114714967D01*
X94280876Y-114989497D01*
X94344677Y-115241934D01*
X94401660Y-115468372D01*
X94450825Y-115664903D01*
X94491169Y-115827622D01*
X94521692Y-115952622D01*
X94541392Y-116035995D01*
X94549125Y-116072780D01*
X94555958Y-116224595D01*
X94528793Y-116346052D01*
X94483494Y-116417749D01*
X94414492Y-116458085D01*
X94316015Y-116472846D01*
X94202644Y-116461744D01*
X94091100Y-116425475D01*
X94043727Y-116402058D01*
X93955699Y-116356725D01*
X93831081Y-116291650D01*
X93673943Y-116209008D01*
X93488351Y-116110974D01*
X93278374Y-115999722D01*
X93048080Y-115877426D01*
X92801536Y-115746262D01*
X92542810Y-115608404D01*
X92275970Y-115466027D01*
X92005084Y-115321305D01*
X91734219Y-115176412D01*
X91467444Y-115033525D01*
X91208826Y-114894816D01*
X90962432Y-114762461D01*
X90732332Y-114638634D01*
X90522592Y-114525510D01*
X90337281Y-114425264D01*
X90180466Y-114340070D01*
X90056215Y-114272102D01*
X89968595Y-114223536D01*
X89921676Y-114196546D01*
X89921562Y-114196477D01*
X89813493Y-114125028D01*
X89701889Y-114043204D01*
X89610164Y-113968207D01*
X89606918Y-113965304D01*
X89474012Y-113845809D01*
X89520891Y-113933854D01*
X89557805Y-114046179D01*
X89568439Y-114180719D01*
X89553084Y-114316391D01*
X89514074Y-114428300D01*
X89415257Y-114568524D01*
X89289538Y-114665677D01*
X89137521Y-114719394D01*
X89011100Y-114730970D01*
X88841242Y-114708395D01*
X88696096Y-114643994D01*
X88580652Y-114542759D01*
X88499897Y-114409678D01*
X88458818Y-114249741D01*
X88454595Y-114174300D01*
X88477474Y-114008741D01*
X88541636Y-113865040D01*
X88640368Y-113748491D01*
X88766959Y-113664392D01*
X88914695Y-113618039D01*
X89076865Y-113614729D01*
X89147625Y-113627438D01*
X89223788Y-113649140D01*
X89277416Y-113670795D01*
X89292077Y-113681552D01*
X89324593Y-113703939D01*
X89329539Y-113704400D01*
X89330146Y-113685359D01*
X89307424Y-113636162D01*
X89278145Y-113586554D01*
X89232444Y-113501938D01*
X89183456Y-113391724D01*
X89141525Y-113279250D01*
X89140262Y-113275404D01*
X89117840Y-113203929D01*
X89083298Y-113089994D01*
X89037824Y-112937708D01*
X88982607Y-112751180D01*
X88918835Y-112534520D01*
X88847697Y-112291838D01*
X88770380Y-112027244D01*
X88688074Y-111744847D01*
X88601966Y-111448756D01*
X88513245Y-111143082D01*
X88423099Y-110831933D01*
X88332717Y-110519421D01*
X88243286Y-110209653D01*
X88155996Y-109906741D01*
X88072035Y-109614793D01*
X87992590Y-109337920D01*
X87918851Y-109080230D01*
X87852006Y-108845834D01*
X87793242Y-108638841D01*
X87743749Y-108463361D01*
X87704715Y-108323504D01*
X87677328Y-108223378D01*
X87662776Y-108167095D01*
X87661529Y-108161546D01*
X87634192Y-107970864D01*
X87638119Y-107810364D01*
X87672537Y-107683166D01*
X87736672Y-107592390D01*
X87814150Y-107546133D01*
X87904963Y-107535505D01*
X88019278Y-107550759D01*
G37*
G36*
X91717894Y-101448143D02*
G01*
X91855805Y-101481412D01*
X91899770Y-101496809D01*
X91972631Y-101525838D01*
X92085169Y-101572448D01*
X92233705Y-101635031D01*
X92414558Y-101711977D01*
X92624048Y-101801679D01*
X92858497Y-101902529D01*
X93114225Y-102012918D01*
X93387551Y-102131238D01*
X93674796Y-102255882D01*
X93972281Y-102385241D01*
X94276326Y-102517707D01*
X94583252Y-102651671D01*
X94889378Y-102785526D01*
X95191025Y-102917664D01*
X95484513Y-103046475D01*
X95766163Y-103170353D01*
X96032295Y-103287689D01*
X96279230Y-103396874D01*
X96503287Y-103496301D01*
X96700787Y-103584362D01*
X96868051Y-103659448D01*
X97001399Y-103719951D01*
X97097151Y-103764262D01*
X97151627Y-103790775D01*
X97161777Y-103796526D01*
X97306496Y-103916915D01*
X97426505Y-104064697D01*
X97527092Y-104247649D01*
X97605233Y-104448341D01*
X97617903Y-104491625D01*
X97642475Y-104580940D01*
X97678121Y-104713141D01*
X97724013Y-104885080D01*
X97779321Y-105093611D01*
X97843219Y-105335586D01*
X97914877Y-105607860D01*
X97993467Y-105907285D01*
X98078161Y-106230714D01*
X98168130Y-106575000D01*
X98262546Y-106936997D01*
X98360582Y-107313558D01*
X98450414Y-107659200D01*
X98567861Y-108111579D01*
X98673158Y-108517545D01*
X98766966Y-108879841D01*
X98849948Y-109201210D01*
X98922768Y-109484397D01*
X98986088Y-109732145D01*
X99040570Y-109947198D01*
X99086878Y-110132299D01*
X99125674Y-110290193D01*
X99157621Y-110423623D01*
X99183382Y-110535332D01*
X99203619Y-110628065D01*
X99218995Y-110704565D01*
X99230173Y-110767575D01*
X99237815Y-110819840D01*
X99242585Y-110864104D01*
X99245144Y-110903109D01*
X99246157Y-110939600D01*
X99246277Y-110954083D01*
X99245307Y-111068863D01*
X99239807Y-111144728D01*
X99227704Y-111193507D01*
X99206926Y-111227025D01*
X99196500Y-111238049D01*
X99111747Y-111287095D01*
X98996886Y-111302962D01*
X98861174Y-111284581D01*
X98840900Y-111279175D01*
X98800446Y-111263787D01*
X98717076Y-111228714D01*
X98594063Y-111175419D01*
X98434680Y-111105365D01*
X98242198Y-111020015D01*
X98019892Y-110920832D01*
X97771033Y-110809278D01*
X97498895Y-110686816D01*
X97206751Y-110554909D01*
X96897872Y-110415020D01*
X96575533Y-110268612D01*
X96342359Y-110162447D01*
X96015389Y-110013456D01*
X95701637Y-109870542D01*
X95404168Y-109735099D01*
X95126048Y-109608519D01*
X94870341Y-109492197D01*
X94640114Y-109387525D01*
X94438431Y-109295897D01*
X94268358Y-109218706D01*
X94132960Y-109157345D01*
X94035302Y-109113208D01*
X93978450Y-109087687D01*
X93964412Y-109081600D01*
X93958084Y-109104253D01*
X93949303Y-109161738D01*
X93944800Y-109198767D01*
X93905353Y-109336586D01*
X93825826Y-109457225D01*
X93715522Y-109555403D01*
X93583749Y-109625837D01*
X93439811Y-109663248D01*
X93293015Y-109662353D01*
X93182234Y-109631549D01*
X93040588Y-109547639D01*
X92931392Y-109433237D01*
X92857667Y-109297128D01*
X92822433Y-109148098D01*
X92828712Y-108994933D01*
X92879523Y-108846418D01*
X92899920Y-108810426D01*
X92989241Y-108696418D01*
X93095130Y-108609294D01*
X93204315Y-108559651D01*
X93217898Y-108556535D01*
X93284496Y-108543150D01*
X93175574Y-108323425D01*
X93155680Y-108279495D01*
X93131523Y-108218766D01*
X93102359Y-108138839D01*
X93067445Y-108037318D01*
X93026038Y-107911803D01*
X92977396Y-107759897D01*
X92920774Y-107579201D01*
X92855430Y-107367318D01*
X92780621Y-107121850D01*
X92695604Y-106840397D01*
X92599635Y-106520563D01*
X92491971Y-106159950D01*
X92371870Y-105756158D01*
X92238589Y-105306790D01*
X92190554Y-105144600D01*
X92078662Y-104766343D01*
X91970464Y-104399920D01*
X91866875Y-104048470D01*
X91768814Y-103715131D01*
X91677196Y-103403043D01*
X91592939Y-103115345D01*
X91516961Y-102855175D01*
X91450177Y-102625673D01*
X91393506Y-102429977D01*
X91347864Y-102271227D01*
X91314169Y-102152562D01*
X91293337Y-102077120D01*
X91286728Y-102050899D01*
X91261942Y-101865934D01*
X91268169Y-101708045D01*
X91304574Y-101581914D01*
X91370321Y-101492225D01*
X91388968Y-101477619D01*
X91471062Y-101445742D01*
X91585175Y-101436085D01*
X91717894Y-101448143D01*
G37*
G36*
X84021444Y-112067898D02*
G01*
X84038777Y-112074394D01*
X84077483Y-112093152D01*
X84156527Y-112134749D01*
X84272029Y-112197014D01*
X84420108Y-112277774D01*
X84596884Y-112374861D01*
X84798479Y-112486102D01*
X85021011Y-112609327D01*
X85260600Y-112742365D01*
X85513368Y-112883046D01*
X85775433Y-113029198D01*
X86042916Y-113178650D01*
X86311937Y-113329233D01*
X86578615Y-113478774D01*
X86839072Y-113625103D01*
X87089426Y-113766050D01*
X87325799Y-113899443D01*
X87544309Y-114023112D01*
X87741078Y-114134885D01*
X87912224Y-114232592D01*
X88053868Y-114314062D01*
X88162131Y-114377125D01*
X88233131Y-114419608D01*
X88253862Y-114432730D01*
X88394331Y-114542593D01*
X88533037Y-114680594D01*
X88655977Y-114831037D01*
X88749148Y-114978222D01*
X88760452Y-115000617D01*
X88779154Y-115047721D01*
X88811796Y-115139797D01*
X88857231Y-115273312D01*
X88914313Y-115444731D01*
X88981895Y-115650518D01*
X89058829Y-115887138D01*
X89143971Y-116151057D01*
X89236172Y-116438739D01*
X89334288Y-116746651D01*
X89437169Y-117071255D01*
X89543672Y-117409019D01*
X89605002Y-117604305D01*
X89731797Y-118008940D01*
X89844076Y-118368046D01*
X89942693Y-118684512D01*
X90028496Y-118961230D01*
X90102337Y-119201089D01*
X90165066Y-119406981D01*
X90217534Y-119581797D01*
X90260592Y-119728427D01*
X90295090Y-119849761D01*
X90321880Y-119948691D01*
X90341810Y-120028107D01*
X90355733Y-120090899D01*
X90364499Y-120139959D01*
X90368959Y-120178177D01*
X90370000Y-120203886D01*
X90353501Y-120353942D01*
X90305512Y-120464669D01*
X90228287Y-120534708D01*
X90124085Y-120562697D01*
X89995163Y-120547278D01*
X89874700Y-120502287D01*
X89834552Y-120480885D01*
X89754620Y-120436005D01*
X89638879Y-120369970D01*
X89491302Y-120285106D01*
X89315863Y-120183739D01*
X89116536Y-120068193D01*
X88897296Y-119940793D01*
X88662117Y-119803866D01*
X88414973Y-119659735D01*
X88159838Y-119510726D01*
X87900685Y-119359164D01*
X87641490Y-119207375D01*
X87386226Y-119057683D01*
X87138868Y-118912413D01*
X86903389Y-118773892D01*
X86683764Y-118644444D01*
X86483966Y-118526393D01*
X86307970Y-118422066D01*
X86159751Y-118333788D01*
X86043281Y-118263883D01*
X85962535Y-118214677D01*
X85932386Y-118195732D01*
X85771407Y-118074673D01*
X85615511Y-117926234D01*
X85476979Y-117763955D01*
X85368088Y-117601378D01*
X85333896Y-117535731D01*
X85315924Y-117489937D01*
X85283837Y-117399869D01*
X85238974Y-117269643D01*
X85182672Y-117103376D01*
X85116271Y-116905186D01*
X85041108Y-116679191D01*
X84958522Y-116429508D01*
X84869852Y-116160253D01*
X84776435Y-115875546D01*
X84679610Y-115579502D01*
X84580716Y-115276239D01*
X84481091Y-114969875D01*
X84382073Y-114664527D01*
X84285000Y-114364313D01*
X84191212Y-114073349D01*
X84102046Y-113795754D01*
X84018841Y-113535644D01*
X83942935Y-113297137D01*
X83875666Y-113084350D01*
X83818373Y-112901401D01*
X83772395Y-112752407D01*
X83739070Y-112641486D01*
X83719735Y-112572754D01*
X83716958Y-112561400D01*
X83702371Y-112470263D01*
X83692690Y-112358720D01*
X83690420Y-112288350D01*
X83701389Y-112162343D01*
X83737262Y-112078961D01*
X83800753Y-112036538D01*
X83894576Y-112033406D01*
X84021444Y-112067898D01*
G37*
G36*
X125178544Y-98912401D02*
G01*
X125208985Y-98962154D01*
X125210084Y-98997803D01*
X125197333Y-99051310D01*
X125168330Y-99128850D01*
X125120675Y-99236597D01*
X125051964Y-99380726D01*
X125023729Y-99438404D01*
X124981682Y-99523939D01*
X124919313Y-99650890D01*
X124838677Y-99815065D01*
X124741832Y-100012276D01*
X124630835Y-100238333D01*
X124507744Y-100489046D01*
X124374614Y-100760226D01*
X124233504Y-101047682D01*
X124086470Y-101347225D01*
X123935569Y-101654665D01*
X123832910Y-101863830D01*
X123658824Y-102218301D01*
X123505358Y-102530169D01*
X123370912Y-102802514D01*
X123253885Y-103038414D01*
X123152677Y-103240948D01*
X123065685Y-103413197D01*
X122991311Y-103558238D01*
X122927952Y-103679151D01*
X122874008Y-103779016D01*
X122827878Y-103860911D01*
X122787962Y-103927916D01*
X122752658Y-103983109D01*
X122720367Y-104029570D01*
X122689486Y-104070378D01*
X122678800Y-104083791D01*
X122649462Y-104119317D01*
X122618320Y-104154525D01*
X122582750Y-104191446D01*
X122540129Y-104232110D01*
X122487836Y-104278547D01*
X122423247Y-104332787D01*
X122343741Y-104396861D01*
X122246695Y-104472799D01*
X122129486Y-104562631D01*
X121989493Y-104668387D01*
X121824092Y-104792098D01*
X121630661Y-104935794D01*
X121406578Y-105101506D01*
X121149220Y-105291262D01*
X120855965Y-105507095D01*
X120545200Y-105735591D01*
X120263271Y-105942741D01*
X119991853Y-106142003D01*
X119733884Y-106331230D01*
X119492302Y-106508273D01*
X119270044Y-106670986D01*
X119070048Y-106817220D01*
X118895252Y-106944828D01*
X118748595Y-107051663D01*
X118633013Y-107135577D01*
X118551444Y-107194423D01*
X118506827Y-107226052D01*
X118500500Y-107230285D01*
X118408638Y-107271278D01*
X118334884Y-107270145D01*
X118284483Y-107227048D01*
X118282562Y-107223593D01*
X118266540Y-107161026D01*
X118266093Y-107078165D01*
X118267662Y-107064843D01*
X118279145Y-107028603D01*
X118308671Y-106949881D01*
X118354453Y-106832966D01*
X118414707Y-106682147D01*
X118487647Y-106501712D01*
X118571488Y-106295950D01*
X118664445Y-106069151D01*
X118764731Y-105825602D01*
X118870562Y-105569592D01*
X118980152Y-105305412D01*
X119091715Y-105037348D01*
X119203467Y-104769690D01*
X119313622Y-104506726D01*
X119420394Y-104252746D01*
X119521998Y-104012039D01*
X119616648Y-103788892D01*
X119702560Y-103587595D01*
X119777947Y-103412437D01*
X119841025Y-103267706D01*
X119890007Y-103157691D01*
X119923109Y-103086681D01*
X119927208Y-103078442D01*
X120030565Y-102897437D01*
X120149530Y-102727501D01*
X120271652Y-102586081D01*
X120295137Y-102562966D01*
X120328833Y-102534461D01*
X120399601Y-102477448D01*
X120504252Y-102394398D01*
X120639597Y-102287780D01*
X120802446Y-102160064D01*
X120989610Y-102013720D01*
X121197900Y-101851218D01*
X121424125Y-101675027D01*
X121665098Y-101487618D01*
X121917627Y-101291461D01*
X122178524Y-101089025D01*
X122444600Y-100882780D01*
X122712664Y-100675196D01*
X122979527Y-100468743D01*
X123242001Y-100265891D01*
X123496895Y-100069110D01*
X123741020Y-99880870D01*
X123971186Y-99703639D01*
X124184205Y-99539890D01*
X124376887Y-99392090D01*
X124546041Y-99262711D01*
X124688480Y-99154221D01*
X124801013Y-99069092D01*
X124880451Y-99009792D01*
X124922902Y-98979264D01*
X125031226Y-98918711D01*
X125117675Y-98896350D01*
X125178544Y-98912401D01*
G37*
G36*
X112461052Y-97130520D02*
G01*
X112552801Y-97147792D01*
X112563550Y-97151383D01*
X112593877Y-97172844D01*
X112660035Y-97227652D01*
X112760647Y-97314564D01*
X112894338Y-97432340D01*
X113059732Y-97579738D01*
X113255452Y-97755515D01*
X113480124Y-97958432D01*
X113732370Y-98187245D01*
X114010816Y-98440714D01*
X114314086Y-98717597D01*
X114640802Y-99016652D01*
X114989591Y-99336637D01*
X115228940Y-99556600D01*
X115622753Y-99918718D01*
X115980924Y-100248032D01*
X116305160Y-100546172D01*
X116597170Y-100814765D01*
X116858664Y-101055439D01*
X117091349Y-101269822D01*
X117296934Y-101459542D01*
X117477128Y-101626227D01*
X117633639Y-101771507D01*
X117768176Y-101897007D01*
X117882448Y-102004358D01*
X117978162Y-102095186D01*
X118057028Y-102171120D01*
X118120754Y-102233788D01*
X118171048Y-102284818D01*
X118209620Y-102325838D01*
X118238178Y-102358477D01*
X118258430Y-102384362D01*
X118272085Y-102405121D01*
X118280851Y-102422383D01*
X118286438Y-102437776D01*
X118290553Y-102452928D01*
X118294906Y-102469466D01*
X118298681Y-102481760D01*
X118326225Y-102611676D01*
X118327849Y-102743804D01*
X118304447Y-102860241D01*
X118276867Y-102918083D01*
X118251321Y-102942168D01*
X118188406Y-102994940D01*
X118091033Y-103074138D01*
X117962117Y-103177500D01*
X117804570Y-103302764D01*
X117621308Y-103447668D01*
X117415243Y-103609952D01*
X117189289Y-103787352D01*
X116946360Y-103977608D01*
X116689368Y-104178459D01*
X116421228Y-104387641D01*
X116144853Y-104602894D01*
X115863157Y-104821957D01*
X115579054Y-105042566D01*
X115295456Y-105262461D01*
X115015278Y-105479381D01*
X114741432Y-105691062D01*
X114476834Y-105895245D01*
X114224395Y-106089666D01*
X113987031Y-106272065D01*
X113767653Y-106440180D01*
X113569177Y-106591749D01*
X113394515Y-106724510D01*
X113246581Y-106836203D01*
X113128289Y-106924564D01*
X113042552Y-106987333D01*
X112992283Y-107022248D01*
X112981800Y-107028365D01*
X112842520Y-107071655D01*
X112693151Y-107087303D01*
X112562855Y-107073710D01*
X112474963Y-107045604D01*
X112382719Y-107006907D01*
X112369034Y-107000144D01*
X112341901Y-106978604D01*
X112280180Y-106924725D01*
X112186398Y-106840853D01*
X112063084Y-106729333D01*
X111912766Y-106592511D01*
X111737972Y-106432730D01*
X111541232Y-106252337D01*
X111325073Y-106053676D01*
X111092024Y-105839093D01*
X110844614Y-105610933D01*
X110585369Y-105371540D01*
X110316820Y-105123261D01*
X110041494Y-104868440D01*
X109761920Y-104609423D01*
X109480626Y-104348554D01*
X109200141Y-104088178D01*
X108922992Y-103830642D01*
X108651709Y-103578290D01*
X108388819Y-103333467D01*
X108136852Y-103098518D01*
X107898335Y-102875788D01*
X107675796Y-102667623D01*
X107471765Y-102476368D01*
X107288770Y-102304368D01*
X107129338Y-102153968D01*
X106995999Y-102027514D01*
X106891280Y-101927349D01*
X106817711Y-101855820D01*
X106777819Y-101815272D01*
X106772702Y-101809380D01*
X106748503Y-101760987D01*
X106719462Y-101676712D01*
X106690102Y-101570599D01*
X106675077Y-101506276D01*
X106621249Y-101258852D01*
X106677348Y-101142967D01*
X106762596Y-101021644D01*
X106876573Y-100921577D01*
X106915204Y-100893030D01*
X106991966Y-100836239D01*
X107104167Y-100753198D01*
X107249116Y-100645899D01*
X107424120Y-100516336D01*
X107626489Y-100366502D01*
X107853531Y-100198388D01*
X108102555Y-100013989D01*
X108370869Y-99815297D01*
X108655781Y-99604305D01*
X108954601Y-99383005D01*
X109264637Y-99153391D01*
X109470800Y-99000701D01*
X109785238Y-98768091D01*
X110089424Y-98543600D01*
X110380749Y-98329125D01*
X110656603Y-98126566D01*
X110914374Y-97937822D01*
X111151455Y-97764791D01*
X111365233Y-97609371D01*
X111553100Y-97473463D01*
X111712446Y-97358964D01*
X111840659Y-97267773D01*
X111935132Y-97201789D01*
X111993252Y-97162910D01*
X112010800Y-97152880D01*
X112097289Y-97133677D01*
X112214015Y-97123514D01*
X112341697Y-97122445D01*
X112461052Y-97130520D01*
G37*
G36*
X81589461Y-104160531D02*
G01*
X81629045Y-104173431D01*
X81710151Y-104206627D01*
X81828643Y-104258152D01*
X81980381Y-104326038D01*
X82161226Y-104408321D01*
X82367039Y-104503032D01*
X82593682Y-104608207D01*
X82837016Y-104721877D01*
X83092902Y-104842077D01*
X83357201Y-104966839D01*
X83625775Y-105094199D01*
X83894485Y-105222188D01*
X84159191Y-105348840D01*
X84415756Y-105472190D01*
X84660040Y-105590270D01*
X84887904Y-105701113D01*
X85095211Y-105802753D01*
X85277820Y-105893225D01*
X85431594Y-105970560D01*
X85552393Y-106032793D01*
X85636080Y-106077957D01*
X85676174Y-106102334D01*
X85803521Y-106216707D01*
X85929997Y-106371780D01*
X86049316Y-106557742D01*
X86155193Y-106764783D01*
X86241342Y-106983091D01*
X86242351Y-106986100D01*
X86262423Y-107050097D01*
X86294308Y-107156991D01*
X86336931Y-107302942D01*
X86389220Y-107484108D01*
X86450101Y-107696649D01*
X86518498Y-107936725D01*
X86593339Y-108200494D01*
X86673549Y-108484115D01*
X86758054Y-108783748D01*
X86845780Y-109095553D01*
X86935654Y-109415688D01*
X87026601Y-109740314D01*
X87117548Y-110065588D01*
X87207420Y-110387670D01*
X87295143Y-110702721D01*
X87379644Y-111006898D01*
X87459848Y-111296361D01*
X87534682Y-111567270D01*
X87603071Y-111815784D01*
X87663942Y-112038061D01*
X87716220Y-112230262D01*
X87758832Y-112388546D01*
X87790703Y-112509071D01*
X87810760Y-112587998D01*
X87817813Y-112620213D01*
X87821806Y-112746761D01*
X87802957Y-112855896D01*
X87764267Y-112935988D01*
X87728035Y-112967994D01*
X87691672Y-112984574D01*
X87652835Y-112994036D01*
X87607069Y-112994747D01*
X87549921Y-112985076D01*
X87476934Y-112963389D01*
X87383655Y-112928054D01*
X87265628Y-112877437D01*
X87118399Y-112809907D01*
X86937513Y-112723831D01*
X86718516Y-112617575D01*
X86558827Y-112539466D01*
X86120387Y-112324565D01*
X85725218Y-112130731D01*
X85370940Y-111956747D01*
X85055173Y-111801398D01*
X84775535Y-111663468D01*
X84529646Y-111541740D01*
X84315126Y-111434998D01*
X84129594Y-111342026D01*
X83970670Y-111261607D01*
X83835972Y-111192527D01*
X83723121Y-111133567D01*
X83629736Y-111083513D01*
X83553436Y-111041148D01*
X83491841Y-111005256D01*
X83442570Y-110974621D01*
X83403243Y-110948026D01*
X83371479Y-110924256D01*
X83344898Y-110902094D01*
X83333122Y-110891525D01*
X83214697Y-110766338D01*
X83122356Y-110627399D01*
X83048083Y-110460936D01*
X83004161Y-110326200D01*
X82989062Y-110276000D01*
X82959958Y-110180767D01*
X82917925Y-110043981D01*
X82864038Y-109869117D01*
X82799372Y-109659654D01*
X82725002Y-109419070D01*
X82642006Y-109150842D01*
X82551457Y-108858447D01*
X82454431Y-108545364D01*
X82352004Y-108215071D01*
X82245252Y-107871044D01*
X82151877Y-107570300D01*
X82042638Y-107218314D01*
X81937089Y-106877760D01*
X81836280Y-106552048D01*
X81741259Y-106244589D01*
X81653077Y-105958792D01*
X81572783Y-105698067D01*
X81501425Y-105465825D01*
X81440053Y-105265475D01*
X81389716Y-105100429D01*
X81351463Y-104974096D01*
X81326344Y-104889886D01*
X81315982Y-104853513D01*
X81291518Y-104725249D01*
X81279186Y-104586309D01*
X81279002Y-104451665D01*
X81290981Y-104336285D01*
X81315138Y-104255140D01*
X81315361Y-104254706D01*
X81368152Y-104191158D01*
X81448228Y-104159671D01*
X81562897Y-104157734D01*
X81589461Y-104160531D01*
G37*
G36*
X116063861Y-109751016D02*
G01*
X116106534Y-109782347D01*
X116112894Y-109840317D01*
X116103512Y-109872260D01*
X116088472Y-109906349D01*
X116053753Y-109982205D01*
X116001319Y-110095636D01*
X115933137Y-110242451D01*
X115851172Y-110418458D01*
X115757389Y-110619466D01*
X115653755Y-110841284D01*
X115542234Y-111079721D01*
X115424794Y-111330585D01*
X115303398Y-111589685D01*
X115180013Y-111852829D01*
X115056605Y-112115827D01*
X114935139Y-112374487D01*
X114817581Y-112624618D01*
X114705896Y-112862028D01*
X114602050Y-113082526D01*
X114508010Y-113281921D01*
X114425739Y-113456021D01*
X114357205Y-113600636D01*
X114304373Y-113711573D01*
X114269208Y-113784643D01*
X114258030Y-113807329D01*
X114174006Y-113945698D01*
X114065064Y-114068232D01*
X114012416Y-114116131D01*
X113969318Y-114152297D01*
X113889694Y-114217788D01*
X113776620Y-114310113D01*
X113633175Y-114426779D01*
X113462433Y-114565297D01*
X113267473Y-114723173D01*
X113051371Y-114897918D01*
X112817203Y-115087039D01*
X112568047Y-115288046D01*
X112306979Y-115498447D01*
X112037076Y-115715750D01*
X112010800Y-115736894D01*
X111739767Y-115954989D01*
X111476907Y-116166536D01*
X111225332Y-116369026D01*
X110988157Y-116559952D01*
X110768495Y-116736806D01*
X110569462Y-116897079D01*
X110394172Y-117038265D01*
X110245737Y-117157856D01*
X110127274Y-117253343D01*
X110041896Y-117322219D01*
X109992717Y-117361977D01*
X109990276Y-117363957D01*
X109811253Y-117509284D01*
X109751142Y-117226092D01*
X109718188Y-117081198D01*
X109679224Y-116925453D01*
X109640342Y-116782656D01*
X109621119Y-116718007D01*
X109551207Y-116493115D01*
X109992502Y-115352810D01*
X110083000Y-115120220D01*
X110170161Y-114898605D01*
X110251856Y-114693204D01*
X110325961Y-114509258D01*
X110390348Y-114352006D01*
X110442892Y-114226689D01*
X110481467Y-114138545D01*
X110503401Y-114093733D01*
X110555817Y-114016083D01*
X110629364Y-113921671D01*
X110709127Y-113829528D01*
X110717976Y-113819988D01*
X110759146Y-113781601D01*
X110837008Y-113714673D01*
X110948507Y-113621617D01*
X111090590Y-113504848D01*
X111260203Y-113366782D01*
X111454289Y-113209833D01*
X111669796Y-113036416D01*
X111903668Y-112848946D01*
X112152852Y-112649838D01*
X112414293Y-112441506D01*
X112684936Y-112226366D01*
X112961728Y-112006832D01*
X113241613Y-111785320D01*
X113521537Y-111564244D01*
X113798446Y-111346019D01*
X114069286Y-111133059D01*
X114331002Y-110927781D01*
X114580539Y-110732598D01*
X114814844Y-110549926D01*
X115030861Y-110382179D01*
X115225537Y-110231772D01*
X115395817Y-110101121D01*
X115538647Y-109992639D01*
X115650971Y-109908743D01*
X115729737Y-109851846D01*
X115771536Y-109824550D01*
X115891005Y-109771347D01*
X115990232Y-109747092D01*
X116063861Y-109751016D01*
G37*
G36*
X104710472Y-90345534D02*
G01*
X104826469Y-90359160D01*
X104913943Y-90382372D01*
X104928520Y-90389171D01*
X104956591Y-90410602D01*
X105020086Y-90463243D01*
X105116301Y-90544731D01*
X105242537Y-90652703D01*
X105396090Y-90784796D01*
X105574259Y-90938648D01*
X105774342Y-91111894D01*
X105993637Y-91302173D01*
X106229443Y-91507121D01*
X106479057Y-91724376D01*
X106739777Y-91951575D01*
X107008903Y-92186354D01*
X107283731Y-92426352D01*
X107561560Y-92669204D01*
X107839689Y-92912548D01*
X108115415Y-93154022D01*
X108386037Y-93391262D01*
X108648852Y-93621906D01*
X108901160Y-93843590D01*
X109140257Y-94053952D01*
X109363443Y-94250629D01*
X109568015Y-94431257D01*
X109751271Y-94593475D01*
X109910511Y-94734919D01*
X110043031Y-94853226D01*
X110146130Y-94946033D01*
X110217106Y-95010978D01*
X110253257Y-95045697D01*
X110254346Y-95046861D01*
X110383095Y-95217881D01*
X110463036Y-95399903D01*
X110495597Y-95596369D01*
X110496519Y-95630925D01*
X110497691Y-95679759D01*
X110498860Y-95723112D01*
X110497769Y-95762931D01*
X110492161Y-95801164D01*
X110479777Y-95839758D01*
X110458360Y-95880661D01*
X110425653Y-95925821D01*
X110379396Y-95977186D01*
X110317334Y-96036702D01*
X110237207Y-96106318D01*
X110136759Y-96187982D01*
X110013731Y-96283640D01*
X109865867Y-96395242D01*
X109690907Y-96524733D01*
X109486594Y-96674062D01*
X109250671Y-96845177D01*
X108980880Y-97040025D01*
X108674963Y-97260555D01*
X108330662Y-97508712D01*
X108264300Y-97556565D01*
X107972481Y-97766950D01*
X107691897Y-97969121D01*
X107425339Y-98161073D01*
X107175599Y-98340801D01*
X106945466Y-98506299D01*
X106737734Y-98655564D01*
X106555192Y-98786589D01*
X106400634Y-98897370D01*
X106276849Y-98985902D01*
X106186630Y-99050180D01*
X106132767Y-99088199D01*
X106118000Y-99098224D01*
X106092545Y-99098978D01*
X106060723Y-99070109D01*
X106017082Y-99005385D01*
X105978300Y-98938468D01*
X105887138Y-98799915D01*
X105765002Y-98648085D01*
X105624286Y-98496160D01*
X105477380Y-98357321D01*
X105336677Y-98244751D01*
X105306721Y-98224111D01*
X105243315Y-98183137D01*
X105176789Y-98142977D01*
X105103940Y-98102302D01*
X105021566Y-98059783D01*
X104926464Y-98014091D01*
X104815433Y-97963898D01*
X104685270Y-97907874D01*
X104532773Y-97844689D01*
X104354741Y-97773017D01*
X104147970Y-97691526D01*
X103909258Y-97598889D01*
X103635405Y-97493776D01*
X103323206Y-97374858D01*
X102969461Y-97240807D01*
X102612800Y-97106078D01*
X100542700Y-96324921D01*
X99723290Y-95508710D01*
X99517410Y-95303292D01*
X99344922Y-95129916D01*
X99203020Y-94984982D01*
X99088898Y-94864888D01*
X98999752Y-94766036D01*
X98932775Y-94684824D01*
X98885161Y-94617652D01*
X98854105Y-94560920D01*
X98836801Y-94511028D01*
X98830443Y-94464375D01*
X98832226Y-94417361D01*
X98838266Y-94373046D01*
X98890626Y-94204222D01*
X98990219Y-94051971D01*
X99048297Y-93991300D01*
X99088218Y-93959173D01*
X99166363Y-93901389D01*
X99279594Y-93820086D01*
X99424774Y-93717400D01*
X99598768Y-93595469D01*
X99798437Y-93456431D01*
X100020645Y-93302423D01*
X100262256Y-93135581D01*
X100520131Y-92958043D01*
X100791135Y-92771947D01*
X101072130Y-92579430D01*
X101359980Y-92382629D01*
X101651546Y-92183682D01*
X101943694Y-91984725D01*
X102233285Y-91787896D01*
X102517183Y-91595333D01*
X102792250Y-91409172D01*
X103055351Y-91231551D01*
X103303348Y-91064608D01*
X103533103Y-90910479D01*
X103741481Y-90771301D01*
X103925344Y-90649213D01*
X104081555Y-90546352D01*
X104206978Y-90464854D01*
X104298475Y-90406857D01*
X104352910Y-90374498D01*
X104365400Y-90368553D01*
X104462532Y-90349594D01*
X104583358Y-90342134D01*
X104710472Y-90345534D01*
G37*
G36*
X97531921Y-83790101D02*
G01*
X97676047Y-83817203D01*
X97785387Y-83862770D01*
X97816405Y-83886705D01*
X97883045Y-83942429D01*
X97983010Y-84027928D01*
X98114003Y-84141185D01*
X98273727Y-84280185D01*
X98459885Y-84442912D01*
X98670181Y-84627350D01*
X98902317Y-84831484D01*
X99153998Y-85053297D01*
X99422925Y-85290774D01*
X99706803Y-85541900D01*
X100003333Y-85804657D01*
X100310221Y-86077032D01*
X100456160Y-86206710D01*
X100823655Y-86533463D01*
X101155001Y-86828289D01*
X101452095Y-87092928D01*
X101716832Y-87329118D01*
X101951106Y-87538598D01*
X102156813Y-87723109D01*
X102335848Y-87884388D01*
X102490105Y-88024174D01*
X102621481Y-88144208D01*
X102731869Y-88246228D01*
X102823166Y-88331974D01*
X102897265Y-88403184D01*
X102956063Y-88461597D01*
X103001454Y-88508953D01*
X103035334Y-88546990D01*
X103059597Y-88577449D01*
X103076138Y-88602067D01*
X103085548Y-88619710D01*
X103133115Y-88768011D01*
X103146946Y-88925339D01*
X103128711Y-89079059D01*
X103080080Y-89216539D01*
X103002724Y-89325143D01*
X102990800Y-89336344D01*
X102964391Y-89355850D01*
X102899394Y-89402074D01*
X102798985Y-89472810D01*
X102666337Y-89565853D01*
X102504625Y-89678997D01*
X102317023Y-89810035D01*
X102106706Y-89956762D01*
X101876849Y-90116972D01*
X101630625Y-90288459D01*
X101371209Y-90469018D01*
X101101775Y-90656441D01*
X100825498Y-90848524D01*
X100545553Y-91043061D01*
X100265112Y-91237845D01*
X99987352Y-91430670D01*
X99715446Y-91619332D01*
X99452569Y-91801623D01*
X99201895Y-91975338D01*
X98966599Y-92138272D01*
X98749854Y-92288217D01*
X98554836Y-92422969D01*
X98384719Y-92540322D01*
X98242677Y-92638069D01*
X98131884Y-92714004D01*
X98055515Y-92765923D01*
X98053500Y-92767281D01*
X97963129Y-92823504D01*
X97875391Y-92870424D01*
X97812200Y-92896822D01*
X97702932Y-92920913D01*
X97575645Y-92936111D01*
X97455455Y-92940091D01*
X97393100Y-92935572D01*
X97272187Y-92908895D01*
X97140256Y-92865214D01*
X97021786Y-92813260D01*
X96974000Y-92786111D01*
X96945804Y-92762813D01*
X96882985Y-92707365D01*
X96788151Y-92622174D01*
X96663911Y-92509649D01*
X96512876Y-92372198D01*
X96337655Y-92212230D01*
X96140857Y-92032151D01*
X95925091Y-91834371D01*
X95692967Y-91621297D01*
X95447095Y-91395339D01*
X95190084Y-91158903D01*
X94924543Y-90914398D01*
X94653083Y-90664232D01*
X94378311Y-90410814D01*
X94102838Y-90156551D01*
X93829274Y-89903852D01*
X93560227Y-89655125D01*
X93298307Y-89412778D01*
X93046124Y-89179219D01*
X92806287Y-88956856D01*
X92581405Y-88748097D01*
X92374089Y-88555351D01*
X92186947Y-88381026D01*
X92022588Y-88227530D01*
X91883623Y-88097271D01*
X91772661Y-87992657D01*
X91692311Y-87916096D01*
X91645183Y-87869997D01*
X91634025Y-87858074D01*
X91574757Y-87759904D01*
X91533647Y-87646558D01*
X91513261Y-87532374D01*
X91516163Y-87431689D01*
X91544750Y-87359054D01*
X91571474Y-87338885D01*
X91638348Y-87294037D01*
X91742253Y-87226448D01*
X91880068Y-87138056D01*
X92048676Y-87030800D01*
X92244956Y-86906617D01*
X92465790Y-86767446D01*
X92708058Y-86615225D01*
X92968641Y-86451892D01*
X93244421Y-86279385D01*
X93532278Y-86099642D01*
X93829092Y-85914602D01*
X94131744Y-85726202D01*
X94437117Y-85536380D01*
X94742089Y-85347075D01*
X95043542Y-85160225D01*
X95338358Y-84977768D01*
X95623416Y-84801642D01*
X95895597Y-84633785D01*
X96151783Y-84476135D01*
X96388855Y-84330631D01*
X96603692Y-84199210D01*
X96793176Y-84083811D01*
X96954187Y-83986371D01*
X97083608Y-83908830D01*
X97178317Y-83853125D01*
X97235197Y-83821193D01*
X97249465Y-83814383D01*
X97382643Y-83788522D01*
X97531921Y-83790101D01*
G37*
G36*
X94651449Y-110670887D02*
G01*
X94677518Y-110671738D01*
X94704839Y-110674516D01*
X94736197Y-110680476D01*
X94774380Y-110690874D01*
X94822175Y-110706965D01*
X94882366Y-110730003D01*
X94957742Y-110761246D01*
X95051089Y-110801948D01*
X95165193Y-110853364D01*
X95302841Y-110916750D01*
X95466819Y-110993361D01*
X95659914Y-111084452D01*
X95884912Y-111191280D01*
X96144601Y-111315099D01*
X96441766Y-111457164D01*
X96779194Y-111618732D01*
X97153349Y-111798026D01*
X97483495Y-111956333D01*
X97804803Y-112110537D01*
X98113792Y-112258961D01*
X98406978Y-112399927D01*
X98680880Y-112531754D01*
X98932013Y-112652764D01*
X99156897Y-112761279D01*
X99352047Y-112855620D01*
X99513982Y-112934107D01*
X99639218Y-112995062D01*
X99724274Y-113036807D01*
X99755300Y-113052303D01*
X99964237Y-113174821D01*
X100138217Y-113311099D01*
X100271612Y-113456138D01*
X100346428Y-113577400D01*
X100358886Y-113614731D01*
X100382813Y-113697586D01*
X100417250Y-113822234D01*
X100461239Y-113984943D01*
X100513820Y-114181980D01*
X100574034Y-114409615D01*
X100640922Y-114664115D01*
X100713526Y-114941748D01*
X100790885Y-115238783D01*
X100872042Y-115551487D01*
X100956036Y-115876129D01*
X101041910Y-116208978D01*
X101128704Y-116546300D01*
X101215459Y-116884365D01*
X101301215Y-117219440D01*
X101385015Y-117547794D01*
X101465898Y-117865694D01*
X101542907Y-118169410D01*
X101615081Y-118455209D01*
X101681462Y-118719359D01*
X101741091Y-118958128D01*
X101793008Y-119167785D01*
X101836255Y-119344598D01*
X101869873Y-119484835D01*
X101892903Y-119584763D01*
X101903977Y-119638251D01*
X101923901Y-119821335D01*
X101912644Y-119964594D01*
X101869813Y-120068611D01*
X101795016Y-120133966D01*
X101687861Y-120161241D01*
X101557100Y-120152647D01*
X101530701Y-120147753D01*
X101503073Y-120141452D01*
X101471532Y-120132526D01*
X101433390Y-120119756D01*
X101385963Y-120101924D01*
X101326563Y-120077811D01*
X101252505Y-120046201D01*
X101161103Y-120005874D01*
X101049671Y-119955613D01*
X100915523Y-119894199D01*
X100755972Y-119820414D01*
X100568332Y-119733041D01*
X100349918Y-119630860D01*
X100098044Y-119512653D01*
X99810023Y-119377204D01*
X99483169Y-119223292D01*
X99114796Y-119049701D01*
X98853600Y-118926577D01*
X98515351Y-118766769D01*
X98190560Y-118612631D01*
X97882385Y-118465698D01*
X97593988Y-118327504D01*
X97328530Y-118199585D01*
X97089170Y-118083475D01*
X96879070Y-117980709D01*
X96701390Y-117892823D01*
X96559291Y-117821351D01*
X96455933Y-117767827D01*
X96394476Y-117733788D01*
X96384516Y-117727492D01*
X96220262Y-117600289D01*
X96067326Y-117452110D01*
X95937335Y-117295614D01*
X95841917Y-117143466D01*
X95834581Y-117128679D01*
X95817019Y-117084117D01*
X95791766Y-117006814D01*
X95758418Y-116895260D01*
X95716572Y-116747942D01*
X95665826Y-116563350D01*
X95605776Y-116339972D01*
X95536021Y-116076298D01*
X95456157Y-115770815D01*
X95365781Y-115422013D01*
X95264491Y-115028380D01*
X95151883Y-114588405D01*
X95030155Y-114110800D01*
X94935236Y-113736979D01*
X94843693Y-113375000D01*
X94756332Y-113028127D01*
X94673960Y-112699623D01*
X94597382Y-112392750D01*
X94527404Y-112110773D01*
X94464833Y-111856954D01*
X94410475Y-111634556D01*
X94365135Y-111446843D01*
X94329619Y-111297077D01*
X94304734Y-111188522D01*
X94291285Y-111124441D01*
X94289176Y-111110953D01*
X94289755Y-110951178D01*
X94326310Y-110827230D01*
X94398798Y-110739162D01*
X94507173Y-110687030D01*
X94651390Y-110670886D01*
X94651449Y-110670887D01*
G37*
G36*
X111715100Y-85725447D02*
G01*
X111830783Y-85735524D01*
X111917511Y-85755439D01*
X111938156Y-85764779D01*
X111965074Y-85785647D01*
X112028129Y-85837851D01*
X112125069Y-85919461D01*
X112253641Y-86028544D01*
X112411592Y-86163169D01*
X112596669Y-86321404D01*
X112806620Y-86501317D01*
X113039190Y-86700976D01*
X113292128Y-86918449D01*
X113563181Y-87151805D01*
X113850096Y-87399112D01*
X114150619Y-87658437D01*
X114462498Y-87927850D01*
X114674468Y-88111117D01*
X115061744Y-88446219D01*
X115412151Y-88749759D01*
X115727385Y-89023241D01*
X116009141Y-89268169D01*
X116259113Y-89486050D01*
X116478999Y-89678386D01*
X116670492Y-89846684D01*
X116835288Y-89992447D01*
X116975082Y-90117181D01*
X117091571Y-90222390D01*
X117186449Y-90309579D01*
X117261411Y-90380253D01*
X117318153Y-90435915D01*
X117358370Y-90478072D01*
X117383758Y-90508227D01*
X117395061Y-90525787D01*
X117428689Y-90629666D01*
X117444998Y-90754188D01*
X117443414Y-90879559D01*
X117423362Y-90985986D01*
X117409395Y-91020081D01*
X117381929Y-91047812D01*
X117313238Y-91104472D01*
X117203285Y-91190089D01*
X117052035Y-91304688D01*
X116859452Y-91448296D01*
X116625499Y-91620940D01*
X116350141Y-91822646D01*
X116033343Y-92053441D01*
X115675068Y-92313350D01*
X115275280Y-92602402D01*
X114926545Y-92853916D01*
X114610364Y-93081532D01*
X114304204Y-93301551D01*
X114010751Y-93512062D01*
X113732688Y-93711155D01*
X113472703Y-93896919D01*
X113233482Y-94067445D01*
X113017708Y-94220822D01*
X112828069Y-94355140D01*
X112667251Y-94468489D01*
X112537937Y-94558959D01*
X112442815Y-94624639D01*
X112384570Y-94663620D01*
X112368445Y-94673395D01*
X112282454Y-94708350D01*
X112186833Y-94726059D01*
X112072214Y-94730600D01*
X111963131Y-94727087D01*
X111880090Y-94712564D01*
X111798581Y-94681055D01*
X111733721Y-94648050D01*
X111699637Y-94625871D01*
X111645231Y-94584592D01*
X111569184Y-94523053D01*
X111470179Y-94440092D01*
X111346899Y-94334550D01*
X111198025Y-94205266D01*
X111022241Y-94051078D01*
X110818228Y-93870828D01*
X110584669Y-93663353D01*
X110320246Y-93427495D01*
X110023641Y-93162091D01*
X109693538Y-92865983D01*
X109328617Y-92538008D01*
X108927562Y-92177008D01*
X108905752Y-92157363D01*
X108590252Y-91872976D01*
X108284727Y-91597192D01*
X107991350Y-91331993D01*
X107712294Y-91079359D01*
X107449734Y-90841271D01*
X107205844Y-90619710D01*
X106982797Y-90416657D01*
X106782767Y-90234092D01*
X106607929Y-90073998D01*
X106460456Y-89938354D01*
X106342522Y-89829141D01*
X106256301Y-89748341D01*
X106203967Y-89697935D01*
X106187983Y-89680863D01*
X106155961Y-89596287D01*
X106144493Y-89487663D01*
X106154044Y-89377600D01*
X106180141Y-89297626D01*
X106203147Y-89274062D01*
X106259583Y-89228377D01*
X106350269Y-89159992D01*
X106476026Y-89068332D01*
X106637677Y-88952817D01*
X106836041Y-88812872D01*
X107071939Y-88647918D01*
X107346194Y-88457379D01*
X107659626Y-88240677D01*
X108013055Y-87997234D01*
X108407304Y-87726474D01*
X108697991Y-87527237D01*
X109018698Y-87307688D01*
X109328880Y-87095550D01*
X109625831Y-86892664D01*
X109906847Y-86700868D01*
X110169222Y-86522004D01*
X110410250Y-86357909D01*
X110627227Y-86210424D01*
X110817447Y-86081387D01*
X110978205Y-85972639D01*
X111106795Y-85886019D01*
X111200513Y-85823367D01*
X111256653Y-85786521D01*
X111271099Y-85777607D01*
X111348463Y-85751290D01*
X111458526Y-85733627D01*
X111585877Y-85724914D01*
X111715100Y-85725447D01*
G37*
G36*
X113606079Y-115094913D02*
G01*
X113661266Y-115144406D01*
X113686265Y-115230499D01*
X113687200Y-115255064D01*
X113679728Y-115295026D01*
X113656836Y-115368037D01*
X113617804Y-115475903D01*
X113561914Y-115620432D01*
X113488447Y-115803431D01*
X113396684Y-116026708D01*
X113285908Y-116292070D01*
X113155398Y-116601326D01*
X113100940Y-116729648D01*
X112993672Y-116981331D01*
X112891166Y-117220416D01*
X112795323Y-117442560D01*
X112708049Y-117643416D01*
X112631245Y-117818641D01*
X112566815Y-117963889D01*
X112516662Y-118074817D01*
X112482690Y-118147078D01*
X112467747Y-118175155D01*
X112441926Y-118199397D01*
X112380670Y-118251244D01*
X112288587Y-118327045D01*
X112170287Y-118423146D01*
X112030379Y-118535897D01*
X111873472Y-118661644D01*
X111704175Y-118796736D01*
X111527097Y-118937519D01*
X111346848Y-119080343D01*
X111168037Y-119221554D01*
X110995272Y-119357500D01*
X110833164Y-119484529D01*
X110686321Y-119598989D01*
X110559352Y-119697228D01*
X110456866Y-119775593D01*
X110383474Y-119830431D01*
X110344159Y-119857864D01*
X110309817Y-119864491D01*
X110301508Y-119857864D01*
X110294126Y-119829463D01*
X110277742Y-119756795D01*
X110253528Y-119645362D01*
X110222657Y-119500667D01*
X110186302Y-119328215D01*
X110145634Y-119133507D01*
X110101826Y-118922047D01*
X110092421Y-118876436D01*
X110036536Y-118601355D01*
X109990911Y-118368552D01*
X109955782Y-118179381D01*
X109931389Y-118035193D01*
X109917969Y-117937342D01*
X109915760Y-117887181D01*
X109917456Y-117881429D01*
X109939943Y-117861631D01*
X109998692Y-117813117D01*
X110090149Y-117738717D01*
X110210762Y-117641264D01*
X110356975Y-117523589D01*
X110525236Y-117388525D01*
X110711992Y-117238903D01*
X110913688Y-117077556D01*
X111126770Y-116907315D01*
X111347686Y-116731011D01*
X111572882Y-116551478D01*
X111798803Y-116371547D01*
X112021897Y-116194050D01*
X112238610Y-116021819D01*
X112445388Y-115857686D01*
X112638678Y-115704482D01*
X112814926Y-115565040D01*
X112970578Y-115442191D01*
X113102081Y-115338768D01*
X113205881Y-115257602D01*
X113278425Y-115201525D01*
X113311291Y-115176831D01*
X113425902Y-115110045D01*
X113525895Y-115083099D01*
X113606079Y-115094913D01*
G37*
G36*
X113103120Y-96633936D02*
G01*
X113210619Y-96683894D01*
X113343746Y-96759716D01*
X113375032Y-96779067D01*
X113607149Y-96931358D01*
X113871319Y-97116957D01*
X114164034Y-97332896D01*
X114481782Y-97576209D01*
X114821053Y-97843929D01*
X115178337Y-98133090D01*
X115550124Y-98440724D01*
X115932903Y-98763865D01*
X116323164Y-99099546D01*
X116717398Y-99444800D01*
X117112093Y-99796660D01*
X117503739Y-100152161D01*
X117888827Y-100508334D01*
X118263845Y-100862213D01*
X118625284Y-101210831D01*
X118667635Y-101252227D01*
X119115406Y-101690555D01*
X119223896Y-101652277D01*
X119394748Y-101616094D01*
X119559213Y-101628340D01*
X119711389Y-101688070D01*
X119790287Y-101742934D01*
X119899979Y-101863540D01*
X119969856Y-102005974D01*
X119997707Y-102160055D01*
X119981320Y-102315602D01*
X119938823Y-102426800D01*
X119897757Y-102505787D01*
X119862061Y-102574420D01*
X119850594Y-102596457D01*
X119807963Y-102645039D01*
X119770739Y-102664238D01*
X119714681Y-102681198D01*
X119638754Y-102707914D01*
X119618100Y-102715717D01*
X119464706Y-102750507D01*
X119310038Y-102741991D01*
X119269206Y-102731708D01*
X119117349Y-102661644D01*
X118997530Y-102555784D01*
X118914981Y-102420555D01*
X118874934Y-102262384D01*
X118873463Y-102245482D01*
X118862482Y-102093672D01*
X118605291Y-101899568D01*
X118314231Y-101676567D01*
X118012152Y-101438842D01*
X117701228Y-101188438D01*
X117383637Y-100927399D01*
X117061555Y-100657768D01*
X116737156Y-100381589D01*
X116412617Y-100100906D01*
X116090114Y-99817762D01*
X115771823Y-99534203D01*
X115459920Y-99252271D01*
X115156580Y-98974011D01*
X114863981Y-98701467D01*
X114584296Y-98436681D01*
X114319704Y-98181699D01*
X114072379Y-97938564D01*
X113844497Y-97709319D01*
X113638235Y-97496010D01*
X113455768Y-97300679D01*
X113299273Y-97125370D01*
X113170924Y-96972128D01*
X113072899Y-96842997D01*
X113007373Y-96740019D01*
X112976521Y-96665239D01*
X112982521Y-96620701D01*
X112983833Y-96619300D01*
X113025955Y-96611763D01*
X113103120Y-96633936D01*
G37*
G36*
X96855942Y-119052157D02*
G01*
X96857762Y-119052530D01*
X96890052Y-119065575D01*
X96964285Y-119099337D01*
X97076846Y-119152053D01*
X97224120Y-119221962D01*
X97402493Y-119307302D01*
X97608351Y-119406313D01*
X97838079Y-119517232D01*
X98088063Y-119638299D01*
X98354689Y-119767751D01*
X98634342Y-119903828D01*
X98923408Y-120044768D01*
X99218273Y-120188809D01*
X99515321Y-120334190D01*
X99810939Y-120479150D01*
X100101512Y-120621927D01*
X100383427Y-120760760D01*
X100653067Y-120893887D01*
X100906820Y-121019547D01*
X101141071Y-121135978D01*
X101352205Y-121241419D01*
X101451823Y-121291404D01*
X101616806Y-121375070D01*
X101744440Y-121442176D01*
X101843185Y-121498122D01*
X101921501Y-121548304D01*
X101987849Y-121598122D01*
X102050689Y-121652975D01*
X102114286Y-121714113D01*
X102160430Y-121759541D01*
X102201985Y-121801505D01*
X102239911Y-121842915D01*
X102275167Y-121886684D01*
X102308714Y-121935721D01*
X102341512Y-121992938D01*
X102374521Y-122061246D01*
X102408701Y-122143556D01*
X102445012Y-122242778D01*
X102484415Y-122361825D01*
X102527869Y-122503606D01*
X102576334Y-122671034D01*
X102630771Y-122867018D01*
X102692140Y-123094470D01*
X102761401Y-123356301D01*
X102839513Y-123655422D01*
X102927437Y-123994744D01*
X103026134Y-124377178D01*
X103136563Y-124805634D01*
X103146013Y-124842300D01*
X103257943Y-125276796D01*
X103357719Y-125665028D01*
X103445950Y-126009902D01*
X103523245Y-126314326D01*
X103590212Y-126581204D01*
X103647460Y-126813445D01*
X103695597Y-127013954D01*
X103735233Y-127185638D01*
X103766975Y-127331404D01*
X103791433Y-127454158D01*
X103809214Y-127556806D01*
X103820929Y-127642256D01*
X103827185Y-127713413D01*
X103828591Y-127773185D01*
X103825755Y-127824477D01*
X103819287Y-127870197D01*
X103809794Y-127913250D01*
X103798035Y-127956034D01*
X103743598Y-128087895D01*
X103669942Y-128173121D01*
X103575973Y-128212534D01*
X103463487Y-128207581D01*
X103431705Y-128192896D01*
X103358906Y-128154323D01*
X103247990Y-128093509D01*
X103101855Y-128012100D01*
X102923401Y-127911742D01*
X102715529Y-127794082D01*
X102481136Y-127660765D01*
X102223124Y-127513439D01*
X101944390Y-127353749D01*
X101647835Y-127183342D01*
X101336358Y-127003864D01*
X101012858Y-126816961D01*
X100936187Y-126772592D01*
X100542497Y-126544697D01*
X100190266Y-126340664D01*
X99877013Y-126158862D01*
X99600256Y-125997658D01*
X99357516Y-125855419D01*
X99146311Y-125730513D01*
X98964161Y-125621309D01*
X98808586Y-125526172D01*
X98677105Y-125443471D01*
X98567237Y-125371573D01*
X98476502Y-125308846D01*
X98402418Y-125253658D01*
X98342506Y-125204375D01*
X98294284Y-125159366D01*
X98255272Y-125116998D01*
X98222990Y-125075638D01*
X98194956Y-125033655D01*
X98168691Y-124989415D01*
X98141713Y-124941287D01*
X98134961Y-124929163D01*
X98076347Y-124814545D01*
X98017195Y-124683781D01*
X97979064Y-124588300D01*
X97960397Y-124530740D01*
X97930050Y-124429015D01*
X97889151Y-124287291D01*
X97838828Y-124109733D01*
X97780209Y-123900507D01*
X97714421Y-123663779D01*
X97642592Y-123403716D01*
X97565850Y-123124483D01*
X97485323Y-122830247D01*
X97402138Y-122525173D01*
X97317423Y-122213427D01*
X97232307Y-121899176D01*
X97147915Y-121586585D01*
X97065377Y-121279821D01*
X96985820Y-120983049D01*
X96910372Y-120700436D01*
X96840160Y-120436147D01*
X96776313Y-120194348D01*
X96719957Y-119979206D01*
X96672222Y-119794886D01*
X96634234Y-119645555D01*
X96607121Y-119535378D01*
X96592011Y-119468522D01*
X96589747Y-119455998D01*
X96576803Y-119350717D01*
X96576579Y-119276488D01*
X96589904Y-119214976D01*
X96602104Y-119182786D01*
X96661732Y-119095980D01*
X96747892Y-119051648D01*
X96855942Y-119052157D01*
G37*
G36*
X78432882Y-95173201D02*
G01*
X78600680Y-95204612D01*
X78806306Y-95255146D01*
X79045801Y-95323312D01*
X79315209Y-95407622D01*
X79610573Y-95506588D01*
X79927935Y-95618721D01*
X80263338Y-95742532D01*
X80612825Y-95876533D01*
X80972438Y-96019235D01*
X81338222Y-96169149D01*
X81706218Y-96324787D01*
X82072468Y-96484659D01*
X82433017Y-96647278D01*
X82783907Y-96811155D01*
X83110249Y-96969390D01*
X83285101Y-97055391D01*
X83420178Y-97120411D01*
X83520912Y-97166636D01*
X83592738Y-97196250D01*
X83641092Y-97211437D01*
X83671407Y-97214382D01*
X83689118Y-97207270D01*
X83692750Y-97203545D01*
X83782938Y-97130860D01*
X83904549Y-97082029D01*
X84043132Y-97059086D01*
X84184235Y-97064065D01*
X84313406Y-97099000D01*
X84341393Y-97112260D01*
X84468792Y-97204538D01*
X84569653Y-97328300D01*
X84630357Y-97463805D01*
X84647844Y-97575326D01*
X84646506Y-97698408D01*
X84627191Y-97807092D01*
X84618315Y-97832293D01*
X84617063Y-97857559D01*
X84645221Y-97874420D01*
X84712279Y-97887590D01*
X84736158Y-97890849D01*
X84918203Y-97922964D01*
X85141163Y-97976446D01*
X85400679Y-98049620D01*
X85692394Y-98140811D01*
X86011949Y-98248344D01*
X86354987Y-98370542D01*
X86717148Y-98505732D01*
X87094075Y-98652237D01*
X87481409Y-98808383D01*
X87874791Y-98972493D01*
X88269865Y-99142894D01*
X88662271Y-99317909D01*
X89047651Y-99495863D01*
X89421647Y-99675081D01*
X89576558Y-99751458D01*
X90218216Y-100070667D01*
X90273054Y-100000951D01*
X90346893Y-99935078D01*
X90451482Y-99875338D01*
X90566868Y-99830952D01*
X90673094Y-99811137D01*
X90684553Y-99810848D01*
X90854034Y-99833833D01*
X91005820Y-99900421D01*
X91131684Y-100005737D01*
X91213254Y-100124206D01*
X91248297Y-100224891D01*
X91266232Y-100345763D01*
X91266151Y-100467025D01*
X91247145Y-100568878D01*
X91234969Y-100598000D01*
X91133595Y-100746214D01*
X91007273Y-100856729D01*
X90862796Y-100926309D01*
X90706957Y-100951716D01*
X90546549Y-100929714D01*
X90541806Y-100928308D01*
X90402364Y-100863366D01*
X90281175Y-100763459D01*
X90191744Y-100640826D01*
X90168605Y-100590048D01*
X90145525Y-100555412D01*
X90099005Y-100525348D01*
X90018981Y-100494512D01*
X89946844Y-100472286D01*
X89779590Y-100420512D01*
X89574025Y-100352262D01*
X89338714Y-100270635D01*
X89082222Y-100178734D01*
X88813114Y-100079658D01*
X88539955Y-99976508D01*
X88271312Y-99872384D01*
X88084000Y-99797953D01*
X87687642Y-99635750D01*
X87297061Y-99470366D01*
X86916259Y-99303759D01*
X86549241Y-99137885D01*
X86200011Y-98974700D01*
X85872573Y-98816160D01*
X85570931Y-98664222D01*
X85299089Y-98520843D01*
X85061051Y-98387979D01*
X84860821Y-98267587D01*
X84702404Y-98161622D01*
X84641987Y-98116139D01*
X84517283Y-98017359D01*
X84378085Y-98101179D01*
X84285979Y-98151071D01*
X84206877Y-98176407D01*
X84114390Y-98184705D01*
X84083870Y-98185000D01*
X83982161Y-98179814D01*
X83900809Y-98159208D01*
X83812925Y-98115611D01*
X83790276Y-98102321D01*
X83704298Y-98044338D01*
X83643989Y-97982315D01*
X83591770Y-97896791D01*
X83575500Y-97864548D01*
X83499300Y-97709453D01*
X83207200Y-97614158D01*
X82873102Y-97501090D01*
X82520050Y-97374092D01*
X82152725Y-97235282D01*
X81775807Y-97086782D01*
X81393978Y-96930712D01*
X81011917Y-96769192D01*
X80634307Y-96604342D01*
X80265827Y-96438283D01*
X79911159Y-96273135D01*
X79574982Y-96111018D01*
X79261979Y-95954052D01*
X78976829Y-95804358D01*
X78724214Y-95664056D01*
X78508814Y-95535266D01*
X78335310Y-95420109D01*
X78289537Y-95386586D01*
X78217145Y-95328118D01*
X78179876Y-95285064D01*
X78169564Y-95246253D01*
X78171848Y-95225557D01*
X78184526Y-95187326D01*
X78213036Y-95168651D01*
X78271929Y-95162725D01*
X78306868Y-95162400D01*
X78432882Y-95173201D01*
G37*
G36*
X105082063Y-89648174D02*
G01*
X105173459Y-89680908D01*
X105260479Y-89722403D01*
X105415688Y-89809740D01*
X105604219Y-89930012D01*
X105823040Y-90080673D01*
X106069117Y-90259179D01*
X106339418Y-90462982D01*
X106630907Y-90689537D01*
X106940553Y-90936299D01*
X107265322Y-91200721D01*
X107602181Y-91480259D01*
X107948097Y-91772366D01*
X108300035Y-92074496D01*
X108654964Y-92384105D01*
X109009849Y-92698646D01*
X109361658Y-93015573D01*
X109707357Y-93332341D01*
X110043913Y-93646404D01*
X110368293Y-93955217D01*
X110677462Y-94256233D01*
X110760379Y-94338265D01*
X110930461Y-94506548D01*
X111068368Y-94641445D01*
X111177418Y-94745915D01*
X111260926Y-94822917D01*
X111322208Y-94875411D01*
X111364581Y-94906358D01*
X111391359Y-94918716D01*
X111405860Y-94915447D01*
X111406379Y-94914858D01*
X111483087Y-94853986D01*
X111592642Y-94806937D01*
X111717636Y-94780130D01*
X111782200Y-94776320D01*
X111948271Y-94799427D01*
X112092399Y-94864881D01*
X112208831Y-94966876D01*
X112291814Y-95099609D01*
X112335597Y-95257274D01*
X112341000Y-95340200D01*
X112317946Y-95503901D01*
X112253456Y-95647466D01*
X112154537Y-95765290D01*
X112028193Y-95851765D01*
X111881433Y-95901288D01*
X111721262Y-95908251D01*
X111646403Y-95895943D01*
X111528447Y-95849481D01*
X111411504Y-95771451D01*
X111317080Y-95676769D01*
X111303424Y-95658075D01*
X111265603Y-95585833D01*
X111231601Y-95493207D01*
X111221113Y-95454371D01*
X111203057Y-95389574D01*
X111178072Y-95340353D01*
X111136178Y-95294573D01*
X111067397Y-95240103D01*
X111012314Y-95200500D01*
X110751429Y-95010566D01*
X110464746Y-94792846D01*
X110156001Y-94550665D01*
X109828929Y-94287352D01*
X109487265Y-94006234D01*
X109134744Y-93710639D01*
X108775102Y-93403895D01*
X108412075Y-93089328D01*
X108049397Y-92770266D01*
X107690804Y-92450038D01*
X107340031Y-92131970D01*
X107000813Y-91819390D01*
X106676886Y-91515626D01*
X106371985Y-91224005D01*
X106089846Y-90947855D01*
X105834203Y-90690502D01*
X105608793Y-90455276D01*
X105417350Y-90245504D01*
X105309213Y-90119976D01*
X105178647Y-89958669D01*
X105085266Y-89831264D01*
X105028993Y-89737138D01*
X105009753Y-89675664D01*
X105027469Y-89646218D01*
X105082063Y-89648174D01*
G37*
G36*
X91349053Y-93144852D02*
G01*
X91474900Y-93167101D01*
X91524124Y-93182123D01*
X91615739Y-93213586D01*
X91745809Y-93259995D01*
X91910401Y-93319854D01*
X92105580Y-93391666D01*
X92327410Y-93473935D01*
X92571959Y-93565165D01*
X92835290Y-93663861D01*
X93113470Y-93768525D01*
X93402564Y-93877663D01*
X93698638Y-93989778D01*
X93997756Y-94103373D01*
X94295985Y-94216954D01*
X94589390Y-94329023D01*
X94874036Y-94438085D01*
X95145989Y-94542644D01*
X95401314Y-94641203D01*
X95636076Y-94732267D01*
X95846342Y-94814340D01*
X96028177Y-94885924D01*
X96177645Y-94945526D01*
X96290813Y-94991647D01*
X96363746Y-95022793D01*
X96391398Y-95036538D01*
X96484492Y-95129099D01*
X96531955Y-95237428D01*
X96533888Y-95355169D01*
X96490387Y-95475965D01*
X96401551Y-95593459D01*
X96382469Y-95612158D01*
X96349138Y-95638015D01*
X96276762Y-95690119D01*
X96168448Y-95766363D01*
X96027302Y-95864639D01*
X95856429Y-95982838D01*
X95658934Y-96118855D01*
X95437925Y-96270579D01*
X95196506Y-96435905D01*
X94937783Y-96612723D01*
X94664863Y-96798927D01*
X94380850Y-96992409D01*
X94088851Y-97191060D01*
X93791972Y-97392773D01*
X93493318Y-97595440D01*
X93195995Y-97796953D01*
X92903109Y-97995206D01*
X92617766Y-98188089D01*
X92343071Y-98373495D01*
X92082131Y-98549316D01*
X91838051Y-98713445D01*
X91613936Y-98863774D01*
X91412894Y-98998195D01*
X91238028Y-99114600D01*
X91092447Y-99210882D01*
X90979254Y-99284932D01*
X90901556Y-99334643D01*
X90865300Y-99356426D01*
X90754707Y-99410313D01*
X90636179Y-99459033D01*
X90536113Y-99491819D01*
X90429821Y-99511454D01*
X90300841Y-99523763D01*
X90168025Y-99528050D01*
X90050224Y-99523616D01*
X89976300Y-99512548D01*
X89935242Y-99498827D01*
X89851345Y-99467909D01*
X89728559Y-99421359D01*
X89570834Y-99360743D01*
X89382120Y-99287625D01*
X89166366Y-99203571D01*
X88927523Y-99110145D01*
X88669540Y-99008912D01*
X88396368Y-98901438D01*
X88111957Y-98789288D01*
X87820257Y-98674027D01*
X87525217Y-98557219D01*
X87230787Y-98440430D01*
X86940918Y-98325225D01*
X86659560Y-98213168D01*
X86390663Y-98105826D01*
X86138175Y-98004762D01*
X85906049Y-97911543D01*
X85698233Y-97827732D01*
X85518677Y-97754896D01*
X85371332Y-97694599D01*
X85260147Y-97648406D01*
X85189073Y-97617882D01*
X85163479Y-97605634D01*
X85038968Y-97508255D01*
X84963533Y-97400692D01*
X84936944Y-97285010D01*
X84958975Y-97163271D01*
X85029399Y-97037538D01*
X85147988Y-96909874D01*
X85249158Y-96828034D01*
X85318633Y-96778460D01*
X85424351Y-96705129D01*
X85563201Y-96610103D01*
X85732075Y-96495446D01*
X85927862Y-96363219D01*
X86147453Y-96215484D01*
X86387739Y-96054303D01*
X86645610Y-95881738D01*
X86917956Y-95699852D01*
X87201667Y-95510707D01*
X87493634Y-95316365D01*
X87790747Y-95118888D01*
X88089897Y-94920338D01*
X88387973Y-94722777D01*
X88681867Y-94528267D01*
X88968469Y-94338872D01*
X89244668Y-94156652D01*
X89507356Y-93983670D01*
X89753422Y-93821987D01*
X89979758Y-93673667D01*
X90183252Y-93540772D01*
X90360797Y-93425363D01*
X90509282Y-93329502D01*
X90625597Y-93255252D01*
X90706633Y-93204675D01*
X90749280Y-93179833D01*
X90753310Y-93177985D01*
X90870162Y-93148678D01*
X91019425Y-93133221D01*
X91184567Y-93131863D01*
X91349053Y-93144852D01*
G37*
G36*
X105165152Y-99781229D02*
G01*
X105241917Y-99807170D01*
X105350537Y-99876740D01*
X105447306Y-99974651D01*
X105516191Y-100083536D01*
X105530283Y-100119571D01*
X105538961Y-100154804D01*
X105557525Y-100236609D01*
X105585302Y-100361866D01*
X105621617Y-100527457D01*
X105665796Y-100730263D01*
X105717165Y-100967165D01*
X105775051Y-101235043D01*
X105838778Y-101530780D01*
X105907672Y-101851257D01*
X105981060Y-102193354D01*
X106058268Y-102553953D01*
X106138621Y-102929934D01*
X106206072Y-103246067D01*
X106305204Y-103711029D01*
X106394254Y-104129108D01*
X106473697Y-104503112D01*
X106544009Y-104835849D01*
X106605664Y-105130127D01*
X106659138Y-105388755D01*
X106704905Y-105614539D01*
X106743440Y-105810289D01*
X106775218Y-105978813D01*
X106800715Y-106122917D01*
X106820406Y-106245411D01*
X106834765Y-106349103D01*
X106844267Y-106436800D01*
X106849387Y-106511311D01*
X106850601Y-106575443D01*
X106848383Y-106632005D01*
X106843208Y-106683804D01*
X106835552Y-106733649D01*
X106825889Y-106784348D01*
X106814695Y-106838709D01*
X106814197Y-106841120D01*
X106766498Y-107028653D01*
X106706654Y-107176362D01*
X106628928Y-107294814D01*
X106527584Y-107394579D01*
X106503553Y-107413544D01*
X106443681Y-107458543D01*
X106347912Y-107529588D01*
X106219272Y-107624473D01*
X106060787Y-107740994D01*
X105875484Y-107876945D01*
X105666388Y-108030123D01*
X105436525Y-108198322D01*
X105188922Y-108379339D01*
X104926604Y-108570968D01*
X104652597Y-108771004D01*
X104369928Y-108977243D01*
X104081622Y-109187480D01*
X103790706Y-109399511D01*
X103500205Y-109611131D01*
X103213146Y-109820135D01*
X102932554Y-110024319D01*
X102661455Y-110221477D01*
X102402876Y-110409406D01*
X102159843Y-110585900D01*
X101935381Y-110748755D01*
X101732516Y-110895766D01*
X101554275Y-111024729D01*
X101403684Y-111133438D01*
X101283768Y-111219690D01*
X101197553Y-111281279D01*
X101148066Y-111316001D01*
X101139040Y-111321993D01*
X101047891Y-111371988D01*
X100963202Y-111398959D01*
X100858653Y-111410761D01*
X100838101Y-111411776D01*
X100713698Y-111410295D01*
X100624946Y-111391798D01*
X100593500Y-111377595D01*
X100474438Y-111295352D01*
X100383466Y-111188598D01*
X100335876Y-111105906D01*
X100319918Y-111061709D01*
X100292315Y-110969338D01*
X100253379Y-110829991D01*
X100203418Y-110644868D01*
X100142745Y-110415167D01*
X100071670Y-110142086D01*
X99990503Y-109826826D01*
X99899555Y-109470584D01*
X99799137Y-109074560D01*
X99689559Y-108639952D01*
X99571131Y-108167959D01*
X99473784Y-107778506D01*
X99358275Y-107315627D01*
X99254462Y-106899357D01*
X99161728Y-106527020D01*
X99079455Y-106195941D01*
X99007025Y-105903442D01*
X98943820Y-105646847D01*
X98889224Y-105423482D01*
X98842618Y-105230670D01*
X98803384Y-105065735D01*
X98770906Y-104926000D01*
X98744564Y-104808790D01*
X98723742Y-104711429D01*
X98707822Y-104631241D01*
X98696186Y-104565550D01*
X98688217Y-104511680D01*
X98683296Y-104466954D01*
X98680806Y-104428698D01*
X98680130Y-104394234D01*
X98680650Y-104360887D01*
X98681143Y-104344500D01*
X98702074Y-104146892D01*
X98754743Y-103979304D01*
X98844928Y-103828089D01*
X98951430Y-103706231D01*
X98988591Y-103675772D01*
X99064768Y-103619371D01*
X99176907Y-103539089D01*
X99321953Y-103436991D01*
X99496849Y-103315140D01*
X99698542Y-103175599D01*
X99923974Y-103020431D01*
X100170092Y-102851700D01*
X100433840Y-102671468D01*
X100712162Y-102481799D01*
X101002004Y-102284756D01*
X101300309Y-102082403D01*
X101604024Y-101876802D01*
X101910091Y-101670016D01*
X102215457Y-101464110D01*
X102517066Y-101261146D01*
X102811862Y-101063188D01*
X103096791Y-100872298D01*
X103368796Y-100690541D01*
X103624823Y-100519978D01*
X103861816Y-100362674D01*
X104076721Y-100220691D01*
X104266481Y-100096093D01*
X104428042Y-99990944D01*
X104558348Y-99907305D01*
X104654344Y-99847241D01*
X104712974Y-99812815D01*
X104727095Y-99805946D01*
X104868588Y-99770566D01*
X105021498Y-99762344D01*
X105165152Y-99781229D01*
G37*
G36*
X118867833Y-91994364D02*
G01*
X118971677Y-92009585D01*
X118996812Y-92016104D01*
X119029000Y-92036858D01*
X119096358Y-92089372D01*
X119196334Y-92171378D01*
X119326376Y-92280612D01*
X119483930Y-92414809D01*
X119666445Y-92571703D01*
X119871367Y-92749028D01*
X120096146Y-92944520D01*
X120338227Y-93155912D01*
X120595059Y-93380940D01*
X120864090Y-93617338D01*
X121142766Y-93862841D01*
X121428535Y-94115183D01*
X121718845Y-94372099D01*
X122011143Y-94631323D01*
X122302877Y-94890591D01*
X122591495Y-95147636D01*
X122874444Y-95400193D01*
X123149171Y-95645998D01*
X123413124Y-95882784D01*
X123663751Y-96108286D01*
X123898498Y-96320238D01*
X124114815Y-96516377D01*
X124310148Y-96694435D01*
X124481944Y-96852147D01*
X124627652Y-96987249D01*
X124744718Y-97097475D01*
X124830591Y-97180559D01*
X124882718Y-97234236D01*
X124898043Y-97253645D01*
X124929722Y-97345462D01*
X124951136Y-97459896D01*
X124960444Y-97577785D01*
X124955808Y-97679966D01*
X124943802Y-97730574D01*
X124922961Y-97753996D01*
X124869101Y-97801124D01*
X124781469Y-97872531D01*
X124659311Y-97968791D01*
X124501875Y-98090476D01*
X124308408Y-98238159D01*
X124078157Y-98412412D01*
X123810368Y-98613809D01*
X123504289Y-98842922D01*
X123159166Y-99100324D01*
X122774247Y-99386588D01*
X122466334Y-99615124D01*
X122152095Y-99848039D01*
X121848287Y-100072947D01*
X121557504Y-100287942D01*
X121282338Y-100491118D01*
X121025384Y-100680568D01*
X120789237Y-100854387D01*
X120576489Y-101010668D01*
X120389735Y-101147505D01*
X120231569Y-101262993D01*
X120104585Y-101355225D01*
X120011376Y-101422295D01*
X119954536Y-101462298D01*
X119937805Y-101473159D01*
X119859614Y-101498660D01*
X119748202Y-101516611D01*
X119620745Y-101525830D01*
X119494420Y-101525136D01*
X119386405Y-101513347D01*
X119377941Y-101511654D01*
X119284944Y-101481933D01*
X119186894Y-101435800D01*
X119156400Y-101417585D01*
X119118882Y-101388499D01*
X119047121Y-101328126D01*
X118943654Y-101238758D01*
X118811017Y-101122689D01*
X118651747Y-100982211D01*
X118468380Y-100819615D01*
X118263453Y-100637195D01*
X118039503Y-100437244D01*
X117799066Y-100222053D01*
X117544679Y-99993915D01*
X117278879Y-99755123D01*
X117004202Y-99507970D01*
X116723185Y-99254747D01*
X116438364Y-98997747D01*
X116152276Y-98739263D01*
X115867458Y-98481587D01*
X115586446Y-98227012D01*
X115311777Y-97977830D01*
X115045988Y-97736334D01*
X114791614Y-97504816D01*
X114551194Y-97285569D01*
X114327263Y-97080885D01*
X114122357Y-96893057D01*
X113939015Y-96724378D01*
X113779772Y-96577139D01*
X113647164Y-96453633D01*
X113543729Y-96356154D01*
X113472004Y-96286992D01*
X113434523Y-96248442D01*
X113429590Y-96241900D01*
X113404942Y-96140347D01*
X113404083Y-96017101D01*
X113425830Y-95894707D01*
X113451366Y-95826620D01*
X113465152Y-95807101D01*
X113492952Y-95777905D01*
X113536697Y-95737523D01*
X113598319Y-95684445D01*
X113679750Y-95617164D01*
X113782920Y-95534169D01*
X113909762Y-95433953D01*
X114062207Y-95315006D01*
X114242186Y-95175820D01*
X114451631Y-95014886D01*
X114692475Y-94830694D01*
X114966647Y-94621737D01*
X115276080Y-94386505D01*
X115622706Y-94123489D01*
X115922400Y-93896363D01*
X116233839Y-93660655D01*
X116535012Y-93433137D01*
X116823333Y-93215740D01*
X117096218Y-93010396D01*
X117351083Y-92819035D01*
X117585344Y-92643588D01*
X117796415Y-92485985D01*
X117981713Y-92348157D01*
X118138653Y-92232036D01*
X118264651Y-92139551D01*
X118357122Y-92072633D01*
X118413482Y-92033214D01*
X118429834Y-92023113D01*
X118507809Y-92002913D01*
X118618440Y-91991244D01*
X118744267Y-91988323D01*
X118867833Y-91994364D01*
G37*
G36*
X102703867Y-120406937D02*
G01*
X102840249Y-120478504D01*
X102950509Y-120584632D01*
X103028199Y-120720147D01*
X103066870Y-120879875D01*
X103070000Y-120943150D01*
X103047451Y-121113213D01*
X102981897Y-121259732D01*
X102876472Y-121377856D01*
X102734311Y-121462733D01*
X102734265Y-121462752D01*
X102632251Y-121489789D01*
X102510413Y-121499811D01*
X102389498Y-121492938D01*
X102290251Y-121469290D01*
X102269900Y-121460065D01*
X102126111Y-121358616D01*
X102021522Y-121229505D01*
X101959308Y-121079297D01*
X101942643Y-120914559D01*
X101955989Y-120810726D01*
X102007222Y-120680924D01*
X102096655Y-120560622D01*
X102211779Y-120462330D01*
X102340085Y-120398559D01*
X102378526Y-120388189D01*
X102547810Y-120375108D01*
X102703867Y-120406937D01*
G37*
G36*
X95481924Y-117074132D02*
G01*
X95625113Y-117121163D01*
X95750858Y-117204907D01*
X95851381Y-117322510D01*
X95918904Y-117471119D01*
X95929896Y-117513587D01*
X95939638Y-117667707D01*
X95905676Y-117820708D01*
X95833574Y-117960619D01*
X95728899Y-118075469D01*
X95641836Y-118133204D01*
X95531920Y-118171564D01*
X95401108Y-118190586D01*
X95272056Y-118188595D01*
X95176667Y-118167651D01*
X95038768Y-118091343D01*
X94932075Y-117984269D01*
X94857925Y-117855153D01*
X94817656Y-117712719D01*
X94812606Y-117565690D01*
X94844113Y-117422791D01*
X94913515Y-117292746D01*
X95022150Y-117184278D01*
X95025485Y-117181842D01*
X95174332Y-117101618D01*
X95329071Y-117066665D01*
X95481924Y-117074132D01*
G37*
G36*
X79045259Y-96319410D02*
G01*
X79103122Y-96333342D01*
X79139594Y-96346809D01*
X79218432Y-96378301D01*
X79335249Y-96425971D01*
X79485659Y-96487973D01*
X79665276Y-96562459D01*
X79869714Y-96647583D01*
X80094586Y-96741498D01*
X80335507Y-96842358D01*
X80588089Y-96948315D01*
X80847947Y-97057524D01*
X81110694Y-97168136D01*
X81371944Y-97278306D01*
X81627311Y-97386187D01*
X81872408Y-97489931D01*
X82102849Y-97587693D01*
X82314249Y-97677626D01*
X82502220Y-97757882D01*
X82662376Y-97826615D01*
X82790332Y-97881978D01*
X82881700Y-97922125D01*
X82932094Y-97945208D01*
X82935220Y-97946764D01*
X83076609Y-98038096D01*
X83219361Y-98165679D01*
X83349807Y-98317238D01*
X83353920Y-98322744D01*
X83393636Y-98377390D01*
X83430795Y-98432117D01*
X83466456Y-98489963D01*
X83501675Y-98553964D01*
X83537511Y-98627157D01*
X83575020Y-98712581D01*
X83615260Y-98813273D01*
X83659289Y-98932270D01*
X83708163Y-99072609D01*
X83762939Y-99237328D01*
X83824677Y-99429464D01*
X83894432Y-99652055D01*
X83973262Y-99908138D01*
X84062225Y-100200750D01*
X84162377Y-100532928D01*
X84274777Y-100907711D01*
X84400481Y-101328135D01*
X84402412Y-101334600D01*
X84504814Y-101677675D01*
X84604060Y-102010704D01*
X84699054Y-102329979D01*
X84788700Y-102631794D01*
X84871904Y-102912441D01*
X84947567Y-103168214D01*
X85014595Y-103395405D01*
X85071892Y-103590309D01*
X85118361Y-103749218D01*
X85152906Y-103868425D01*
X85174432Y-103944224D01*
X85179310Y-103962158D01*
X85214964Y-104123930D01*
X85234919Y-104273776D01*
X85238949Y-104402887D01*
X85226830Y-104502453D01*
X85198337Y-104563665D01*
X85194750Y-104567184D01*
X85104956Y-104614021D01*
X84984181Y-104620664D01*
X84921700Y-104610941D01*
X84874616Y-104595969D01*
X84785538Y-104562495D01*
X84658723Y-104512343D01*
X84498425Y-104447339D01*
X84308900Y-104369305D01*
X84094405Y-104280068D01*
X83859194Y-104181451D01*
X83607523Y-104075279D01*
X83343649Y-103963375D01*
X83071827Y-103847565D01*
X82796311Y-103729673D01*
X82521359Y-103611523D01*
X82251226Y-103494940D01*
X81990168Y-103381747D01*
X81742439Y-103273770D01*
X81512296Y-103172833D01*
X81303995Y-103080760D01*
X81121791Y-102999375D01*
X80969940Y-102930503D01*
X80852697Y-102875969D01*
X80774319Y-102837596D01*
X80740856Y-102818632D01*
X80606363Y-102690934D01*
X80487023Y-102517810D01*
X80385008Y-102302950D01*
X80315349Y-102096600D01*
X80304163Y-102060489D01*
X80278472Y-101979369D01*
X80239348Y-101856583D01*
X80187863Y-101695475D01*
X80125090Y-101499388D01*
X80052101Y-101271667D01*
X79969967Y-101015653D01*
X79879761Y-100734692D01*
X79782554Y-100432126D01*
X79679419Y-100111299D01*
X79571428Y-99775555D01*
X79488707Y-99518500D01*
X79377290Y-99172008D01*
X79269667Y-98836667D01*
X79166939Y-98515950D01*
X79070213Y-98213333D01*
X78980591Y-97932290D01*
X78899177Y-97676295D01*
X78827075Y-97448823D01*
X78765389Y-97253348D01*
X78715222Y-97093345D01*
X78677679Y-96972288D01*
X78653862Y-96893652D01*
X78645924Y-96865605D01*
X78616179Y-96699628D01*
X78615314Y-96555971D01*
X78642626Y-96441622D01*
X78696213Y-96364596D01*
X78784281Y-96319863D01*
X78904052Y-96304538D01*
X79045259Y-96319410D01*
G37*
G36*
X107267111Y-108554159D02*
G01*
X107367524Y-108576966D01*
X107386235Y-108585387D01*
X107478182Y-108653665D01*
X107561333Y-108751365D01*
X107612100Y-108843275D01*
X107622578Y-108880700D01*
X107642650Y-108963933D01*
X107671522Y-109089252D01*
X107708398Y-109252936D01*
X107752483Y-109451262D01*
X107802981Y-109680507D01*
X107859097Y-109936949D01*
X107920035Y-110216866D01*
X107985001Y-110516536D01*
X108053199Y-110832236D01*
X108123833Y-111160244D01*
X108196108Y-111496837D01*
X108269229Y-111838294D01*
X108342400Y-112180892D01*
X108414826Y-112520909D01*
X108485712Y-112854623D01*
X108554262Y-113178310D01*
X108619680Y-113488250D01*
X108681172Y-113780719D01*
X108737943Y-114051995D01*
X108789196Y-114298357D01*
X108834136Y-114516081D01*
X108871968Y-114701445D01*
X108901897Y-114850728D01*
X108923127Y-114960206D01*
X108934863Y-115026158D01*
X108937024Y-115043829D01*
X108921621Y-115195357D01*
X108880300Y-115364702D01*
X108818766Y-115537583D01*
X108742727Y-115699719D01*
X108657889Y-115836831D01*
X108587223Y-115919187D01*
X108555146Y-115946087D01*
X108485397Y-116001908D01*
X108380589Y-116084620D01*
X108243334Y-116192195D01*
X108076244Y-116322603D01*
X107881931Y-116473816D01*
X107663007Y-116643804D01*
X107422084Y-116830539D01*
X107161774Y-117031991D01*
X106884690Y-117246131D01*
X106593443Y-117470931D01*
X106290646Y-117704360D01*
X106110614Y-117843017D01*
X105719187Y-118143987D01*
X105357030Y-118421651D01*
X105025194Y-118675216D01*
X104724732Y-118903891D01*
X104456694Y-119106887D01*
X104222131Y-119283413D01*
X104022097Y-119432677D01*
X103857641Y-119553888D01*
X103729815Y-119646256D01*
X103639672Y-119708991D01*
X103588262Y-119741301D01*
X103583314Y-119743773D01*
X103485465Y-119782179D01*
X103385636Y-119804780D01*
X103262476Y-119815940D01*
X103222400Y-119817560D01*
X103112346Y-119817624D01*
X103012880Y-119811396D01*
X102941778Y-119800151D01*
X102930300Y-119796625D01*
X102844237Y-119754420D01*
X102758285Y-119695801D01*
X102690352Y-119634069D01*
X102664785Y-119599415D01*
X102655542Y-119568594D01*
X102635557Y-119491955D01*
X102605695Y-119373133D01*
X102566821Y-119215766D01*
X102519799Y-119023490D01*
X102465493Y-118799944D01*
X102404768Y-118548765D01*
X102338488Y-118273588D01*
X102267517Y-117978052D01*
X102192719Y-117665793D01*
X102114960Y-117340450D01*
X102035102Y-117005658D01*
X101954012Y-116665055D01*
X101872553Y-116322278D01*
X101791589Y-115980964D01*
X101711984Y-115644751D01*
X101634604Y-115317275D01*
X101560313Y-115002174D01*
X101489974Y-114703085D01*
X101424452Y-114423644D01*
X101364612Y-114167490D01*
X101311318Y-113938258D01*
X101265434Y-113739587D01*
X101227825Y-113575113D01*
X101199354Y-113448474D01*
X101180887Y-113363306D01*
X101173306Y-113323400D01*
X101174799Y-113140016D01*
X101217783Y-112945093D01*
X101298094Y-112749364D01*
X101411566Y-112563563D01*
X101518078Y-112434902D01*
X101555922Y-112399917D01*
X101621068Y-112346447D01*
X101714781Y-112273575D01*
X101838326Y-112180383D01*
X101992967Y-112065954D01*
X102179970Y-111929369D01*
X102400599Y-111769713D01*
X102656119Y-111586066D01*
X102947795Y-111377513D01*
X103276891Y-111143135D01*
X103644672Y-110882014D01*
X104052404Y-110593234D01*
X104233293Y-110465299D01*
X104558466Y-110235617D01*
X104873452Y-110013551D01*
X105175623Y-109800931D01*
X105462350Y-109599588D01*
X105731004Y-109411356D01*
X105978959Y-109238065D01*
X106203585Y-109081547D01*
X106402254Y-108943634D01*
X106572337Y-108826158D01*
X106711208Y-108730949D01*
X106816237Y-108659841D01*
X106884795Y-108614664D01*
X106912993Y-108597759D01*
X107019919Y-108565076D01*
X107144601Y-108550369D01*
X107267111Y-108554159D01*
G37*
G36*
X97928838Y-82925144D02*
G01*
X97966645Y-82937997D01*
X98059903Y-82982324D01*
X98189123Y-83057978D01*
X98351699Y-83163226D01*
X98545022Y-83296334D01*
X98766486Y-83455571D01*
X98951616Y-83592700D01*
X99422370Y-83953283D01*
X99917847Y-84347746D01*
X100431218Y-84770156D01*
X100955653Y-85214581D01*
X101484323Y-85675087D01*
X102010399Y-86145740D01*
X102527051Y-86620609D01*
X103027449Y-87093760D01*
X103412900Y-87468458D01*
X104073300Y-88119006D01*
X104154804Y-88070275D01*
X104285075Y-88019368D01*
X104432816Y-88005157D01*
X104579510Y-88028483D01*
X104633798Y-88048534D01*
X104787112Y-88137891D01*
X104896042Y-88251486D01*
X104961725Y-88391010D01*
X104985301Y-88558156D01*
X104985404Y-88571100D01*
X104962921Y-88736921D01*
X104900200Y-88879991D01*
X104804330Y-88996015D01*
X104682401Y-89080696D01*
X104541502Y-89129742D01*
X104388724Y-89138857D01*
X104231156Y-89103746D01*
X104159142Y-89071626D01*
X104023595Y-88973897D01*
X103926757Y-88844779D01*
X103871992Y-88689372D01*
X103862721Y-88622221D01*
X103851350Y-88485102D01*
X103525816Y-88242759D01*
X103224479Y-88014302D01*
X102905359Y-87764703D01*
X102571726Y-87496923D01*
X102226849Y-87213926D01*
X101873997Y-86918671D01*
X101516439Y-86614121D01*
X101157446Y-86303237D01*
X100800286Y-85988981D01*
X100448228Y-85674314D01*
X100104541Y-85362198D01*
X99772495Y-85055594D01*
X99455360Y-84757464D01*
X99156403Y-84470769D01*
X98878896Y-84198471D01*
X98626106Y-83943532D01*
X98401303Y-83708912D01*
X98207756Y-83497574D01*
X98048735Y-83312479D01*
X97960811Y-83201562D01*
X97894376Y-83111433D01*
X97856128Y-83050059D01*
X97842023Y-83006929D01*
X97848018Y-82971531D01*
X97862246Y-82945350D01*
X97887439Y-82922206D01*
X97928838Y-82925144D01*
G37*
G36*
X100764273Y-111853789D02*
G01*
X100894375Y-111905133D01*
X101014772Y-111994758D01*
X101113039Y-112110218D01*
X101176751Y-112239068D01*
X101187000Y-112277211D01*
X101198787Y-112445449D01*
X101164004Y-112604926D01*
X101086672Y-112747142D01*
X100970812Y-112863599D01*
X100883882Y-112917876D01*
X100781855Y-112951412D01*
X100657027Y-112966362D01*
X100530059Y-112962400D01*
X100421612Y-112939200D01*
X100390300Y-112925665D01*
X100248099Y-112824861D01*
X100146111Y-112695438D01*
X100087315Y-112542203D01*
X100073357Y-112414534D01*
X100095474Y-112246255D01*
X100159015Y-112100246D01*
X100257554Y-111981722D01*
X100384664Y-111895899D01*
X100533916Y-111847995D01*
X100698884Y-111843225D01*
X100764273Y-111853789D01*
G37*
G36*
X85337133Y-90947048D02*
G01*
X85405009Y-90953916D01*
X85481857Y-90967472D01*
X85571105Y-90988772D01*
X85676182Y-91018873D01*
X85800519Y-91058835D01*
X85947543Y-91109714D01*
X86120685Y-91172569D01*
X86323373Y-91248457D01*
X86559038Y-91338437D01*
X86831108Y-91443565D01*
X87143013Y-91564900D01*
X87498182Y-91703500D01*
X87566564Y-91730203D01*
X87862747Y-91845989D01*
X88146503Y-91957148D01*
X88414084Y-92062198D01*
X88661743Y-92159657D01*
X88885732Y-92248045D01*
X89082304Y-92325878D01*
X89247713Y-92391675D01*
X89378211Y-92443954D01*
X89470050Y-92481233D01*
X89519483Y-92502030D01*
X89525688Y-92504939D01*
X89635448Y-92585183D01*
X89706200Y-92687139D01*
X89735188Y-92801751D01*
X89719652Y-92919965D01*
X89677850Y-93004466D01*
X89656321Y-93025949D01*
X89609857Y-93062711D01*
X89536981Y-93115724D01*
X89436220Y-93185963D01*
X89306099Y-93274401D01*
X89145145Y-93382012D01*
X88951882Y-93509770D01*
X88724836Y-93658649D01*
X88462532Y-93829621D01*
X88163497Y-94023662D01*
X87826256Y-94241744D01*
X87449335Y-94484842D01*
X87031259Y-94753928D01*
X86941000Y-94811963D01*
X86602041Y-95029641D01*
X86272186Y-95241024D01*
X85954257Y-95444327D01*
X85651072Y-95637766D01*
X85365452Y-95819554D01*
X85100217Y-95987909D01*
X84858188Y-96141045D01*
X84642184Y-96277178D01*
X84455026Y-96394523D01*
X84299534Y-96491295D01*
X84178528Y-96565710D01*
X84094829Y-96615983D01*
X84053544Y-96639203D01*
X83873226Y-96716706D01*
X83709938Y-96755099D01*
X83549499Y-96755355D01*
X83377728Y-96718445D01*
X83296100Y-96691117D01*
X83216817Y-96661207D01*
X83099173Y-96615330D01*
X82947276Y-96555168D01*
X82765231Y-96482406D01*
X82557147Y-96398725D01*
X82327130Y-96305810D01*
X82079287Y-96205342D01*
X81817727Y-96099005D01*
X81546555Y-95988482D01*
X81269879Y-95875456D01*
X80991807Y-95761610D01*
X80716445Y-95648627D01*
X80447901Y-95538189D01*
X80190282Y-95431981D01*
X79947694Y-95331684D01*
X79724246Y-95238982D01*
X79524044Y-95155559D01*
X79351195Y-95083096D01*
X79209807Y-95023277D01*
X79103987Y-94977785D01*
X79037841Y-94948303D01*
X79016200Y-94937337D01*
X78957622Y-94874646D01*
X78945555Y-94804268D01*
X78980365Y-94722619D01*
X79046289Y-94642500D01*
X79082321Y-94613859D01*
X79158331Y-94560453D01*
X79271128Y-94484294D01*
X79417522Y-94387395D01*
X79594322Y-94271771D01*
X79798338Y-94139434D01*
X80026378Y-93992397D01*
X80275252Y-93832673D01*
X80541770Y-93662276D01*
X80822741Y-93483220D01*
X81114974Y-93297516D01*
X81415278Y-93107179D01*
X81720463Y-92914222D01*
X82027339Y-92720657D01*
X82332714Y-92528498D01*
X82633398Y-92339758D01*
X82926200Y-92156451D01*
X83207930Y-91980590D01*
X83475398Y-91814187D01*
X83725411Y-91659257D01*
X83954780Y-91517811D01*
X84160315Y-91391864D01*
X84338824Y-91283429D01*
X84487116Y-91194519D01*
X84602002Y-91127146D01*
X84680291Y-91083325D01*
X84712097Y-91067534D01*
X84827688Y-91026456D01*
X84963812Y-90989460D01*
X85086747Y-90965280D01*
X85153033Y-90955982D01*
X85214574Y-90949138D01*
X85274797Y-90945807D01*
X85337133Y-90947048D01*
G37*
G36*
X90783677Y-88126889D02*
G01*
X90884234Y-88167078D01*
X91015413Y-88236707D01*
X91175050Y-88334025D01*
X91360983Y-88457283D01*
X91571049Y-88604730D01*
X91803084Y-88774616D01*
X92054925Y-88965191D01*
X92324409Y-89174704D01*
X92609373Y-89401406D01*
X92907654Y-89643546D01*
X93217089Y-89899374D01*
X93535515Y-90167141D01*
X93860768Y-90445095D01*
X94190686Y-90731486D01*
X94523105Y-91024565D01*
X94855863Y-91322581D01*
X95186796Y-91623785D01*
X95513741Y-91926425D01*
X95834536Y-92228751D01*
X96147016Y-92529015D01*
X96346994Y-92724564D01*
X96927727Y-93296628D01*
X97004579Y-93264314D01*
X97139740Y-93232213D01*
X97289883Y-93237168D01*
X97437026Y-93277581D01*
X97499893Y-93308291D01*
X97627222Y-93407490D01*
X97716341Y-93531300D01*
X97767474Y-93671113D01*
X97780847Y-93818322D01*
X97756683Y-93964322D01*
X97695208Y-94100504D01*
X97596647Y-94218263D01*
X97473912Y-94302674D01*
X97336907Y-94350641D01*
X97190215Y-94364964D01*
X97054589Y-94343930D01*
X97038968Y-94338552D01*
X96909994Y-94276257D01*
X96806237Y-94189222D01*
X96733620Y-94098677D01*
X96691602Y-94031539D01*
X96667622Y-93966442D01*
X96656039Y-93883417D01*
X96652523Y-93811494D01*
X96646707Y-93630745D01*
X96308703Y-93376210D01*
X96006057Y-93144475D01*
X95688045Y-92893833D01*
X95357645Y-92627009D01*
X95017839Y-92346729D01*
X94671606Y-92055716D01*
X94321925Y-91756695D01*
X93971777Y-91452390D01*
X93624142Y-91145527D01*
X93282000Y-90838828D01*
X92948331Y-90535020D01*
X92626114Y-90236826D01*
X92318329Y-89946971D01*
X92027958Y-89668179D01*
X91757978Y-89403176D01*
X91511371Y-89154685D01*
X91291116Y-88925430D01*
X91100194Y-88718137D01*
X90941583Y-88535530D01*
X90818265Y-88380334D01*
X90769206Y-88311560D01*
X90721947Y-88235921D01*
X90691000Y-88174788D01*
X90683080Y-88141831D01*
X90715904Y-88117890D01*
X90783677Y-88126889D01*
G37*
G36*
X122444473Y-104807965D02*
G01*
X122470339Y-104843263D01*
X122460444Y-104870663D01*
X122430023Y-104939774D01*
X122380956Y-105046717D01*
X122315126Y-105187611D01*
X122234412Y-105358577D01*
X122140695Y-105555735D01*
X122035856Y-105775206D01*
X121921776Y-106013108D01*
X121800335Y-106265562D01*
X121673415Y-106528689D01*
X121542895Y-106798608D01*
X121410658Y-107071440D01*
X121278583Y-107343304D01*
X121148551Y-107610320D01*
X121022443Y-107868610D01*
X120902141Y-108114292D01*
X120789524Y-108343487D01*
X120686473Y-108552315D01*
X120594869Y-108736897D01*
X120516594Y-108893351D01*
X120453527Y-109017799D01*
X120407549Y-109106360D01*
X120380542Y-109155154D01*
X120378891Y-109157800D01*
X120321670Y-109234272D01*
X120251877Y-109311041D01*
X120236819Y-109325453D01*
X120205169Y-109351195D01*
X120136109Y-109404893D01*
X120032915Y-109484087D01*
X119898864Y-109586313D01*
X119737230Y-109709109D01*
X119551291Y-109850013D01*
X119344320Y-110006563D01*
X119119594Y-110176295D01*
X118880389Y-110356748D01*
X118629981Y-110545458D01*
X118371644Y-110739964D01*
X118108656Y-110937804D01*
X117844291Y-111136514D01*
X117581825Y-111333633D01*
X117324534Y-111526697D01*
X117075695Y-111713245D01*
X116838581Y-111890814D01*
X116616470Y-112056942D01*
X116412637Y-112209165D01*
X116230357Y-112345023D01*
X116072907Y-112462052D01*
X115943562Y-112557790D01*
X115845597Y-112629775D01*
X115782290Y-112675543D01*
X115759078Y-112691458D01*
X115672329Y-112731680D01*
X115607153Y-112735599D01*
X115583733Y-112722266D01*
X115568426Y-112676831D01*
X115570777Y-112600323D01*
X115589603Y-112508846D01*
X115602316Y-112469343D01*
X115621253Y-112424681D01*
X115660327Y-112338898D01*
X115717495Y-112216221D01*
X115790714Y-112060875D01*
X115877941Y-111877087D01*
X115977133Y-111669082D01*
X116086247Y-111441088D01*
X116203240Y-111197329D01*
X116326069Y-110942032D01*
X116452691Y-110679423D01*
X116581062Y-110413728D01*
X116709141Y-110149173D01*
X116834883Y-109889985D01*
X116956245Y-109640389D01*
X117071186Y-109404612D01*
X117177661Y-109186879D01*
X117273628Y-108991417D01*
X117357043Y-108822451D01*
X117425864Y-108684208D01*
X117478047Y-108580915D01*
X117511550Y-108516796D01*
X117521576Y-108499287D01*
X117582609Y-108416272D01*
X117661522Y-108324187D01*
X117718210Y-108265640D01*
X117755874Y-108233478D01*
X117830584Y-108173439D01*
X117939055Y-108088020D01*
X118078001Y-107979720D01*
X118244139Y-107851038D01*
X118434184Y-107704471D01*
X118644851Y-107542518D01*
X118872855Y-107367677D01*
X119114913Y-107182446D01*
X119367738Y-106989324D01*
X119628047Y-106790809D01*
X119892555Y-106589399D01*
X120157977Y-106387592D01*
X120421028Y-106187887D01*
X120678424Y-105992782D01*
X120926880Y-105804775D01*
X121163112Y-105626364D01*
X121383835Y-105460047D01*
X121585764Y-105308324D01*
X121765615Y-105173691D01*
X121920102Y-105058648D01*
X122045942Y-104965693D01*
X122139849Y-104897323D01*
X122198539Y-104856038D01*
X122214510Y-104845840D01*
X122304637Y-104807420D01*
X122385165Y-104794756D01*
X122444473Y-104807965D01*
G37*
G36*
X106963626Y-102648537D02*
G01*
X107020251Y-102689574D01*
X107105873Y-102756394D01*
X107215859Y-102845185D01*
X107345576Y-102952130D01*
X107490391Y-103073415D01*
X107645671Y-103205224D01*
X107806782Y-103343742D01*
X107946800Y-103465614D01*
X108311784Y-103789566D01*
X108697256Y-104139720D01*
X109095382Y-104508581D01*
X109498331Y-104888652D01*
X109898271Y-105272438D01*
X110287370Y-105652441D01*
X110657797Y-106021166D01*
X111001719Y-106371116D01*
X111222988Y-106601409D01*
X111815378Y-107224682D01*
X111887251Y-107187515D01*
X112038515Y-107136435D01*
X112196256Y-107131796D01*
X112350734Y-107171897D01*
X112492207Y-107255040D01*
X112545409Y-107302390D01*
X112648781Y-107437366D01*
X112706546Y-107586006D01*
X112717444Y-107741148D01*
X112680216Y-107895627D01*
X112658104Y-107943423D01*
X112613727Y-108070735D01*
X112618357Y-108192148D01*
X112649070Y-108274138D01*
X112685790Y-108355904D01*
X112693044Y-108401971D01*
X112670264Y-108418419D01*
X112635877Y-108415514D01*
X112608536Y-108413209D01*
X112587452Y-108423931D01*
X112568481Y-108455865D01*
X112547473Y-108517198D01*
X112520283Y-108616116D01*
X112505487Y-108672903D01*
X112424296Y-108959052D01*
X112320450Y-109281165D01*
X112197179Y-109631499D01*
X112057717Y-110002309D01*
X111905296Y-110385852D01*
X111743149Y-110774383D01*
X111574508Y-111160158D01*
X111402606Y-111535434D01*
X111230674Y-111892467D01*
X111061947Y-112223512D01*
X110899655Y-112520826D01*
X110898248Y-112523300D01*
X110788555Y-112708615D01*
X110680539Y-112877208D01*
X110577974Y-113024143D01*
X110484630Y-113144483D01*
X110404280Y-113233295D01*
X110340695Y-113285640D01*
X110306254Y-113298000D01*
X110277413Y-113277655D01*
X110266513Y-113257627D01*
X110255277Y-113181686D01*
X110261609Y-113064158D01*
X110284227Y-112910630D01*
X110321849Y-112726686D01*
X110373192Y-112517914D01*
X110436975Y-112289899D01*
X110511914Y-112048228D01*
X110596727Y-111798486D01*
X110609997Y-111761300D01*
X110754715Y-111371932D01*
X110912546Y-110971923D01*
X111079979Y-110569012D01*
X111253506Y-110170939D01*
X111429616Y-109785443D01*
X111604799Y-109420262D01*
X111775546Y-109083138D01*
X111938347Y-108781809D01*
X112044097Y-108599000D01*
X112233989Y-108281500D01*
X112098952Y-108266010D01*
X111933401Y-108223524D01*
X111791690Y-108140317D01*
X111680395Y-108022451D01*
X111606091Y-107875986D01*
X111584473Y-107791761D01*
X111575947Y-107757270D01*
X111560205Y-107722988D01*
X111532497Y-107683988D01*
X111488073Y-107635345D01*
X111422180Y-107572134D01*
X111330070Y-107489429D01*
X111206991Y-107382305D01*
X111104462Y-107294098D01*
X110640807Y-106889548D01*
X110151380Y-106449836D01*
X109641615Y-105979885D01*
X109293666Y-105652702D01*
X109148708Y-105514159D01*
X108983027Y-105353771D01*
X108801729Y-105176640D01*
X108609921Y-104987872D01*
X108412708Y-104792568D01*
X108215196Y-104595834D01*
X108022493Y-104402773D01*
X107839703Y-104218488D01*
X107671933Y-104048084D01*
X107524289Y-103896663D01*
X107401878Y-103769330D01*
X107309805Y-103671188D01*
X107295137Y-103655134D01*
X107107412Y-103448368D01*
X107019005Y-103047751D01*
X106989817Y-102912232D01*
X106965947Y-102795056D01*
X106949020Y-102704746D01*
X106940663Y-102649824D01*
X106940631Y-102637101D01*
X106963626Y-102648537D01*
G37*
G36*
X119713010Y-110213400D02*
G01*
X119749737Y-110243775D01*
X119752316Y-110252257D01*
X119742779Y-110281053D01*
X119712814Y-110352011D01*
X119664083Y-110461551D01*
X119598252Y-110606091D01*
X119516984Y-110782049D01*
X119421944Y-110985845D01*
X119314797Y-111213897D01*
X119197207Y-111462624D01*
X119070837Y-111728444D01*
X118937353Y-112007776D01*
X118908315Y-112068357D01*
X118056682Y-113844100D01*
X117833385Y-114060185D01*
X117771605Y-114115711D01*
X117677280Y-114194080D01*
X117549443Y-114296027D01*
X117387129Y-114422285D01*
X117189372Y-114573588D01*
X116955207Y-114750670D01*
X116683667Y-114954264D01*
X116373788Y-115185104D01*
X116024603Y-115443924D01*
X115635147Y-115731458D01*
X115591494Y-115763628D01*
X115306418Y-115973614D01*
X115032067Y-116175572D01*
X114771311Y-116367395D01*
X114527021Y-116546978D01*
X114302068Y-116712215D01*
X114099322Y-116860999D01*
X113921653Y-116991225D01*
X113771933Y-117100787D01*
X113653032Y-117187578D01*
X113567821Y-117249493D01*
X113519170Y-117284425D01*
X113509400Y-117291148D01*
X113429107Y-117333299D01*
X113362526Y-117352579D01*
X113323412Y-117345346D01*
X113307059Y-117306417D01*
X113306200Y-117295344D01*
X113316696Y-117264194D01*
X113346808Y-117191558D01*
X113394475Y-117081891D01*
X113457631Y-116939648D01*
X113534215Y-116769285D01*
X113622164Y-116575257D01*
X113719413Y-116362018D01*
X113823901Y-116134025D01*
X113933564Y-115895732D01*
X114046339Y-115651596D01*
X114160162Y-115406070D01*
X114272971Y-115163611D01*
X114382703Y-114928674D01*
X114487295Y-114705713D01*
X114584683Y-114499185D01*
X114672804Y-114313544D01*
X114749595Y-114153246D01*
X114812994Y-114022746D01*
X114860937Y-113926499D01*
X114891361Y-113868961D01*
X114897718Y-113858444D01*
X114968404Y-113760600D01*
X115052715Y-113655807D01*
X115106634Y-113594779D01*
X115139882Y-113565398D01*
X115210360Y-113507928D01*
X115314757Y-113424897D01*
X115449765Y-113318831D01*
X115612075Y-113192258D01*
X115798377Y-113047704D01*
X116005363Y-112887697D01*
X116229724Y-112714765D01*
X116468150Y-112531433D01*
X116717333Y-112340229D01*
X116973964Y-112143681D01*
X117234733Y-111944316D01*
X117496332Y-111744659D01*
X117755452Y-111547240D01*
X118008783Y-111354585D01*
X118253017Y-111169220D01*
X118484845Y-110993674D01*
X118700957Y-110830472D01*
X118898045Y-110682143D01*
X119072800Y-110551214D01*
X119221912Y-110440211D01*
X119342073Y-110351662D01*
X119429973Y-110288094D01*
X119482304Y-110252033D01*
X119489244Y-110247729D01*
X119567978Y-110215122D01*
X119647495Y-110203764D01*
X119713010Y-110213400D01*
G37*
G36*
X104485913Y-79190660D02*
G01*
X104523437Y-79203935D01*
X104568788Y-79226377D01*
X104623982Y-79259552D01*
X104691036Y-79305025D01*
X104771965Y-79364361D01*
X104868787Y-79439125D01*
X104983518Y-79530884D01*
X105118174Y-79641201D01*
X105274773Y-79771643D01*
X105455330Y-79923774D01*
X105661862Y-80099161D01*
X105896386Y-80299367D01*
X106160918Y-80525960D01*
X106457475Y-80780502D01*
X106788073Y-81064561D01*
X107154729Y-81379702D01*
X107253545Y-81464629D01*
X107568181Y-81735105D01*
X107873482Y-81997701D01*
X108167090Y-82250384D01*
X108446648Y-82491118D01*
X108709801Y-82717871D01*
X108954191Y-82928607D01*
X109177462Y-83121293D01*
X109377257Y-83293893D01*
X109551219Y-83444375D01*
X109696992Y-83570704D01*
X109812219Y-83670845D01*
X109894544Y-83742765D01*
X109941609Y-83784429D01*
X109949950Y-83792087D01*
X110058975Y-83918521D01*
X110118050Y-84044528D01*
X110127912Y-84173138D01*
X110089292Y-84307382D01*
X110079644Y-84327630D01*
X110069219Y-84344868D01*
X110052687Y-84365113D01*
X110027830Y-84389901D01*
X109992432Y-84420771D01*
X109944275Y-84459258D01*
X109881142Y-84506901D01*
X109800814Y-84565235D01*
X109701075Y-84635799D01*
X109579707Y-84720129D01*
X109434493Y-84819762D01*
X109263215Y-84936235D01*
X109063656Y-85071085D01*
X108833598Y-85225850D01*
X108570825Y-85402066D01*
X108273118Y-85601270D01*
X107938260Y-85825000D01*
X107564034Y-86074792D01*
X107431694Y-86163090D01*
X107018893Y-86438281D01*
X106646476Y-86686090D01*
X106312757Y-86907610D01*
X106016051Y-87103934D01*
X105754672Y-87276156D01*
X105526934Y-87425368D01*
X105331153Y-87552665D01*
X105165643Y-87659138D01*
X105028719Y-87745883D01*
X104918695Y-87813991D01*
X104833886Y-87864556D01*
X104772607Y-87898671D01*
X104733172Y-87917430D01*
X104721000Y-87921419D01*
X104619691Y-87938394D01*
X104517012Y-87945737D01*
X104433087Y-87942503D01*
X104403500Y-87936316D01*
X104361267Y-87924865D01*
X104308731Y-87912558D01*
X104282327Y-87894418D01*
X104220464Y-87844968D01*
X104125775Y-87766505D01*
X104000895Y-87661331D01*
X103848456Y-87531743D01*
X103671091Y-87380041D01*
X103471435Y-87208524D01*
X103252121Y-87019491D01*
X103015781Y-86815242D01*
X102765050Y-86598076D01*
X102502560Y-86370292D01*
X102230946Y-86134188D01*
X101952840Y-85892065D01*
X101670875Y-85646222D01*
X101387686Y-85398957D01*
X101105906Y-85152569D01*
X100828168Y-84909359D01*
X100557105Y-84671625D01*
X100295350Y-84441667D01*
X100045538Y-84221782D01*
X99810302Y-84014272D01*
X99592274Y-83821435D01*
X99394089Y-83645570D01*
X99218379Y-83488976D01*
X99067778Y-83353952D01*
X98944920Y-83242798D01*
X98852438Y-83157814D01*
X98792964Y-83101297D01*
X98769698Y-83076468D01*
X98738416Y-82991017D01*
X98736091Y-82885998D01*
X98761283Y-82782542D01*
X98793776Y-82723360D01*
X98821370Y-82701404D01*
X98888884Y-82654504D01*
X98993170Y-82584653D01*
X99131080Y-82493846D01*
X99299465Y-82384078D01*
X99495178Y-82257342D01*
X99715068Y-82115633D01*
X99955989Y-81960944D01*
X100214791Y-81795271D01*
X100488327Y-81620608D01*
X100773447Y-81438948D01*
X101067004Y-81252287D01*
X101365849Y-81062618D01*
X101666833Y-80871936D01*
X101966808Y-80682235D01*
X102262627Y-80495509D01*
X102551139Y-80313753D01*
X102829198Y-80138960D01*
X103093653Y-79973126D01*
X103341358Y-79818244D01*
X103569164Y-79676309D01*
X103773922Y-79549314D01*
X103952484Y-79439255D01*
X104101701Y-79348126D01*
X104218425Y-79277920D01*
X104299508Y-79230632D01*
X104341801Y-79208257D01*
X104345108Y-79207012D01*
X104373748Y-79197929D01*
X104400132Y-79190187D01*
X104426277Y-79185352D01*
X104454198Y-79184987D01*
X104485913Y-79190660D01*
G37*
G36*
X118651050Y-104069659D02*
G01*
X118665600Y-104076969D01*
X118687134Y-104097794D01*
X118688964Y-104130414D01*
X118670860Y-104190392D01*
X118663639Y-104210274D01*
X118647218Y-104248806D01*
X118610850Y-104329946D01*
X118556110Y-104450285D01*
X118484572Y-104606416D01*
X118397809Y-104794929D01*
X118297397Y-105012417D01*
X118184908Y-105255469D01*
X118061917Y-105520680D01*
X117929998Y-105804638D01*
X117790725Y-106103937D01*
X117645671Y-106415168D01*
X117622239Y-106465400D01*
X117452213Y-106829694D01*
X117302131Y-107150829D01*
X117170546Y-107431719D01*
X117056010Y-107675281D01*
X116957076Y-107884432D01*
X116872297Y-108062087D01*
X116800225Y-108211163D01*
X116739412Y-108334576D01*
X116688411Y-108435242D01*
X116645776Y-108516078D01*
X116610057Y-108579999D01*
X116579809Y-108629921D01*
X116553583Y-108668762D01*
X116529933Y-108699436D01*
X116507410Y-108724861D01*
X116493900Y-108738745D01*
X116462038Y-108766442D01*
X116393252Y-108823146D01*
X116290556Y-108906473D01*
X116156964Y-109014036D01*
X115995490Y-109143451D01*
X115809149Y-109292332D01*
X115600956Y-109458295D01*
X115373926Y-109638954D01*
X115131071Y-109831924D01*
X114875409Y-110034820D01*
X114609951Y-110245256D01*
X114337714Y-110460848D01*
X114061712Y-110679210D01*
X113784959Y-110897957D01*
X113510469Y-111114705D01*
X113241258Y-111327067D01*
X112980340Y-111532658D01*
X112730728Y-111729094D01*
X112495439Y-111913990D01*
X112277486Y-112084959D01*
X112079883Y-112239617D01*
X111905646Y-112375579D01*
X111757789Y-112490459D01*
X111639326Y-112581873D01*
X111566918Y-112637131D01*
X111463269Y-112710699D01*
X111387088Y-112750936D01*
X111329719Y-112760230D01*
X111282509Y-112740971D01*
X111260375Y-112721747D01*
X111235822Y-112683209D01*
X111226338Y-112627999D01*
X111233083Y-112551624D01*
X111257223Y-112449591D01*
X111299920Y-112317408D01*
X111362336Y-112150583D01*
X111445634Y-111944623D01*
X111487418Y-111844677D01*
X111636787Y-111490340D01*
X111783896Y-111141976D01*
X111927343Y-110802877D01*
X112065723Y-110476332D01*
X112197634Y-110165631D01*
X112321671Y-109874064D01*
X112436431Y-109604921D01*
X112540510Y-109361493D01*
X112632505Y-109147069D01*
X112711012Y-108964939D01*
X112774628Y-108818394D01*
X112821949Y-108710724D01*
X112851571Y-108645218D01*
X112858371Y-108631121D01*
X112882726Y-108583289D01*
X112906281Y-108538962D01*
X112931163Y-108496325D01*
X112959501Y-108453563D01*
X112993422Y-108408862D01*
X113035056Y-108360406D01*
X113086529Y-108306380D01*
X113149971Y-108244970D01*
X113227509Y-108174361D01*
X113321272Y-108092738D01*
X113433388Y-107998285D01*
X113565985Y-107889188D01*
X113721190Y-107763632D01*
X113901133Y-107619802D01*
X114107942Y-107455882D01*
X114343744Y-107270059D01*
X114610668Y-107060518D01*
X114910842Y-106825442D01*
X115246394Y-106563017D01*
X115619452Y-106271429D01*
X115689644Y-106216571D01*
X116007706Y-105968152D01*
X116316175Y-105727545D01*
X116612526Y-105496705D01*
X116894233Y-105277585D01*
X117158773Y-105072138D01*
X117403620Y-104882318D01*
X117626249Y-104710078D01*
X117824135Y-104557371D01*
X117994752Y-104426150D01*
X118135577Y-104318370D01*
X118244085Y-104235984D01*
X118317749Y-104180945D01*
X118354045Y-104155206D01*
X118354658Y-104154829D01*
X118474686Y-104093432D01*
X118575913Y-104064434D01*
X118651050Y-104069659D01*
G37*
G36*
X63423775Y-156059796D02*
G01*
X63453899Y-156161250D01*
X63466200Y-156367295D01*
X63468655Y-156708103D01*
X63468666Y-156770791D01*
X63466578Y-157134458D01*
X63454999Y-157360860D01*
X63425957Y-157482058D01*
X63371481Y-157530115D01*
X63283597Y-157537091D01*
X63278166Y-157536936D01*
X63045984Y-157494499D01*
X62897166Y-157439331D01*
X62798186Y-157375122D01*
X62740864Y-157273885D01*
X62714095Y-157094001D01*
X62706775Y-156793853D01*
X62706666Y-156725395D01*
X62710075Y-156405916D01*
X62727624Y-156219804D01*
X62770300Y-156131118D01*
X62849088Y-156103920D01*
X62897166Y-156102177D01*
X63142368Y-156078142D01*
X63278166Y-156049969D01*
X63367856Y-156032760D01*
X63423775Y-156059796D01*
G37*
G36*
X70578541Y-156727224D02*
G01*
X70776732Y-156791011D01*
X71109798Y-157026103D01*
X71394546Y-157343791D01*
X71596376Y-157695499D01*
X71680691Y-158032653D01*
X71681333Y-158061006D01*
X71659938Y-158149790D01*
X71570498Y-158197998D01*
X71375127Y-158217347D01*
X71167274Y-158220000D01*
X70884498Y-158216104D01*
X70733649Y-158193779D01*
X70677336Y-158137070D01*
X70678171Y-158030018D01*
X70680440Y-158012238D01*
X70671450Y-157845880D01*
X70623000Y-157779404D01*
X70553796Y-157833009D01*
X70511542Y-157987166D01*
X70486805Y-158116770D01*
X70422546Y-158186366D01*
X70276458Y-158214568D01*
X70006236Y-158219992D01*
X69982376Y-158220000D01*
X69480000Y-158220000D01*
X69480000Y-157918669D01*
X69459944Y-157726021D01*
X69406890Y-157664747D01*
X69395333Y-157669666D01*
X69334333Y-157784122D01*
X69310666Y-157970996D01*
X69303862Y-158107909D01*
X69257078Y-158182339D01*
X69130759Y-158213331D01*
X68885348Y-158219929D01*
X68793488Y-158220000D01*
X68510115Y-158216656D01*
X68360641Y-158196064D01*
X68309635Y-158142379D01*
X68321668Y-158039760D01*
X68328497Y-158012067D01*
X68480093Y-157563118D01*
X68696256Y-157231368D01*
X69013717Y-156966988D01*
X69166780Y-156874817D01*
X69456891Y-156768763D01*
X69832208Y-156706557D01*
X70227751Y-156691583D01*
X70578541Y-156727224D01*
G37*
G36*
X58515666Y-155945528D02*
G01*
X58708450Y-155853999D01*
X58808195Y-155764021D01*
X58811999Y-155748250D01*
X58893256Y-155699480D01*
X59132849Y-155690972D01*
X59341166Y-155704625D01*
X59870333Y-155751122D01*
X59447000Y-155639022D01*
X59150167Y-155570996D01*
X58881925Y-155526766D01*
X58789018Y-155518794D01*
X58616597Y-155476335D01*
X58387836Y-155376915D01*
X58154579Y-155249269D01*
X57968669Y-155122138D01*
X57881951Y-155024258D01*
X57880666Y-155015277D01*
X57937958Y-154930840D01*
X58076059Y-154796277D01*
X58079030Y-154793695D01*
X58265025Y-154601286D01*
X58383501Y-154384386D01*
X58447981Y-154100014D01*
X58467866Y-153772972D01*
X59843059Y-153772972D01*
X59879277Y-154033993D01*
X60081597Y-154290059D01*
X60448989Y-154537222D01*
X60632333Y-154628297D01*
X61151047Y-154786555D01*
X61734475Y-154830780D01*
X62321135Y-154759848D01*
X62639990Y-154664996D01*
X63054000Y-154470273D01*
X63372155Y-154241728D01*
X63561099Y-154004244D01*
X63577723Y-153965444D01*
X63575873Y-153950634D01*
X65257986Y-153950634D01*
X65378723Y-154194924D01*
X65479500Y-154295399D01*
X65917942Y-154573061D01*
X66450327Y-154752330D01*
X67028636Y-154827121D01*
X67604852Y-154791347D01*
X68130954Y-154638922D01*
X68144085Y-154633100D01*
X68581726Y-154393511D01*
X68854943Y-154142844D01*
X68962653Y-153885002D01*
X68903776Y-153623886D01*
X68677230Y-153363400D01*
X68526949Y-153251856D01*
X68024654Y-153012279D01*
X67421293Y-152899591D01*
X66710087Y-152912559D01*
X66677068Y-152915907D01*
X66282420Y-152977822D01*
X65980089Y-153088831D01*
X65693721Y-153283029D01*
X65521833Y-153431775D01*
X65305642Y-153697214D01*
X65257986Y-153950634D01*
X63575873Y-153950634D01*
X63557547Y-153803934D01*
X63428608Y-153591082D01*
X63224598Y-153367089D01*
X62979209Y-153172156D01*
X62850333Y-153097553D01*
X62394396Y-152946633D01*
X61856874Y-152887091D01*
X61294102Y-152915555D01*
X60762415Y-153028652D01*
X60318148Y-153223008D01*
X60273050Y-153251856D01*
X59973973Y-153510944D01*
X59843059Y-153772972D01*
X58467866Y-153772972D01*
X58471987Y-153705193D01*
X58473333Y-153540549D01*
X58551558Y-152743702D01*
X58775036Y-151944528D01*
X59126974Y-151189836D01*
X59527592Y-150602152D01*
X59712179Y-150393056D01*
X59970400Y-150122961D01*
X60256588Y-149837342D01*
X60525080Y-149581673D01*
X60730209Y-149401428D01*
X60745707Y-149389124D01*
X61283230Y-149048185D01*
X61947301Y-148755915D01*
X62698684Y-148526499D01*
X63498143Y-148374123D01*
X63583670Y-148363122D01*
X64661609Y-148310624D01*
X65698572Y-148422366D01*
X66694296Y-148698305D01*
X67378422Y-148995048D01*
X67700532Y-149164661D01*
X67957348Y-149325234D01*
X68198821Y-149514157D01*
X68474904Y-149768821D01*
X68674203Y-149965000D01*
X69003506Y-150301848D01*
X69246337Y-150577189D01*
X69442817Y-150841976D01*
X69633071Y-151147161D01*
X69709333Y-151279485D01*
X70069017Y-152047896D01*
X70271290Y-152823047D01*
X70326666Y-153540549D01*
X70340127Y-153982038D01*
X70389525Y-154298663D01*
X70488384Y-154533402D01*
X70650227Y-154729235D01*
X70720969Y-154793695D01*
X70860079Y-154928649D01*
X70919311Y-155014516D01*
X70919333Y-155015277D01*
X70849124Y-155107313D01*
X70673060Y-155232294D01*
X70442985Y-155361483D01*
X70210743Y-155466141D01*
X70028177Y-155517531D01*
X70010981Y-155518794D01*
X69789018Y-155545564D01*
X69494799Y-155604108D01*
X69353000Y-155639022D01*
X68929666Y-155751122D01*
X69458833Y-155704625D01*
X69787116Y-155689618D01*
X69960687Y-155715171D01*
X69988000Y-155748250D01*
X70059738Y-155832821D01*
X70236998Y-155927254D01*
X70284333Y-155945528D01*
X70476469Y-156027205D01*
X70576573Y-156093578D01*
X70580666Y-156103470D01*
X70505264Y-156192626D01*
X70310434Y-156295887D01*
X70043246Y-156396480D01*
X69750767Y-156477632D01*
X69480065Y-156522573D01*
X69393068Y-156526666D01*
X69135232Y-156543861D01*
X68990359Y-156589908D01*
X68972000Y-156619507D01*
X68919665Y-156728760D01*
X68784086Y-156916481D01*
X68638808Y-157090874D01*
X68445412Y-157341862D01*
X68300843Y-157586623D01*
X68251104Y-157717594D01*
X68222869Y-157837615D01*
X68185650Y-157936815D01*
X68124306Y-158017150D01*
X68023694Y-158080573D01*
X67868672Y-158129038D01*
X67644098Y-158164499D01*
X67334830Y-158188910D01*
X66925726Y-158204226D01*
X66401644Y-158212400D01*
X65747442Y-158215387D01*
X64947978Y-158215140D01*
X64402327Y-158214269D01*
X63446763Y-158210428D01*
X62627249Y-158202421D01*
X61949872Y-158190408D01*
X61420718Y-158174547D01*
X61045873Y-158154997D01*
X60831424Y-158131916D01*
X60788134Y-158120071D01*
X60630160Y-157961217D01*
X60552623Y-157750980D01*
X60462817Y-157526871D01*
X60284572Y-157249308D01*
X60124205Y-157052407D01*
X59941897Y-156833957D01*
X59826273Y-156664263D01*
X59802326Y-156580561D01*
X59759090Y-156549779D01*
X59589399Y-156530269D01*
X59445850Y-156526666D01*
X59202702Y-156500767D01*
X58913979Y-156433779D01*
X58626426Y-156341761D01*
X58386788Y-156240774D01*
X58241809Y-156146881D01*
X58219333Y-156105249D01*
X58290543Y-156045411D01*
X58418417Y-155986281D01*
X60956582Y-155986281D01*
X61039283Y-156184158D01*
X61190209Y-156418945D01*
X61336795Y-156595056D01*
X61631541Y-156854126D01*
X62022500Y-157123365D01*
X62444153Y-157362768D01*
X62830984Y-157532330D01*
X62916641Y-157559715D01*
X63645860Y-157704895D01*
X64433205Y-157751115D01*
X65210160Y-157697992D01*
X65806162Y-157575886D01*
X66244198Y-157409272D01*
X66710561Y-157163715D01*
X67140221Y-156877705D01*
X67463204Y-156595056D01*
X67650833Y-156361869D01*
X67787526Y-156131871D01*
X67850568Y-155949367D01*
X67835174Y-155869619D01*
X67737630Y-155863581D01*
X67521064Y-155886987D01*
X67232235Y-155934773D01*
X67230376Y-155935124D01*
X66609204Y-156000941D01*
X65940802Y-155985458D01*
X65299119Y-155893572D01*
X64886833Y-155779930D01*
X64400000Y-155608149D01*
X63913166Y-155779930D01*
X63338431Y-155924942D01*
X62682524Y-155997157D01*
X62019396Y-155991679D01*
X61569623Y-155935124D01*
X61280502Y-155887207D01*
X61063362Y-155863639D01*
X60964962Y-155869485D01*
X60964825Y-155869619D01*
X60956582Y-155986281D01*
X58418417Y-155986281D01*
X58466664Y-155963971D01*
X58515666Y-155945528D01*
G37*
G36*
X61329479Y-156089198D02*
G01*
X61352000Y-156188000D01*
X61320640Y-156325642D01*
X61277208Y-156357333D01*
X61198158Y-156286871D01*
X61158134Y-156188000D01*
X61164904Y-156046543D01*
X61232926Y-156018666D01*
X61329479Y-156089198D01*
G37*
G36*
X59977463Y-153601587D02*
G01*
X60210434Y-153387496D01*
X60566515Y-153201889D01*
X60999893Y-153061445D01*
X61464758Y-152982841D01*
X61706992Y-152971951D01*
X62148557Y-153018042D01*
X62585297Y-153140441D01*
X62972409Y-153319880D01*
X63265088Y-153537089D01*
X63386008Y-153694085D01*
X63435696Y-153920291D01*
X63330135Y-154135575D01*
X63063763Y-154348203D01*
X62875774Y-154452447D01*
X62644172Y-154557252D01*
X62420841Y-154620549D01*
X62150973Y-154651801D01*
X61779761Y-154660472D01*
X61672314Y-154660258D01*
X61235321Y-154648068D01*
X60922774Y-154611999D01*
X60690673Y-154545461D01*
X60590000Y-154498151D01*
X60214925Y-154255975D01*
X59987709Y-154013548D01*
X59959694Y-153923711D01*
X61386430Y-153923711D01*
X61403618Y-154046923D01*
X61507919Y-154373280D01*
X61622375Y-154535078D01*
X61742258Y-154531010D01*
X61862840Y-154359772D01*
X61928415Y-154191854D01*
X61980734Y-153908009D01*
X61969276Y-153614198D01*
X61904597Y-153357601D01*
X61797254Y-153185400D01*
X61693064Y-153140000D01*
X61573952Y-153215745D01*
X61471753Y-153407297D01*
X61403551Y-153661128D01*
X61386430Y-153923711D01*
X59959694Y-153923711D01*
X59915123Y-153780781D01*
X59977463Y-153601587D01*
G37*
G36*
X68664420Y-145086118D02*
G01*
X68791166Y-145288483D01*
X68948621Y-145589110D01*
X69121989Y-145958016D01*
X69296471Y-146365216D01*
X69457271Y-146780725D01*
X69460639Y-146790000D01*
X69759472Y-147755574D01*
X69979805Y-148767687D01*
X70112242Y-149770448D01*
X70147389Y-150707968D01*
X70143255Y-150850781D01*
X70115000Y-151567229D01*
X69755802Y-151015187D01*
X69407622Y-150538618D01*
X68990812Y-150060782D01*
X68536741Y-149610584D01*
X68076777Y-149216925D01*
X67642289Y-148908710D01*
X67264646Y-148714839D01*
X67255582Y-148711480D01*
X67156581Y-148649320D01*
X67173912Y-148539302D01*
X67213249Y-148464088D01*
X67309711Y-148303450D01*
X67363333Y-148229333D01*
X67425896Y-148134898D01*
X67534442Y-147945930D01*
X67587705Y-147848333D01*
X67754157Y-147543465D01*
X67931631Y-147225131D01*
X67962290Y-147171000D01*
X68173756Y-146787952D01*
X68365136Y-146421076D01*
X68521969Y-146100384D01*
X68629792Y-145855885D01*
X68674143Y-145717591D01*
X68671502Y-145699280D01*
X68622869Y-145688637D01*
X68552736Y-145754549D01*
X68447950Y-145916972D01*
X68295356Y-146195863D01*
X68119965Y-146536000D01*
X67968091Y-146825781D01*
X67778306Y-147175158D01*
X67570910Y-147548270D01*
X67366200Y-147909255D01*
X67184476Y-148222255D01*
X67046035Y-148451408D01*
X66979040Y-148551607D01*
X66894640Y-148542113D01*
X66699286Y-148490053D01*
X66527907Y-148436650D01*
X66271313Y-148337915D01*
X66164261Y-148236740D01*
X66199440Y-148098129D01*
X66369541Y-147887087D01*
X66405030Y-147848333D01*
X66529668Y-147699648D01*
X66716770Y-147460931D01*
X66929523Y-147179324D01*
X66967002Y-147128666D01*
X67173903Y-146849928D01*
X67354216Y-146610341D01*
X67474582Y-146454160D01*
X67488662Y-146436660D01*
X67587015Y-146305040D01*
X67751147Y-146073958D01*
X67952156Y-145784343D01*
X68041716Y-145653493D01*
X68244785Y-145371221D01*
X68422670Y-145152284D01*
X68548600Y-145028396D01*
X68583182Y-145011999D01*
X68664420Y-145086118D01*
G37*
G36*
X65413991Y-153694085D02*
G01*
X65618379Y-153462355D01*
X65947204Y-153255490D01*
X66355662Y-153092760D01*
X66798952Y-152993433D01*
X67093007Y-152971951D01*
X67556028Y-153011236D01*
X68011716Y-153121155D01*
X68414261Y-153285028D01*
X68717850Y-153486180D01*
X68822536Y-153601587D01*
X68884136Y-153818793D01*
X68785877Y-154052695D01*
X68535047Y-154292878D01*
X68192206Y-154502039D01*
X67847572Y-154614549D01*
X67401565Y-154669603D01*
X66911605Y-154668555D01*
X66435112Y-154612753D01*
X66029507Y-154503551D01*
X65905732Y-154448241D01*
X65566220Y-154230999D01*
X65390784Y-154014823D01*
X65384082Y-153923711D01*
X66805096Y-153923711D01*
X66822285Y-154046923D01*
X66926585Y-154373280D01*
X67041042Y-154535078D01*
X67160925Y-154531010D01*
X67281506Y-154359772D01*
X67347081Y-154191854D01*
X67399401Y-153908009D01*
X67387942Y-153614198D01*
X67323264Y-153357601D01*
X67215921Y-153185400D01*
X67111731Y-153140000D01*
X66992619Y-153215745D01*
X66890420Y-153407297D01*
X66822218Y-153661128D01*
X66805096Y-153923711D01*
X65384082Y-153923711D01*
X65374394Y-153792001D01*
X65413991Y-153694085D01*
G37*
G36*
X67650270Y-156080899D02*
G01*
X67641865Y-156188000D01*
X67574850Y-156325255D01*
X67522791Y-156357333D01*
X67461997Y-156286334D01*
X67448000Y-156188000D01*
X67497597Y-156050693D01*
X67567073Y-156018666D01*
X67650270Y-156080899D01*
G37*
G36*
X67358210Y-156087632D02*
G01*
X67366669Y-156253385D01*
X67333116Y-156455870D01*
X67265457Y-156633874D01*
X67211498Y-156703705D01*
X67011602Y-156862193D01*
X66904913Y-156890229D01*
X66862489Y-156774636D01*
X66855333Y-156541538D01*
X66882989Y-156251094D01*
X66984884Y-156090338D01*
X67189405Y-156025950D01*
X67299833Y-156019822D01*
X67358210Y-156087632D01*
G37*
G36*
X60311980Y-145086234D02*
G01*
X60463760Y-145251340D01*
X60654942Y-145500697D01*
X60767685Y-145663108D01*
X60966152Y-145955181D01*
X61131091Y-146191035D01*
X61238796Y-146337108D01*
X61264590Y-146366666D01*
X61342474Y-146457331D01*
X61473437Y-146633424D01*
X61524206Y-146705333D01*
X61679217Y-146923479D01*
X61808520Y-147098134D01*
X61832394Y-147128666D01*
X61933999Y-147255302D01*
X62105915Y-147469463D01*
X62312420Y-147726652D01*
X62329332Y-147747712D01*
X62514358Y-147988329D01*
X62642239Y-148174562D01*
X62689336Y-148271518D01*
X62687624Y-148276597D01*
X62591537Y-148320524D01*
X62388419Y-148390935D01*
X62255281Y-148432465D01*
X62015682Y-148499005D01*
X61878417Y-148504117D01*
X61784060Y-148436449D01*
X61702769Y-148326913D01*
X61577692Y-148128808D01*
X61396475Y-147817382D01*
X61179767Y-147430238D01*
X60948216Y-147004977D01*
X60722472Y-146579201D01*
X60523183Y-146190510D01*
X60463573Y-146070333D01*
X60336199Y-145835425D01*
X60237870Y-145700448D01*
X60188149Y-145691897D01*
X60187151Y-145695924D01*
X60215404Y-145826800D01*
X60317234Y-146078950D01*
X60480235Y-146427770D01*
X60691998Y-146848655D01*
X60940117Y-147317000D01*
X61212184Y-147808203D01*
X61495791Y-148297657D01*
X61517840Y-148334716D01*
X61630137Y-148533562D01*
X61656504Y-148635974D01*
X61601053Y-148688931D01*
X61550597Y-148709108D01*
X61173934Y-148899856D01*
X60739549Y-149205185D01*
X60279237Y-149595936D01*
X59824794Y-150042955D01*
X59408014Y-150517082D01*
X59060694Y-150989162D01*
X59055419Y-150997239D01*
X58884924Y-151252824D01*
X58751317Y-151441754D01*
X58679478Y-151529096D01*
X58675055Y-151531333D01*
X58660672Y-151453025D01*
X58649569Y-151243519D01*
X58643396Y-150940945D01*
X58642666Y-150783123D01*
X58671410Y-150107752D01*
X58751610Y-149343416D01*
X58874216Y-148559308D01*
X59028973Y-147829502D01*
X59152640Y-147386522D01*
X59309575Y-146912143D01*
X59487333Y-146435439D01*
X59673470Y-145985486D01*
X59855542Y-145591358D01*
X60021105Y-145282131D01*
X60157716Y-145086879D01*
X60225070Y-145034865D01*
X60311980Y-145086234D01*
G37*
G36*
X64717500Y-155846425D02*
G01*
X64965293Y-155922761D01*
X65121181Y-155996338D01*
X65205023Y-156104680D01*
X65236678Y-156285311D01*
X65236005Y-156575757D01*
X65228541Y-156812058D01*
X65204333Y-157585000D01*
X64844500Y-157611034D01*
X64484666Y-157637069D01*
X64484666Y-155776487D01*
X64717500Y-155846425D01*
G37*
G36*
X62622000Y-156696000D02*
G01*
X62610961Y-157038584D01*
X62567796Y-157229872D01*
X62477429Y-157287039D01*
X62324785Y-157227263D01*
X62217505Y-157156865D01*
X62103550Y-157045486D01*
X62046664Y-156882700D01*
X62029542Y-156613999D01*
X62029333Y-156564199D01*
X62029333Y-156103333D01*
X62622000Y-156103333D01*
X62622000Y-156696000D01*
G37*
G36*
X66770666Y-156564199D02*
G01*
X66757780Y-156852321D01*
X66707582Y-157026803D01*
X66602768Y-157142153D01*
X66582494Y-157156865D01*
X66392083Y-157269926D01*
X66271677Y-157274847D01*
X66206201Y-157154453D01*
X66180578Y-156891566D01*
X66178000Y-156696000D01*
X66178000Y-156103333D01*
X66770666Y-156103333D01*
X66770666Y-156564199D01*
G37*
G36*
X61702072Y-156062843D02*
G01*
X61711833Y-156065812D01*
X61855790Y-156113456D01*
X61925724Y-156174273D01*
X61943391Y-156298661D01*
X61930547Y-156537017D01*
X61928510Y-156567730D01*
X61902333Y-156965662D01*
X61711833Y-156799733D01*
X61558463Y-156576992D01*
X61521333Y-156320530D01*
X61531602Y-156118126D01*
X61582035Y-156045352D01*
X61702072Y-156062843D01*
G37*
G36*
X65549924Y-156051941D02*
G01*
X65741211Y-156093291D01*
X65888591Y-156103333D01*
X65993646Y-156112345D01*
X66054779Y-156163391D01*
X66083858Y-156292489D01*
X66092749Y-156535654D01*
X66093333Y-156724743D01*
X66089178Y-157047379D01*
X66068286Y-157242910D01*
X66018019Y-157353511D01*
X65925739Y-157421361D01*
X65877682Y-157444409D01*
X65672572Y-157527765D01*
X65539263Y-157538592D01*
X65462377Y-157454480D01*
X65426532Y-157253015D01*
X65416350Y-156911784D01*
X65416000Y-156771608D01*
X65419517Y-156406431D01*
X65433587Y-156182151D01*
X65463486Y-156070414D01*
X65514491Y-156042865D01*
X65549924Y-156051941D01*
G37*
G36*
X64331093Y-155824401D02*
G01*
X64382452Y-155947543D01*
X64399338Y-156190169D01*
X64400151Y-156574472D01*
X64400000Y-156690294D01*
X64400000Y-157627333D01*
X64033111Y-157627333D01*
X63795523Y-157615324D01*
X63636050Y-157585177D01*
X63609777Y-157570888D01*
X63584356Y-157465914D01*
X63564877Y-157234042D01*
X63554357Y-156917682D01*
X63553333Y-156776827D01*
X63555492Y-156421993D01*
X63568958Y-156199269D01*
X63604210Y-156071434D01*
X63671730Y-156001267D01*
X63781997Y-155951548D01*
X63786166Y-155949948D01*
X64051351Y-155847797D01*
X64226859Y-155798550D01*
X64331093Y-155824401D01*
G37*
G36*
X59276543Y-156757263D02*
G01*
X59732036Y-156930438D01*
X60087896Y-157199599D01*
X60323835Y-157548821D01*
X60419563Y-157962179D01*
X60420666Y-158013845D01*
X60407819Y-158131980D01*
X60341704Y-158193498D01*
X60180959Y-158216708D01*
X59955000Y-158220000D01*
X59688769Y-158215607D01*
X59550195Y-158187574D01*
X59497606Y-158113618D01*
X59489333Y-157971456D01*
X59489333Y-157970996D01*
X59463234Y-157775468D01*
X59404666Y-157669666D01*
X59347054Y-157705436D01*
X59320624Y-157877923D01*
X59320000Y-157918669D01*
X59320000Y-158220000D01*
X58822583Y-158220000D01*
X58543781Y-158215413D01*
X58389716Y-158187884D01*
X58315803Y-158116756D01*
X58277462Y-157981373D01*
X58274366Y-157966000D01*
X58210647Y-157787921D01*
X58127720Y-157712030D01*
X58126200Y-157712000D01*
X58065712Y-157784932D01*
X58079633Y-157966000D01*
X58130433Y-158220000D01*
X57624550Y-158220000D01*
X57343901Y-158215768D01*
X57192652Y-158191434D01*
X57130888Y-158129537D01*
X57118696Y-158012615D01*
X57118666Y-157998694D01*
X57189845Y-157681443D01*
X57380430Y-157346246D01*
X57655989Y-157045928D01*
X57820748Y-156921526D01*
X58053093Y-156791779D01*
X58285209Y-156722914D01*
X58587407Y-156697712D01*
X58741705Y-156696000D01*
X59276543Y-156757263D01*
G37*
D12*
X202398750Y-51422250D02*
X202398750Y-59532250D01*
X189078750Y-59532250D02*
X189078750Y-51422250D01*
X202398750Y-66382250D02*
X202398750Y-63052250D01*
X188428750Y-51422250D02*
X189078750Y-51422250D01*
X200138750Y-66602250D02*
X198338750Y-66602250D01*
X202398750Y-51422250D02*
X203048750Y-51422250D01*
X203048750Y-51422250D02*
X203048750Y-50902250D01*
X188428750Y-50902250D02*
X188428750Y-51422250D01*
X202398750Y-66382250D02*
X189078750Y-66382250D01*
X203048750Y-50902250D02*
X188428750Y-50902250D01*
X189078750Y-66382250D02*
X189078750Y-63052250D01*
%LPC*%
D13*
X199238750Y-64002250D03*
D14*
X196738750Y-64002250D03*
X194738750Y-64002250D03*
X192238750Y-64002250D03*
D15*
X189168750Y-61292250D03*
X202308750Y-61292250D03*
D16*
X149034500Y-124872750D03*
X155384500Y-122332750D03*
D17*
X152844500Y-127412750D03*
D18*
X157924500Y-127412750D03*
X147764500Y-127412750D03*
D16*
X313340750Y-143922750D03*
X319690750Y-141382750D03*
D18*
X322230750Y-146462750D03*
D17*
X317150750Y-146462750D03*
D18*
X312070750Y-146462750D03*
D16*
X215709500Y-105822750D03*
X222059500Y-103282750D03*
D18*
X214439500Y-108362750D03*
D17*
X219519500Y-108362750D03*
D18*
X224599500Y-108362750D03*
D16*
X201422000Y-67722750D03*
X207772000Y-65182750D03*
D18*
X210312000Y-70262750D03*
D17*
X205232000Y-70262750D03*
D18*
X200152000Y-70262750D03*
D16*
X91884500Y-124872750D03*
X98234500Y-122332750D03*
D17*
X95694500Y-127412750D03*
D18*
X90614500Y-127412750D03*
X100774500Y-127412750D03*
D16*
X239522000Y-67722750D03*
X245872000Y-65182750D03*
D17*
X243332000Y-70262750D03*
D18*
X248412000Y-70262750D03*
X238252000Y-70262750D03*
D16*
X172847000Y-86741000D03*
X179197000Y-84201000D03*
D18*
X181737000Y-89281000D03*
X171577000Y-89281000D03*
D17*
X176657000Y-89281000D03*
D16*
X234759500Y-105822750D03*
X241109500Y-103282750D03*
D18*
X233489500Y-108362750D03*
X243649500Y-108362750D03*
D17*
X238569500Y-108362750D03*
D16*
X82359500Y-105822750D03*
X88709500Y-103282750D03*
D17*
X86169500Y-108362750D03*
D18*
X81089500Y-108362750D03*
X91249500Y-108362750D03*
D16*
X134747000Y-86772750D03*
X141097000Y-84232750D03*
D17*
X138557000Y-89312750D03*
D18*
X133477000Y-89312750D03*
X143637000Y-89312750D03*
D16*
X144272000Y-67722750D03*
X150622000Y-65182750D03*
D18*
X153162000Y-70262750D03*
X143002000Y-70262750D03*
D17*
X148082000Y-70262750D03*
D16*
X220472000Y-67722750D03*
X226822000Y-65182750D03*
D18*
X219202000Y-70262750D03*
X229362000Y-70262750D03*
D17*
X224282000Y-70262750D03*
D16*
X299053250Y-124872750D03*
X305403250Y-122332750D03*
D17*
X302863250Y-127412750D03*
X290925250Y-135667750D03*
D18*
X297783250Y-127412750D03*
D19*
X314801250Y-120427750D03*
D18*
X307943250Y-127412750D03*
D19*
X290925250Y-120427750D03*
D17*
X314801250Y-135667750D03*
D16*
X191897000Y-86772750D03*
X198247000Y-84232750D03*
D18*
X190627000Y-89312750D03*
D17*
X195707000Y-89312750D03*
D18*
X200787000Y-89312750D03*
D16*
X129984500Y-124872750D03*
X136334500Y-122332750D03*
D18*
X128714500Y-127412750D03*
D17*
X133794500Y-127412750D03*
D18*
X138874500Y-127412750D03*
D16*
X310959500Y-86772750D03*
X317309500Y-84232750D03*
D18*
X309689500Y-89312750D03*
X319849500Y-89312750D03*
D17*
X314769500Y-89312750D03*
D16*
X106172000Y-67722750D03*
X112522000Y-65182750D03*
D18*
X115062000Y-70262750D03*
D17*
X109982000Y-70262750D03*
D18*
X104902000Y-70262750D03*
D16*
X51403250Y-143922750D03*
X57753250Y-141382750D03*
D18*
X60293250Y-146462750D03*
D17*
X55213250Y-146462750D03*
D18*
X50133250Y-146462750D03*
D16*
X120459500Y-105822750D03*
X126809500Y-103282750D03*
D17*
X124269500Y-108362750D03*
D18*
X119189500Y-108362750D03*
X129349500Y-108362750D03*
D16*
X68072000Y-67722750D03*
X74422000Y-65182750D03*
D18*
X76962000Y-70262750D03*
X66802000Y-70262750D03*
D17*
X71882000Y-70262750D03*
D16*
X241903250Y-143922750D03*
X248253250Y-141382750D03*
D18*
X250793250Y-146462750D03*
X240633250Y-146462750D03*
D17*
X245713250Y-146462750D03*
D18*
X218820000Y-86850000D03*
D17*
X223900000Y-86850000D03*
D18*
X228980000Y-86850000D03*
D16*
X226440000Y-81770000D03*
X220090000Y-84310000D03*
X287147000Y-86772750D03*
X293497000Y-84232750D03*
D18*
X285877000Y-89312750D03*
X296037000Y-89312750D03*
D17*
X290957000Y-89312750D03*
D16*
X125222000Y-67722750D03*
X131572000Y-65182750D03*
D18*
X134112000Y-70262750D03*
X123952000Y-70262750D03*
D17*
X129032000Y-70262750D03*
D16*
X244284500Y-124872750D03*
X250634500Y-122332750D03*
D18*
X243014500Y-127412750D03*
D17*
X248094500Y-127412750D03*
D18*
X253174500Y-127412750D03*
X152527000Y-89312750D03*
D17*
X157607000Y-89312750D03*
D18*
X162687000Y-89312750D03*
D16*
X160147000Y-84232750D03*
X153797000Y-86772750D03*
X289528250Y-143922750D03*
X295878250Y-141382750D03*
D18*
X288258250Y-146462750D03*
D17*
X293338250Y-146462750D03*
D18*
X298418250Y-146462750D03*
D16*
X53784500Y-86772750D03*
X60134500Y-84232750D03*
D17*
X57594500Y-89312750D03*
D18*
X62674500Y-89312750D03*
X52514500Y-89312750D03*
D16*
X75215750Y-143922750D03*
X81565750Y-141382750D03*
D18*
X84105750Y-146462750D03*
X73945750Y-146462750D03*
D17*
X79025750Y-146462750D03*
X162369500Y-108362750D03*
D18*
X167449500Y-108362750D03*
X157289500Y-108362750D03*
D16*
X164909500Y-103282750D03*
X158559500Y-105822750D03*
X277622000Y-67722750D03*
X283972000Y-65182750D03*
D18*
X286512000Y-70262750D03*
D17*
X281432000Y-70262750D03*
D18*
X276352000Y-70262750D03*
D16*
X87122000Y-67722750D03*
X93472000Y-65182750D03*
D18*
X85852000Y-70262750D03*
X96012000Y-70262750D03*
D17*
X90932000Y-70262750D03*
D16*
X306197000Y-67722750D03*
X312547000Y-65182750D03*
D17*
X298069000Y-78517750D03*
X310007000Y-70262750D03*
D19*
X321945000Y-63277750D03*
D17*
X321945000Y-78517750D03*
D18*
X304927000Y-70262750D03*
X315087000Y-70262750D03*
D19*
X298069000Y-63277750D03*
D16*
X265715750Y-143922750D03*
X272065750Y-141382750D03*
D18*
X274605750Y-146462750D03*
X264445750Y-146462750D03*
D17*
X269525750Y-146462750D03*
D16*
X187134500Y-124872750D03*
X193484500Y-122332750D03*
D18*
X196024500Y-127412750D03*
D17*
X190944500Y-127412750D03*
D18*
X185864500Y-127412750D03*
D16*
X206184500Y-124872750D03*
X212534500Y-122332750D03*
D18*
X204914500Y-127412750D03*
X215074500Y-127412750D03*
D17*
X209994500Y-127412750D03*
D16*
X170465750Y-143922750D03*
X176815750Y-141382750D03*
D17*
X124237750Y-154717750D03*
D19*
X124237750Y-139477750D03*
D18*
X179355750Y-146462750D03*
D17*
X224313750Y-154717750D03*
D19*
X224313750Y-139477750D03*
D17*
X174275750Y-146462750D03*
D18*
X169195750Y-146462750D03*
D16*
X263334500Y-124872750D03*
X269684500Y-122332750D03*
D17*
X267144500Y-127412750D03*
D18*
X272224500Y-127412750D03*
X262064500Y-127412750D03*
D16*
X253809500Y-105822750D03*
X260159500Y-103282750D03*
D17*
X257619500Y-108362750D03*
D18*
X262699500Y-108362750D03*
X252539500Y-108362750D03*
D16*
X163322000Y-67722750D03*
X169672000Y-65182750D03*
D17*
X167132000Y-70262750D03*
D18*
X162052000Y-70262750D03*
X172212000Y-70262750D03*
D16*
X56165750Y-105822750D03*
X62515750Y-103282750D03*
D18*
X65055750Y-108362750D03*
X54895750Y-108362750D03*
D17*
X59975750Y-108362750D03*
D16*
X101409500Y-105822750D03*
X107759500Y-103282750D03*
D17*
X105219500Y-108362750D03*
D18*
X100139500Y-108362750D03*
X110299500Y-108362750D03*
D16*
X249047000Y-86772750D03*
X255397000Y-84232750D03*
D18*
X257937000Y-89312750D03*
D17*
X252857000Y-89312750D03*
D18*
X247777000Y-89312750D03*
D16*
X168084500Y-124872750D03*
X174434500Y-122332750D03*
D17*
X171894500Y-127412750D03*
D18*
X166814500Y-127412750D03*
X176974500Y-127412750D03*
D16*
X99028250Y-143922750D03*
X105378250Y-141382750D03*
D17*
X102838250Y-146462750D03*
D18*
X97758250Y-146462750D03*
X107918250Y-146462750D03*
D16*
X110934500Y-124872750D03*
X117284500Y-122332750D03*
D17*
X114744500Y-127412750D03*
D18*
X109664500Y-127412750D03*
X119824500Y-127412750D03*
D16*
X77597000Y-86772750D03*
X83947000Y-84232750D03*
D17*
X81407000Y-89312750D03*
D18*
X86487000Y-89312750D03*
X76327000Y-89312750D03*
D16*
X229997000Y-86772750D03*
X236347000Y-84232750D03*
D17*
X233807000Y-89312750D03*
D18*
X238887000Y-89312750D03*
X228727000Y-89312750D03*
D16*
X60928250Y-124872750D03*
X67278250Y-122332750D03*
D19*
X76676250Y-120427750D03*
D18*
X59658250Y-127412750D03*
D17*
X76676250Y-135667750D03*
D18*
X69818250Y-127412750D03*
D17*
X52800250Y-135667750D03*
D19*
X52800250Y-120427750D03*
D17*
X64738250Y-127412750D03*
D16*
X49022000Y-67722750D03*
X55372000Y-65182750D03*
D17*
X52832000Y-70262750D03*
D18*
X47752000Y-70262750D03*
X57912000Y-70262750D03*
D16*
X115697000Y-86772750D03*
X122047000Y-84232750D03*
D18*
X124587000Y-89312750D03*
X114427000Y-89312750D03*
D17*
X119507000Y-89312750D03*
D16*
X196659500Y-105822750D03*
X203009500Y-103282750D03*
D18*
X195389500Y-108362750D03*
X205549500Y-108362750D03*
D17*
X200469500Y-108362750D03*
D16*
X177609500Y-105822750D03*
X183959500Y-103282750D03*
D18*
X176339500Y-108362750D03*
D17*
X181419500Y-108362750D03*
D18*
X186499500Y-108362750D03*
D16*
X258572000Y-67722750D03*
X264922000Y-65182750D03*
D18*
X267462000Y-70262750D03*
D17*
X262382000Y-70262750D03*
D18*
X257302000Y-70262750D03*
D16*
X272859500Y-105822750D03*
X279209500Y-103282750D03*
D18*
X281749500Y-108362750D03*
D17*
X276669500Y-108362750D03*
D18*
X271589500Y-108362750D03*
D16*
X303815750Y-105822750D03*
X310165750Y-103282750D03*
D17*
X319563750Y-116617750D03*
D18*
X312705750Y-108362750D03*
D19*
X295687750Y-101377750D03*
X319563750Y-101377750D03*
D17*
X295687750Y-116617750D03*
X307625750Y-108362750D03*
D18*
X302545750Y-108362750D03*
D16*
X268097000Y-86772750D03*
X274447000Y-84232750D03*
D17*
X271907000Y-89312750D03*
D18*
X266827000Y-89312750D03*
X276987000Y-89312750D03*
D16*
X225234500Y-124872750D03*
X231584500Y-122332750D03*
D18*
X234124500Y-127412750D03*
D17*
X229044500Y-127412750D03*
D18*
X223964500Y-127412750D03*
D16*
X182372000Y-67722750D03*
X188722000Y-65182750D03*
D18*
X191262000Y-70262750D03*
X181102000Y-70262750D03*
D17*
X186182000Y-70262750D03*
D16*
X139490000Y-105760000D03*
X145840000Y-103220000D03*
D17*
X143300000Y-108300000D03*
D18*
X138220000Y-108300000D03*
X148380000Y-108300000D03*
D16*
X96647000Y-86772750D03*
X102997000Y-84232750D03*
D18*
X95377000Y-89312750D03*
X105537000Y-89312750D03*
D17*
X100457000Y-89312750D03*
M02*
