M48
; DRILL file {KiCad (6.0.6)} date Sun Jul 10 20:55:00 2022
; FORMAT={-:-/ absolute / metric / decimal}
; #@! TF.CreationDate,2022-07-10T20:55:00+03:00
; #@! TF.GenerationSoftware,Kicad,Pcbnew,(6.0.6)
; #@! TF.FileFunction,NonPlated,1,2,NPTH
FMAT,2
METRIC
; #@! TA.AperFunction,NonPlated,NPTH,ComponentDrill
T1C1.702
; #@! TA.AperFunction,NonPlated,NPTH,ComponentDrill
T2C3.048
; #@! TA.AperFunction,NonPlated,NPTH,ComponentDrill
T3C3.988
%
G90
G05
T1
X47.752Y-70.263
X50.133Y-146.463
X52.514Y-89.313
X54.896Y-108.363
X57.912Y-70.263
X59.658Y-127.413
X60.293Y-146.463
X62.674Y-89.313
X65.056Y-108.363
X66.802Y-70.263
X69.818Y-127.413
X73.946Y-146.463
X76.327Y-89.313
X76.962Y-70.263
X81.09Y-108.363
X84.106Y-146.463
X85.852Y-70.263
X86.487Y-89.313
X90.614Y-127.413
X91.249Y-108.363
X95.377Y-89.313
X96.012Y-70.263
X97.758Y-146.463
X100.139Y-108.363
X100.774Y-127.413
X104.902Y-70.263
X105.537Y-89.313
X107.918Y-146.463
X109.664Y-127.413
X110.299Y-108.363
X114.427Y-89.313
X115.062Y-70.263
X119.189Y-108.363
X119.825Y-127.413
X123.952Y-70.263
X124.587Y-89.313
X128.714Y-127.413
X129.35Y-108.363
X133.477Y-89.313
X134.112Y-70.263
X138.22Y-108.3
X138.874Y-127.413
X143.002Y-70.263
X143.637Y-89.313
X147.764Y-127.413
X148.38Y-108.3
X152.527Y-89.313
X153.162Y-70.263
X157.29Y-108.363
X157.924Y-127.413
X162.052Y-70.263
X162.687Y-89.313
X166.814Y-127.413
X167.45Y-108.363
X169.196Y-146.463
X171.577Y-89.281
X172.212Y-70.263
X176.339Y-108.363
X176.975Y-127.413
X179.356Y-146.463
X181.102Y-70.263
X181.737Y-89.281
X185.864Y-127.413
X186.499Y-108.363
X190.627Y-89.313
X191.262Y-70.263
X195.389Y-108.363
X196.024Y-127.413
X200.152Y-70.263
X200.787Y-89.313
X204.915Y-127.413
X205.549Y-108.363
X210.312Y-70.263
X214.439Y-108.363
X215.075Y-127.413
X218.82Y-86.85
X219.202Y-70.263
X223.964Y-127.413
X224.599Y-108.363
X228.727Y-89.313
X228.98Y-86.85
X229.362Y-70.263
X233.489Y-108.363
X234.124Y-127.413
X238.252Y-70.263
X238.887Y-89.313
X240.633Y-146.463
X243.014Y-127.413
X243.649Y-108.363
X247.777Y-89.313
X248.412Y-70.263
X250.793Y-146.463
X252.539Y-108.363
X253.174Y-127.413
X257.302Y-70.263
X257.937Y-89.313
X262.065Y-127.413
X262.7Y-108.363
X264.446Y-146.463
X266.827Y-89.313
X267.462Y-70.263
X271.589Y-108.363
X272.224Y-127.413
X274.606Y-146.463
X276.352Y-70.263
X276.987Y-89.313
X281.75Y-108.363
X285.877Y-89.313
X286.512Y-70.263
X288.258Y-146.463
X296.037Y-89.313
X297.783Y-127.413
X298.418Y-146.463
X302.546Y-108.363
X304.927Y-70.263
X307.943Y-127.413
X309.69Y-89.313
X312.071Y-146.463
X312.706Y-108.363
X315.087Y-70.263
X319.849Y-89.313
X322.231Y-146.463
T2
X52.8Y-120.428
X76.676Y-120.428
X124.238Y-139.478
X224.314Y-139.478
X290.925Y-120.428
X295.688Y-101.378
X298.069Y-63.278
X314.801Y-120.428
X319.564Y-101.378
X321.945Y-63.278
T3
X52.8Y-135.668
X52.832Y-70.263
X55.213Y-146.463
X57.594Y-89.313
X59.976Y-108.363
X64.738Y-127.413
X71.882Y-70.263
X76.676Y-135.668
X79.026Y-146.463
X81.407Y-89.313
X86.169Y-108.363
X90.932Y-70.263
X95.694Y-127.413
X100.457Y-89.313
X102.838Y-146.463
X105.219Y-108.363
X109.982Y-70.263
X114.744Y-127.413
X119.507Y-89.313
X124.238Y-154.718
X124.269Y-108.363
X129.032Y-70.263
X133.794Y-127.413
X138.557Y-89.313
X143.3Y-108.3
X148.082Y-70.263
X152.844Y-127.413
X157.607Y-89.313
X162.369Y-108.363
X167.132Y-70.263
X171.894Y-127.413
X174.276Y-146.463
X176.657Y-89.281
X181.419Y-108.363
X186.182Y-70.263
X190.945Y-127.413
X195.707Y-89.313
X200.469Y-108.363
X205.232Y-70.263
X209.994Y-127.413
X219.519Y-108.363
X223.9Y-86.85
X224.282Y-70.263
X224.314Y-154.718
X229.044Y-127.413
X233.807Y-89.313
X238.569Y-108.363
X243.332Y-70.263
X245.713Y-146.463
X248.094Y-127.413
X252.857Y-89.313
X257.62Y-108.363
X262.382Y-70.263
X267.144Y-127.413
X269.526Y-146.463
X271.907Y-89.313
X276.669Y-108.363
X281.432Y-70.263
X290.925Y-135.668
X290.957Y-89.313
X293.338Y-146.463
X295.688Y-116.618
X298.069Y-78.518
X302.863Y-127.413
X307.626Y-108.363
X310.007Y-70.263
X314.769Y-89.313
X314.801Y-135.668
X317.151Y-146.463
X319.564Y-116.618
X321.945Y-78.518
T0
M30
