G04 #@! TF.GenerationSoftware,KiCad,Pcbnew,(6.0.6)*
G04 #@! TF.CreationDate,2022-07-10T20:54:54+03:00*
G04 #@! TF.ProjectId,Keyboard-60,4b657962-6f61-4726-942d-3630252e6b69,rev?*
G04 #@! TF.SameCoordinates,Original*
G04 #@! TF.FileFunction,Paste,Bot*
G04 #@! TF.FilePolarity,Positive*
%FSLAX46Y46*%
G04 Gerber Fmt 4.6, Leading zero omitted, Abs format (unit mm)*
G04 Created by KiCad (PCBNEW (6.0.6)) date 2022-07-10 20:54:54*
%MOMM*%
%LPD*%
G01*
G04 APERTURE LIST*
G04 Aperture macros list*
%AMRoundRect*
0 Rectangle with rounded corners*
0 $1 Rounding radius*
0 $2 $3 $4 $5 $6 $7 $8 $9 X,Y pos of 4 corners*
0 Add a 4 corners polygon primitive as box body*
4,1,4,$2,$3,$4,$5,$6,$7,$8,$9,$2,$3,0*
0 Add four circle primitives for the rounded corners*
1,1,$1+$1,$2,$3*
1,1,$1+$1,$4,$5*
1,1,$1+$1,$6,$7*
1,1,$1+$1,$8,$9*
0 Add four rect primitives between the rounded corners*
20,1,$1+$1,$2,$3,$4,$5,0*
20,1,$1+$1,$4,$5,$6,$7,0*
20,1,$1+$1,$6,$7,$8,$9,0*
20,1,$1+$1,$8,$9,$2,$3,0*%
G04 Aperture macros list end*
%ADD10R,1.200000X0.900000*%
%ADD11RoundRect,0.250000X-0.625000X0.400000X-0.625000X-0.400000X0.625000X-0.400000X0.625000X0.400000X0*%
%ADD12R,1.100000X1.800000*%
%ADD13RoundRect,0.250000X-0.475000X0.337500X-0.475000X-0.337500X0.475000X-0.337500X0.475000X0.337500X0*%
%ADD14RoundRect,0.250000X0.475000X-0.337500X0.475000X0.337500X-0.475000X0.337500X-0.475000X-0.337500X0*%
%ADD15RoundRect,0.250000X-0.400000X-0.625000X0.400000X-0.625000X0.400000X0.625000X-0.400000X0.625000X0*%
%ADD16RoundRect,0.250000X-0.337500X-0.475000X0.337500X-0.475000X0.337500X0.475000X-0.337500X0.475000X0*%
%ADD17RoundRect,0.250000X0.337500X0.475000X-0.337500X0.475000X-0.337500X-0.475000X0.337500X-0.475000X0*%
%ADD18R,2.400000X3.500000*%
%ADD19RoundRect,0.250000X0.400000X0.625000X-0.400000X0.625000X-0.400000X-0.625000X0.400000X-0.625000X0*%
%ADD20R,0.508000X1.473200*%
%ADD21R,1.473200X0.508000*%
%ADD22RoundRect,0.250000X0.625000X-0.400000X0.625000X0.400000X-0.625000X0.400000X-0.625000X-0.400000X0*%
G04 APERTURE END LIST*
D10*
X129825750Y-133063250D03*
X129825750Y-129763250D03*
X120300750Y-113886250D03*
X120300750Y-110586250D03*
X86772750Y-76091050D03*
X86772750Y-72791050D03*
D11*
X197262750Y-71316250D03*
X197262750Y-74416250D03*
D10*
X98710750Y-151986250D03*
X98710750Y-148686250D03*
X306355750Y-76167250D03*
X306355750Y-72867250D03*
X75088750Y-152113250D03*
X75088750Y-148813250D03*
X272700750Y-114013250D03*
X272700750Y-110713250D03*
X286924750Y-95090250D03*
X286924750Y-91790250D03*
X56038750Y-113886250D03*
X56038750Y-110586250D03*
X298989750Y-133063250D03*
X298989750Y-129763250D03*
X239299750Y-76040250D03*
X239299750Y-72740250D03*
D12*
X213599150Y-61181050D03*
X213599150Y-67381050D03*
X217299150Y-61181050D03*
X217299150Y-67381050D03*
D10*
X148875750Y-133063250D03*
X148875750Y-129763250D03*
X158400750Y-114013250D03*
X158400750Y-110713250D03*
X110775750Y-133063250D03*
X110775750Y-129763250D03*
X258222750Y-76040250D03*
X258222750Y-72740250D03*
D13*
X211613750Y-143583750D03*
X211613750Y-145658750D03*
D10*
X177450750Y-114013250D03*
X177450750Y-110713250D03*
X167925750Y-133063250D03*
X167925750Y-129763250D03*
X153574750Y-95090250D03*
X153574750Y-91790250D03*
D13*
X209581750Y-143583750D03*
X209581750Y-145658750D03*
D10*
X196500750Y-114013250D03*
X196500750Y-110713250D03*
D14*
X196119750Y-137657750D03*
X196119750Y-135582750D03*
D10*
X263175750Y-133190250D03*
X263175750Y-129890250D03*
X48418750Y-75989450D03*
X48418750Y-72689450D03*
X60737750Y-133063250D03*
X60737750Y-129763250D03*
X241712750Y-152113250D03*
X241712750Y-148813250D03*
X105873550Y-76091050D03*
X105873550Y-72791050D03*
D15*
X206837950Y-61131450D03*
X209937950Y-61131450D03*
D10*
X82200750Y-113886250D03*
X82200750Y-110586250D03*
X182022750Y-76040250D03*
X182022750Y-72740250D03*
X68027550Y-76040250D03*
X68027550Y-72740250D03*
X96551750Y-94963250D03*
X96551750Y-91663250D03*
D14*
X202469750Y-155437750D03*
X202469750Y-153362750D03*
D16*
X189875250Y-137890250D03*
X191950250Y-137890250D03*
D10*
X172751750Y-94836250D03*
X172751750Y-91536250D03*
X210851750Y-94963250D03*
X210851750Y-91663250D03*
X225075750Y-133063250D03*
X225075750Y-129763250D03*
X53498750Y-94836250D03*
X53498750Y-91536250D03*
X244125750Y-133063250D03*
X244125750Y-129763250D03*
X229774750Y-94963250D03*
X229774750Y-91663250D03*
X134524750Y-94963250D03*
X134524750Y-91663250D03*
X220249750Y-75532250D03*
X220249750Y-72232250D03*
X289210750Y-152113250D03*
X289210750Y-148813250D03*
X124872750Y-76040250D03*
X124872750Y-72740250D03*
X313213750Y-151986250D03*
X313213750Y-148686250D03*
X303688750Y-114267250D03*
X303688750Y-110967250D03*
D17*
X211508250Y-139769850D03*
X209433250Y-139769850D03*
D10*
X144176750Y-76040250D03*
X144176750Y-72740250D03*
D18*
X216058750Y-149888250D03*
X216058750Y-144688250D03*
D10*
X268001750Y-94963250D03*
X268001750Y-91663250D03*
D19*
X207550350Y-137229850D03*
X204450350Y-137229850D03*
D10*
X215550750Y-114013250D03*
X215550750Y-110713250D03*
X234600750Y-114013250D03*
X234600750Y-110713250D03*
D20*
X195306950Y-139769850D03*
X196094350Y-139769850D03*
X196907150Y-139769850D03*
X197694550Y-139769850D03*
X198507350Y-139769850D03*
X199294750Y-139769850D03*
X200082150Y-139769850D03*
X200894950Y-139769850D03*
X201682350Y-139769850D03*
X202495150Y-139769850D03*
X203282550Y-139769850D03*
D21*
X205035150Y-141522450D03*
X205035150Y-142309850D03*
X205035150Y-143122650D03*
X205035150Y-143910050D03*
X205035150Y-144722850D03*
X205035150Y-145510250D03*
X205035150Y-146297650D03*
X205035150Y-147110450D03*
X205035150Y-147897850D03*
X205035150Y-148710650D03*
X205035150Y-149498050D03*
D20*
X203282550Y-151250650D03*
X202495150Y-151250650D03*
X201682350Y-151250650D03*
X200894950Y-151250650D03*
X200082150Y-151250650D03*
X199294750Y-151250650D03*
X198507350Y-151250650D03*
X197694550Y-151250650D03*
X196907150Y-151250650D03*
X196094350Y-151250650D03*
X195306950Y-151250650D03*
D21*
X193554350Y-149498050D03*
X193554350Y-148710650D03*
X193554350Y-147897850D03*
X193554350Y-147110450D03*
X193554350Y-146297650D03*
X193554350Y-145510250D03*
X193554350Y-144722850D03*
X193554350Y-143910050D03*
X193554350Y-143122650D03*
X193554350Y-142309850D03*
X193554350Y-141522450D03*
D10*
X213391750Y-132809250D03*
X213391750Y-129509250D03*
X115601750Y-94963250D03*
X115601750Y-91663250D03*
D22*
X186690000Y-151695750D03*
X186690000Y-148595750D03*
D10*
X91725750Y-132936250D03*
X91725750Y-129636250D03*
X170338750Y-152367250D03*
X170338750Y-149067250D03*
X77501750Y-95090250D03*
X77501750Y-91790250D03*
X310673750Y-95090250D03*
X310673750Y-91790250D03*
X51212750Y-152114250D03*
X51212750Y-148814250D03*
X253650750Y-114013250D03*
X253650750Y-110713250D03*
X101250750Y-114013250D03*
X101250750Y-110713250D03*
D11*
X194722750Y-71316250D03*
X194722750Y-74416250D03*
D13*
X200437750Y-134947750D03*
X200437750Y-137022750D03*
D10*
X191801750Y-94836250D03*
X191801750Y-91536250D03*
X248824750Y-94963250D03*
X248824750Y-91663250D03*
X265334750Y-152113250D03*
X265334750Y-148813250D03*
D16*
X209454750Y-141700250D03*
X211529750Y-141700250D03*
D10*
X208184750Y-75532250D03*
X208184750Y-72232250D03*
X139350750Y-114013250D03*
X139350750Y-110713250D03*
X183546750Y-61056250D03*
X183546750Y-64356250D03*
X163226750Y-76040250D03*
X163226750Y-72740250D03*
X186975750Y-133063250D03*
X186975750Y-129763250D03*
X277653750Y-76040250D03*
X277653750Y-72740250D03*
M02*
