%FSLAX45Y45*%
G04 Gerber Fmt 4.5, Leading zero omitted, Abs format (unit mm)*
G04 Created by KiCad (PCBNEW (6.0.6)) date 2022-07-10 20:55:02*
%MOMM*%
%LPD*%
G01*
G04 APERTURE LIST*
%TA.AperFunction,Profile*%
%ADD10C,0.100000*%
%TD*%
%ADD11C,0.200000*%
%ADD12C,0.040000*%
%ADD13C,0.095000*%
%ADD14C,0.152400*%
%ADD15C,0.152500*%
%ADD16C,0.230000*%
G04 APERTURE END LIST*
D10*
X4330700Y-15836900D02*
X32905700Y-15836900D01*
X33143825Y-15598775D02*
X33143825Y-6073775D01*
X4092570Y-15598775D02*
G75*
G03*
X4330700Y-15836900I238130J5D01*
G01*
X33143820Y-6073775D02*
G75*
G03*
X32905700Y-5835650I-238130J-5D01*
G01*
X32905700Y-5835650D02*
X4330700Y-5835650D01*
X32905700Y-15836905D02*
G75*
G03*
X33143825Y-15598775I0J238125D01*
G01*
X4330700Y-5835650D02*
G75*
G03*
X4092575Y-6073775I0J-238125D01*
G01*
X4092575Y-6073775D02*
X4092575Y-15598775D01*
D11*
D12*
X4580575Y-7711125D02*
X4620575Y-7751125D01*
X4620575Y-7711125D02*
X4580575Y-7751125D01*
X13613450Y-14766550D02*
X13653450Y-14806550D01*
X13653450Y-14766550D02*
X13613450Y-14806550D01*
X15518450Y-14708450D02*
X15558450Y-14748450D01*
X15558450Y-14708450D02*
X15518450Y-14748450D01*
X18090000Y-13720000D02*
X18130000Y-13760000D01*
X18130000Y-13720000D02*
X18090000Y-13760000D01*
X18163275Y-15216725D02*
X18203275Y-15256725D01*
X18203275Y-15216725D02*
X18163275Y-15256725D01*
X18205000Y-15515000D02*
X18245000Y-15555000D01*
X18245000Y-15515000D02*
X18205000Y-15555000D01*
X18382300Y-15169200D02*
X18422300Y-15209200D01*
X18422300Y-15169200D02*
X18382300Y-15209200D01*
X18423575Y-8612825D02*
X18463575Y-8652825D01*
X18463575Y-8612825D02*
X18423575Y-8652825D01*
X18677575Y-7584125D02*
X18717575Y-7624125D01*
X18717575Y-7584125D02*
X18677575Y-7624125D01*
X18690275Y-9451025D02*
X18730275Y-9491025D01*
X18730275Y-9451025D02*
X18690275Y-9491025D01*
X18804575Y-11076625D02*
X18844575Y-11116625D01*
X18844575Y-11076625D02*
X18804575Y-11116625D01*
X18842715Y-14211025D02*
X18882715Y-14251025D01*
X18882715Y-14211025D02*
X18842715Y-14251025D01*
X18847795Y-14851025D02*
X18887795Y-14891025D01*
X18887795Y-14851025D02*
X18847795Y-14891025D01*
X19001375Y-14131025D02*
X19041375Y-14171025D01*
X19041375Y-14131025D02*
X19001375Y-14171025D01*
X19001475Y-14931025D02*
X19041475Y-14971025D01*
X19041475Y-14931025D02*
X19001475Y-14971025D01*
X19004600Y-15181900D02*
X19044600Y-15221900D01*
X19044600Y-15181900D02*
X19004600Y-15221900D01*
X19004600Y-15397800D02*
X19044600Y-15437800D01*
X19044600Y-15397800D02*
X19004600Y-15437800D01*
X19023015Y-15737525D02*
X19063015Y-15777525D01*
X19063015Y-15737525D02*
X19023015Y-15777525D01*
X19111915Y-7408865D02*
X19151915Y-7448865D01*
X19151915Y-7408865D02*
X19111915Y-7448865D01*
X19185000Y-15680000D02*
X19225000Y-15720000D01*
X19225000Y-15680000D02*
X19185000Y-15720000D01*
X19390475Y-6109225D02*
X19430475Y-6149225D01*
X19430475Y-6109225D02*
X19390475Y-6149225D01*
X19426875Y-11381425D02*
X19466875Y-11421425D01*
X19466875Y-11381425D02*
X19426875Y-11421425D01*
X19447195Y-7998145D02*
X19487195Y-8038145D01*
X19487195Y-7998145D02*
X19447195Y-8038145D01*
X19452275Y-7571425D02*
X19492275Y-7611425D01*
X19492275Y-7571425D02*
X19452275Y-7611425D01*
X19452275Y-7825425D02*
X19492275Y-7865425D01*
X19492275Y-7825425D02*
X19452275Y-7865425D01*
X19452275Y-13769025D02*
X19492275Y-13809025D01*
X19492275Y-13769025D02*
X19452275Y-13809025D01*
X19475000Y-15665000D02*
X19515000Y-15705000D01*
X19515000Y-15665000D02*
X19475000Y-15705000D01*
X19566575Y-13057825D02*
X19606575Y-13097825D01*
X19606575Y-13057825D02*
X19566575Y-13097825D01*
X19591975Y-13311825D02*
X19631975Y-13351825D01*
X19631975Y-13311825D02*
X19591975Y-13351825D01*
X19665000Y-15605000D02*
X19705000Y-15645000D01*
X19705000Y-15605000D02*
X19665000Y-15645000D01*
X19718975Y-7863525D02*
X19758975Y-7903525D01*
X19758975Y-7863525D02*
X19718975Y-7903525D01*
X19800000Y-15580000D02*
X19840000Y-15620000D01*
X19840000Y-15580000D02*
X19800000Y-15620000D01*
X19865000Y-15465000D02*
X19905000Y-15505000D01*
X19905000Y-15465000D02*
X19865000Y-15505000D01*
X19930000Y-15285000D02*
X19970000Y-15325000D01*
X19970000Y-15285000D02*
X19930000Y-15325000D01*
X19934875Y-13832525D02*
X19974875Y-13872525D01*
X19974875Y-13832525D02*
X19934875Y-13872525D01*
X19972875Y-9463625D02*
X20012875Y-9503625D01*
X20012875Y-9463625D02*
X19972875Y-9503625D01*
X19985675Y-13311825D02*
X20025675Y-13351825D01*
X20025675Y-13311825D02*
X19985675Y-13351825D01*
X20010000Y-15475000D02*
X20050000Y-15515000D01*
X20050000Y-15475000D02*
X20010000Y-15515000D01*
X20125375Y-7533325D02*
X20165375Y-7573325D01*
X20165375Y-7533325D02*
X20125375Y-7573325D01*
X20158395Y-13301665D02*
X20198395Y-13341665D01*
X20198395Y-13301665D02*
X20158395Y-13341665D01*
X20158395Y-13743625D02*
X20198395Y-13783625D01*
X20198395Y-13743625D02*
X20158395Y-13783625D01*
X20379375Y-7533325D02*
X20419375Y-7573325D01*
X20419375Y-7533325D02*
X20379375Y-7573325D01*
X20493675Y-13296585D02*
X20533675Y-13336585D01*
X20533675Y-13296585D02*
X20493675Y-13336585D01*
X20519075Y-9463725D02*
X20559075Y-9503725D01*
X20559075Y-9463725D02*
X20519075Y-9503725D01*
X20544475Y-13172125D02*
X20584475Y-13212125D01*
X20584475Y-13172125D02*
X20544475Y-13212125D01*
X20734875Y-11381325D02*
X20774875Y-11421325D01*
X20774875Y-11381325D02*
X20734875Y-11421325D01*
X20940715Y-13697905D02*
X20980715Y-13737905D01*
X20980715Y-13697905D02*
X20940715Y-13737905D01*
X21268375Y-7063425D02*
X21308375Y-7103425D01*
X21308375Y-7063425D02*
X21268375Y-7103425D01*
X21306475Y-11381425D02*
X21346475Y-11421425D01*
X21346475Y-11381425D02*
X21306475Y-11421425D01*
X21695000Y-15500000D02*
X21735000Y-15540000D01*
X21735000Y-15500000D02*
X21695000Y-15540000D01*
X21705000Y-13789600D02*
X21745000Y-13829600D01*
X21745000Y-13789600D02*
X21705000Y-13829600D01*
X21839875Y-7546025D02*
X21879875Y-7586025D01*
X21879875Y-7546025D02*
X21839875Y-7586025D01*
X21887500Y-14127800D02*
X21927500Y-14167800D01*
X21927500Y-14127800D02*
X21887500Y-14167800D01*
X22455000Y-14985000D02*
X22495000Y-15025000D01*
X22495000Y-14985000D02*
X22455000Y-15025000D01*
X22690000Y-14925000D02*
X22730000Y-14965000D01*
X22730000Y-14925000D02*
X22690000Y-14965000D01*
X23265000Y-15340000D02*
X23305000Y-15380000D01*
X23305000Y-15340000D02*
X23265000Y-15380000D01*
X23530000Y-14320000D02*
X23570000Y-14360000D01*
X23570000Y-14320000D02*
X23530000Y-14360000D01*
X24355000Y-13760000D02*
X24395000Y-13800000D01*
X24395000Y-13760000D02*
X24355000Y-13800000D01*
X24445000Y-13915000D02*
X24485000Y-13955000D01*
X24485000Y-13915000D02*
X24445000Y-13955000D01*
X28370000Y-13440000D02*
X28410000Y-13480000D01*
X28410000Y-13440000D02*
X28370000Y-13480000D01*
X29140000Y-10715000D02*
X29180000Y-10755000D01*
X29180000Y-10715000D02*
X29140000Y-10755000D01*
X29525000Y-15590000D02*
X29565000Y-15630000D01*
X29565000Y-15590000D02*
X29525000Y-15630000D01*
X30970000Y-13490000D02*
X31010000Y-13530000D01*
X31010000Y-13490000D02*
X30970000Y-13530000D01*
X31700000Y-15535000D02*
X31740000Y-15575000D01*
X31740000Y-15535000D02*
X31700000Y-15575000D01*
D13*
X19271375Y-6400225D02*
G75*
G03*
X19271375Y-6400225I-47500J0D01*
G01*
X19521375Y-6400225D02*
G75*
G03*
X19521375Y-6400225I-47500J0D01*
G01*
X19721375Y-6400225D02*
G75*
G03*
X19721375Y-6400225I-47500J0D01*
G01*
X19971375Y-6400225D02*
G75*
G03*
X19971375Y-6400225I-47500J0D01*
G01*
D14*
X5140325Y-14316075D02*
X5140325Y-14468475D01*
X5064125Y-14392275D02*
X5216525Y-14392275D01*
X5378450Y-8601075D02*
X5378450Y-8753475D01*
X5302250Y-8677275D02*
X5454650Y-8677275D01*
X5616575Y-10506075D02*
X5616575Y-10658475D01*
X5540375Y-10582275D02*
X5692775Y-10582275D01*
X5775325Y-14062075D02*
X5775325Y-14214475D01*
X5699125Y-14138275D02*
X5851525Y-14138275D01*
X6013450Y-8347075D02*
X6013450Y-8499475D01*
X5937250Y-8423275D02*
X6089650Y-8423275D01*
X6092825Y-12411075D02*
X6092825Y-12563475D01*
X6016625Y-12487275D02*
X6169025Y-12487275D01*
X6251575Y-10252075D02*
X6251575Y-10404475D01*
X6175375Y-10328275D02*
X6327775Y-10328275D01*
X6727825Y-12157075D02*
X6727825Y-12309475D01*
X6651625Y-12233275D02*
X6804025Y-12233275D01*
X7521575Y-14316075D02*
X7521575Y-14468475D01*
X7445375Y-14392275D02*
X7597775Y-14392275D01*
X8156575Y-14062075D02*
X8156575Y-14214475D01*
X8080375Y-14138275D02*
X8232775Y-14138275D01*
X9902825Y-14316075D02*
X9902825Y-14468475D01*
X9826625Y-14392275D02*
X9979025Y-14392275D01*
X10537825Y-14062075D02*
X10537825Y-14214475D01*
X10461625Y-14138275D02*
X10614025Y-14138275D01*
X17046575Y-14316075D02*
X17046575Y-14468475D01*
X16970375Y-14392275D02*
X17122775Y-14392275D01*
X17681575Y-14062075D02*
X17681575Y-14214475D01*
X17605375Y-14138275D02*
X17757775Y-14138275D01*
X24190325Y-14316075D02*
X24190325Y-14468475D01*
X24114125Y-14392275D02*
X24266525Y-14392275D01*
X24825325Y-14062075D02*
X24825325Y-14214475D01*
X24749125Y-14138275D02*
X24901525Y-14138275D01*
X26571575Y-14316075D02*
X26571575Y-14468475D01*
X26495375Y-14392275D02*
X26647775Y-14392275D01*
X27206575Y-14062075D02*
X27206575Y-14214475D01*
X27130375Y-14138275D02*
X27282775Y-14138275D01*
X28952825Y-14316075D02*
X28952825Y-14468475D01*
X28876625Y-14392275D02*
X29029025Y-14392275D01*
X29587825Y-14062075D02*
X29587825Y-14214475D01*
X29511625Y-14138275D02*
X29664025Y-14138275D01*
X29905325Y-12411075D02*
X29905325Y-12563475D01*
X29829125Y-12487275D02*
X29981525Y-12487275D01*
X30381575Y-10506075D02*
X30381575Y-10658475D01*
X30305375Y-10582275D02*
X30457775Y-10582275D01*
X30540325Y-12157075D02*
X30540325Y-12309475D01*
X30464125Y-12233275D02*
X30616525Y-12233275D01*
X30619700Y-6696075D02*
X30619700Y-6848475D01*
X30543500Y-6772275D02*
X30695900Y-6772275D01*
X31016575Y-10252075D02*
X31016575Y-10404475D01*
X30940375Y-10328275D02*
X31092775Y-10328275D01*
X31095950Y-8601075D02*
X31095950Y-8753475D01*
X31019750Y-8677275D02*
X31172150Y-8677275D01*
X31254700Y-6442075D02*
X31254700Y-6594475D01*
X31178500Y-6518275D02*
X31330900Y-6518275D01*
X31334075Y-14316075D02*
X31334075Y-14468475D01*
X31257875Y-14392275D02*
X31410275Y-14392275D01*
X31730950Y-8347075D02*
X31730950Y-8499475D01*
X31654750Y-8423275D02*
X31807150Y-8423275D01*
X31969075Y-14062075D02*
X31969075Y-14214475D01*
X31892875Y-14138275D02*
X32045275Y-14138275D01*
D15*
X4956117Y-6826192D02*
X4956117Y-6718358D01*
X4848283Y-6718358D01*
X4848283Y-6826192D01*
X4956117Y-6826192D01*
X5591117Y-6572192D02*
X5591117Y-6464358D01*
X5483283Y-6464358D01*
X5483283Y-6572192D01*
X5591117Y-6572192D01*
X6861117Y-6826192D02*
X6861117Y-6718358D01*
X6753283Y-6718358D01*
X6753283Y-6826192D01*
X6861117Y-6826192D01*
X7496117Y-6572192D02*
X7496117Y-6464358D01*
X7388283Y-6464358D01*
X7388283Y-6572192D01*
X7496117Y-6572192D01*
X7813617Y-8731192D02*
X7813617Y-8623358D01*
X7705783Y-8623358D01*
X7705783Y-8731192D01*
X7813617Y-8731192D01*
X8289867Y-10636192D02*
X8289867Y-10528358D01*
X8182033Y-10528358D01*
X8182033Y-10636192D01*
X8289867Y-10636192D01*
X8448617Y-8477192D02*
X8448617Y-8369358D01*
X8340783Y-8369358D01*
X8340783Y-8477192D01*
X8448617Y-8477192D01*
X8766117Y-6826192D02*
X8766117Y-6718358D01*
X8658283Y-6718358D01*
X8658283Y-6826192D01*
X8766117Y-6826192D01*
X8924867Y-10382192D02*
X8924867Y-10274358D01*
X8817033Y-10274358D01*
X8817033Y-10382192D01*
X8924867Y-10382192D01*
X9242367Y-12541192D02*
X9242367Y-12433358D01*
X9134533Y-12433358D01*
X9134533Y-12541192D01*
X9242367Y-12541192D01*
X9401117Y-6572192D02*
X9401117Y-6464358D01*
X9293283Y-6464358D01*
X9293283Y-6572192D01*
X9401117Y-6572192D01*
X9718617Y-8731192D02*
X9718617Y-8623358D01*
X9610783Y-8623358D01*
X9610783Y-8731192D01*
X9718617Y-8731192D01*
X9877367Y-12287192D02*
X9877367Y-12179358D01*
X9769533Y-12179358D01*
X9769533Y-12287192D01*
X9877367Y-12287192D01*
X10194867Y-10636192D02*
X10194867Y-10528358D01*
X10087033Y-10528358D01*
X10087033Y-10636192D01*
X10194867Y-10636192D01*
X10353617Y-8477192D02*
X10353617Y-8369358D01*
X10245783Y-8369358D01*
X10245783Y-8477192D01*
X10353617Y-8477192D01*
X10671117Y-6826192D02*
X10671117Y-6718358D01*
X10563283Y-6718358D01*
X10563283Y-6826192D01*
X10671117Y-6826192D01*
X10829867Y-10382192D02*
X10829867Y-10274358D01*
X10722033Y-10274358D01*
X10722033Y-10382192D01*
X10829867Y-10382192D01*
X11147367Y-12541192D02*
X11147367Y-12433358D01*
X11039533Y-12433358D01*
X11039533Y-12541192D01*
X11147367Y-12541192D01*
X11306117Y-6572192D02*
X11306117Y-6464358D01*
X11198283Y-6464358D01*
X11198283Y-6572192D01*
X11306117Y-6572192D01*
X11623617Y-8731192D02*
X11623617Y-8623358D01*
X11515783Y-8623358D01*
X11515783Y-8731192D01*
X11623617Y-8731192D01*
X11782367Y-12287192D02*
X11782367Y-12179358D01*
X11674533Y-12179358D01*
X11674533Y-12287192D01*
X11782367Y-12287192D01*
X12099867Y-10636192D02*
X12099867Y-10528358D01*
X11992033Y-10528358D01*
X11992033Y-10636192D01*
X12099867Y-10636192D01*
X12258617Y-8477192D02*
X12258617Y-8369358D01*
X12150783Y-8369358D01*
X12150783Y-8477192D01*
X12258617Y-8477192D01*
X12576117Y-6826192D02*
X12576117Y-6718358D01*
X12468283Y-6718358D01*
X12468283Y-6826192D01*
X12576117Y-6826192D01*
X12734867Y-10382192D02*
X12734867Y-10274358D01*
X12627033Y-10274358D01*
X12627033Y-10382192D01*
X12734867Y-10382192D01*
X13052367Y-12541192D02*
X13052367Y-12433358D01*
X12944533Y-12433358D01*
X12944533Y-12541192D01*
X13052367Y-12541192D01*
X13211117Y-6572192D02*
X13211117Y-6464358D01*
X13103283Y-6464358D01*
X13103283Y-6572192D01*
X13211117Y-6572192D01*
X13528617Y-8731192D02*
X13528617Y-8623358D01*
X13420783Y-8623358D01*
X13420783Y-8731192D01*
X13528617Y-8731192D01*
X13687367Y-12287192D02*
X13687367Y-12179358D01*
X13579533Y-12179358D01*
X13579533Y-12287192D01*
X13687367Y-12287192D01*
X14002917Y-10629917D02*
X14002917Y-10522083D01*
X13895083Y-10522083D01*
X13895083Y-10629917D01*
X14002917Y-10629917D01*
X14163617Y-8477192D02*
X14163617Y-8369358D01*
X14055783Y-8369358D01*
X14055783Y-8477192D01*
X14163617Y-8477192D01*
X14481117Y-6826192D02*
X14481117Y-6718358D01*
X14373283Y-6718358D01*
X14373283Y-6826192D01*
X14481117Y-6826192D01*
X14637917Y-10375917D02*
X14637917Y-10268083D01*
X14530083Y-10268083D01*
X14530083Y-10375917D01*
X14637917Y-10375917D01*
X14957367Y-12541192D02*
X14957367Y-12433358D01*
X14849533Y-12433358D01*
X14849533Y-12541192D01*
X14957367Y-12541192D01*
X15116117Y-6572192D02*
X15116117Y-6464358D01*
X15008283Y-6464358D01*
X15008283Y-6572192D01*
X15116117Y-6572192D01*
X15433617Y-8731192D02*
X15433617Y-8623358D01*
X15325783Y-8623358D01*
X15325783Y-8731192D01*
X15433617Y-8731192D01*
X15592367Y-12287192D02*
X15592367Y-12179358D01*
X15484533Y-12179358D01*
X15484533Y-12287192D01*
X15592367Y-12287192D01*
X15909867Y-10636192D02*
X15909867Y-10528358D01*
X15802033Y-10528358D01*
X15802033Y-10636192D01*
X15909867Y-10636192D01*
X16068617Y-8477192D02*
X16068617Y-8369358D01*
X15960783Y-8369358D01*
X15960783Y-8477192D01*
X16068617Y-8477192D01*
X16386117Y-6826192D02*
X16386117Y-6718358D01*
X16278283Y-6718358D01*
X16278283Y-6826192D01*
X16386117Y-6826192D01*
X16544867Y-10382192D02*
X16544867Y-10274358D01*
X16437033Y-10274358D01*
X16437033Y-10382192D01*
X16544867Y-10382192D01*
X16862367Y-12541192D02*
X16862367Y-12433358D01*
X16754533Y-12433358D01*
X16754533Y-12541192D01*
X16862367Y-12541192D01*
X17021117Y-6572192D02*
X17021117Y-6464358D01*
X16913283Y-6464358D01*
X16913283Y-6572192D01*
X17021117Y-6572192D01*
X17338617Y-8728017D02*
X17338617Y-8620183D01*
X17230783Y-8620183D01*
X17230783Y-8728017D01*
X17338617Y-8728017D01*
X17497367Y-12287192D02*
X17497367Y-12179358D01*
X17389533Y-12179358D01*
X17389533Y-12287192D01*
X17497367Y-12287192D01*
X17814867Y-10636192D02*
X17814867Y-10528358D01*
X17707033Y-10528358D01*
X17707033Y-10636192D01*
X17814867Y-10636192D01*
X17973617Y-8474017D02*
X17973617Y-8366183D01*
X17865783Y-8366183D01*
X17865783Y-8474017D01*
X17973617Y-8474017D01*
X18291117Y-6826192D02*
X18291117Y-6718358D01*
X18183283Y-6718358D01*
X18183283Y-6826192D01*
X18291117Y-6826192D01*
X18449867Y-10382192D02*
X18449867Y-10274358D01*
X18342033Y-10274358D01*
X18342033Y-10382192D01*
X18449867Y-10382192D01*
X18767367Y-12541192D02*
X18767367Y-12433358D01*
X18659533Y-12433358D01*
X18659533Y-12541192D01*
X18767367Y-12541192D01*
X18926117Y-6572192D02*
X18926117Y-6464358D01*
X18818283Y-6464358D01*
X18818283Y-6572192D01*
X18926117Y-6572192D01*
X19243617Y-8731192D02*
X19243617Y-8623358D01*
X19135783Y-8623358D01*
X19135783Y-8731192D01*
X19243617Y-8731192D01*
X19402367Y-12287192D02*
X19402367Y-12179358D01*
X19294533Y-12179358D01*
X19294533Y-12287192D01*
X19402367Y-12287192D01*
X19719867Y-10636192D02*
X19719867Y-10528358D01*
X19612033Y-10528358D01*
X19612033Y-10636192D01*
X19719867Y-10636192D01*
X19878617Y-8477192D02*
X19878617Y-8369358D01*
X19770783Y-8369358D01*
X19770783Y-8477192D01*
X19878617Y-8477192D01*
X20196117Y-6826192D02*
X20196117Y-6718358D01*
X20088283Y-6718358D01*
X20088283Y-6826192D01*
X20196117Y-6826192D01*
X20354867Y-10382192D02*
X20354867Y-10274358D01*
X20247033Y-10274358D01*
X20247033Y-10382192D01*
X20354867Y-10382192D01*
X20672367Y-12541192D02*
X20672367Y-12433358D01*
X20564533Y-12433358D01*
X20564533Y-12541192D01*
X20672367Y-12541192D01*
X20831117Y-6572192D02*
X20831117Y-6464358D01*
X20723283Y-6464358D01*
X20723283Y-6572192D01*
X20831117Y-6572192D01*
X21307367Y-12287192D02*
X21307367Y-12179358D01*
X21199533Y-12179358D01*
X21199533Y-12287192D01*
X21307367Y-12287192D01*
X21624867Y-10636192D02*
X21624867Y-10528358D01*
X21517033Y-10528358D01*
X21517033Y-10636192D01*
X21624867Y-10636192D01*
X22062917Y-8484917D02*
X22062917Y-8377083D01*
X21955083Y-8377083D01*
X21955083Y-8484917D01*
X22062917Y-8484917D01*
X22101117Y-6826192D02*
X22101117Y-6718358D01*
X21993283Y-6718358D01*
X21993283Y-6826192D01*
X22101117Y-6826192D01*
X22259867Y-10382192D02*
X22259867Y-10274358D01*
X22152033Y-10274358D01*
X22152033Y-10382192D01*
X22259867Y-10382192D01*
X22577367Y-12541192D02*
X22577367Y-12433358D01*
X22469533Y-12433358D01*
X22469533Y-12541192D01*
X22577367Y-12541192D01*
X22697917Y-8230917D02*
X22697917Y-8123083D01*
X22590083Y-8123083D01*
X22590083Y-8230917D01*
X22697917Y-8230917D01*
X22736117Y-6572192D02*
X22736117Y-6464358D01*
X22628283Y-6464358D01*
X22628283Y-6572192D01*
X22736117Y-6572192D01*
X23053617Y-8731192D02*
X23053617Y-8623358D01*
X22945783Y-8623358D01*
X22945783Y-8731192D01*
X23053617Y-8731192D01*
X23212367Y-12287192D02*
X23212367Y-12179358D01*
X23104533Y-12179358D01*
X23104533Y-12287192D01*
X23212367Y-12287192D01*
X23529867Y-10636192D02*
X23529867Y-10528358D01*
X23422033Y-10528358D01*
X23422033Y-10636192D01*
X23529867Y-10636192D01*
X23688617Y-8477192D02*
X23688617Y-8369358D01*
X23580783Y-8369358D01*
X23580783Y-8477192D01*
X23688617Y-8477192D01*
X24006117Y-6826192D02*
X24006117Y-6718358D01*
X23898283Y-6718358D01*
X23898283Y-6826192D01*
X24006117Y-6826192D01*
X24164867Y-10382192D02*
X24164867Y-10274358D01*
X24057033Y-10274358D01*
X24057033Y-10382192D01*
X24164867Y-10382192D01*
X24482367Y-12541192D02*
X24482367Y-12433358D01*
X24374533Y-12433358D01*
X24374533Y-12541192D01*
X24482367Y-12541192D01*
X24641117Y-6572192D02*
X24641117Y-6464358D01*
X24533283Y-6464358D01*
X24533283Y-6572192D01*
X24641117Y-6572192D01*
X24958617Y-8731192D02*
X24958617Y-8623358D01*
X24850783Y-8623358D01*
X24850783Y-8731192D01*
X24958617Y-8731192D01*
X25117367Y-12287192D02*
X25117367Y-12179358D01*
X25009533Y-12179358D01*
X25009533Y-12287192D01*
X25117367Y-12287192D01*
X25434867Y-10636192D02*
X25434867Y-10528358D01*
X25327033Y-10528358D01*
X25327033Y-10636192D01*
X25434867Y-10636192D01*
X25593617Y-8477192D02*
X25593617Y-8369358D01*
X25485783Y-8369358D01*
X25485783Y-8477192D01*
X25593617Y-8477192D01*
X25911117Y-6826192D02*
X25911117Y-6718358D01*
X25803283Y-6718358D01*
X25803283Y-6826192D01*
X25911117Y-6826192D01*
X26069867Y-10382192D02*
X26069867Y-10274358D01*
X25962033Y-10274358D01*
X25962033Y-10382192D01*
X26069867Y-10382192D01*
X26387367Y-12541192D02*
X26387367Y-12433358D01*
X26279533Y-12433358D01*
X26279533Y-12541192D01*
X26387367Y-12541192D01*
X26546117Y-6572192D02*
X26546117Y-6464358D01*
X26438283Y-6464358D01*
X26438283Y-6572192D01*
X26546117Y-6572192D01*
X26863617Y-8731192D02*
X26863617Y-8623358D01*
X26755783Y-8623358D01*
X26755783Y-8731192D01*
X26863617Y-8731192D01*
X27022367Y-12287192D02*
X27022367Y-12179358D01*
X26914533Y-12179358D01*
X26914533Y-12287192D01*
X27022367Y-12287192D01*
X27339867Y-10636192D02*
X27339867Y-10528358D01*
X27232033Y-10528358D01*
X27232033Y-10636192D01*
X27339867Y-10636192D01*
X27498617Y-8477192D02*
X27498617Y-8369358D01*
X27390783Y-8369358D01*
X27390783Y-8477192D01*
X27498617Y-8477192D01*
X27816117Y-6826192D02*
X27816117Y-6718358D01*
X27708283Y-6718358D01*
X27708283Y-6826192D01*
X27816117Y-6826192D01*
X27974867Y-10382192D02*
X27974867Y-10274358D01*
X27867033Y-10274358D01*
X27867033Y-10382192D01*
X27974867Y-10382192D01*
X28451117Y-6572192D02*
X28451117Y-6464358D01*
X28343283Y-6464358D01*
X28343283Y-6572192D01*
X28451117Y-6572192D01*
X28768617Y-8731192D02*
X28768617Y-8623358D01*
X28660783Y-8623358D01*
X28660783Y-8731192D01*
X28768617Y-8731192D01*
X29403617Y-8477192D02*
X29403617Y-8369358D01*
X29295783Y-8369358D01*
X29295783Y-8477192D01*
X29403617Y-8477192D01*
D16*
X18916875Y-6244225D02*
X19031875Y-6129225D01*
X18916875Y-6014225D01*
X18801875Y-6129225D01*
X18916875Y-6244225D01*
X20230875Y-6244225D02*
X20345875Y-6129225D01*
X20230875Y-6014225D01*
X20115875Y-6129225D01*
X20230875Y-6244225D01*
D11*
X4345194Y-16152376D02*
X4345194Y-15952376D01*
X4392813Y-15952376D01*
X4421385Y-15961900D01*
X4440432Y-15980948D01*
X4449956Y-15999995D01*
X4459480Y-16038090D01*
X4459480Y-16066662D01*
X4449956Y-16104757D01*
X4440432Y-16123805D01*
X4421385Y-16142852D01*
X4392813Y-16152376D01*
X4345194Y-16152376D01*
X4545194Y-16152376D02*
X4545194Y-16019043D01*
X4545194Y-16057138D02*
X4554718Y-16038090D01*
X4564242Y-16028567D01*
X4583289Y-16019043D01*
X4602337Y-16019043D01*
X4669004Y-16152376D02*
X4669004Y-16019043D01*
X4669004Y-15952376D02*
X4659480Y-15961900D01*
X4669004Y-15971424D01*
X4678527Y-15961900D01*
X4669004Y-15952376D01*
X4669004Y-15971424D01*
X4792813Y-16152376D02*
X4773765Y-16142852D01*
X4764242Y-16123805D01*
X4764242Y-15952376D01*
X4897575Y-16152376D02*
X4878527Y-16142852D01*
X4869004Y-16123805D01*
X4869004Y-15952376D01*
X5126146Y-16152376D02*
X5126146Y-15952376D01*
X5192813Y-16095233D01*
X5259480Y-15952376D01*
X5259480Y-16152376D01*
X5440432Y-16152376D02*
X5440432Y-16047614D01*
X5430908Y-16028567D01*
X5411861Y-16019043D01*
X5373765Y-16019043D01*
X5354718Y-16028567D01*
X5440432Y-16142852D02*
X5421385Y-16152376D01*
X5373765Y-16152376D01*
X5354718Y-16142852D01*
X5345194Y-16123805D01*
X5345194Y-16104757D01*
X5354718Y-16085709D01*
X5373765Y-16076186D01*
X5421385Y-16076186D01*
X5440432Y-16066662D01*
X5535670Y-16019043D02*
X5535670Y-16219043D01*
X5535670Y-16028567D02*
X5554718Y-16019043D01*
X5592813Y-16019043D01*
X5611861Y-16028567D01*
X5621384Y-16038090D01*
X5630908Y-16057138D01*
X5630908Y-16114281D01*
X5621384Y-16133328D01*
X5611861Y-16142852D01*
X5592813Y-16152376D01*
X5554718Y-16152376D01*
X5535670Y-16142852D01*
X5716623Y-16133328D02*
X5726146Y-16142852D01*
X5716623Y-16152376D01*
X5707099Y-16142852D01*
X5716623Y-16133328D01*
X5716623Y-16152376D01*
X5716623Y-16028567D02*
X5726146Y-16038090D01*
X5716623Y-16047614D01*
X5707099Y-16038090D01*
X5716623Y-16028567D01*
X5716623Y-16047614D01*
D12*
X4047575Y-16461900D02*
X4087575Y-16501900D01*
X4087575Y-16461900D02*
X4047575Y-16501900D01*
D11*
X4383289Y-16372376D02*
X4402337Y-16372376D01*
X4421385Y-16381900D01*
X4430908Y-16391424D01*
X4440432Y-16410471D01*
X4449956Y-16448567D01*
X4449956Y-16496186D01*
X4440432Y-16534281D01*
X4430908Y-16553328D01*
X4421385Y-16562852D01*
X4402337Y-16572376D01*
X4383289Y-16572376D01*
X4364242Y-16562852D01*
X4354718Y-16553328D01*
X4345194Y-16534281D01*
X4335670Y-16496186D01*
X4335670Y-16448567D01*
X4345194Y-16410471D01*
X4354718Y-16391424D01*
X4364242Y-16381900D01*
X4383289Y-16372376D01*
X4535670Y-16553328D02*
X4545194Y-16562852D01*
X4535670Y-16572376D01*
X4526146Y-16562852D01*
X4535670Y-16553328D01*
X4535670Y-16572376D01*
X4716623Y-16439043D02*
X4716623Y-16572376D01*
X4669004Y-16362852D02*
X4621385Y-16505709D01*
X4745194Y-16505709D01*
X4859480Y-16372376D02*
X4878527Y-16372376D01*
X4897575Y-16381900D01*
X4907099Y-16391424D01*
X4916623Y-16410471D01*
X4926146Y-16448567D01*
X4926146Y-16496186D01*
X4916623Y-16534281D01*
X4907099Y-16553328D01*
X4897575Y-16562852D01*
X4878527Y-16572376D01*
X4859480Y-16572376D01*
X4840432Y-16562852D01*
X4830908Y-16553328D01*
X4821385Y-16534281D01*
X4811861Y-16496186D01*
X4811861Y-16448567D01*
X4821385Y-16410471D01*
X4830908Y-16391424D01*
X4840432Y-16381900D01*
X4859480Y-16372376D01*
X5049956Y-16372376D02*
X5069004Y-16372376D01*
X5088051Y-16381900D01*
X5097575Y-16391424D01*
X5107099Y-16410471D01*
X5116623Y-16448567D01*
X5116623Y-16496186D01*
X5107099Y-16534281D01*
X5097575Y-16553328D01*
X5088051Y-16562852D01*
X5069004Y-16572376D01*
X5049956Y-16572376D01*
X5030908Y-16562852D01*
X5021385Y-16553328D01*
X5011861Y-16534281D01*
X5002337Y-16496186D01*
X5002337Y-16448567D01*
X5011861Y-16410471D01*
X5021385Y-16391424D01*
X5030908Y-16381900D01*
X5049956Y-16372376D01*
X5202337Y-16572376D02*
X5202337Y-16439043D01*
X5202337Y-16458090D02*
X5211861Y-16448567D01*
X5230908Y-16439043D01*
X5259480Y-16439043D01*
X5278527Y-16448567D01*
X5288051Y-16467614D01*
X5288051Y-16572376D01*
X5288051Y-16467614D02*
X5297575Y-16448567D01*
X5316623Y-16439043D01*
X5345194Y-16439043D01*
X5364242Y-16448567D01*
X5373765Y-16467614D01*
X5373765Y-16572376D01*
X5469004Y-16572376D02*
X5469004Y-16439043D01*
X5469004Y-16458090D02*
X5478527Y-16448567D01*
X5497575Y-16439043D01*
X5526146Y-16439043D01*
X5545194Y-16448567D01*
X5554718Y-16467614D01*
X5554718Y-16572376D01*
X5554718Y-16467614D02*
X5564242Y-16448567D01*
X5583289Y-16439043D01*
X5611861Y-16439043D01*
X5630908Y-16448567D01*
X5640432Y-16467614D01*
X5640432Y-16572376D01*
X6030908Y-16362852D02*
X5859480Y-16619995D01*
X6288051Y-16372376D02*
X6307099Y-16372376D01*
X6326146Y-16381900D01*
X6335670Y-16391424D01*
X6345194Y-16410471D01*
X6354718Y-16448567D01*
X6354718Y-16496186D01*
X6345194Y-16534281D01*
X6335670Y-16553328D01*
X6326146Y-16562852D01*
X6307099Y-16572376D01*
X6288051Y-16572376D01*
X6269003Y-16562852D01*
X6259480Y-16553328D01*
X6249956Y-16534281D01*
X6240432Y-16496186D01*
X6240432Y-16448567D01*
X6249956Y-16410471D01*
X6259480Y-16391424D01*
X6269003Y-16381900D01*
X6288051Y-16372376D01*
X6440432Y-16553328D02*
X6449956Y-16562852D01*
X6440432Y-16572376D01*
X6430908Y-16562852D01*
X6440432Y-16553328D01*
X6440432Y-16572376D01*
X6573765Y-16372376D02*
X6592813Y-16372376D01*
X6611861Y-16381900D01*
X6621384Y-16391424D01*
X6630908Y-16410471D01*
X6640432Y-16448567D01*
X6640432Y-16496186D01*
X6630908Y-16534281D01*
X6621384Y-16553328D01*
X6611861Y-16562852D01*
X6592813Y-16572376D01*
X6573765Y-16572376D01*
X6554718Y-16562852D01*
X6545194Y-16553328D01*
X6535670Y-16534281D01*
X6526146Y-16496186D01*
X6526146Y-16448567D01*
X6535670Y-16410471D01*
X6545194Y-16391424D01*
X6554718Y-16381900D01*
X6573765Y-16372376D01*
X6830908Y-16572376D02*
X6716623Y-16572376D01*
X6773765Y-16572376D02*
X6773765Y-16372376D01*
X6754718Y-16400948D01*
X6735670Y-16419995D01*
X6716623Y-16429519D01*
X7011861Y-16372376D02*
X6916623Y-16372376D01*
X6907099Y-16467614D01*
X6916623Y-16458090D01*
X6935670Y-16448567D01*
X6983289Y-16448567D01*
X7002337Y-16458090D01*
X7011861Y-16467614D01*
X7021384Y-16486662D01*
X7021384Y-16534281D01*
X7011861Y-16553328D01*
X7002337Y-16562852D01*
X6983289Y-16572376D01*
X6935670Y-16572376D01*
X6916623Y-16562852D01*
X6907099Y-16553328D01*
X7088051Y-16372376D02*
X7221384Y-16372376D01*
X7135670Y-16572376D01*
X7288051Y-16372376D02*
X7288051Y-16410471D01*
X7364242Y-16372376D02*
X7364242Y-16410471D01*
X7659480Y-16648567D02*
X7649956Y-16639043D01*
X7630908Y-16610471D01*
X7621384Y-16591424D01*
X7611861Y-16562852D01*
X7602337Y-16515233D01*
X7602337Y-16477138D01*
X7611861Y-16429519D01*
X7621384Y-16400948D01*
X7630908Y-16381900D01*
X7649956Y-16353328D01*
X7659480Y-16343805D01*
X7821384Y-16372376D02*
X7783289Y-16372376D01*
X7764242Y-16381900D01*
X7754718Y-16391424D01*
X7735670Y-16419995D01*
X7726146Y-16458090D01*
X7726146Y-16534281D01*
X7735670Y-16553328D01*
X7745194Y-16562852D01*
X7764242Y-16572376D01*
X7802337Y-16572376D01*
X7821384Y-16562852D01*
X7830908Y-16553328D01*
X7840432Y-16534281D01*
X7840432Y-16486662D01*
X7830908Y-16467614D01*
X7821384Y-16458090D01*
X7802337Y-16448567D01*
X7764242Y-16448567D01*
X7745194Y-16458090D01*
X7735670Y-16467614D01*
X7726146Y-16486662D01*
X8011861Y-16439043D02*
X8011861Y-16572376D01*
X7964242Y-16362852D02*
X7916623Y-16505709D01*
X8040432Y-16505709D01*
X8269003Y-16572376D02*
X8269003Y-16372376D01*
X8354718Y-16572376D02*
X8354718Y-16467614D01*
X8345194Y-16448567D01*
X8326146Y-16439043D01*
X8297575Y-16439043D01*
X8278527Y-16448567D01*
X8269003Y-16458090D01*
X8478527Y-16572376D02*
X8459480Y-16562852D01*
X8449956Y-16553328D01*
X8440432Y-16534281D01*
X8440432Y-16477138D01*
X8449956Y-16458090D01*
X8459480Y-16448567D01*
X8478527Y-16439043D01*
X8507099Y-16439043D01*
X8526146Y-16448567D01*
X8535670Y-16458090D01*
X8545194Y-16477138D01*
X8545194Y-16534281D01*
X8535670Y-16553328D01*
X8526146Y-16562852D01*
X8507099Y-16572376D01*
X8478527Y-16572376D01*
X8659480Y-16572376D02*
X8640432Y-16562852D01*
X8630908Y-16543805D01*
X8630908Y-16372376D01*
X8811861Y-16562852D02*
X8792813Y-16572376D01*
X8754718Y-16572376D01*
X8735670Y-16562852D01*
X8726146Y-16543805D01*
X8726146Y-16467614D01*
X8735670Y-16448567D01*
X8754718Y-16439043D01*
X8792813Y-16439043D01*
X8811861Y-16448567D01*
X8821385Y-16467614D01*
X8821385Y-16486662D01*
X8726146Y-16505709D01*
X8897575Y-16562852D02*
X8916623Y-16572376D01*
X8954718Y-16572376D01*
X8973765Y-16562852D01*
X8983289Y-16543805D01*
X8983289Y-16534281D01*
X8973765Y-16515233D01*
X8954718Y-16505709D01*
X8926146Y-16505709D01*
X8907099Y-16496186D01*
X8897575Y-16477138D01*
X8897575Y-16467614D01*
X8907099Y-16448567D01*
X8926146Y-16439043D01*
X8954718Y-16439043D01*
X8973765Y-16448567D01*
X9049956Y-16648567D02*
X9059480Y-16639043D01*
X9078527Y-16610471D01*
X9088051Y-16591424D01*
X9097575Y-16562852D01*
X9107099Y-16515233D01*
X9107099Y-16477138D01*
X9097575Y-16429519D01*
X9088051Y-16400948D01*
X9078527Y-16381900D01*
X9059480Y-16353328D01*
X9049956Y-16343805D01*
D13*
X4087575Y-16745900D02*
G75*
G03*
X4087575Y-16745900I-47500J0D01*
G01*
D11*
X4383289Y-16636376D02*
X4402337Y-16636376D01*
X4421385Y-16645900D01*
X4430908Y-16655424D01*
X4440432Y-16674471D01*
X4449956Y-16712567D01*
X4449956Y-16760186D01*
X4440432Y-16798281D01*
X4430908Y-16817329D01*
X4421385Y-16826852D01*
X4402337Y-16836376D01*
X4383289Y-16836376D01*
X4364242Y-16826852D01*
X4354718Y-16817329D01*
X4345194Y-16798281D01*
X4335670Y-16760186D01*
X4335670Y-16712567D01*
X4345194Y-16674471D01*
X4354718Y-16655424D01*
X4364242Y-16645900D01*
X4383289Y-16636376D01*
X4535670Y-16817329D02*
X4545194Y-16826852D01*
X4535670Y-16836376D01*
X4526146Y-16826852D01*
X4535670Y-16817329D01*
X4535670Y-16836376D01*
X4640432Y-16836376D02*
X4678527Y-16836376D01*
X4697575Y-16826852D01*
X4707099Y-16817329D01*
X4726146Y-16788757D01*
X4735670Y-16750662D01*
X4735670Y-16674471D01*
X4726146Y-16655424D01*
X4716623Y-16645900D01*
X4697575Y-16636376D01*
X4659480Y-16636376D01*
X4640432Y-16645900D01*
X4630908Y-16655424D01*
X4621385Y-16674471D01*
X4621385Y-16722090D01*
X4630908Y-16741138D01*
X4640432Y-16750662D01*
X4659480Y-16760186D01*
X4697575Y-16760186D01*
X4716623Y-16750662D01*
X4726146Y-16741138D01*
X4735670Y-16722090D01*
X4916623Y-16636376D02*
X4821385Y-16636376D01*
X4811861Y-16731614D01*
X4821385Y-16722090D01*
X4840432Y-16712567D01*
X4888051Y-16712567D01*
X4907099Y-16722090D01*
X4916623Y-16731614D01*
X4926146Y-16750662D01*
X4926146Y-16798281D01*
X4916623Y-16817329D01*
X4907099Y-16826852D01*
X4888051Y-16836376D01*
X4840432Y-16836376D01*
X4821385Y-16826852D01*
X4811861Y-16817329D01*
X5049956Y-16636376D02*
X5069004Y-16636376D01*
X5088051Y-16645900D01*
X5097575Y-16655424D01*
X5107099Y-16674471D01*
X5116623Y-16712567D01*
X5116623Y-16760186D01*
X5107099Y-16798281D01*
X5097575Y-16817329D01*
X5088051Y-16826852D01*
X5069004Y-16836376D01*
X5049956Y-16836376D01*
X5030908Y-16826852D01*
X5021385Y-16817329D01*
X5011861Y-16798281D01*
X5002337Y-16760186D01*
X5002337Y-16712567D01*
X5011861Y-16674471D01*
X5021385Y-16655424D01*
X5030908Y-16645900D01*
X5049956Y-16636376D01*
X5202337Y-16836376D02*
X5202337Y-16703043D01*
X5202337Y-16722090D02*
X5211861Y-16712567D01*
X5230908Y-16703043D01*
X5259480Y-16703043D01*
X5278527Y-16712567D01*
X5288051Y-16731614D01*
X5288051Y-16836376D01*
X5288051Y-16731614D02*
X5297575Y-16712567D01*
X5316623Y-16703043D01*
X5345194Y-16703043D01*
X5364242Y-16712567D01*
X5373765Y-16731614D01*
X5373765Y-16836376D01*
X5469004Y-16836376D02*
X5469004Y-16703043D01*
X5469004Y-16722090D02*
X5478527Y-16712567D01*
X5497575Y-16703043D01*
X5526146Y-16703043D01*
X5545194Y-16712567D01*
X5554718Y-16731614D01*
X5554718Y-16836376D01*
X5554718Y-16731614D02*
X5564242Y-16712567D01*
X5583289Y-16703043D01*
X5611861Y-16703043D01*
X5630908Y-16712567D01*
X5640432Y-16731614D01*
X5640432Y-16836376D01*
X6030908Y-16626852D02*
X5859480Y-16883995D01*
X6288051Y-16636376D02*
X6307099Y-16636376D01*
X6326146Y-16645900D01*
X6335670Y-16655424D01*
X6345194Y-16674471D01*
X6354718Y-16712567D01*
X6354718Y-16760186D01*
X6345194Y-16798281D01*
X6335670Y-16817329D01*
X6326146Y-16826852D01*
X6307099Y-16836376D01*
X6288051Y-16836376D01*
X6269003Y-16826852D01*
X6259480Y-16817329D01*
X6249956Y-16798281D01*
X6240432Y-16760186D01*
X6240432Y-16712567D01*
X6249956Y-16674471D01*
X6259480Y-16655424D01*
X6269003Y-16645900D01*
X6288051Y-16636376D01*
X6440432Y-16817329D02*
X6449956Y-16826852D01*
X6440432Y-16836376D01*
X6430908Y-16826852D01*
X6440432Y-16817329D01*
X6440432Y-16836376D01*
X6573765Y-16636376D02*
X6592813Y-16636376D01*
X6611861Y-16645900D01*
X6621384Y-16655424D01*
X6630908Y-16674471D01*
X6640432Y-16712567D01*
X6640432Y-16760186D01*
X6630908Y-16798281D01*
X6621384Y-16817329D01*
X6611861Y-16826852D01*
X6592813Y-16836376D01*
X6573765Y-16836376D01*
X6554718Y-16826852D01*
X6545194Y-16817329D01*
X6535670Y-16798281D01*
X6526146Y-16760186D01*
X6526146Y-16712567D01*
X6535670Y-16674471D01*
X6545194Y-16655424D01*
X6554718Y-16645900D01*
X6573765Y-16636376D01*
X6707099Y-16636376D02*
X6830908Y-16636376D01*
X6764242Y-16712567D01*
X6792813Y-16712567D01*
X6811861Y-16722090D01*
X6821384Y-16731614D01*
X6830908Y-16750662D01*
X6830908Y-16798281D01*
X6821384Y-16817329D01*
X6811861Y-16826852D01*
X6792813Y-16836376D01*
X6735670Y-16836376D01*
X6716623Y-16826852D01*
X6707099Y-16817329D01*
X6897575Y-16636376D02*
X7030908Y-16636376D01*
X6945194Y-16836376D01*
X7192813Y-16703043D02*
X7192813Y-16836376D01*
X7145194Y-16626852D02*
X7097575Y-16769709D01*
X7221384Y-16769709D01*
X7288051Y-16636376D02*
X7288051Y-16674471D01*
X7364242Y-16636376D02*
X7364242Y-16674471D01*
X7659480Y-16912567D02*
X7649956Y-16903043D01*
X7630908Y-16874471D01*
X7621384Y-16855424D01*
X7611861Y-16826852D01*
X7602337Y-16779233D01*
X7602337Y-16741138D01*
X7611861Y-16693519D01*
X7621384Y-16664948D01*
X7630908Y-16645900D01*
X7649956Y-16617328D01*
X7659480Y-16607805D01*
X7821384Y-16703043D02*
X7821384Y-16836376D01*
X7773765Y-16626852D02*
X7726146Y-16769709D01*
X7849956Y-16769709D01*
X8078527Y-16836376D02*
X8078527Y-16636376D01*
X8164242Y-16836376D02*
X8164242Y-16731614D01*
X8154718Y-16712567D01*
X8135670Y-16703043D01*
X8107099Y-16703043D01*
X8088051Y-16712567D01*
X8078527Y-16722090D01*
X8288051Y-16836376D02*
X8269003Y-16826852D01*
X8259480Y-16817329D01*
X8249956Y-16798281D01*
X8249956Y-16741138D01*
X8259480Y-16722090D01*
X8269003Y-16712567D01*
X8288051Y-16703043D01*
X8316623Y-16703043D01*
X8335670Y-16712567D01*
X8345194Y-16722090D01*
X8354718Y-16741138D01*
X8354718Y-16798281D01*
X8345194Y-16817329D01*
X8335670Y-16826852D01*
X8316623Y-16836376D01*
X8288051Y-16836376D01*
X8469004Y-16836376D02*
X8449956Y-16826852D01*
X8440432Y-16807805D01*
X8440432Y-16636376D01*
X8621385Y-16826852D02*
X8602337Y-16836376D01*
X8564242Y-16836376D01*
X8545194Y-16826852D01*
X8535670Y-16807805D01*
X8535670Y-16731614D01*
X8545194Y-16712567D01*
X8564242Y-16703043D01*
X8602337Y-16703043D01*
X8621385Y-16712567D01*
X8630908Y-16731614D01*
X8630908Y-16750662D01*
X8535670Y-16769709D01*
X8707099Y-16826852D02*
X8726146Y-16836376D01*
X8764242Y-16836376D01*
X8783289Y-16826852D01*
X8792813Y-16807805D01*
X8792813Y-16798281D01*
X8783289Y-16779233D01*
X8764242Y-16769709D01*
X8735670Y-16769709D01*
X8716623Y-16760186D01*
X8707099Y-16741138D01*
X8707099Y-16731614D01*
X8716623Y-16712567D01*
X8735670Y-16703043D01*
X8764242Y-16703043D01*
X8783289Y-16712567D01*
X8859480Y-16912567D02*
X8869004Y-16903043D01*
X8888051Y-16874471D01*
X8897575Y-16855424D01*
X8907099Y-16826852D01*
X8916623Y-16779233D01*
X8916623Y-16741138D01*
X8907099Y-16693519D01*
X8897575Y-16664948D01*
X8888051Y-16645900D01*
X8869004Y-16617328D01*
X8859480Y-16607805D01*
D14*
X4011375Y-16933700D02*
X4011375Y-17086100D01*
X3935175Y-17009900D02*
X4087575Y-17009900D01*
D11*
X4449956Y-17100376D02*
X4335670Y-17100376D01*
X4392813Y-17100376D02*
X4392813Y-16900376D01*
X4373765Y-16928948D01*
X4354718Y-16947995D01*
X4335670Y-16957519D01*
X4535670Y-17081329D02*
X4545194Y-17090852D01*
X4535670Y-17100376D01*
X4526146Y-17090852D01*
X4535670Y-17081329D01*
X4535670Y-17100376D01*
X4726146Y-16900376D02*
X4630908Y-16900376D01*
X4621385Y-16995614D01*
X4630908Y-16986090D01*
X4649956Y-16976567D01*
X4697575Y-16976567D01*
X4716623Y-16986090D01*
X4726146Y-16995614D01*
X4735670Y-17014662D01*
X4735670Y-17062281D01*
X4726146Y-17081329D01*
X4716623Y-17090852D01*
X4697575Y-17100376D01*
X4649956Y-17100376D01*
X4630908Y-17090852D01*
X4621385Y-17081329D01*
X4811861Y-16919424D02*
X4821385Y-16909900D01*
X4840432Y-16900376D01*
X4888051Y-16900376D01*
X4907099Y-16909900D01*
X4916623Y-16919424D01*
X4926146Y-16938471D01*
X4926146Y-16957519D01*
X4916623Y-16986090D01*
X4802337Y-17100376D01*
X4926146Y-17100376D01*
X5097575Y-16967043D02*
X5097575Y-17100376D01*
X5049956Y-16890852D02*
X5002337Y-17033710D01*
X5126146Y-17033710D01*
X5202337Y-17100376D02*
X5202337Y-16967043D01*
X5202337Y-16986090D02*
X5211861Y-16976567D01*
X5230908Y-16967043D01*
X5259480Y-16967043D01*
X5278527Y-16976567D01*
X5288051Y-16995614D01*
X5288051Y-17100376D01*
X5288051Y-16995614D02*
X5297575Y-16976567D01*
X5316623Y-16967043D01*
X5345194Y-16967043D01*
X5364242Y-16976567D01*
X5373765Y-16995614D01*
X5373765Y-17100376D01*
X5469004Y-17100376D02*
X5469004Y-16967043D01*
X5469004Y-16986090D02*
X5478527Y-16976567D01*
X5497575Y-16967043D01*
X5526146Y-16967043D01*
X5545194Y-16976567D01*
X5554718Y-16995614D01*
X5554718Y-17100376D01*
X5554718Y-16995614D02*
X5564242Y-16976567D01*
X5583289Y-16967043D01*
X5611861Y-16967043D01*
X5630908Y-16976567D01*
X5640432Y-16995614D01*
X5640432Y-17100376D01*
X6030908Y-16890852D02*
X5859480Y-17147995D01*
X6288051Y-16900376D02*
X6307099Y-16900376D01*
X6326146Y-16909900D01*
X6335670Y-16919424D01*
X6345194Y-16938471D01*
X6354718Y-16976567D01*
X6354718Y-17024186D01*
X6345194Y-17062281D01*
X6335670Y-17081329D01*
X6326146Y-17090852D01*
X6307099Y-17100376D01*
X6288051Y-17100376D01*
X6269003Y-17090852D01*
X6259480Y-17081329D01*
X6249956Y-17062281D01*
X6240432Y-17024186D01*
X6240432Y-16976567D01*
X6249956Y-16938471D01*
X6259480Y-16919424D01*
X6269003Y-16909900D01*
X6288051Y-16900376D01*
X6440432Y-17081329D02*
X6449956Y-17090852D01*
X6440432Y-17100376D01*
X6430908Y-17090852D01*
X6440432Y-17081329D01*
X6440432Y-17100376D01*
X6573765Y-16900376D02*
X6592813Y-16900376D01*
X6611861Y-16909900D01*
X6621384Y-16919424D01*
X6630908Y-16938471D01*
X6640432Y-16976567D01*
X6640432Y-17024186D01*
X6630908Y-17062281D01*
X6621384Y-17081329D01*
X6611861Y-17090852D01*
X6592813Y-17100376D01*
X6573765Y-17100376D01*
X6554718Y-17090852D01*
X6545194Y-17081329D01*
X6535670Y-17062281D01*
X6526146Y-17024186D01*
X6526146Y-16976567D01*
X6535670Y-16938471D01*
X6545194Y-16919424D01*
X6554718Y-16909900D01*
X6573765Y-16900376D01*
X6811861Y-16900376D02*
X6773765Y-16900376D01*
X6754718Y-16909900D01*
X6745194Y-16919424D01*
X6726146Y-16947995D01*
X6716623Y-16986090D01*
X6716623Y-17062281D01*
X6726146Y-17081329D01*
X6735670Y-17090852D01*
X6754718Y-17100376D01*
X6792813Y-17100376D01*
X6811861Y-17090852D01*
X6821384Y-17081329D01*
X6830908Y-17062281D01*
X6830908Y-17014662D01*
X6821384Y-16995614D01*
X6811861Y-16986090D01*
X6792813Y-16976567D01*
X6754718Y-16976567D01*
X6735670Y-16986090D01*
X6726146Y-16995614D01*
X6716623Y-17014662D01*
X6954718Y-16900376D02*
X6973765Y-16900376D01*
X6992813Y-16909900D01*
X7002337Y-16919424D01*
X7011861Y-16938471D01*
X7021384Y-16976567D01*
X7021384Y-17024186D01*
X7011861Y-17062281D01*
X7002337Y-17081329D01*
X6992813Y-17090852D01*
X6973765Y-17100376D01*
X6954718Y-17100376D01*
X6935670Y-17090852D01*
X6926146Y-17081329D01*
X6916623Y-17062281D01*
X6907099Y-17024186D01*
X6907099Y-16976567D01*
X6916623Y-16938471D01*
X6926146Y-16919424D01*
X6935670Y-16909900D01*
X6954718Y-16900376D01*
X7145194Y-16900376D02*
X7164242Y-16900376D01*
X7183289Y-16909900D01*
X7192813Y-16919424D01*
X7202337Y-16938471D01*
X7211861Y-16976567D01*
X7211861Y-17024186D01*
X7202337Y-17062281D01*
X7192813Y-17081329D01*
X7183289Y-17090852D01*
X7164242Y-17100376D01*
X7145194Y-17100376D01*
X7126146Y-17090852D01*
X7116623Y-17081329D01*
X7107099Y-17062281D01*
X7097575Y-17024186D01*
X7097575Y-16976567D01*
X7107099Y-16938471D01*
X7116623Y-16919424D01*
X7126146Y-16909900D01*
X7145194Y-16900376D01*
X7288051Y-16900376D02*
X7288051Y-16938471D01*
X7364242Y-16900376D02*
X7364242Y-16938471D01*
X7659480Y-17176567D02*
X7649956Y-17167043D01*
X7630908Y-17138471D01*
X7621384Y-17119424D01*
X7611861Y-17090852D01*
X7602337Y-17043233D01*
X7602337Y-17005138D01*
X7611861Y-16957519D01*
X7621384Y-16928948D01*
X7630908Y-16909900D01*
X7649956Y-16881329D01*
X7659480Y-16871805D01*
X7716623Y-16900376D02*
X7840432Y-16900376D01*
X7773765Y-16976567D01*
X7802337Y-16976567D01*
X7821384Y-16986090D01*
X7830908Y-16995614D01*
X7840432Y-17014662D01*
X7840432Y-17062281D01*
X7830908Y-17081329D01*
X7821384Y-17090852D01*
X7802337Y-17100376D01*
X7745194Y-17100376D01*
X7726146Y-17090852D01*
X7716623Y-17081329D01*
X7964242Y-16900376D02*
X7983289Y-16900376D01*
X8002337Y-16909900D01*
X8011861Y-16919424D01*
X8021384Y-16938471D01*
X8030908Y-16976567D01*
X8030908Y-17024186D01*
X8021384Y-17062281D01*
X8011861Y-17081329D01*
X8002337Y-17090852D01*
X7983289Y-17100376D01*
X7964242Y-17100376D01*
X7945194Y-17090852D01*
X7935670Y-17081329D01*
X7926146Y-17062281D01*
X7916623Y-17024186D01*
X7916623Y-16976567D01*
X7926146Y-16938471D01*
X7935670Y-16919424D01*
X7945194Y-16909900D01*
X7964242Y-16900376D01*
X8269003Y-17100376D02*
X8269003Y-16900376D01*
X8354718Y-17100376D02*
X8354718Y-16995614D01*
X8345194Y-16976567D01*
X8326146Y-16967043D01*
X8297575Y-16967043D01*
X8278527Y-16976567D01*
X8269003Y-16986090D01*
X8478527Y-17100376D02*
X8459480Y-17090852D01*
X8449956Y-17081329D01*
X8440432Y-17062281D01*
X8440432Y-17005138D01*
X8449956Y-16986090D01*
X8459480Y-16976567D01*
X8478527Y-16967043D01*
X8507099Y-16967043D01*
X8526146Y-16976567D01*
X8535670Y-16986090D01*
X8545194Y-17005138D01*
X8545194Y-17062281D01*
X8535670Y-17081329D01*
X8526146Y-17090852D01*
X8507099Y-17100376D01*
X8478527Y-17100376D01*
X8659480Y-17100376D02*
X8640432Y-17090852D01*
X8630908Y-17071805D01*
X8630908Y-16900376D01*
X8811861Y-17090852D02*
X8792813Y-17100376D01*
X8754718Y-17100376D01*
X8735670Y-17090852D01*
X8726146Y-17071805D01*
X8726146Y-16995614D01*
X8735670Y-16976567D01*
X8754718Y-16967043D01*
X8792813Y-16967043D01*
X8811861Y-16976567D01*
X8821385Y-16995614D01*
X8821385Y-17014662D01*
X8726146Y-17033710D01*
X8897575Y-17090852D02*
X8916623Y-17100376D01*
X8954718Y-17100376D01*
X8973765Y-17090852D01*
X8983289Y-17071805D01*
X8983289Y-17062281D01*
X8973765Y-17043233D01*
X8954718Y-17033710D01*
X8926146Y-17033710D01*
X8907099Y-17024186D01*
X8897575Y-17005138D01*
X8897575Y-16995614D01*
X8907099Y-16976567D01*
X8926146Y-16967043D01*
X8954718Y-16967043D01*
X8973765Y-16976567D01*
X9049956Y-17176567D02*
X9059480Y-17167043D01*
X9078527Y-17138471D01*
X9088051Y-17119424D01*
X9097575Y-17090852D01*
X9107099Y-17043233D01*
X9107099Y-17005138D01*
X9097575Y-16957519D01*
X9088051Y-16928948D01*
X9078527Y-16909900D01*
X9059480Y-16881329D01*
X9049956Y-16871805D01*
D15*
X4065242Y-17336217D02*
X4065242Y-17228383D01*
X3957408Y-17228383D01*
X3957408Y-17336217D01*
X4065242Y-17336217D01*
D11*
X4449956Y-17372776D02*
X4335670Y-17372776D01*
X4392813Y-17372776D02*
X4392813Y-17172776D01*
X4373765Y-17201348D01*
X4354718Y-17220395D01*
X4335670Y-17229919D01*
X4535670Y-17353729D02*
X4545194Y-17363252D01*
X4535670Y-17372776D01*
X4526146Y-17363252D01*
X4535670Y-17353729D01*
X4535670Y-17372776D01*
X4726146Y-17172776D02*
X4630908Y-17172776D01*
X4621385Y-17268014D01*
X4630908Y-17258490D01*
X4649956Y-17248967D01*
X4697575Y-17248967D01*
X4716623Y-17258490D01*
X4726146Y-17268014D01*
X4735670Y-17287062D01*
X4735670Y-17334681D01*
X4726146Y-17353729D01*
X4716623Y-17363252D01*
X4697575Y-17372776D01*
X4649956Y-17372776D01*
X4630908Y-17363252D01*
X4621385Y-17353729D01*
X4811861Y-17191824D02*
X4821385Y-17182300D01*
X4840432Y-17172776D01*
X4888051Y-17172776D01*
X4907099Y-17182300D01*
X4916623Y-17191824D01*
X4926146Y-17210871D01*
X4926146Y-17229919D01*
X4916623Y-17258490D01*
X4802337Y-17372776D01*
X4926146Y-17372776D01*
X5107099Y-17172776D02*
X5011861Y-17172776D01*
X5002337Y-17268014D01*
X5011861Y-17258490D01*
X5030908Y-17248967D01*
X5078527Y-17248967D01*
X5097575Y-17258490D01*
X5107099Y-17268014D01*
X5116623Y-17287062D01*
X5116623Y-17334681D01*
X5107099Y-17353729D01*
X5097575Y-17363252D01*
X5078527Y-17372776D01*
X5030908Y-17372776D01*
X5011861Y-17363252D01*
X5002337Y-17353729D01*
X5202337Y-17372776D02*
X5202337Y-17239443D01*
X5202337Y-17258490D02*
X5211861Y-17248967D01*
X5230908Y-17239443D01*
X5259480Y-17239443D01*
X5278527Y-17248967D01*
X5288051Y-17268014D01*
X5288051Y-17372776D01*
X5288051Y-17268014D02*
X5297575Y-17248967D01*
X5316623Y-17239443D01*
X5345194Y-17239443D01*
X5364242Y-17248967D01*
X5373765Y-17268014D01*
X5373765Y-17372776D01*
X5469004Y-17372776D02*
X5469004Y-17239443D01*
X5469004Y-17258490D02*
X5478527Y-17248967D01*
X5497575Y-17239443D01*
X5526146Y-17239443D01*
X5545194Y-17248967D01*
X5554718Y-17268014D01*
X5554718Y-17372776D01*
X5554718Y-17268014D02*
X5564242Y-17248967D01*
X5583289Y-17239443D01*
X5611861Y-17239443D01*
X5630908Y-17248967D01*
X5640432Y-17268014D01*
X5640432Y-17372776D01*
X6030908Y-17163252D02*
X5859480Y-17420395D01*
X6288051Y-17172776D02*
X6307099Y-17172776D01*
X6326146Y-17182300D01*
X6335670Y-17191824D01*
X6345194Y-17210871D01*
X6354718Y-17248967D01*
X6354718Y-17296586D01*
X6345194Y-17334681D01*
X6335670Y-17353729D01*
X6326146Y-17363252D01*
X6307099Y-17372776D01*
X6288051Y-17372776D01*
X6269003Y-17363252D01*
X6259480Y-17353729D01*
X6249956Y-17334681D01*
X6240432Y-17296586D01*
X6240432Y-17248967D01*
X6249956Y-17210871D01*
X6259480Y-17191824D01*
X6269003Y-17182300D01*
X6288051Y-17172776D01*
X6440432Y-17353729D02*
X6449956Y-17363252D01*
X6440432Y-17372776D01*
X6430908Y-17363252D01*
X6440432Y-17353729D01*
X6440432Y-17372776D01*
X6573765Y-17172776D02*
X6592813Y-17172776D01*
X6611861Y-17182300D01*
X6621384Y-17191824D01*
X6630908Y-17210871D01*
X6640432Y-17248967D01*
X6640432Y-17296586D01*
X6630908Y-17334681D01*
X6621384Y-17353729D01*
X6611861Y-17363252D01*
X6592813Y-17372776D01*
X6573765Y-17372776D01*
X6554718Y-17363252D01*
X6545194Y-17353729D01*
X6535670Y-17334681D01*
X6526146Y-17296586D01*
X6526146Y-17248967D01*
X6535670Y-17210871D01*
X6545194Y-17191824D01*
X6554718Y-17182300D01*
X6573765Y-17172776D01*
X6811861Y-17172776D02*
X6773765Y-17172776D01*
X6754718Y-17182300D01*
X6745194Y-17191824D01*
X6726146Y-17220395D01*
X6716623Y-17258490D01*
X6716623Y-17334681D01*
X6726146Y-17353729D01*
X6735670Y-17363252D01*
X6754718Y-17372776D01*
X6792813Y-17372776D01*
X6811861Y-17363252D01*
X6821384Y-17353729D01*
X6830908Y-17334681D01*
X6830908Y-17287062D01*
X6821384Y-17268014D01*
X6811861Y-17258490D01*
X6792813Y-17248967D01*
X6754718Y-17248967D01*
X6735670Y-17258490D01*
X6726146Y-17268014D01*
X6716623Y-17287062D01*
X6954718Y-17172776D02*
X6973765Y-17172776D01*
X6992813Y-17182300D01*
X7002337Y-17191824D01*
X7011861Y-17210871D01*
X7021384Y-17248967D01*
X7021384Y-17296586D01*
X7011861Y-17334681D01*
X7002337Y-17353729D01*
X6992813Y-17363252D01*
X6973765Y-17372776D01*
X6954718Y-17372776D01*
X6935670Y-17363252D01*
X6926146Y-17353729D01*
X6916623Y-17334681D01*
X6907099Y-17296586D01*
X6907099Y-17248967D01*
X6916623Y-17210871D01*
X6926146Y-17191824D01*
X6935670Y-17182300D01*
X6954718Y-17172776D01*
X7145194Y-17172776D02*
X7164242Y-17172776D01*
X7183289Y-17182300D01*
X7192813Y-17191824D01*
X7202337Y-17210871D01*
X7211861Y-17248967D01*
X7211861Y-17296586D01*
X7202337Y-17334681D01*
X7192813Y-17353729D01*
X7183289Y-17363252D01*
X7164242Y-17372776D01*
X7145194Y-17372776D01*
X7126146Y-17363252D01*
X7116623Y-17353729D01*
X7107099Y-17334681D01*
X7097575Y-17296586D01*
X7097575Y-17248967D01*
X7107099Y-17210871D01*
X7116623Y-17191824D01*
X7126146Y-17182300D01*
X7145194Y-17172776D01*
X7288051Y-17172776D02*
X7288051Y-17210871D01*
X7364242Y-17172776D02*
X7364242Y-17210871D01*
X7659480Y-17448967D02*
X7649956Y-17439443D01*
X7630908Y-17410871D01*
X7621384Y-17391824D01*
X7611861Y-17363252D01*
X7602337Y-17315633D01*
X7602337Y-17277538D01*
X7611861Y-17229919D01*
X7621384Y-17201348D01*
X7630908Y-17182300D01*
X7649956Y-17153729D01*
X7659480Y-17144205D01*
X7745194Y-17372776D02*
X7783289Y-17372776D01*
X7802337Y-17363252D01*
X7811861Y-17353729D01*
X7830908Y-17325157D01*
X7840432Y-17287062D01*
X7840432Y-17210871D01*
X7830908Y-17191824D01*
X7821384Y-17182300D01*
X7802337Y-17172776D01*
X7764242Y-17172776D01*
X7745194Y-17182300D01*
X7735670Y-17191824D01*
X7726146Y-17210871D01*
X7726146Y-17258490D01*
X7735670Y-17277538D01*
X7745194Y-17287062D01*
X7764242Y-17296586D01*
X7802337Y-17296586D01*
X7821384Y-17287062D01*
X7830908Y-17277538D01*
X7840432Y-17258490D01*
X7916623Y-17191824D02*
X7926146Y-17182300D01*
X7945194Y-17172776D01*
X7992813Y-17172776D01*
X8011861Y-17182300D01*
X8021384Y-17191824D01*
X8030908Y-17210871D01*
X8030908Y-17229919D01*
X8021384Y-17258490D01*
X7907099Y-17372776D01*
X8030908Y-17372776D01*
X8269003Y-17372776D02*
X8269003Y-17172776D01*
X8354718Y-17372776D02*
X8354718Y-17268014D01*
X8345194Y-17248967D01*
X8326146Y-17239443D01*
X8297575Y-17239443D01*
X8278527Y-17248967D01*
X8269003Y-17258490D01*
X8478527Y-17372776D02*
X8459480Y-17363252D01*
X8449956Y-17353729D01*
X8440432Y-17334681D01*
X8440432Y-17277538D01*
X8449956Y-17258490D01*
X8459480Y-17248967D01*
X8478527Y-17239443D01*
X8507099Y-17239443D01*
X8526146Y-17248967D01*
X8535670Y-17258490D01*
X8545194Y-17277538D01*
X8545194Y-17334681D01*
X8535670Y-17353729D01*
X8526146Y-17363252D01*
X8507099Y-17372776D01*
X8478527Y-17372776D01*
X8659480Y-17372776D02*
X8640432Y-17363252D01*
X8630908Y-17344205D01*
X8630908Y-17172776D01*
X8811861Y-17363252D02*
X8792813Y-17372776D01*
X8754718Y-17372776D01*
X8735670Y-17363252D01*
X8726146Y-17344205D01*
X8726146Y-17268014D01*
X8735670Y-17248967D01*
X8754718Y-17239443D01*
X8792813Y-17239443D01*
X8811861Y-17248967D01*
X8821385Y-17268014D01*
X8821385Y-17287062D01*
X8726146Y-17306110D01*
X8897575Y-17363252D02*
X8916623Y-17372776D01*
X8954718Y-17372776D01*
X8973765Y-17363252D01*
X8983289Y-17344205D01*
X8983289Y-17334681D01*
X8973765Y-17315633D01*
X8954718Y-17306110D01*
X8926146Y-17306110D01*
X8907099Y-17296586D01*
X8897575Y-17277538D01*
X8897575Y-17268014D01*
X8907099Y-17248967D01*
X8926146Y-17239443D01*
X8954718Y-17239443D01*
X8973765Y-17248967D01*
X9049956Y-17448967D02*
X9059480Y-17439443D01*
X9078527Y-17410871D01*
X9088051Y-17391824D01*
X9097575Y-17363252D01*
X9107099Y-17315633D01*
X9107099Y-17277538D01*
X9097575Y-17229919D01*
X9088051Y-17201348D01*
X9078527Y-17182300D01*
X9059480Y-17153729D01*
X9049956Y-17144205D01*
X3987575Y-17654800D02*
X4087575Y-17554800D01*
X3987575Y-17454800D01*
X3887575Y-17554800D01*
X3987575Y-17654800D01*
X4335670Y-17464324D02*
X4345194Y-17454800D01*
X4364242Y-17445276D01*
X4411861Y-17445276D01*
X4430908Y-17454800D01*
X4440432Y-17464324D01*
X4449956Y-17483371D01*
X4449956Y-17502419D01*
X4440432Y-17530990D01*
X4326146Y-17645276D01*
X4449956Y-17645276D01*
X4535670Y-17626229D02*
X4545194Y-17635752D01*
X4535670Y-17645276D01*
X4526146Y-17635752D01*
X4535670Y-17626229D01*
X4535670Y-17645276D01*
X4611861Y-17445276D02*
X4735670Y-17445276D01*
X4669004Y-17521467D01*
X4697575Y-17521467D01*
X4716623Y-17530990D01*
X4726146Y-17540514D01*
X4735670Y-17559562D01*
X4735670Y-17607181D01*
X4726146Y-17626229D01*
X4716623Y-17635752D01*
X4697575Y-17645276D01*
X4640432Y-17645276D01*
X4621385Y-17635752D01*
X4611861Y-17626229D01*
X4859480Y-17445276D02*
X4878527Y-17445276D01*
X4897575Y-17454800D01*
X4907099Y-17464324D01*
X4916623Y-17483371D01*
X4926146Y-17521467D01*
X4926146Y-17569086D01*
X4916623Y-17607181D01*
X4907099Y-17626229D01*
X4897575Y-17635752D01*
X4878527Y-17645276D01*
X4859480Y-17645276D01*
X4840432Y-17635752D01*
X4830908Y-17626229D01*
X4821385Y-17607181D01*
X4811861Y-17569086D01*
X4811861Y-17521467D01*
X4821385Y-17483371D01*
X4830908Y-17464324D01*
X4840432Y-17454800D01*
X4859480Y-17445276D01*
X5049956Y-17445276D02*
X5069004Y-17445276D01*
X5088051Y-17454800D01*
X5097575Y-17464324D01*
X5107099Y-17483371D01*
X5116623Y-17521467D01*
X5116623Y-17569086D01*
X5107099Y-17607181D01*
X5097575Y-17626229D01*
X5088051Y-17635752D01*
X5069004Y-17645276D01*
X5049956Y-17645276D01*
X5030908Y-17635752D01*
X5021385Y-17626229D01*
X5011861Y-17607181D01*
X5002337Y-17569086D01*
X5002337Y-17521467D01*
X5011861Y-17483371D01*
X5021385Y-17464324D01*
X5030908Y-17454800D01*
X5049956Y-17445276D01*
X5202337Y-17645276D02*
X5202337Y-17511943D01*
X5202337Y-17530990D02*
X5211861Y-17521467D01*
X5230908Y-17511943D01*
X5259480Y-17511943D01*
X5278527Y-17521467D01*
X5288051Y-17540514D01*
X5288051Y-17645276D01*
X5288051Y-17540514D02*
X5297575Y-17521467D01*
X5316623Y-17511943D01*
X5345194Y-17511943D01*
X5364242Y-17521467D01*
X5373765Y-17540514D01*
X5373765Y-17645276D01*
X5469004Y-17645276D02*
X5469004Y-17511943D01*
X5469004Y-17530990D02*
X5478527Y-17521467D01*
X5497575Y-17511943D01*
X5526146Y-17511943D01*
X5545194Y-17521467D01*
X5554718Y-17540514D01*
X5554718Y-17645276D01*
X5554718Y-17540514D02*
X5564242Y-17521467D01*
X5583289Y-17511943D01*
X5611861Y-17511943D01*
X5630908Y-17521467D01*
X5640432Y-17540514D01*
X5640432Y-17645276D01*
X6030908Y-17435752D02*
X5859480Y-17692895D01*
X6288051Y-17445276D02*
X6307099Y-17445276D01*
X6326146Y-17454800D01*
X6335670Y-17464324D01*
X6345194Y-17483371D01*
X6354718Y-17521467D01*
X6354718Y-17569086D01*
X6345194Y-17607181D01*
X6335670Y-17626229D01*
X6326146Y-17635752D01*
X6307099Y-17645276D01*
X6288051Y-17645276D01*
X6269003Y-17635752D01*
X6259480Y-17626229D01*
X6249956Y-17607181D01*
X6240432Y-17569086D01*
X6240432Y-17521467D01*
X6249956Y-17483371D01*
X6259480Y-17464324D01*
X6269003Y-17454800D01*
X6288051Y-17445276D01*
X6440432Y-17626229D02*
X6449956Y-17635752D01*
X6440432Y-17645276D01*
X6430908Y-17635752D01*
X6440432Y-17626229D01*
X6440432Y-17645276D01*
X6573765Y-17445276D02*
X6592813Y-17445276D01*
X6611861Y-17454800D01*
X6621384Y-17464324D01*
X6630908Y-17483371D01*
X6640432Y-17521467D01*
X6640432Y-17569086D01*
X6630908Y-17607181D01*
X6621384Y-17626229D01*
X6611861Y-17635752D01*
X6592813Y-17645276D01*
X6573765Y-17645276D01*
X6554718Y-17635752D01*
X6545194Y-17626229D01*
X6535670Y-17607181D01*
X6526146Y-17569086D01*
X6526146Y-17521467D01*
X6535670Y-17483371D01*
X6545194Y-17464324D01*
X6554718Y-17454800D01*
X6573765Y-17445276D01*
X6735670Y-17645276D02*
X6773765Y-17645276D01*
X6792813Y-17635752D01*
X6802337Y-17626229D01*
X6821384Y-17597657D01*
X6830908Y-17559562D01*
X6830908Y-17483371D01*
X6821384Y-17464324D01*
X6811861Y-17454800D01*
X6792813Y-17445276D01*
X6754718Y-17445276D01*
X6735670Y-17454800D01*
X6726146Y-17464324D01*
X6716623Y-17483371D01*
X6716623Y-17530990D01*
X6726146Y-17550038D01*
X6735670Y-17559562D01*
X6754718Y-17569086D01*
X6792813Y-17569086D01*
X6811861Y-17559562D01*
X6821384Y-17550038D01*
X6830908Y-17530990D01*
X6954718Y-17445276D02*
X6973765Y-17445276D01*
X6992813Y-17454800D01*
X7002337Y-17464324D01*
X7011861Y-17483371D01*
X7021384Y-17521467D01*
X7021384Y-17569086D01*
X7011861Y-17607181D01*
X7002337Y-17626229D01*
X6992813Y-17635752D01*
X6973765Y-17645276D01*
X6954718Y-17645276D01*
X6935670Y-17635752D01*
X6926146Y-17626229D01*
X6916623Y-17607181D01*
X6907099Y-17569086D01*
X6907099Y-17521467D01*
X6916623Y-17483371D01*
X6926146Y-17464324D01*
X6935670Y-17454800D01*
X6954718Y-17445276D01*
X7192813Y-17445276D02*
X7154718Y-17445276D01*
X7135670Y-17454800D01*
X7126146Y-17464324D01*
X7107099Y-17492895D01*
X7097575Y-17530990D01*
X7097575Y-17607181D01*
X7107099Y-17626229D01*
X7116623Y-17635752D01*
X7135670Y-17645276D01*
X7173765Y-17645276D01*
X7192813Y-17635752D01*
X7202337Y-17626229D01*
X7211861Y-17607181D01*
X7211861Y-17559562D01*
X7202337Y-17540514D01*
X7192813Y-17530990D01*
X7173765Y-17521467D01*
X7135670Y-17521467D01*
X7116623Y-17530990D01*
X7107099Y-17540514D01*
X7097575Y-17559562D01*
X7288051Y-17445276D02*
X7288051Y-17483371D01*
X7364242Y-17445276D02*
X7364242Y-17483371D01*
X7659480Y-17721467D02*
X7649956Y-17711943D01*
X7630908Y-17683371D01*
X7621384Y-17664324D01*
X7611861Y-17635752D01*
X7602337Y-17588133D01*
X7602337Y-17550038D01*
X7611861Y-17502419D01*
X7621384Y-17473848D01*
X7630908Y-17454800D01*
X7649956Y-17426229D01*
X7659480Y-17416705D01*
X7726146Y-17464324D02*
X7735670Y-17454800D01*
X7754718Y-17445276D01*
X7802337Y-17445276D01*
X7821384Y-17454800D01*
X7830908Y-17464324D01*
X7840432Y-17483371D01*
X7840432Y-17502419D01*
X7830908Y-17530990D01*
X7716623Y-17645276D01*
X7840432Y-17645276D01*
X8078527Y-17645276D02*
X8078527Y-17445276D01*
X8164242Y-17645276D02*
X8164242Y-17540514D01*
X8154718Y-17521467D01*
X8135670Y-17511943D01*
X8107099Y-17511943D01*
X8088051Y-17521467D01*
X8078527Y-17530990D01*
X8288051Y-17645276D02*
X8269003Y-17635752D01*
X8259480Y-17626229D01*
X8249956Y-17607181D01*
X8249956Y-17550038D01*
X8259480Y-17530990D01*
X8269003Y-17521467D01*
X8288051Y-17511943D01*
X8316623Y-17511943D01*
X8335670Y-17521467D01*
X8345194Y-17530990D01*
X8354718Y-17550038D01*
X8354718Y-17607181D01*
X8345194Y-17626229D01*
X8335670Y-17635752D01*
X8316623Y-17645276D01*
X8288051Y-17645276D01*
X8469004Y-17645276D02*
X8449956Y-17635752D01*
X8440432Y-17616705D01*
X8440432Y-17445276D01*
X8621385Y-17635752D02*
X8602337Y-17645276D01*
X8564242Y-17645276D01*
X8545194Y-17635752D01*
X8535670Y-17616705D01*
X8535670Y-17540514D01*
X8545194Y-17521467D01*
X8564242Y-17511943D01*
X8602337Y-17511943D01*
X8621385Y-17521467D01*
X8630908Y-17540514D01*
X8630908Y-17559562D01*
X8535670Y-17578610D01*
X8707099Y-17635752D02*
X8726146Y-17645276D01*
X8764242Y-17645276D01*
X8783289Y-17635752D01*
X8792813Y-17616705D01*
X8792813Y-17607181D01*
X8783289Y-17588133D01*
X8764242Y-17578610D01*
X8735670Y-17578610D01*
X8716623Y-17569086D01*
X8707099Y-17550038D01*
X8707099Y-17540514D01*
X8716623Y-17521467D01*
X8735670Y-17511943D01*
X8764242Y-17511943D01*
X8783289Y-17521467D01*
X8859480Y-17721467D02*
X8869004Y-17711943D01*
X8888051Y-17683371D01*
X8897575Y-17664324D01*
X8907099Y-17635752D01*
X8916623Y-17588133D01*
X8916623Y-17550038D01*
X8907099Y-17502419D01*
X8897575Y-17473848D01*
X8888051Y-17454800D01*
X8869004Y-17426229D01*
X8859480Y-17416705D01*
M02*
